<svg height="512pt" viewBox="0 -62 512 512" width="512pt" xmlns="http://www.w3.org/2000/svg"><path d="m129.28125 322.617188h253.441406v58.496093h-253.441406zm0 0" fill="#dad0cd"/><path d="m484.5 334.382812h-457c-11.046875 0-20-8.957031-20-20v-286.882812c0-11.046875 8.953125-20 20-20h457c11.046875 0 20 8.953125 20 20v286.882812c0 11.042969-8.953125 20-20 20zm0 0" fill="#f6cb43"/><path d="m504.5 27.5v286.882812c0 11.046876-8.949219 20-20 20h-31.660156c11.050781 0 20-8.953124 20-20v-286.882812c0-11.050781-8.949219-20-20-20h31.660156c11.050781 0 20 8.949219 20 20zm0 0" fill="#fab03c"/><path d="m504.5 285.359375v29.023437c0 11.046876-8.949219 20-20 20h-457c-11.050781 0-20-8.953124-20-20v-29.023437zm0 0" fill="#6b97af"/><path d="m504.5 285.359375v29.023437c0 11.046876-8.949219 20-20 20h-31.660156c11.050781 0 20-8.953124 20-20v-29.023437zm0 0" fill="#50758e"/><path d="m426.996094 143.640625-16.476563 8.660156c-1.828125.960938-3.964843-.589843-3.617187-2.625l3.148437-18.347656-13.328125-12.992187c-1.480468-1.445313-.664062-3.957032 1.378906-4.253907l18.421876-2.675781 8.238281-16.691406c.914062-1.851563 3.554687-1.851563 4.46875 0l8.238281 16.691406 18.421875 2.675781c2.042969.296875 2.859375 2.808594 1.378906 4.253907l-13.328125 12.992187 3.144532 18.347656c.351562 2.035157-1.785157 3.585938-3.613282 2.625zm0 0" fill="#27bef4"/><path d="m85.003906 143.640625-16.476562 8.660156c-1.828125.960938-3.964844-.589843-3.617188-2.625l3.148438-18.347656-13.328125-12.992187c-1.480469-1.445313-.664063-3.957032 1.378906-4.253907l18.421875-2.675781 8.238281-16.691406c.914063-1.851563 3.554688-1.851563 4.46875 0l8.238281 16.691406 18.421876 2.675781c2.042968.296875 2.859374 2.808594 1.378906 4.253907l-13.328125 12.992187 3.144531 18.347656c.351562 2.035157-1.785156 3.585938-3.613281 2.625zm0 0" fill="#27bef4"/><path d="m7.5 215.476562c4.144531 0 7.5-3.359374 7.5-7.5v-180.476562c0-6.894531 5.605469-12.5 12.5-12.5h365.171875c4.140625 0 7.5-3.359375 7.5-7.5s-3.359375-7.5-7.5-7.5h-365.171875c-15.164062 0-27.5 12.335938-27.5 27.5v180.476562c0 4.140626 3.355469 7.5 7.5 7.5zm0 0"/><path d="m484.5 0h-59.171875c-4.140625 0-7.5 3.359375-7.5 7.5s3.359375 7.5 7.5 7.5h59.171875c6.894531 0 12.5 5.605469 12.5 12.5v250.355469h-482v-37.21875c0-4.140625-3.355469-7.5-7.5-7.5s-7.5 3.359375-7.5 7.5v73.746093c0 15.164063 12.335938 27.5 27.5 27.5h94.277344v31.730469h-16.109375c-4.144531 0-7.5 3.359375-7.5 7.5 0 4.144531 3.355469 7.5 7.5 7.5h300.664062c4.144531 0 7.5-3.355469 7.5-7.5 0-4.140625-3.355469-7.5-7.5-7.5h-16.113281v-31.730469h25.449219c4.144531 0 7.5-3.359374 7.5-7.5 0-4.144531-3.355469-7.5-7.5-7.5h-388.167969c-6.894531 0-12.5-5.609374-12.5-12.5v-21.527343h482v21.527343c0 6.890626-5.605469 12.5-12.5 12.5h-36.171875c-4.140625 0-7.5 3.355469-7.5 7.5 0 4.140626 3.359375 7.5 7.5 7.5h36.171875c15.164062 0 27.5-12.335937 27.5-27.5v-286.882812c0-15.164062-12.335938-27.5-27.5-27.5zm-109.277344 373.613281h-238.445312v-31.730469h238.441406v31.730469zm0 0"/><path d="m255.984375 302.367188c-.011719 0-.023437 0-.039063 0-4.125 0-7.476562 3.335937-7.496093 7.46875-.019531 4.140624 3.320312 7.515624 7.464843 7.53125h.101563.039063c4.125 0 7.476562-3.332032 7.496093-7.464844.019531-4.140625-3.320312-7.515625-7.464843-7.535156zm0 0"/><path d="m201.949219 62.65625c-.476563-7.046875-10.019531-9.496094-13.804688-3.503906l-49.824219 78.507812c-1.464843 2.3125-1.558593 5.234375-.238281 7.632813 1.316407 2.398437 3.835938 3.886719 6.570313 3.886719h42.324218v33.566406c0 4.144531 3.359376 7.5 7.5 7.5 4.144532 0 7.5-3.355469 7.5-7.5v-33.566406h12.128907c4.140625 0 7.5-3.355469 7.5-7.5 0-4.140626-3.359375-7.5-7.5-7.5h-12.128907v-71.007813c-.007812-.171875-.015624-.34375-.027343-.515625zm-43.652344 71.523438 28.679687-45.191407v45.191407zm0 0"/><path d="m355.21875 182.746094v-33.566406h12.128906c4.140625 0 7.5-3.355469 7.5-7.5 0-4.140626-3.359375-7.5-7.5-7.5h-12.128906v-71.007813c0-7.320313-9.914062-10.222656-13.832031-4.019531l-49.820313 78.507812c-1.46875 2.3125-1.558594 5.234375-.242187 7.632813 1.320312 2.398437 3.835937 3.886719 6.574219 3.886719h42.320312v33.566406c0 4.144531 3.359375 7.5 7.5 7.5 4.144531 0 7.5-3.355469 7.5-7.5zm-43.679688-48.566406 28.679688-45.191407v45.191407zm0 0"/><path d="m272.230469 190.246094c8.300781 0 15.050781-6.75 15.050781-15.046875v-104.476563c0-8.300781-6.75-15.050781-15.050781-15.050781h-32.839844c-8.296875 0-15.046875 6.75-15.046875 15.050781v104.476563c0 8.296875 6.75 15.046875 15.046875 15.046875zm-32.835938-119.574219 32.886719.050781-.027344 104.523438c-.003906 0-.011718 0-.019531 0l-32.890625-.046875zm0 0"/><path d="m465.035156 113.464844c-1.183594-3.644532-4.273437-6.25-8.066406-6.800782l-14.519531-2.109374-6.492188-13.160157c-1.695312-3.433593-5.128906-5.570312-8.960937-5.570312-3.832032 0-7.265625 2.136719-8.960938 5.570312l-6.492187 13.160157-14.519531 2.109374c-3.792969.550782-6.882813 3.15625-8.066407 6.800782-1.183593 3.640625-.214843 7.566406 2.527344 10.242187l10.507813 10.238281-2.480469 14.464844c-.648438 3.773438.875 7.519532 3.976562 9.769532 3.097657 2.25 7.132813 2.542968 10.523438.761718l12.984375-6.828125 12.984375 6.828125c1.476562.773438 3.070312 1.15625 4.660156 1.15625 2.0625 0 4.113281-.644531 5.863281-1.917968 3.097656-2.25 4.621094-5.996094 3.976563-9.773438l-2.480469-14.460938 10.503906-10.238281c2.746094-2.675781 3.714844-6.601562 2.53125-10.242187zm-26.328125 12.492187c-1.769531 1.722657-2.574219 4.207031-2.15625 6.636719l1.429688 8.347656-7.496094-3.941406c-1.089844-.574219-2.289063-.859375-3.488281-.859375-1.199219 0-2.398438.285156-3.488282.859375l-7.496093 3.941406 1.429687-8.347656c.417969-2.433594-.386718-4.914062-2.15625-6.636719l-6.0625-5.910156 8.378906-1.21875c2.445313-.355469 4.554688-1.886719 5.648438-4.101563l3.746094-7.59375 3.75 7.59375c1.09375 2.210938 3.203125 3.746094 5.644531 4.101563l8.378906 1.21875zm0 0"/><path d="m123.042969 113.464844c-1.183594-3.644532-4.273438-6.25-8.066407-6.800782l-14.519531-2.109374-6.492187-13.160157c-1.695313-3.433593-5.128906-5.570312-8.960938-5.570312-3.832031 0-7.265625 2.136719-8.960937 5.570312l-6.492188 13.160157-14.519531 2.109374c-3.792969.550782-6.882812 3.15625-8.066406 6.800782-1.183594 3.640625-.214844 7.566406 2.527344 10.242187l10.507812 10.238281-2.480469 14.460938c-.644531 3.777344.878907 7.523438 3.976563 9.773438 3.101562 2.25 7.132812 2.542968 10.523437.757812l12.984375-6.828125 12.988282 6.828125c1.472656.777344 3.070312 1.160156 4.65625 1.160156 2.0625 0 4.113281-.648437 5.863281-1.917968 3.101562-2.25 4.625-5.996094 3.976562-9.773438l-2.480469-14.460938 10.507813-10.242187c2.742187-2.671875 3.710937-6.597656 2.527344-10.238281zm-26.328125 12.492187c-1.769532 1.722657-2.574219 4.207031-2.15625 6.636719l1.429687 8.347656-7.492187-3.941406c-2.183594-1.148438-4.792969-1.148438-6.980469 0l-7.496094 3.941406 1.433594-8.34375c.417969-2.433594-.390625-4.917968-2.15625-6.640625l-6.0625-5.910156 8.378906-1.21875c2.441407-.351563 4.554688-1.886719 5.644531-4.101563l3.75-7.59375 3.746094 7.59375c1.09375 2.214844 3.203125 3.75 5.648438 4.101563l8.378906 1.21875zm0 0"/><path d="m350.859375 226.496094c0-4.140625-3.355469-7.5-7.5-7.5h-174.71875c-4.144531 0-7.5 3.359375-7.5 7.5 0 4.144531 3.355469 7.5 7.5 7.5h174.71875c4.144531 0 7.5-3.355469 7.5-7.5zm0 0"/><path d="m228.640625 240.808594c-4.144531 0-7.5 3.355468-7.5 7.5 0 4.140625 3.355469 7.5 7.5 7.5h54.71875c4.144531 0 7.5-3.359375 7.5-7.5 0-4.144532-3.355469-7.5-7.5-7.5zm0 0"/></svg>