<svg height="511pt" viewBox="0 -9 511.99999 511" width="511pt" xmlns="http://www.w3.org/2000/svg"><path d="m380.085938 104.078125h-324.546876c-26.53125 0-48.039062-21.507813-48.039062-48.039063s21.507812-48.039062 48.039062-48.039062h324.546876c26.53125 0 48.039062 21.507812 48.039062 48.039062s-21.507812 48.039063-48.039062 48.039063zm0 0" fill="#f1eded"/><path d="m428.128906 56.039062c0 13.269532-5.382812 25.285157-14.074218 33.976563-8.695313 8.695313-20.699219 14.0625-33.964844 14.0625h-31.859375c13.265625 0 25.269531-5.367187 33.964843-14.0625 8.691407-8.691406 14.074219-20.707031 14.074219-33.976563 0-26.535156-21.515625-48.039062-48.039062-48.039062h31.859375c26.523437 0 48.039062 21.503906 48.039062 48.039062zm0 0" fill="#dad0cd"/><path d="m70.632812 8h61.441407v96.078125h-61.441407zm0 0" fill="#14f2d7"/><path d="m108.996094 8h23.078125v96.078125h-23.078125zm0 0" fill="#00e2c7"/><path d="m336.515625 56.039062c0 8.484376-6.875 15.359376-15.359375 15.359376s-15.359375-6.875-15.359375-15.359376c0-8.484374 6.875-15.359374 15.359375-15.359374s15.359375 6.875 15.359375 15.359374zm0 0" fill="#14f2d7"/><path d="m380.085938 200.152344h-324.546876c-26.53125 0-48.039062-21.507813-48.039062-48.039063 0-26.527343 21.507812-48.035156 48.039062-48.035156h324.546876c26.53125 0 48.039062 21.507813 48.039062 48.035156 0 26.53125-21.507812 48.039063-48.039062 48.039063zm0 0" fill="#dad0cd"/><path d="m428.128906 152.117188c0 13.265624-5.382812 25.28125-14.074218 33.976562-8.695313 8.691406-20.699219 14.0625-33.964844 14.0625h-31.859375c13.265625 0 25.269531-5.371094 33.964843-14.0625 8.691407-8.695312 14.074219-20.710938 14.074219-33.976562 0-26.535157-21.515625-48.039063-48.039062-48.039063h31.859375c26.523437 0 48.039062 21.503906 48.039062 48.039063zm0 0" fill="#c1bab8"/><path d="m70.632812 104.078125h61.441407v96.074219h-61.441407zm0 0" fill="#00e2c7"/><path d="m108.996094 104.078125h23.078125v96.074219h-23.078125zm0 0" fill="#00c6a9"/><path d="m336.515625 152.113281c0 8.484375-6.875 15.363281-15.359375 15.363281s-15.359375-6.878906-15.359375-15.363281c0-8.480469 6.875-15.359375 15.359375-15.359375s15.359375 6.878906 15.359375 15.359375zm0 0" fill="#00e2c7"/><path d="m380.085938 296.230469h-324.546876c-26.53125 0-48.039062-21.507813-48.039062-48.039063s21.507812-48.039062 48.039062-48.039062h324.546876c26.53125 0 48.039062 21.507812 48.039062 48.039062s-21.507812 48.039063-48.039062 48.039063zm0 0" fill="#f1eded"/><path d="m428.128906 248.191406c0 13.269532-5.382812 25.285156-14.074218 33.976563-8.695313 8.695312-20.699219 14.0625-33.964844 14.0625h-31.859375c13.265625 0 25.269531-5.367188 33.964843-14.0625 8.691407-8.691407 14.074219-20.707031 14.074219-33.976563 0-26.535156-21.515625-48.039062-48.039062-48.039062h31.859375c26.523437 0 48.039062 21.507812 48.039062 48.039062zm0 0" fill="#dad0cd"/><path d="m70.632812 200.152344h61.441407v96.078125h-61.441407zm0 0" fill="#14f2d7"/><path d="m108.996094 200.152344h23.078125v96.078125h-23.078125zm0 0" fill="#00e2c7"/><path d="m336.515625 248.191406c0 8.484375-6.875 15.359375-15.359375 15.359375s-15.359375-6.875-15.359375-15.359375 6.875-15.359375 15.359375-15.359375 15.359375 6.875 15.359375 15.359375zm0 0" fill="#14f2d7"/><path d="m242.699219 416.5c0 13.746094-11.144531 24.886719-24.886719 24.886719s-24.886719-11.140625-24.886719-24.886719c0-13.742188 11.144531-24.882812 24.886719-24.882812s24.886719 11.140624 24.886719 24.882812zm0 0" fill="#50758e"/><path d="m501.15625 332.738281-71.515625-71.515625c-4.441406-4.445312-11.648437-4.445312-16.089844 0l-71.515625 71.515625c-7.167968 7.167969-2.089844 19.421875 8.046875 19.421875h19.460938v121.804688c0 6.285156 5.09375 11.378906 11.378906 11.378906h81.351563c6.28125 0 11.375-5.09375 11.375-11.378906v-121.804688h19.464843c10.136719 0 15.210938-12.253906 8.042969-19.421875zm0 0" fill="#fc6393"/><path d="m344.015625 56.039062c0-12.605468-10.253906-22.859374-22.859375-22.859374s-22.859375 10.253906-22.859375 22.859374c0 12.605469 10.253906 22.859376 22.859375 22.859376s22.859375-10.253907 22.859375-22.859376zm-30.71875 0c0-4.335937 3.523437-7.859374 7.859375-7.859374s7.859375 3.523437 7.859375 7.859374c0 4.332032-3.523437 7.859376-7.859375 7.859376s-7.859375-3.523438-7.859375-7.859376zm0 0"/><path d="m262.21875 49.6875c-4.132812.007812-7.515625 3.328125-7.53125 7.46875-.015625 4.144531 3.328125 7.515625 7.46875 7.53125h.117188.03125c4.128906 0 7.484374-3.335938 7.5-7.46875.019531-4.140625-3.324219-7.511719-7.46875-7.53125zm0 0"/><path d="m233.773438 49.6875c-.011719 0-.023438 0-.03125 0-4.128907 0-7.484376 3.335938-7.5 7.46875-.015626 4.144531 3.328124 7.515625 7.46875 7.53125h.117187.03125c4.128906 0 7.484375-3.335938 7.5-7.46875.019531-4.140625-3.328125-7.511719-7.46875-7.53125zm0 0"/><path d="m205.328125 49.6875c-.011719 0-.023437 0-.03125 0-4.128906 0-7.484375 3.335938-7.5 7.46875-.019531 4.144531 3.324219 7.515625 7.46875 7.53125h.117187.03125c4.128907 0 7.480469-3.335938 7.5-7.46875.015626-4.140625-3.328124-7.511719-7.46875-7.53125zm0 0"/><path d="m321.15625 174.976562c12.605469 0 22.859375-10.257812 22.859375-22.863281s-10.253906-22.859375-22.859375-22.859375-22.859375 10.253906-22.859375 22.859375 10.253906 22.863281 22.859375 22.863281zm0-30.722656c4.335938 0 7.859375 3.527344 7.859375 7.859375 0 4.335938-3.523437 7.863281-7.859375 7.863281s-7.859375-3.527343-7.859375-7.863281c0-4.332031 3.523437-7.859375 7.859375-7.859375zm0 0"/><path d="m262.15625 160.765625h.117188.03125c4.128906 0 7.484374-3.335937 7.5-7.46875.019531-4.144531-3.324219-7.515625-7.46875-7.53125h-.117188c-.011719 0-.019531 0-.03125 0-4.128906 0-7.480469 3.335937-7.5 7.46875-.015625 4.140625 3.328125 7.511719 7.46875 7.53125zm0 0"/><path d="m233.710938 160.765625h.117187.03125c4.128906 0 7.484375-3.335937 7.5-7.46875.019531-4.144531-3.328125-7.515625-7.46875-7.53125h-.117187c-.011719 0-.023438 0-.03125 0-4.128907 0-7.484376 3.335937-7.5 7.46875-.015626 4.140625 3.328124 7.511719 7.46875 7.53125zm0 0"/><path d="m205.265625 160.765625h.117187.03125c4.128907 0 7.484376-3.335937 7.5-7.46875.019532-4.144531-3.324218-7.515625-7.46875-7.53125h-.117187c-.011719 0-.019531 0-.03125 0-4.128906 0-7.484375 3.335937-7.5 7.46875-.019531 4.140625 3.328125 7.511719 7.46875 7.53125zm0 0"/><path d="m344.015625 248.191406c0-12.605468-10.253906-22.859375-22.859375-22.859375s-22.859375 10.253907-22.859375 22.859375c0 12.605469 10.253906 22.859375 22.859375 22.859375s22.859375-10.253906 22.859375-22.859375zm-30.71875 0c0-4.335937 3.523437-7.859375 7.859375-7.859375s7.859375 3.523438 7.859375 7.859375c0 4.335938-3.523437 7.859375-7.859375 7.859375s-7.859375-3.523437-7.859375-7.859375zm0 0"/><path d="m262.304688 256.839844c4.144531 0 7.5-3.359375 7.5-7.5s-3.355469-7.5-7.5-7.5h-.117188c-4.140625 0-7.5 3.359375-7.5 7.5s3.359375 7.5 7.5 7.5zm0 0"/><path d="m233.859375 256.839844c4.144531 0 7.5-3.359375 7.5-7.5s-3.355469-7.5-7.5-7.5h-.117187c-4.140626 0-7.5 3.359375-7.5 7.5s3.359374 7.5 7.5 7.5zm0 0"/><path d="m205.414062 256.839844c4.140626 0 7.5-3.359375 7.5-7.5s-3.359374-7.5-7.5-7.5h-.117187c-4.144531 0-7.5 3.359375-7.5 7.5s3.355469 7.5 7.5 7.5zm0 0"/><path d="m506.460938 327.433594-71.398438-71.398438c.367188-2.589844.5625-5.214844.5625-7.84375 0-20.492187-11.164062-38.414062-27.71875-48.039062 16.554688-9.625 27.71875-27.546875 27.71875-48.039063 0-20.488281-11.164062-38.410156-27.71875-48.035156 16.554688-9.625 27.71875-27.546875 27.71875-48.039063 0-30.625-24.914062-55.539062-55.539062-55.539062h-80.746094c-4.144532 0-7.5 3.359375-7.5 7.5s3.355468 7.5 7.5 7.5h80.746094c22.351562 0 40.539062 18.1875 40.539062 40.539062 0 22.351563-18.1875 40.539063-40.539062 40.539063h-240.511719v-81.078125h127.101562c4.144531 0 7.5-3.355469 7.5-7.5 0-4.140625-3.355469-7.5-7.5-7.5h-211.136719c-30.625 0-55.539062 24.914062-55.539062 55.539062 0 20.492188 11.164062 38.414063 27.71875 48.039063-16.554688 9.625-27.71875 27.546875-27.71875 48.035156 0 20.492188 11.164062 38.414063 27.71875 48.039063-16.554688 9.625-27.71875 27.546875-27.71875 48.039062 0 30.625 24.914062 55.539063 55.539062 55.539063h97.136719c4.140625 0 7.5-3.359375 7.5-7.5 0-4.144531-3.359375-7.5-7.5-7.5h-13.101562v-81.078125h240.511719c22.351562 0 40.539062 18.1875 40.539062 40.539062 0 .75-.027344 1.5-.066406 2.246094-4.652344.253906-8.992188 2.160156-12.3125 5.480469l-32.8125 32.8125h-190.097656c-4.140626 0-7.5 3.355469-7.5 7.5 0 4.140625 3.359374 7.5 7.5 7.5h175.101562l-23.707031 23.703125c-5.417969 5.417968-7.023438 13.496094-4.089844 20.574218 2.929687 7.082032 9.777344 11.65625 17.441406 11.65625h11.960938v49.335938h-112.730469c-2.824219-11.855469-12.183594-21.203125-24.046875-24.007812.027344-.269532.046875-.542969.046875-.820313v-51.945313c0-4.140624-3.359375-7.5-7.5-7.5s-7.5 3.359376-7.5 7.5v51.945313c0 .277344.015625.550781.046875.820313-11.863281 2.804687-21.222656 12.152343-24.046875 24.007812h-172.742188c-4.140624 0-7.5 3.359375-7.5 7.5 0 4.144531 3.359376 7.5 7.5 7.5h172.742188c3.394531 14.253906 16.226562 24.886719 31.5 24.886719 15.277344 0 28.105469-10.632813 31.5-24.886719h112.730469v49.964844c0 10.410156 8.46875 18.878906 18.878906 18.878906h81.351563c10.410156 0 18.875-8.46875 18.875-18.878906v-114.300782h11.964843c7.664063 0 14.507813-4.574218 17.441407-11.65625 2.929687-7.078124 1.324218-15.15625-4.09375-20.574218zm-85.835938-175.320313c0 22.355469-18.1875 40.539063-40.539062 40.539063h-240.511719v-20.984375c0-4.140625-3.359375-7.5-7.5-7.5-4.144531 0-7.503907 3.359375-7.503907 7.5v20.984375h-46.4375v-81.074219h46.4375v25.175781c0 4.144532 3.359376 7.5 7.503907 7.5 4.140625 0 7.5-3.355468 7.5-7.5v-25.175781h240.511719c22.351562 0 40.539062 18.183594 40.539062 40.535156zm-296.054688-55.535156h-46.4375v-81.078125h46.4375zm-109.570312-40.539063c0-22.351562 18.1875-40.539062 40.539062-40.539062h7.59375v81.078125h-7.59375c-22.351562 0-40.539062-18.1875-40.539062-40.539063zm0 96.074219c0-22.351562 18.1875-40.535156 40.539062-40.535156h7.59375v81.074219h-7.59375c-22.351562 0-40.539062-18.183594-40.539062-40.539063zm0 96.078125c0-22.351562 18.1875-40.539062 40.539062-40.539062h7.59375v81.078125h-7.59375c-22.351562 0-40.539062-18.1875-40.539062-40.539063zm63.132812 40.539063v-81.078125h46.4375v81.078125zm139.679688 145.15625c-9.585938 0-17.386719-7.800781-17.386719-17.386719s7.800781-17.382812 17.386719-17.382812 17.386719 7.796874 17.386719 17.382812-7.800781 17.386719-17.386719 17.386719zm278.882812-91.617188c-.296874.71875-1.246093 2.390625-3.582031 2.390625h-19.464843c-4.140626 0-7.5 3.359375-7.5 7.5v121.804688c0 2.136718-1.738282 3.878906-3.878907 3.878906h-81.347656c-2.136719 0-3.878906-1.742188-3.878906-3.878906v-121.804688c0-4.140625-3.359375-7.5-7.5-7.5h-19.464844c-2.335937 0-3.285156-1.671875-3.582031-2.390625-.296875-.722656-.8125-2.574219.839844-4.230469l71.519531-71.515624c.753906-.753907 1.746093-1.132813 2.742187-1.132813.992188 0 1.984375.378906 2.738282 1.132813l71.519531 71.515624c1.652343 1.65625 1.136719 3.507813.839843 4.230469zm0 0"/><path d="m444.730469 449.925781h-46.269531c-4.144532 0-7.5 3.359375-7.5 7.5s3.355468 7.5 7.5 7.5h46.269531c4.144531 0 7.503906-3.359375 7.503906-7.5s-3.359375-7.5-7.503906-7.5zm0 0"/></svg>