<svg height="511pt" viewBox="0 -9 511.99999 511" width="511pt" xmlns="http://www.w3.org/2000/svg"><path d="m380.085938 104.078125h-324.546876c-26.53125 0-48.039062-21.507813-48.039062-48.039063s21.507812-48.039062 48.039062-48.039062h324.546876c26.53125 0 48.039062 21.507812 48.039062 48.039062s-21.507812 48.039063-48.039062 48.039063zm0 0" fill="#f1eded"/><path d="m428.128906 56.039062c0 13.269532-5.382812 25.285157-14.074218 33.976563-8.695313 8.695313-20.699219 14.0625-33.964844 14.0625h-31.859375c13.265625 0 25.269531-5.367187 33.964843-14.0625 8.691407-8.691406 14.074219-20.707031 14.074219-33.976563 0-26.535156-21.515625-48.039062-48.039062-48.039062h31.859375c26.523437 0 48.039062 21.507812 48.039062 48.039062zm0 0" fill="#dad0cd"/><path d="m70.632812 8h61.441407v96.078125h-61.441407zm0 0" fill="#27bef4"/><path d="m108.996094 8h23.078125v96.078125h-23.078125zm0 0" fill="#209ced"/><path d="m336.515625 56.039062c0 8.484376-6.875 15.359376-15.359375 15.359376s-15.359375-6.875-15.359375-15.359376c0-8.484374 6.875-15.359374 15.359375-15.359374s15.359375 6.875 15.359375 15.359374zm0 0" fill="#27bef4"/><path d="m380.085938 200.152344h-324.546876c-26.53125 0-48.039062-21.503906-48.039062-48.035156s21.507812-48.039063 48.039062-48.039063h324.546876c26.53125 0 48.039062 21.507813 48.039062 48.039063s-21.507812 48.035156-48.039062 48.035156zm0 0" fill="#dad0cd"/><path d="m428.128906 152.117188c0 13.265624-5.382812 25.28125-14.074218 33.976562-8.695313 8.691406-20.699219 14.0625-33.964844 14.0625h-31.859375c13.265625 0 25.269531-5.371094 33.964843-14.0625 8.691407-8.695312 14.074219-20.710938 14.074219-33.976562 0-26.535157-21.515625-48.039063-48.039062-48.039063h31.859375c26.523437 0 48.039062 21.503906 48.039062 48.039063zm0 0" fill="#c1bab8"/><path d="m70.632812 104.078125h61.441407v96.074219h-61.441407zm0 0" fill="#209ced"/><path d="m108.996094 104.078125h23.078125v96.074219h-23.078125zm0 0" fill="#197ae5"/><path d="m336.515625 152.117188c0 8.480468-6.875 15.359374-15.359375 15.359374s-15.359375-6.878906-15.359375-15.359374c0-8.484376 6.875-15.363282 15.359375-15.363282s15.359375 6.878906 15.359375 15.363282zm0 0" fill="#209ced"/><path d="m380.085938 296.230469h-324.546876c-26.53125 0-48.039062-21.507813-48.039062-48.039063s21.507812-48.039062 48.039062-48.039062h324.546876c26.53125 0 48.039062 21.507812 48.039062 48.039062s-21.507812 48.039063-48.039062 48.039063zm0 0" fill="#f1eded"/><path d="m428.128906 248.191406c0 13.269532-5.382812 25.285156-14.074218 33.976563-8.695313 8.695312-20.699219 14.066406-33.964844 14.066406h-31.859375c13.265625 0 25.269531-5.371094 33.964843-14.066406 8.691407-8.691407 14.074219-20.707031 14.074219-33.976563 0-26.53125-21.515625-48.039062-48.039062-48.039062h31.859375c26.523437 0 48.039062 21.507812 48.039062 48.039062zm0 0" fill="#dad0cd"/><path d="m70.632812 200.152344h61.441407v96.078125h-61.441407zm0 0" fill="#27bef4"/><path d="m108.996094 200.152344h23.078125v96.078125h-23.078125zm0 0" fill="#209ced"/><path d="m336.515625 248.191406c0 8.484375-6.875 15.359375-15.359375 15.359375s-15.359375-6.875-15.359375-15.359375 6.875-15.359375 15.359375-15.359375 15.359375 6.875 15.359375 15.359375zm0 0" fill="#27bef4"/><path d="m242.699219 416.503906c0 13.742188-11.144531 24.882813-24.886719 24.882813s-24.886719-11.140625-24.886719-24.882813c0-13.746094 11.144531-24.886718 24.886719-24.886718s24.886719 11.140624 24.886719 24.886718zm0 0" fill="#50758e"/><path d="m342.035156 410.496094 71.515625 71.515625c4.441407 4.441406 11.648438 4.441406 16.089844 0l71.515625-71.515625c7.167969-7.167969 2.089844-19.425782-8.046875-19.425782h-19.460937v-121.800781c0-6.285156-5.09375-11.378906-11.378907-11.378906h-81.351562c-6.28125 0-11.375 5.09375-11.375 11.378906v121.800781h-19.464844c-10.136719 0-15.210937 12.257813-8.042969 19.425782zm0 0" fill="#27bef4"/><path d="m321.15625 78.902344c12.605469 0 22.859375-10.257813 22.859375-22.863282 0-12.605468-10.253906-22.859374-22.859375-22.859374s-22.859375 10.253906-22.859375 22.859374c0 12.605469 10.253906 22.863282 22.859375 22.863282zm0-30.722656c4.335938 0 7.859375 3.523437 7.859375 7.859374 0 4.332032-3.523437 7.859376-7.859375 7.859376s-7.859375-3.523438-7.859375-7.859376c0-4.332031 3.523437-7.859374 7.859375-7.859374zm0 0"/><path d="m262.15625 64.6875h.117188.03125c4.128906 0 7.484374-3.335938 7.5-7.46875.019531-4.140625-3.324219-7.511719-7.46875-7.53125h-.117188c-.011719 0-.019531 0-.03125 0-4.128906 0-7.480469 3.335938-7.5 7.46875-.015625 4.144531 3.328125 7.515625 7.46875 7.53125zm0 0"/><path d="m233.710938 64.6875h.117187.03125c4.128906 0 7.484375-3.335938 7.5-7.46875.019531-4.140625-3.328125-7.511719-7.46875-7.53125h-.117187c-.011719 0-.023438 0-.03125 0-4.128907 0-7.484376 3.335938-7.5 7.46875-.015626 4.144531 3.324218 7.515625 7.46875 7.53125zm0 0"/><path d="m205.265625 64.6875h.117187.03125c4.128907 0 7.484376-3.335938 7.5-7.46875.019532-4.140625-3.324218-7.511719-7.46875-7.53125h-.117187c-.011719 0-.019531 0-.03125 0-4.128906 0-7.484375 3.335938-7.5 7.46875-.019531 4.144531 3.328125 7.515625 7.46875 7.53125zm0 0"/><path d="m321.15625 174.976562c12.605469 0 22.859375-10.253906 22.859375-22.859374 0-12.605469-10.253906-22.863282-22.859375-22.863282s-22.859375 10.257813-22.859375 22.863282c0 12.605468 10.253906 22.859374 22.859375 22.859374zm0-30.722656c4.335938 0 7.859375 3.527344 7.859375 7.859375 0 4.335938-3.523437 7.863281-7.859375 7.863281s-7.859375-3.527343-7.859375-7.863281c0-4.332031 3.523437-7.859375 7.859375-7.859375zm0 0"/><path d="m262.15625 160.765625h.117188.03125c4.128906 0 7.484374-3.335937 7.5-7.46875.019531-4.144531-3.324219-7.515625-7.46875-7.53125h-.117188c-.011719 0-.019531 0-.03125 0-4.128906 0-7.480469 3.335937-7.5 7.46875-.015625 4.140625 3.328125 7.515625 7.46875 7.53125zm0 0"/><path d="m233.710938 160.765625h.117187.03125c4.128906 0 7.484375-3.335937 7.5-7.46875.019531-4.144531-3.328125-7.515625-7.46875-7.53125h-.117187c-.011719 0-.023438 0-.03125 0-4.128907 0-7.484376 3.335937-7.5 7.46875-.015626 4.140625 3.324218 7.515625 7.46875 7.53125zm0 0"/><path d="m205.265625 160.765625h.117187.03125c4.128907 0 7.484376-3.335937 7.5-7.46875.019532-4.144531-3.324218-7.515625-7.46875-7.53125h-.117187c-.011719 0-.019531 0-.03125 0-4.128906 0-7.484375 3.335937-7.5 7.46875-.019531 4.140625 3.328125 7.515625 7.46875 7.53125zm0 0"/><path d="m344.015625 248.191406c0-12.605468-10.253906-22.859375-22.859375-22.859375s-22.859375 10.253907-22.859375 22.859375c0 12.605469 10.253906 22.859375 22.859375 22.859375s22.859375-10.253906 22.859375-22.859375zm-30.71875 0c0-4.335937 3.523437-7.859375 7.859375-7.859375s7.859375 3.523438 7.859375 7.859375c0 4.335938-3.523437 7.859375-7.859375 7.859375s-7.859375-3.523437-7.859375-7.859375zm0 0"/><path d="m262.304688 256.839844c4.144531 0 7.5-3.355469 7.5-7.5 0-4.140625-3.355469-7.5-7.5-7.5h-.117188c-4.140625 0-7.5 3.359375-7.5 7.5 0 4.144531 3.359375 7.5 7.5 7.5zm0 0"/><path d="m233.859375 256.839844c4.144531 0 7.5-3.355469 7.5-7.5 0-4.140625-3.355469-7.5-7.5-7.5h-.117187c-4.140626 0-7.5 3.359375-7.5 7.5 0 4.144531 3.359374 7.5 7.5 7.5zm0 0"/><path d="m205.414062 256.839844c4.140626 0 7.5-3.355469 7.5-7.5 0-4.140625-3.359374-7.5-7.5-7.5h-.117187c-4.144531 0-7.5 3.359375-7.5 7.5 0 4.144531 3.355469 7.5 7.5 7.5zm0 0"/><path d="m510.554688 395.226562c-2.933594-7.082031-9.78125-11.65625-17.441407-11.65625h-11.964843v-35.566406c0-4.140625-3.355469-7.5-7.5-7.5-4.140626 0-7.5 3.359375-7.5 7.5v43.066406c0 4.144532 3.359374 7.5 7.5 7.5h19.464843c2.339844 0 3.285157 1.675782 3.582031 2.394532.296876.71875.8125 2.574218-.839843 4.226562l-24.117188 24.117188c-2.929687 2.929687-2.929687 7.675781 0 10.605468 1.464844 1.464844 3.382813 2.195313 5.304688 2.195313 1.917969 0 3.835937-.730469 5.300781-2.195313l24.117188-24.117187c5.417968-5.417969 7.023437-13.492187 4.09375-20.570313zm0 0"/><path d="m466.148438 315.34375c0 4.140625 3.359374 7.5 7.5 7.5 4.144531 0 7.5-3.359375 7.5-7.5v-46.074219c0-10.410156-8.46875-18.878906-18.878907-18.878906h-26.6875c.027344-.734375.042969-1.464844.042969-2.199219 0-20.492187-11.164062-38.414062-27.71875-48.039062 16.554688-9.625 27.71875-27.546875 27.71875-48.039063 0-20.488281-11.164062-38.410156-27.71875-48.035156 16.554688-9.625 27.71875-27.546875 27.71875-48.039063 0-30.625-24.914062-55.539062-55.539062-55.539062h-324.546876c-30.625 0-55.539062 24.914062-55.539062 55.539062 0 20.492188 11.164062 38.414063 27.71875 48.039063-16.554688 9.625-27.71875 27.546875-27.71875 48.039063 0 20.488281 11.164062 38.410156 27.71875 48.035156-16.554688 9.625-27.71875 27.546875-27.71875 48.039062 0 30.625 24.914062 55.539063 55.539062 55.539063h113.136719c4.140625 0 7.5-3.359375 7.5-7.5 0-4.144531-3.359375-7.5-7.5-7.5h-29.101562v-81.078125h240.511719c22.351562 0 40.539062 18.1875 40.539062 40.539062 0 .734375-.027344 1.464844-.066406 2.199219h-39.636719c-10.410156 0-18.878906 8.46875-18.878906 18.878906v19.460938h-160.707031c-4.140626 0-7.5 3.355469-7.5 7.5 0 4.140625 3.359374 7.5 7.5 7.5h160.707031v79.839843h-11.964844c-7.660156 0-14.507813 4.574219-17.441406 11.652344-1.863281 4.503906-1.886719 9.410156-.265625 13.777344h-83.058594c-2.824219-11.855469-12.183594-21.203125-24.046875-24.007812.027344-.269532.046875-.542969.046875-.820313v-51.945313c0-4.140624-3.359375-7.5-7.5-7.5s-7.5 3.359376-7.5 7.5v51.945313c0 .277344.015625.550781.046875.820313-11.863281 2.804687-21.222656 12.152343-24.046875 24.007812h-172.742188c-4.140624 0-7.5 3.359375-7.5 7.5 0 4.144531 3.359376 7.5 7.5 7.5h172.742188c3.394531 14.253906 16.226562 24.886719 31.5 24.886719 15.277344 0 28.105469-10.632813 31.5-24.886719h95.625l63.3125 63.3125c3.679688 3.679688 8.511719 5.523438 13.347656 5.523438 4.835938 0 9.667969-1.839844 13.347656-5.523438l24.304688-24.304688c2.929688-2.929687 2.929688-7.675781 0-10.605468-2.925781-2.929688-7.675781-2.929688-10.605469 0l-24.304687 24.304687c-1.511719 1.511719-3.972656 1.511719-5.484375 0l-71.515625-71.515625c-1.652344-1.652344-1.136719-3.507812-.839844-4.226562s1.242188-2.394532 3.582031-2.394532h19.464844c4.140625 0 7.5-3.359374 7.5-7.5v-121.800781c0-2.140625 1.738281-3.878906 3.878906-3.878906h81.347657c2.140624 0 3.878906 1.738281 3.878906 3.878906v46.074219zm-45.523438-163.226562c0 22.351562-18.1875 40.535156-40.539062 40.535156h-240.511719v-81.074219h240.511719c22.351562 0 40.539062 18.183594 40.539062 40.539063zm-296.054688-55.539063h-46.4375v-81.078125h46.4375zm-46.4375 15h46.4375v81.074219h-46.4375zm342.492188-55.539063c0 22.351563-18.1875 40.539063-40.539062 40.539063h-240.511719v-81.078125h240.511719c22.351562 0 40.539062 18.1875 40.539062 40.539062zm-405.625 0c0-22.351562 18.1875-40.539062 40.539062-40.539062h7.59375v81.078125h-7.59375c-22.351562 0-40.539062-18.1875-40.539062-40.539063zm0 96.078126c0-22.355469 18.1875-40.539063 40.539062-40.539063h7.59375v81.074219h-7.59375c-22.351562 0-40.539062-18.183594-40.539062-40.535156zm0 96.074218c0-22.351562 18.1875-40.539062 40.539062-40.539062h7.59375v81.078125h-7.59375c-22.351562 0-40.539062-18.1875-40.539062-40.539063zm63.132812 40.539063v-81.078125h46.4375v81.078125zm139.679688 145.15625c-9.585938 0-17.386719-7.800781-17.386719-17.386719s7.800781-17.382812 17.386719-17.382812 17.386719 7.796874 17.386719 17.382812-7.800781 17.386719-17.386719 17.386719zm0 0"/><path d="m398.460938 278.308594c-4.144532 0-7.5 3.355468-7.5 7.5 0 4.140625 3.355468 7.5 7.5 7.5h46.269531c4.144531 0 7.503906-3.359375 7.503906-7.5 0-4.144532-3.359375-7.5-7.503906-7.5zm0 0"/></svg>