<svg height="512pt" viewBox="0 -106 512 512" width="512pt" xmlns="http://www.w3.org/2000/svg"><path d="m207.132812 189.925781h-169.230468c-16.789063 0-30.402344-13.613281-30.402344-30.40625 0-16.789062 13.613281-30.402343 30.402344-30.402343h169.230468c16.789063 0 30.402344 13.613281 30.402344 30.402343 0 16.792969-13.613281 30.40625-30.402344 30.40625zm0 0" fill="#f1eded"/><path d="m237.539062 159.523438c0 8.394531-3.40625 16-8.910156 21.503906-5.5 5.5-13.097656 8.898437-21.496094 8.898437h-20.164062c8.398438 0 15.996094-3.398437 21.496094-8.898437 5.503906-5.503906 8.910156-13.109375 8.910156-21.503906 0-16.796876-13.617188-30.40625-30.40625-30.40625h20.164062c16.789063 0 30.40625 13.609374 30.40625 30.40625zm0 0" fill="#dad0cd"/><path d="m47.457031 129.117188h38.886719v60.808593h-38.886719zm0 0" fill="#27bef4"/><path d="m71.742188 129.117188h14.601562v60.808593h-14.601562zm0 0" fill="#209ced"/><path d="m197.648438 159.519531c0 5.371094-4.351563 9.722657-9.722657 9.722657-5.367187 0-9.722656-4.351563-9.722656-9.722657 0-5.367187 4.355469-9.71875 9.722656-9.71875 5.371094 0 9.722657 4.351563 9.722657 9.71875zm0 0" fill="#27bef4"/><path d="m207.132812 129.117188h-169.230468c-16.789063 0-30.402344-13.613282-30.402344-30.40625 0-16.789063 13.613281-30.402344 30.402344-30.402344h169.230468c16.789063 0 30.402344 13.613281 30.402344 30.402344 0 16.792968-13.613281 30.40625-30.402344 30.40625zm0 0" fill="#dad0cd"/><path d="m237.539062 98.714844c0 8.394531-3.40625 16-8.910156 21.503906-5.5 5.5-13.097656 8.898438-21.496094 8.898438h-20.164062c8.398438 0 15.996094-3.398438 21.496094-8.898438 5.503906-5.503906 8.910156-13.109375 8.910156-21.503906 0-16.796875-13.617188-30.40625-30.40625-30.40625h20.164062c16.789063 0 30.40625 13.609375 30.40625 30.40625zm0 0" fill="#c1bab8"/><path d="m47.457031 68.308594h38.886719v60.808594h-38.886719zm0 0" fill="#209ced"/><path d="m71.742188 68.308594h14.601562v60.808594h-14.601562zm0 0" fill="#197ae5"/><path d="m197.648438 98.710938c0 5.371093-4.351563 9.722656-9.722657 9.722656-5.367187 0-9.722656-4.351563-9.722656-9.722656 0-5.367188 4.355469-9.71875 9.722656-9.71875 5.371094 0 9.722657 4.351562 9.722657 9.71875zm0 0" fill="#209ced"/><path d="m207.132812 68.308594h-169.230468c-16.789063 0-30.402344-13.613282-30.402344-30.40625 0-16.789063 13.613281-30.402344 30.402344-30.402344h169.230468c16.789063 0 30.402344 13.613281 30.402344 30.402344 0 16.792968-13.613281 30.40625-30.402344 30.40625zm0 0" fill="#f1eded"/><path d="m237.539062 37.90625c0 8.394531-3.40625 16-8.910156 21.503906-5.5 5.5-13.097656 8.898438-21.496094 8.898438h-20.164062c8.398438 0 15.996094-3.398438 21.496094-8.898438 5.503906-5.503906 8.910156-13.109375 8.910156-21.503906 0-16.796875-13.617188-30.40625-30.40625-30.40625h20.164062c16.789063 0 30.40625 13.609375 30.40625 30.40625zm0 0" fill="#dad0cd"/><path d="m47.457031 7.5h38.886719v60.808594h-38.886719zm0 0" fill="#27bef4"/><path d="m71.742188 7.5h14.601562v60.808594h-14.601562zm0 0" fill="#209ced"/><path d="m197.648438 37.902344c0 5.371094-4.351563 9.722656-9.722657 9.722656-5.367187 0-9.722656-4.351562-9.722656-9.722656 0-5.367188 4.355469-9.71875 9.722656-9.71875 5.371094 0 9.722657 4.351562 9.722657 9.71875zm0 0" fill="#27bef4"/><path d="m138.269531 276.75c0 8.695312-7.050781 15.75-15.75 15.75s-15.75-7.054688-15.75-15.75c0-8.699219 7.050781-15.753906 15.75-15.753906s15.75 7.054687 15.75 15.753906zm0 0" fill="#50758e"/><path d="m474.097656 68.308594h-169.226562c-16.792969 0-30.40625-13.613282-30.40625-30.40625 0-16.789063 13.613281-30.402344 30.40625-30.402344h169.226562c16.789063 0 30.402344 13.613281 30.402344 30.402344 0 16.792968-13.613281 30.40625-30.402344 30.40625zm0 0" fill="#6b97af"/><path d="m504.503906 37.90625c0 8.394531-3.40625 16-8.90625 21.503906-5.503906 5.5-13.101562 8.898438-21.5 8.898438h-20.164062c8.398437 0 15.996094-3.398438 21.5-8.898438 5.5-5.503906 8.90625-13.109375 8.90625-21.503906 0-16.796875-13.617188-30.40625-30.40625-30.40625h20.164062c16.789063 0 30.40625 13.609375 30.40625 30.40625zm0 0" fill="#50758e"/><path d="m314.421875 7.5h38.886719v60.808594h-38.886719zm0 0" fill="#ff97bd"/><path d="m338.703125 7.5h14.605469v60.808594h-14.605469zm0 0" fill="#fc6393"/><path d="m464.613281 37.902344c0 5.371094-4.351562 9.722656-9.722656 9.722656-5.367187 0-9.722656-4.351562-9.722656-9.722656 0-5.367188 4.355469-9.71875 9.722656-9.71875 5.371094 0 9.722656 4.351562 9.722656 9.71875zm0 0" fill="#fc6393"/><path d="m474.097656 129.117188h-169.226562c-16.792969 0-30.40625-13.613282-30.40625-30.40625 0-16.789063 13.613281-30.402344 30.40625-30.402344h169.226562c16.789063 0 30.402344 13.613281 30.402344 30.402344 0 16.792968-13.613281 30.40625-30.402344 30.40625zm0 0" fill="#50758e"/><path d="m504.503906 98.714844c0 8.394531-3.40625 16-8.90625 21.503906-5.503906 5.5-13.101562 8.898438-21.5 8.898438h-20.164062c8.398437 0 15.996094-3.398438 21.5-8.898438 5.5-5.503906 8.90625-13.109375 8.90625-21.503906 0-16.796875-13.617188-30.40625-30.40625-30.40625h20.164062c16.789063 0 30.40625 13.609375 30.40625 30.40625zm0 0" fill="#2b597f"/><path d="m314.421875 68.308594h38.886719v60.808594h-38.886719zm0 0" fill="#fc6393"/><path d="m338.703125 68.308594h14.605469v60.808594h-14.605469zm0 0" fill="#f2256f"/><path d="m464.613281 98.710938c0 5.371093-4.351562 9.722656-9.722656 9.722656-5.367187 0-9.722656-4.351563-9.722656-9.722656 0-5.367188 4.355469-9.71875 9.722656-9.71875 5.371094 0 9.722656 4.351562 9.722656 9.71875zm0 0" fill="#f2256f"/><path d="m474.097656 189.925781h-169.226562c-16.792969 0-30.40625-13.613281-30.40625-30.40625 0-16.789062 13.613281-30.402343 30.40625-30.402343h169.226562c16.789063 0 30.402344 13.613281 30.402344 30.402343 0 16.792969-13.613281 30.40625-30.402344 30.40625zm0 0" fill="#6b97af"/><path d="m504.503906 159.523438c0 8.394531-3.40625 16-8.90625 21.503906-5.503906 5.5-13.101562 8.898437-21.5 8.898437h-20.164062c8.398437 0 15.996094-3.398437 21.5-8.898437 5.5-5.503906 8.90625-13.109375 8.90625-21.503906 0-16.796876-13.617188-30.40625-30.40625-30.40625h20.164062c16.789063 0 30.40625 13.609374 30.40625 30.40625zm0 0" fill="#50758e"/><path d="m314.421875 129.117188h38.886719v60.808593h-38.886719zm0 0" fill="#ff97bd"/><path d="m338.703125 129.117188h14.605469v60.808593h-14.605469zm0 0" fill="#fc6393"/><path d="m464.613281 159.519531c0 5.371094-4.351562 9.722657-9.722656 9.722657-5.367187 0-9.722656-4.351563-9.722656-9.722657 0-5.367187 4.355469-9.71875 9.722656-9.71875 5.371094 0 9.722656 4.351563 9.722656 9.71875zm0 0" fill="#fc6393"/><path d="m405.234375 276.75c0 8.695312-7.050781 15.75-15.75 15.75s-15.75-7.054688-15.75-15.75c0-8.699219 7.050781-15.753906 15.75-15.753906s15.75 7.054687 15.75 15.753906zm0 0" fill="#50758e"/><path d="m504.5 269.25h-93.015625c-2.320313-6.796875-7.707031-12.179688-14.5-14.503906v-31.335938c0-4.144531-3.355469-7.5-7.5-7.5s-7.5 3.355469-7.5 7.5v31.335938c-6.796875 2.324218-12.179687 7.707031-14.503906 14.503906h-44.914063c-4.144531 0-7.5 3.355469-7.5 7.5 0 4.140625 3.355469 7.5 7.5 7.5h44.914063c3.128906 9.148438 11.804687 15.75 22.003906 15.75 10.195313 0 18.875-6.601562 22-15.75h93.015625c4.144531 0 7.5-3.359375 7.5-7.5 0-4.144531-3.355469-7.5-7.5-7.5zm-115.015625 15.75c-4.550781 0-8.25-3.703125-8.25-8.25 0-4.550781 3.699219-8.25 8.25-8.25 4.546875 0 8.25 3.699219 8.25 8.25 0 4.546875-3.703125 8.25-8.25 8.25zm0 0"/><path d="m189.441406 269.25h-44.917968c-2.324219-6.796875-7.707032-12.179688-14.503907-14.503906v-31.335938c0-4.144531-3.359375-7.5-7.5-7.5s-7.5 3.355469-7.5 7.5v31.335938c-6.792969 2.324218-12.179687 7.707031-14.5 14.503906h-93.019531c-4.140625 0-7.5 3.355469-7.5 7.5 0 4.140625 3.359375 7.5 7.5 7.5h93.015625c3.128906 9.148438 11.808594 15.75 22.003906 15.75 10.195313 0 18.875-6.601562 22-15.75h44.917969c4.144531 0 7.5-3.359375 7.5-7.5 0-4.144531-3.355469-7.5-7.496094-7.5zm-66.921875 15.75c-4.546875 0-8.25-3.703125-8.25-8.25 0-4.550781 3.703125-8.25 8.25-8.25 4.550781 0 8.25 3.699219 8.25 8.25 0 4.546875-3.699219 8.25-8.25 8.25zm0 0"/><path d="m187.925781 176.746094c9.496094 0 17.222657-7.726563 17.222657-17.222656 0-9.496094-7.726563-17.222657-17.222657-17.222657-9.496093 0-17.222656 7.726563-17.222656 17.222657 0 9.496093 7.726563 17.222656 17.222656 17.222656zm0-19.445313c1.226563 0 2.222657.996094 2.222657 2.21875 0 1.226563-.996094 2.222657-2.222657 2.222657-1.222656 0-2.222656-.996094-2.222656-2.222657 0-1.222656 1-2.21875 2.222656-2.21875zm0 0"/><path d="m150.628906 167.75h.050782c4.121093 0 7.472656-3.328125 7.5-7.453125.027343-4.140625-3.308594-7.519531-7.453126-7.546875h-.074218c-.015625 0-.03125 0-.050782 0-4.117187 0-7.433593 3.324219-7.460937 7.449219-.027344 4.144531 3.347656 7.523437 7.488281 7.550781zm0 0"/><path d="m132.625 167.75h.050781c4.117188 0 7.472657-3.328125 7.5-7.453125.023438-4.140625-3.3125-7.519531-7.453125-7.546875h-.074218c-.015626 0-.035157 0-.050782 0-4.117187 0-7.433594 3.324219-7.460937 7.449219-.027344 4.140625 3.347656 7.523437 7.488281 7.550781zm0 0"/><path d="m114.71875 152.75h-.074219c-.015625 0-.03125 0-.046875 0-4.121094 0-7.4375 3.324219-7.464844 7.449219-.027343 4.144531 3.347657 7.523437 7.488282 7.550781h.050781c4.117187 0 7.472656-3.324219 7.5-7.449219.023437-4.144531-3.308594-7.523437-7.453125-7.550781zm0 0"/><path d="m187.925781 115.933594c9.496094 0 17.222657-7.726563 17.222657-17.222656 0-9.496094-7.726563-17.21875-17.222657-17.21875-9.496093 0-17.222656 7.722656-17.222656 17.21875 0 9.496093 7.726563 17.222656 17.222656 17.222656zm0-19.441406c1.226563 0 2.222657.996093 2.222657 2.21875 0 1.226562-.996094 2.222656-2.222657 2.222656-1.222656 0-2.222656-.996094-2.222656-2.222656 0-1.222657 1-2.21875 2.222656-2.21875zm0 0"/><path d="m150.628906 106.941406h.050782c4.121093 0 7.472656-3.328125 7.5-7.453125.027343-4.140625-3.308594-7.519531-7.453126-7.546875h-.074218c-.015625 0-.03125 0-.050782 0-4.117187 0-7.433593 3.324219-7.460937 7.449219-.027344 4.144531 3.347656 7.523437 7.488281 7.550781zm0 0"/><path d="m132.625 106.941406h.050781c4.117188 0 7.472657-3.328125 7.5-7.453125.023438-4.140625-3.3125-7.519531-7.453125-7.546875h-.074218c-4.121094.007813-7.484376 3.308594-7.511719 7.449219-.027344 4.140625 3.347656 7.523437 7.488281 7.550781zm0 0"/><path d="m114.621094 106.941406h.050781c4.117187 0 7.472656-3.328125 7.5-7.453125.023437-4.140625-3.3125-7.519531-7.453125-7.546875h-.074219c-.015625 0-.03125 0-.050781 0-4.117188 0-7.433594 3.324219-7.460938 7.449219-.027343 4.140625 3.347657 7.523437 7.488282 7.550781zm0 0"/><path d="m245.035156 37.902344c0-20.898438-17.003906-37.902344-37.902344-37.902344h-49.589843c-4.144531 0-7.5 3.359375-7.5 7.5s3.355469 7.5 7.5 7.5h49.589843c12.628907 0 22.902344 10.273438 22.902344 22.902344 0 12.632812-10.273437 22.90625-22.902344 22.90625h-113.289062v-45.808594h29.730469c4.140625 0 7.5-3.359375 7.5-7.5s-3.359375-7.5-7.5-7.5h-85.671875c-20.898438 0-37.902344 17.003906-37.902344 37.902344 0 12.4375 6.019531 23.488281 15.296875 30.40625-9.277344 6.914062-15.296875 17.96875-15.296875 30.402344 0 12.4375 6.019531 23.488281 15.296875 30.40625-9.277344 6.914062-15.296875 17.96875-15.296875 30.40625 0 20.898437 17.003906 37.902343 37.902344 37.902343h169.226562c20.902344 0 37.90625-17.003906 37.90625-37.902343 0-12.433594-6.019531-23.488282-15.296875-30.40625 9.277344-6.914063 15.296875-17.96875 15.296875-30.402344s-6.019531-23.488282-15.296875-30.40625c9.277344-6.917969 15.296875-17.96875 15.296875-30.40625zm-190.078125 83.714844v-45.808594h23.886719v45.808594zm0 15h23.886719v45.808593h-23.886719zm23.886719-75.808594h-23.886719v-45.808594h23.886719zm-63.84375-22.90625c0-12.628906 10.273438-22.902344 22.902344-22.902344h2.054687v45.808594h-2.054687c-12.628906 0-22.902344-10.273438-22.902344-22.90625zm0 60.808594c0-12.628907 10.273438-22.902344 22.902344-22.902344h2.054687v45.808594h-2.054687c-12.628906 0-22.902344-10.273438-22.902344-22.90625zm0 60.8125c0-12.628907 10.273438-22.90625 22.902344-22.90625h2.054687v45.808593h-2.054687c-12.628906 0-22.902344-10.273437-22.902344-22.902343zm215.035156-60.8125c0 12.632812-10.273437 22.90625-22.902344 22.90625h-61.722656c-4.140625 0-7.5 3.359374-7.5 7.5 0 4.140624 3.359375 7.5 7.5 7.5h61.722656c12.628907 0 22.902344 10.273437 22.902344 22.902343 0 12.628907-10.273437 22.90625-22.902344 22.90625h-113.289062v-45.808593h14.511719c4.140625 0 7.5-3.359376 7.5-7.5 0-4.140626-3.359375-7.5-7.5-7.5h-14.511719v-45.808594h113.285156c12.632813 0 22.90625 10.273437 22.90625 22.902344zm0 0"/><path d="m205.148438 37.902344c0-9.492188-7.726563-17.21875-17.222657-17.21875-9.496093 0-17.222656 7.726562-17.222656 17.21875 0 9.496094 7.726563 17.222656 17.222656 17.222656 9.496094 0 17.222657-7.726562 17.222657-17.222656zm-19.445313 0c0-1.222656 1-2.21875 2.222656-2.21875 1.226563 0 2.222657.996094 2.222657 2.21875 0 1.226562-.996094 2.222656-2.222657 2.222656-1.222656 0-2.222656-.996094-2.222656-2.222656zm0 0"/><path d="m150.679688 46.132812c4.140624 0 7.5-3.359374 7.5-7.5 0-4.144531-3.359376-7.5-7.5-7.5h-.074219c-4.144531 0-7.464844 3.355469-7.464844 7.5 0 4.140626 3.398437 7.5 7.539063 7.5zm0 0"/><path d="m125.136719 38.632812c0 4.140626 3.394531 7.5 7.539062 7.5 4.140625 0 7.5-3.359374 7.5-7.5 0-4.144531-3.359375-7.5-7.5-7.5h-.074219c-4.144531 0-7.464843 3.355469-7.464843 7.5zm0 0"/><path d="m114.597656 31.132812c-4.144531 0-7.464844 3.355469-7.464844 7.5 0 4.140626 3.394532 7.5 7.535157 7.5 4.144531 0 7.503906-3.359374 7.503906-7.5 0-4.144531-3.359375-7.5-7.503906-7.5zm0 0"/><path d="m454.890625 55.125c9.496094 0 17.222656-7.726562 17.222656-17.222656 0-9.492188-7.726562-17.21875-17.222656-17.21875s-17.222656 7.726562-17.222656 17.21875c0 9.496094 7.726562 17.222656 17.222656 17.222656zm0-19.441406c1.226563 0 2.222656.996094 2.222656 2.21875 0 1.226562-.996093 2.222656-2.222656 2.222656-1.222656 0-2.222656-.996094-2.222656-2.222656 0-1.222656 1-2.21875 2.222656-2.21875zm0 0"/><path d="m417.644531 46.132812c4.144531 0 7.5-3.359374 7.5-7.5 0-4.144531-3.355469-7.5-7.5-7.5h-.074219c-4.144531 0-7.464843 3.355469-7.464843 7.5 0 4.140626 3.394531 7.5 7.539062 7.5zm0 0"/><path d="m399.640625 46.132812c4.140625 0 7.5-3.359374 7.5-7.5 0-4.144531-3.359375-7.5-7.5-7.5h-.074219c-4.144531 0-7.464844 3.355469-7.464844 7.5 0 4.140626 3.394532 7.5 7.539063 7.5zm0 0"/><path d="m381.636719 46.132812c4.140625 0 7.5-3.359374 7.5-7.5 0-4.144531-3.359375-7.5-7.5-7.5h-.074219c-4.144531 0-7.464844 3.355469-7.464844 7.5 0 4.140626 3.394532 7.5 7.539063 7.5zm0 0"/><path d="m512 98.710938c0-12.433594-6.019531-23.488282-15.296875-30.402344 9.277344-6.917969 15.296875-17.96875 15.296875-30.40625 0-20.898438-17.003906-37.902344-37.902344-37.902344h-169.226562c-20.902344 0-37.90625 17.003906-37.90625 37.902344 0 12.4375 6.019531 23.488281 15.296875 30.40625-9.277344 6.914062-15.296875 17.96875-15.296875 30.402344 0 12.4375 6.019531 23.488281 15.296875 30.40625-9.277344 6.914062-15.296875 17.96875-15.296875 30.402343 0 20.902344 17.003906 37.90625 37.90625 37.90625h92.230468c4.144532 0 7.5-3.359375 7.5-7.5s-3.355468-7.5-7.5-7.5h-36.292968v-45.808593h113.285156c12.632812 0 22.90625 10.273437 22.90625 22.902343 0 12.628907-10.273438 22.90625-22.90625 22.90625h-43.019531c-4.144531 0-7.5 3.359375-7.5 7.5s3.355469 7.5 7.5 7.5h43.019531c20.902344 0 37.90625-17.003906 37.90625-37.90625 0-12.433593-6.019531-23.488281-15.296875-30.402343 9.277344-6.914063 15.296875-17.96875 15.296875-30.40625zm-15-60.808594c0 12.632812-10.273438 22.90625-22.902344 22.90625h-113.289062v-45.808594h113.289062c12.628906 0 22.902344 10.273438 22.902344 22.902344zm-151.191406 22.90625h-23.886719v-45.808594h23.886719zm-23.886719 15h23.886719v45.808594h-23.886719zm-39.957031-37.90625c0-12.628906 10.273437-22.902344 22.90625-22.902344h2.050781v45.808594h-2.050781c-12.632813 0-22.90625-10.273438-22.90625-22.90625zm0 60.808594c0-12.628907 10.273437-22.902344 22.90625-22.902344h2.050781v45.808594h-2.050781c-12.632813 0-22.90625-10.273438-22.90625-22.90625zm0 60.8125c0-12.628907 10.273437-22.90625 22.90625-22.90625h2.050781v45.808593h-2.050781c-12.632813 0-22.90625-10.273437-22.90625-22.902343zm39.957031 22.902343v-45.808593h23.886719v45.808593zm152.175781-60.808593h-113.289062v-45.808594h113.289062c12.628906 0 22.902344 10.273437 22.902344 22.902344 0 12.632812-10.273438 22.90625-22.902344 22.90625zm0 0"/><path d="m454.890625 81.492188c-9.496094 0-17.222656 7.722656-17.222656 17.21875 0 9.496093 7.726562 17.222656 17.222656 17.222656s17.222656-7.726563 17.222656-17.222656c0-9.496094-7.726562-17.21875-17.222656-17.21875zm0 19.441406c-1.222656 0-2.222656-.996094-2.222656-2.222656 0-1.222657 1-2.21875 2.222656-2.21875 1.226563 0 2.222656.996093 2.222656 2.21875 0 1.226562-.996093 2.222656-2.222656 2.222656zm0 0"/><path d="m417.691406 91.941406h-.074218c-.015626 0-.03125 0-.050782 0-4.117187 0-7.433594 3.324219-7.460937 7.453125-.027344 4.140625 3.347656 7.519531 7.488281 7.546875h.050781c4.117188 0 7.472657-3.324218 7.5-7.449218.027344-4.144532-3.308593-7.523438-7.453125-7.550782zm0 0"/><path d="m399.6875 91.941406h-.074219c-.015625 0-.03125 0-.050781 0-4.117188 0-7.433594 3.324219-7.460938 7.453125-.027343 4.140625 3.347657 7.519531 7.488282 7.546875h.050781c4.121094 0 7.472656-3.324218 7.5-7.449218.027344-4.144532-3.308594-7.523438-7.453125-7.550782zm0 0"/><path d="m381.683594 91.941406h-.074219c-.015625 0-.03125 0-.050781 0-4.117188 0-7.433594 3.324219-7.460938 7.453125-.027344 4.140625 3.347656 7.519531 7.488282 7.546875h.050781c4.121093 0 7.472656-3.324218 7.5-7.449218.023437-4.144532-3.3125-7.523438-7.453125-7.550782zm0 0"/><path d="m472.113281 159.523438c0-9.496094-7.726562-17.222657-17.222656-17.222657s-17.222656 7.726563-17.222656 17.222657c0 9.496093 7.726562 17.222656 17.222656 17.222656s17.222656-7.726563 17.222656-17.222656zm-19.445312 0c0-1.226563 1-2.222657 2.222656-2.222657 1.226563 0 2.222656.996094 2.222656 2.222657 0 1.222656-.996093 2.222656-2.222656 2.222656-1.222656 0-2.222656-1-2.222656-2.222656zm0 0"/><path d="m417.644531 167.75c4.121094 0 7.472657-3.328125 7.5-7.453125.027344-4.140625-3.308593-7.519531-7.453125-7.546875h-.074218c-.015626 0-.03125 0-.050782 0-4.117187 0-7.433594 3.324219-7.460937 7.453125-.023438 4.140625 3.347656 7.519531 7.488281 7.546875zm0 0"/><path d="m399.6875 152.75h-.074219c-.015625 0-.03125 0-.050781 0-4.117188 0-7.433594 3.324219-7.460938 7.453125-.027343 4.140625 3.347657 7.519531 7.488282 7.546875h.050781c4.121094 0 7.472656-3.324219 7.5-7.449219.027344-4.144531-3.308594-7.523437-7.453125-7.550781zm0 0"/><path d="m381.609375 152.75c-.015625 0-.035156 0-.050781 0-4.117188 0-7.433594 3.324219-7.460938 7.453125-.027344 4.140625 3.347656 7.519531 7.488282 7.546875h.050781c4.117187 0 7.472656-3.324219 7.5-7.449219.023437-4.144531-3.3125-7.523437-7.453125-7.550781zm0 0"/><path d="m234.585938 270.527344-22.859376-15.382813c-3.4375-2.3125-8.097656-1.402343-10.410156 2.035157-2.3125 3.433593-1.398437 8.097656 2.035156 10.410156l13.613282 9.160156-13.613282 9.160156c-3.4375 2.3125-4.347656 6.972656-2.035156 10.40625 1.449219 2.152344 3.816406 3.316406 6.230469 3.316406 1.441406 0 2.894531-.414062 4.179687-1.28125l22.859376-15.382812c2.070312-1.390625 3.3125-3.722656 3.3125-6.21875s-1.242188-4.832031-3.3125-6.222656zm0 0"/><path d="m310.6875 257.179688c-2.3125-3.4375-6.972656-4.351563-10.410156-2.035157l-22.855469 15.382813c-2.070313 1.394531-3.316406 3.726562-3.316406 6.222656s1.242187 4.828125 3.316406 6.21875l22.855469 15.382812c1.285156.867188 2.742187 1.28125 4.183594 1.28125 2.410156 0 4.78125-1.164062 6.226562-3.316406 2.3125-3.433594 1.402344-8.097656-2.035156-10.40625l-13.609375-9.160156 13.609375-9.160156c3.4375-2.316406 4.347656-6.976563 2.035156-10.410156zm0 0"/></svg>