<svg height="512pt" viewBox="0 -13 512 511" width="512pt" xmlns="http://www.w3.org/2000/svg"><path d="m207.132812 68.808594h-169.230468c-16.789063 0-30.402344-13.613282-30.402344-30.40625 0-16.789063 13.613281-30.402344 30.402344-30.402344h169.230468c16.789063 0 30.402344 13.613281 30.402344 30.402344 0 16.792968-13.613281 30.40625-30.402344 30.40625zm0 0" fill="#6b97af"/><path d="m237.539062 38.40625c0 8.394531-3.40625 16-8.910156 21.503906-5.5 5.5-13.097656 8.898438-21.496094 8.898438h-20.164062c8.398438 0 15.996094-3.398438 21.496094-8.898438 5.503906-5.503906 8.910156-13.109375 8.910156-21.503906 0-16.796875-13.617188-30.40625-30.40625-30.40625h20.164062c16.789063 0 30.40625 13.609375 30.40625 30.40625zm0 0" fill="#50758e"/><path d="m47.457031 8h38.886719v60.808594h-38.886719zm0 0" fill="#a6fff2"/><path d="m71.742188 8h14.601562v60.808594h-14.601562zm0 0" fill="#14f2d7"/><path d="m197.648438 38.402344c0 5.371094-4.351563 9.722656-9.722657 9.722656-5.367187 0-9.722656-4.351562-9.722656-9.722656 0-5.367188 4.355469-9.71875 9.722656-9.71875 5.371094 0 9.722657 4.351562 9.722657 9.71875zm0 0" fill="#27bef4"/><path d="m207.132812 129.617188h-169.230468c-16.789063 0-30.402344-13.609376-30.402344-30.402344 0-16.792969 13.613281-30.40625 30.402344-30.40625h169.230468c16.789063 0 30.402344 13.613281 30.402344 30.40625 0 16.789062-13.613281 30.402344-30.402344 30.402344zm0 0" fill="#50758e"/><path d="m237.539062 99.214844c0 8.394531-3.40625 16-8.910156 21.503906-5.5 5.5-13.097656 8.898438-21.496094 8.898438h-20.164062c8.398438 0 15.996094-3.398438 21.496094-8.898438 5.503906-5.503906 8.910156-13.109375 8.910156-21.503906 0-16.796875-13.617188-30.40625-30.40625-30.40625h20.164062c16.789063 0 30.40625 13.609375 30.40625 30.40625zm0 0" fill="#2b597f"/><path d="m47.457031 68.808594h38.886719v60.808594h-38.886719zm0 0" fill="#14f2d7"/><path d="m71.742188 68.808594h14.601562v60.808594h-14.601562zm0 0" fill="#00e2c7"/><path d="m197.648438 99.210938c0 5.371093-4.351563 9.722656-9.722657 9.722656-5.367187 0-9.722656-4.351563-9.722656-9.722656 0-5.367188 4.355469-9.71875 9.722656-9.71875 5.371094 0 9.722657 4.351562 9.722657 9.71875zm0 0" fill="#209ced"/><path d="m207.132812 190.425781h-169.230468c-16.789063 0-30.402344-13.613281-30.402344-30.402343 0-16.792969 13.613281-30.40625 30.402344-30.40625h169.230468c16.789063 0 30.402344 13.613281 30.402344 30.40625 0 16.789062-13.613281 30.402343-30.402344 30.402343zm0 0" fill="#6b97af"/><path d="m237.539062 160.023438c0 8.398437-3.40625 16-8.910156 21.503906-5.5 5.503906-13.097656 8.902344-21.496094 8.902344h-20.164062c8.398438 0 15.996094-3.398438 21.496094-8.902344 5.503906-5.503906 8.910156-13.105469 8.910156-21.503906 0-16.792969-13.617188-30.40625-30.40625-30.40625h20.164062c16.789063 0 30.40625 13.613281 30.40625 30.40625zm0 0" fill="#50758e"/><path d="m47.457031 129.617188h38.886719v60.808593h-38.886719zm0 0" fill="#a6fff2"/><path d="m71.742188 129.617188h14.601562v60.808593h-14.601562zm0 0" fill="#14f2d7"/><path d="m197.648438 160.023438c0 5.367187-4.351563 9.722656-9.722657 9.722656-5.367187 0-9.722656-4.355469-9.722656-9.722656 0-5.371094 4.355469-9.722657 9.722656-9.722657 5.371094 0 9.722657 4.351563 9.722657 9.722657zm0 0" fill="#27bef4"/><path d="m474.097656 357.25h-169.226562c-16.792969 0-30.40625-13.609375-30.40625-30.402344 0-16.792968 13.613281-30.40625 30.40625-30.40625h169.226562c16.789063 0 30.402344 13.613282 30.402344 30.40625 0 16.792969-13.613281 30.402344-30.402344 30.402344zm0 0" fill="#f1eded"/><path d="m504.503906 326.847656c0 8.398438-3.40625 16.003906-8.90625 21.503906-5.503906 5.503907-13.101562 8.902344-21.5 8.902344h-20.164062c8.398437 0 15.996094-3.398437 21.5-8.902344 5.5-5.5 8.90625-13.105468 8.90625-21.503906 0-16.792968-13.617188-30.40625-30.40625-30.40625h20.164062c16.789063 0 30.40625 13.613282 30.40625 30.40625zm0 0" fill="#dad0cd"/><path d="m314.421875 296.441406h38.886719v60.808594h-38.886719zm0 0" fill="#f6cb43"/><path d="m338.703125 296.441406h14.605469v60.808594h-14.605469zm0 0" fill="#fab03c"/><path d="m464.613281 326.847656c0 5.371094-4.351562 9.722656-9.722656 9.722656-5.367187 0-9.722656-4.351562-9.722656-9.722656s4.355469-9.722656 9.722656-9.722656c5.371094 0 9.722656 4.351562 9.722656 9.722656zm0 0" fill="#f6cb43"/><path d="m474.097656 418.058594h-169.226562c-16.792969 0-30.40625-13.609375-30.40625-30.402344s13.613281-30.40625 30.40625-30.40625h169.226562c16.789063 0 30.402344 13.613281 30.402344 30.40625s-13.613281 30.402344-30.402344 30.402344zm0 0" fill="#dad0cd"/><path d="m504.503906 387.65625c0 8.398438-3.40625 16.003906-8.90625 21.503906-5.503906 5.503906-13.101562 8.902344-21.5 8.902344h-20.164062c8.398437 0 15.996094-3.398438 21.5-8.902344 5.5-5.5 8.90625-13.105468 8.90625-21.503906 0-16.792969-13.617188-30.40625-30.40625-30.40625h20.164062c16.789063 0 30.40625 13.613281 30.40625 30.40625zm0 0" fill="#c1bab8"/><path d="m314.421875 357.25h38.886719v60.808594h-38.886719zm0 0" fill="#fab03c"/><path d="m338.703125 357.25h14.605469v60.808594h-14.605469zm0 0" fill="#fd8f3e"/><path d="m464.613281 387.65625c0 5.367188-4.351562 9.722656-9.722656 9.722656-5.367187 0-9.722656-4.355468-9.722656-9.722656 0-5.371094 4.355469-9.722656 9.722656-9.722656 5.371094 0 9.722656 4.351562 9.722656 9.722656zm0 0" fill="#fab03c"/><path d="m474.097656 478.871094h-169.226562c-16.792969 0-30.40625-13.613282-30.40625-30.40625 0-16.792969 13.613281-30.402344 30.40625-30.402344h169.226562c16.789063 0 30.402344 13.609375 30.402344 30.402344 0 16.792968-13.613281 30.40625-30.402344 30.40625zm0 0" fill="#f1eded"/><path d="m504.503906 448.464844c0 8.398437-3.40625 16.003906-8.90625 21.503906-5.503906 5.503906-13.101562 8.902344-21.5 8.902344h-20.164062c8.398437 0 15.996094-3.398438 21.5-8.902344 5.5-5.5 8.90625-13.105469 8.90625-21.503906 0-16.792969-13.617188-30.40625-30.40625-30.40625h20.164062c16.789063 0 30.40625 13.613281 30.40625 30.40625zm0 0" fill="#dad0cd"/><path d="m314.421875 418.058594h38.886719v60.808594h-38.886719zm0 0" fill="#f6cb43"/><path d="m338.703125 418.058594h14.605469v60.808594h-14.605469zm0 0" fill="#fab03c"/><path d="m464.613281 448.464844c0 5.371094-4.351562 9.722656-9.722656 9.722656-5.367187 0-9.722656-4.351562-9.722656-9.722656 0-5.367188 4.355469-9.722656 9.722656-9.722656 5.371094 0 9.722656 4.355468 9.722656 9.722656zm0 0" fill="#f6cb43"/><path d="m138 388.675781c0 8.363281-6.78125 15.144531-15.144531 15.144531-8.367188 0-15.144531-6.78125-15.144531-15.144531s6.777343-15.144531 15.144531-15.144531c8.363281 0 15.144531 6.78125 15.144531 15.144531zm0 0" fill="#50758e"/><path d="m404.292969 98.195312c0 8.363282-6.777344 15.140626-15.144531 15.140626-8.363282 0-15.140626-6.777344-15.140626-15.140626 0-8.367187 6.777344-15.144531 15.140626-15.144531 8.367187 0 15.144531 6.777344 15.144531 15.144531zm0 0" fill="#50758e"/><path d="m187.925781 55.625c9.496094 0 17.222657-7.726562 17.222657-17.222656 0-9.492188-7.726563-17.21875-17.222657-17.21875-9.496093 0-17.222656 7.726562-17.222656 17.21875 0 9.496094 7.726563 17.222656 17.222656 17.222656zm0-19.441406c1.226563 0 2.222657.996094 2.222657 2.21875 0 1.226562-.996094 2.222656-2.222657 2.222656-1.222656 0-2.222656-.996094-2.222656-2.222656 0-1.222656 1-2.21875 2.222656-2.21875zm0 0"/><path d="m150.679688 46.632812c4.140624 0 7.5-3.359374 7.5-7.5 0-4.140624-3.359376-7.5-7.5-7.5h-.074219c-4.144531 0-7.464844 3.359376-7.464844 7.5 0 4.140626 3.394531 7.5 7.539063 7.5zm0 0"/><path d="m132.675781 46.632812c4.140625 0 7.5-3.359374 7.5-7.5 0-4.140624-3.359375-7.5-7.5-7.5h-.074219c-4.144531 0-7.464843 3.359376-7.464843 7.5 0 4.140626 3.394531 7.5 7.539062 7.5zm0 0"/><path d="m114.671875 46.632812c4.140625 0 7.5-3.359374 7.5-7.5 0-4.140624-3.359375-7.5-7.5-7.5h-.074219c-4.144531 0-7.464844 3.359376-7.464844 7.5 0 4.140626 3.394532 7.5 7.539063 7.5zm0 0"/><path d="m187.925781 116.4375c9.496094 0 17.222657-7.726562 17.222657-17.222656s-7.726563-17.222656-17.222657-17.222656c-9.496093 0-17.222656 7.726562-17.222656 17.222656s7.726563 17.222656 17.222656 17.222656zm0-19.445312c1.226563 0 2.222657.996093 2.222657 2.21875 0 1.226562-.996094 2.226562-2.222657 2.226562-1.222656 0-2.222656-1-2.222656-2.222656 0-1.226563 1-2.222656 2.222656-2.222656zm0 0"/><path d="m150.628906 107.441406h.050782c4.121093 0 7.472656-3.328125 7.5-7.453125.027343-4.140625-3.308594-7.519531-7.453126-7.546875h-.074218c-.015625 0-.03125 0-.050782 0-4.117187 0-7.433593 3.324219-7.460937 7.453125-.027344 4.140625 3.347656 7.519531 7.488281 7.546875zm0 0"/><path d="m132.625 107.441406h.050781c4.121094 0 7.472657-3.328125 7.5-7.453125.023438-4.140625-3.3125-7.519531-7.453125-7.546875h-.074218c-.015626 0-.03125 0-.050782 0-4.117187 0-7.433594 3.324219-7.460937 7.453125-.027344 4.140625 3.347656 7.519531 7.488281 7.546875zm0 0"/><path d="m114.621094 107.441406h.050781c4.117187 0 7.472656-3.328125 7.5-7.453125.023437-4.140625-3.3125-7.519531-7.453125-7.546875h-.074219c-.015625 0-.03125 0-.050781 0-4.117188 0-7.433594 3.324219-7.460938 7.453125-.027343 4.140625 3.347657 7.519531 7.488282 7.546875zm0 0"/><path d="m147.171875 190.425781c0-4.140625-3.359375-7.5-7.5-7.5h-45.828125v-45.808593h113.289062c12.628907 0 22.902344 10.273437 22.902344 22.902343 0 12.628907-10.273437 22.90625-22.902344 22.90625h-34.800781c-4.144531 0-7.5 3.359375-7.5 7.5s3.355469 7.5 7.5 7.5h34.800781c20.898438 0 37.902344-17.003906 37.902344-37.90625 0-12.433593-6.019531-23.488281-15.296875-30.402343 9.277344-6.917969 15.296875-17.96875 15.296875-30.40625 0-12.433594-6.019531-23.488282-15.296875-30.402344 9.277344-6.917969 15.296875-17.96875 15.296875-30.40625 0-20.898438-17.003906-37.902344-37.902344-37.902344h-169.230468c-20.898438 0-37.902344 17.003906-37.902344 37.902344 0 12.4375 6.019531 23.488281 15.296875 30.40625-9.277344 6.914062-15.296875 17.96875-15.296875 30.40625 0 12.433594 6.019531 23.488281 15.296875 30.402344-9.277344 6.914062-15.296875 17.96875-15.296875 30.40625 0 20.898437 17.003906 37.902343 37.902344 37.902343h101.769531c4.140625 0 7.5-3.355469 7.5-7.5zm-68.328125-114.117187v45.808594h-23.886719v-45.808594zm0-15h-23.886719v-45.808594h23.886719zm-23.886719 75.808594h23.886719v45.808593h-23.886719zm175.078125-37.902344c0 12.628906-10.273437 22.902344-22.902344 22.902344h-113.289062v-45.808594h113.289062c12.628907 0 22.902344 10.273437 22.902344 22.90625zm0-60.8125c0 12.632812-10.273437 22.90625-22.902344 22.90625h-113.289062v-45.808594h113.289062c12.628907 0 22.902344 10.273438 22.902344 22.902344zm-215.035156 0c0-12.628906 10.273438-22.902344 22.902344-22.902344h2.054687v45.808594h-2.054687c-12.628906 0-22.902344-10.273438-22.902344-22.90625zm0 60.8125c0-12.628906 10.273438-22.90625 22.902344-22.90625h2.054687v45.808594h-2.054687c-12.628906 0-22.902344-10.273438-22.902344-22.902344zm0 60.808594c0-12.628907 10.273438-22.90625 22.902344-22.90625h2.054687v45.808593h-2.054687c-12.628906 0-22.902344-10.273437-22.902344-22.902343zm0 0"/><path d="m187.925781 177.246094c9.496094 0 17.222657-7.726563 17.222657-17.222656 0-9.496094-7.726563-17.222657-17.222657-17.222657-9.496093 0-17.222656 7.726563-17.222656 17.222657 0 9.496093 7.726563 17.222656 17.222656 17.222656zm0-19.445313c1.226563 0 2.222657.996094 2.222657 2.222657 0 1.222656-.996094 2.222656-2.222657 2.222656-1.222656 0-2.222656-1-2.222656-2.222656 0-1.226563 1-2.222657 2.222656-2.222657zm0 0"/><path d="m150.605469 153.25c-4.144531 0-7.464844 3.355469-7.464844 7.5 0 4.140625 3.398437 7.5 7.539063 7.5 4.140624 0 7.5-3.359375 7.5-7.5 0-4.144531-3.359376-7.5-7.5-7.5zm0 0"/><path d="m132.601562 153.25c-4.144531 0-7.464843 3.355469-7.464843 7.5 0 4.140625 3.394531 7.5 7.539062 7.5 4.140625 0 7.5-3.359375 7.5-7.5 0-4.144531-3.359375-7.5-7.5-7.5zm0 0"/><path d="m114.597656 153.25c-4.144531 0-7.464844 3.355469-7.464844 7.5 0 4.140625 3.394532 7.5 7.539063 7.5 4.140625 0 7.5-3.359375 7.5-7.5 0-4.144531-3.359375-7.5-7.5-7.5zm0 0"/><path d="m472.113281 326.847656c0-9.496094-7.726562-17.222656-17.222656-17.222656s-17.222656 7.726562-17.222656 17.222656 7.726562 17.222656 17.222656 17.222656 17.222656-7.726562 17.222656-17.222656zm-19.445312 0c0-1.226562 1-2.222656 2.222656-2.222656 1.226563 0 2.222656.996094 2.222656 2.222656 0 1.226563-.996093 2.222656-2.222656 2.222656-1.222656 0-2.222656-.996093-2.222656-2.222656zm0 0"/><path d="m410.105469 327.574219c0 4.140625 3.398437 7.5 7.539062 7.5s7.5-3.359375 7.5-7.5-3.355469-7.5-7.5-7.5h-.074219c-4.144531 0-7.464843 3.359375-7.464843 7.5zm0 0"/><path d="m399.566406 320.074219c-4.144531 0-7.464844 3.359375-7.464844 7.5s3.398438 7.5 7.539063 7.5 7.5-3.359375 7.5-7.5-3.359375-7.5-7.5-7.5zm0 0"/><path d="m381.5625 320.074219c-4.144531 0-7.464844 3.359375-7.464844 7.5s3.394532 7.5 7.539063 7.5c4.140625 0 7.5-3.359375 7.5-7.5s-3.359375-7.5-7.5-7.5zm0 0"/><path d="m512 387.65625c0-12.433594-6.019531-23.488281-15.296875-30.40625 9.277344-6.914062 15.296875-17.96875 15.296875-30.402344 0-20.898437-17.003906-37.90625-37.902344-37.90625h-33.765625c-4.140625 0-7.5 3.359375-7.5 7.5 0 4.144532 3.359375 7.503906 7.5 7.503906h33.765625c12.628906 0 22.902344 10.273438 22.902344 22.902344s-10.273438 22.902344-22.902344 22.902344h-113.289062v-45.804688h46.863281c4.144531 0 7.5-3.359374 7.5-7.503906 0-4.140625-3.355469-7.5-7.5-7.5h-102.800781c-20.902344 0-37.90625 17.003906-37.90625 37.90625 0 12.433594 6.019531 23.488282 15.296875 30.402344-9.277344 6.917969-15.296875 17.972656-15.296875 30.40625s6.019531 23.488281 15.296875 30.402344c-9.277344 6.917968-15.296875 17.972656-15.296875 30.40625 0 20.898437 17.003906 37.902344 37.90625 37.902344h70.800781c4.144531 0 7.5-3.355469 7.5-7.5 0-4.140626-3.355469-7.5-7.5-7.5h-14.863281v-45.808594h113.289062c12.628906 0 22.902344 10.277344 22.902344 22.90625s-10.273438 22.902344-22.902344 22.902344h-65.765625c-4.140625 0-7.5 3.359374-7.5 7.5 0 4.144531 3.359375 7.5 7.5 7.5h65.765625c20.898438 0 37.902344-17.003907 37.902344-37.902344 0-12.433594-6.019531-23.488282-15.296875-30.40625 9.277344-6.914063 15.296875-17.96875 15.296875-30.402344zm-190.078125-22.90625h23.886719v45.808594h-23.886719zm23.886719-15h-23.886719v-45.804688h23.886719zm-63.84375-22.902344c0-12.628906 10.273437-22.902344 22.90625-22.902344h2.050781v45.804688h-2.050781c-12.632813 0-22.90625-10.273438-22.90625-22.902344zm0 60.808594c0-12.628906 10.273437-22.902344 22.90625-22.902344h2.050781v45.808594h-2.050781c-12.632813-.003906-22.90625-10.277344-22.90625-22.90625zm0 60.808594c0-12.628906 10.273437-22.902344 22.90625-22.902344h2.050781v45.808594h-2.050781c-12.632813 0-22.90625-10.277344-22.90625-22.90625zm39.957031 22.90625v-45.8125h23.886719v45.8125zm152.175781-60.8125h-113.289062v-45.808594h113.289062c12.628906 0 22.902344 10.277344 22.902344 22.90625s-10.273438 22.902344-22.902344 22.902344zm0 0"/><path d="m454.890625 370.433594c-9.496094 0-17.222656 7.726562-17.222656 17.222656s7.726562 17.222656 17.222656 17.222656 17.222656-7.726562 17.222656-17.222656-7.726562-17.222656-17.222656-17.222656zm0 19.445312c-1.222656 0-2.222656-.996094-2.222656-2.222656 0-1.222656 1-2.222656 2.222656-2.222656 1.226563 0 2.222656 1 2.222656 2.222656 0 1.226562-.996093 2.222656-2.222656 2.222656zm0 0"/><path d="m417.691406 380.882812h-.074218c-4.152344 0-7.484376 3.3125-7.511719 7.453126-.027344 4.140624 3.347656 7.523437 7.488281 7.550781h.050781c4.117188 0 7.472657-3.328125 7.5-7.453125.027344-4.144532-3.308593-7.523438-7.453125-7.550782zm0 0"/><path d="m399.6875 380.882812h-.074219c-4.148437 0-7.484375 3.3125-7.511719 7.453126-.027343 4.140624 3.347657 7.523437 7.488282 7.550781h.050781c4.121094 0 7.472656-3.328125 7.5-7.453125.027344-4.144532-3.308594-7.523438-7.453125-7.550782zm0 0"/><path d="m381.683594 380.882812h-.074219c-4.148437 0-7.484375 3.3125-7.511719 7.453126-.027344 4.140624 3.347656 7.523437 7.488282 7.550781h.050781c4.121093 0 7.472656-3.328125 7.5-7.453125.023437-4.144532-3.3125-7.523438-7.453125-7.550782zm0 0"/><path d="m472.113281 448.464844c0-9.496094-7.726562-17.222656-17.222656-17.222656s-17.222656 7.726562-17.222656 17.222656 7.726562 17.222656 17.222656 17.222656 17.222656-7.726562 17.222656-17.222656zm-19.445312 0c0-1.222656 1-2.222656 2.222656-2.222656 1.226563 0 2.222656 1 2.222656 2.222656 0 1.226562-.996093 2.222656-2.222656 2.222656-1.222656 0-2.222656-.996094-2.222656-2.222656zm0 0"/><path d="m425.144531 449.191406c0-4.140625-3.355469-7.5-7.5-7.5h-.074219c-4.144531 0-7.464843 3.359375-7.464843 7.5 0 4.144532 3.398437 7.5 7.539062 7.5s7.5-3.355468 7.5-7.5zm0 0"/><path d="m407.140625 449.191406c0-4.140625-3.359375-7.5-7.5-7.5h-.074219c-4.144531 0-7.464844 3.359375-7.464844 7.5 0 4.144532 3.398438 7.5 7.539063 7.5s7.5-3.355468 7.5-7.5zm0 0"/><path d="m381.636719 441.691406h-.074219c-4.144531 0-7.464844 3.359375-7.464844 7.5 0 4.144532 3.394532 7.5 7.539063 7.5 4.140625 0 7.5-3.355468 7.5-7.5 0-4.140625-3.359375-7.5-7.5-7.5zm0 0"/><path d="m245.347656 381.179688h-101.132812c-2.273438-6.460938-7.398438-11.589844-13.859375-13.863282v-103.132812c0-4.140625-3.359375-7.5-7.5-7.5-4.144531 0-7.5 3.359375-7.5 7.5v103.132812c-8.8125 3.101563-15.144531 11.503906-15.144531 21.359375 0 12.488281 10.15625 22.644531 22.644531 22.644531 9.855469 0 18.257812-6.332031 21.359375-15.144531h101.132812c4.144532 0 7.5-3.355469 7.5-7.5 0-4.140625-3.359375-7.496093-7.5-7.496093zm-122.492187 15.140624c-4.214844 0-7.644531-3.425781-7.644531-7.640624 0-4.214844 3.429687-7.644532 7.644531-7.644532 4.214843 0 7.644531 3.429688 7.644531 7.644532 0 4.214843-3.429688 7.640624-7.644531 7.640624zm0 0"/><path d="m381.648438 119.554688v103.132812c0 4.140625 3.359374 7.5 7.5 7.5 4.144531 0 7.5-3.359375 7.5-7.5v-103.132812c8.8125-3.101563 15.144531-11.503907 15.144531-21.359376 0-12.488281-10.15625-22.644531-22.644531-22.644531-9.855469 0-18.257813 6.332031-21.359376 15.144531h-101.132812c-4.144531 0-7.5 3.355469-7.5 7.5 0 4.140626 3.355469 7.5 7.5 7.5h101.132812c2.273438 6.460938 7.398438 11.585938 13.859376 13.859376zm7.5-29.003907c4.214843 0 7.644531 3.429688 7.644531 7.644531 0 4.214844-3.429688 7.640626-7.644531 7.640626-4.214844 0-7.644532-3.425782-7.644532-7.640626 0-4.214843 3.429688-7.644531 7.644532-7.644531zm0 0"/><path d="m397.71875 237.363281-8.570312 12.734375-8.566407-12.734375c-2.3125-3.4375-6.972656-4.347656-10.410156-2.035156-3.433594 2.316406-4.347656 6.976563-2.035156 10.410156l14.792969 21.980469c1.390624 2.070312 3.726562 3.3125 6.222656 3.3125s4.828125-1.242188 6.222656-3.3125l14.789062-21.980469c2.3125-3.4375 1.402344-8.097656-2.035156-10.410156-3.4375-2.308594-8.097656-1.398437-10.410156 2.035156zm0 0"/><path d="m129.078125 219.152344c-1.394531-2.070313-3.726563-3.3125-6.222656-3.3125-2.496094 0-4.832031 1.242187-6.222657 3.3125l-14.792968 21.980468c-2.3125 3.4375-1.402344 8.097657 2.035156 10.410157s8.097656 1.402343 10.410156-2.035157l8.566406-12.734374 8.570313 12.734374c1.445313 2.152344 3.816406 3.3125 6.226563 3.3125 1.441406 0 2.898437-.414062 4.183593-1.277343 3.433594-2.3125 4.347657-6.972657 2.03125-10.410157zm0 0"/></svg>