<svg height="512pt" viewBox="0 -22 512 512" width="512pt" xmlns="http://www.w3.org/2000/svg"><path d="m359.695312 98.316406h-306.785156c-25.082031 0-45.410156-20.328125-45.410156-45.40625 0-25.082031 20.328125-45.410156 45.410156-45.410156h306.785156c25.078126 0 45.410157 20.328125 45.410157 45.410156 0 25.078125-20.332031 45.40625-45.410157 45.40625zm0 0" fill="#f1eded"/><path d="m405.109375 52.910156c0 12.539063-5.085937 23.898438-13.304687 32.117188-8.214844 8.214844-19.5625 13.292968-32.105469 13.292968h-30.117188c12.542969 0 23.890625-5.078124 32.105469-13.292968 8.21875-8.21875 13.304688-19.578125 13.304688-32.117188 0-25.082031-20.335938-45.410156-45.40625-45.410156h30.113281c25.070312 0 45.410156 20.328125 45.410156 45.410156zm0 0" fill="#dad0cd"/><path d="m67.175781 7.5h58.078125v90.816406h-58.078125zm0 0" fill="#6b97af"/><path d="m103.441406 7.5h21.8125v90.816406h-21.8125zm0 0" fill="#50758e"/><path d="m318.511719 52.910156c0 8.019532-6.503907 14.519532-14.523438 14.519532-8.015625 0-14.519531-6.5-14.519531-14.519532 0-8.019531 6.503906-14.519531 14.519531-14.519531 8.019531 0 14.523438 6.5 14.523438 14.519531zm0 0" fill="#f6cb43"/><path d="m359.695312 189.136719h-306.785156c-25.082031 0-45.410156-20.332031-45.410156-45.410157 0-25.078124 20.328125-45.410156 45.410156-45.410156h306.785156c25.078126 0 45.410157 20.332032 45.410157 45.410156 0 25.078126-20.332031 45.410157-45.410157 45.410157zm0 0" fill="#dad0cd"/><path d="m405.109375 143.726562c0 12.542969-5.085937 23.902344-13.304687 32.117188-8.214844 8.21875-19.5625 13.292969-32.105469 13.292969h-30.117188c12.542969 0 23.890625-5.074219 32.105469-13.292969 8.21875-8.214844 13.304688-19.574219 13.304688-32.117188 0-25.082031-20.335938-45.410156-45.40625-45.410156h30.113281c25.070312 0 45.410156 20.328125 45.410156 45.410156zm0 0" fill="#c1bab8"/><path d="m67.175781 98.316406h58.078125v90.820313h-58.078125zm0 0" fill="#50758e"/><path d="m103.441406 98.316406h21.8125v90.820313h-21.8125zm0 0" fill="#2b597f"/><path d="m318.511719 143.726562c0 8.019532-6.503907 14.519532-14.523438 14.519532-8.015625 0-14.519531-6.5-14.519531-14.519532 0-8.019531 6.503906-14.519531 14.519531-14.519531 8.019531 0 14.523438 6.5 14.523438 14.519531zm0 0" fill="#fab03c"/><path d="m359.695312 279.953125h-306.785156c-25.082031 0-45.410156-20.328125-45.410156-45.40625 0-25.082031 20.328125-45.410156 45.410156-45.410156h306.785156c25.078126 0 45.410157 20.328125 45.410157 45.410156 0 25.078125-20.332031 45.40625-45.410157 45.40625zm0 0" fill="#f1eded"/><path d="m405.109375 234.546875c0 12.539063-5.085937 23.898437-13.304687 32.113281-8.214844 8.21875-19.5625 13.296875-32.105469 13.296875h-30.117188c12.542969 0 23.890625-5.078125 32.105469-13.296875 8.21875-8.214844 13.304688-19.574218 13.304688-32.113281 0-25.082031-20.335938-45.410156-45.40625-45.410156h30.113281c25.070312 0 45.410156 20.328125 45.410156 45.410156zm0 0" fill="#dad0cd"/><path d="m67.175781 189.136719h58.078125v90.816406h-58.078125zm0 0" fill="#6b97af"/><path d="m103.441406 189.136719h21.8125v90.816406h-21.8125zm0 0" fill="#50758e"/><path d="m318.511719 234.546875c0 8.015625-6.503907 14.519531-14.523438 14.519531-8.015625 0-14.519531-6.503906-14.519531-14.519531 0-8.019531 6.503906-14.523437 14.519531-14.523437 8.019531 0 14.523438 6.503906 14.523438 14.523437zm0 0" fill="#f6cb43"/><path d="m229.824219 393.644531c0 12.992188-10.53125 23.523438-23.523438 23.523438-12.988281 0-23.523437-10.53125-23.523437-23.523438 0-12.992187 10.535156-23.523437 23.523437-23.523437 12.992188 0 23.523438 10.53125 23.523438 23.523437zm0 0" fill="#50758e"/><path d="m504.5 340.699219c0 66.210937-53.675781 119.886719-119.886719 119.886719-66.210937 0-119.886719-53.675782-119.886719-119.886719 0-66.210938 53.675782-119.886719 119.886719-119.886719 66.210938 0 119.886719 53.675781 119.886719 119.886719zm0 0" fill="#27bef4"/><path d="m504.5 340.703125c0 66.207031-53.675781 119.882813-119.882812 119.882813-38.011719 0-71.890626-17.6875-93.859376-45.28125 20.476563 16.285156 46.40625 26.03125 74.601563 26.03125 66.21875 0 119.894531-53.671876 119.894531-119.890626 0-28.199218-9.746094-54.128906-26.035156-74.601562 27.59375 21.96875 45.28125 55.847656 45.28125 93.859375zm0 0" fill="#209ced"/><path d="m397.125 391.886719h-25.023438c-6.007812 0-10.882812-4.871094-10.882812-10.882813 0-6.011718 4.871094-10.882812 10.882812-10.882812h25.023438c6.011719 0 10.882812 4.871094 10.882812 10.882812 0 6.011719-4.871093 10.882813-10.882812 10.882813zm0 0" fill="#f6cb43"/><path d="m326.011719 52.910156c0-12.144531-9.878907-22.023437-22.023438-22.023437-12.140625 0-22.019531 9.878906-22.019531 22.023437 0 12.140625 9.878906 22.019532 22.019531 22.019532 12.144531 0 22.023438-9.878907 22.023438-22.019532zm-29.039063 0c0-3.871094 3.148438-7.023437 7.019532-7.023437 3.871093 0 7.019531 3.148437 7.019531 7.023437 0 3.871094-3.148438 7.019532-7.019531 7.019532-3.871094 0-7.019532-3.148438-7.019532-7.019532zm0 0"/><path d="m248.214844 61.496094h.113281.03125c4.128906 0 7.480469-3.335938 7.5-7.46875.019531-4.140625-3.324219-7.515625-7.464844-7.53125h-.113281c-.011719 0-.019531 0-.035156 0-4.125 0-7.476563 3.335937-7.496094 7.464844-.019531 4.144531 3.324219 7.515624 7.464844 7.535156zm0 0"/><path d="m221.394531 46.496094c-.011719 0-.023437 0-.035156 0-4.125 0-7.480469 3.335937-7.5 7.464844-.015625 4.144531 3.328125 7.515624 7.46875 7.535156h.109375.035156c4.125 0 7.480469-3.335938 7.5-7.46875.019532-4.140625-3.324218-7.515625-7.46875-7.53125zm0 0"/><path d="m194.503906 46.496094c-.011718 0-.023437 0-.035156 0-4.125 0-7.480469 3.335937-7.496094 7.464844-.019531 4.144531 3.324219 7.515624 7.464844 7.535156h.113281.03125c4.128907 0 7.480469-3.335938 7.5-7.46875.019531-4.140625-3.324219-7.515625-7.46875-7.53125zm0 0"/><path d="m303.988281 165.746094c12.144531 0 22.023438-9.878906 22.023438-22.019532 0-12.140624-9.878907-22.019531-22.023438-22.019531-12.140625 0-22.019531 9.878907-22.019531 22.019531 0 12.140626 9.878906 22.019532 22.019531 22.019532zm0-29.039063c3.871094 0 7.023438 3.148438 7.023438 7.019531 0 3.871094-3.148438 7.019532-7.023438 7.019532-3.867187 0-7.019531-3.148438-7.019531-7.019532 0-3.871093 3.152344-7.019531 7.019531-7.019531zm0 0"/><path d="m248.25 152.3125h.109375c4.144531 0 7.5-3.355469 7.5-7.5 0-4.140625-3.355469-7.5-7.5-7.5h-.109375c-4.144531 0-7.5 3.359375-7.5 7.5 0 4.144531 3.355469 7.5 7.5 7.5zm0 0"/><path d="m221.359375 152.3125h.113281c4.140625 0 7.5-3.355469 7.5-7.5 0-4.140625-3.359375-7.5-7.5-7.5h-.113281c-4.140625 0-7.5 3.359375-7.5 7.5 0 4.144531 3.359375 7.5 7.5 7.5zm0 0"/><path d="m194.472656 152.3125h.109375c4.144531 0 7.5-3.355469 7.5-7.5 0-4.140625-3.355469-7.5-7.5-7.5h-.109375c-4.144531 0-7.5 3.359375-7.5 7.5 0 4.144531 3.355469 7.5 7.5 7.5zm0 0"/><path d="m248.328125 243.132812h.03125c4.128906 0 7.480469-3.335937 7.5-7.46875.019531-4.140624-3.324219-7.515624-7.464844-7.53125h-.113281c-.011719 0-.019531 0-.035156 0-4.125 0-7.476563 3.335938-7.496094 7.464844-.019531 4.144532 3.324219 7.515625 7.464844 7.535156zm0 0"/><path d="m221.4375 243.132812h.035156c4.125 0 7.480469-3.335937 7.5-7.46875.015625-4.140624-3.328125-7.515624-7.46875-7.53125h-.109375c-.011719 0-.023437 0-.035156 0-4.125 0-7.480469 3.335938-7.5 7.464844-.019531 4.144532 3.324219 7.515625 7.46875 7.535156zm0 0"/><path d="m194.550781 243.132812h.03125c4.128907 0 7.480469-3.335937 7.5-7.46875.019531-4.140624-3.324219-7.515624-7.46875-7.53125h-.109375c-.011718 0-.023437 0-.035156 0-4.125 0-7.480469 3.335938-7.496094 7.464844-.019531 4.144532 3.324219 7.515625 7.464844 7.535156zm0 0"/><path d="m485.992188 263.566406c-2.511719-3.292968-7.214844-3.929687-10.511719-1.417968-3.296875 2.507812-3.929688 7.214843-1.421875 10.507812 15.007812 19.699219 22.941406 43.226562 22.941406 68.042969 0 61.972656-50.417969 112.386719-112.386719 112.386719-61.972656 0-112.386719-50.414063-112.386719-112.386719 0-61.96875 50.414063-112.386719 112.386719-112.386719 24.6875 0 48.117188 7.859375 67.753907 22.722656 3.304687 2.5 8.007812 1.847656 10.507812-1.457031 2.496094-3.300781 1.847656-8.003906-1.453125-10.503906-15.640625-11.835938-33.402344-19.734375-52.285156-23.398438-4.328125-11.347656-12.296875-20.582031-22.296875-26.554687 15.417968-9.253906 25.765625-26.136719 25.765625-45.394532 0-19.265624-10.359375-36.15625-25.792969-45.40625 15.433594-9.253906 25.792969-26.140624 25.792969-45.410156 0-29.175781-23.738281-52.910156-52.910157-52.910156h-102.367187c-4.140625 0-7.5 3.359375-7.5 7.5 0 4.144531 3.359375 7.5 7.5 7.5h102.367187c20.902344 0 37.910157 17.007812 37.910157 37.910156s-17.007813 37.910156-37.910157 37.910156h-226.941406v-75.820312h91.917969c4.140625 0 7.5-3.359375 7.5-7.5s-3.359375-7.5-7.5-7.5h-171.761719c-29.175781 0-52.910156 23.734375-52.910156 52.910156 0 19.265625 10.355469 36.15625 25.789062 45.40625-15.433593 9.253906-25.789062 26.144532-25.789062 45.410156 0 19.269532 10.355469 36.15625 25.789062 45.410157-15.433593 9.253906-25.789062 26.140625-25.789062 45.410156 0 29.171875 23.734375 52.90625 52.910156 52.90625h103.761719c4.140625 0 7.5-3.355469 7.5-7.5 0-4.140625-3.359375-7.5-7.5-7.5h-23.917969v-75.816406h226.941406c12.898438 0 24.632813 6.5 31.542969 16.863281-2.199219-.109375-4.40625-.1875-6.625-.1875-21.503906 0-41.773437 5.363281-59.558593 14.8125-2.757813-9.019531-11.15625-15.601562-21.066407-15.601562-12.140625 0-22.019531 9.878906-22.019531 22.019531 0 7.804687 4.085938 14.667969 10.222656 18.578125-5.625 5.933594-10.683594 12.40625-15.09375 19.332031h-87.769531c-4.140625 0-7.5 3.359375-7.5 7.5s3.359375 7.5 7.5 7.5h79.574219c-7.488282 16.210937-11.675782 34.246094-11.675782 53.246094 0 16.003906 2.976563 31.320312 8.386719 45.445312h-29.210937c-2.765625-11.097656-11.519532-19.847656-22.625-22.609375.011718-.148437.023437-.296875.023437-.449218v-49.105469c0-4.140625-3.355469-7.5-7.5-7.5-4.140625 0-7.5 3.359375-7.5 7.5v49.105469c0 .152343.015625.300781.023438.449218-11.101563 2.761719-19.855469 11.511719-22.625 22.609375h-162.960938c-4.144531 0-7.5 3.359375-7.5 7.5s3.355469 7.5 7.5 7.5h162.960938c3.363281 13.492188 15.582031 23.523438 30.101562 23.523438 14.523438 0 26.738281-10.03125 30.101563-23.523438h36.105468c21.558594 39.828125 63.722657 66.941407 112.105469 66.941407 70.242188 0 127.386719-57.144532 127.386719-127.386719 0-28.128907-8.992188-54.800781-26.007812-77.132813zm-88.386719-119.839844c0 20.902344-17.007813 37.910157-37.910157 37.910157h-226.941406v-75.820313h226.941406c20.902344 0 37.910157 17.007813 37.910157 37.910156zm-322.925781-37.910156h43.074218v75.820313h-43.074218zm43.074218-15h-43.074218v-75.816406h43.074218zm-102.753906-37.90625c0-20.902344 17.007812-37.910156 37.910156-37.910156h6.769532v75.816406h-6.769532c-20.902344 0-37.910156-17.003906-37.910156-37.90625zm0 90.816406c0-20.902343 17.007812-37.910156 37.910156-37.910156h6.769532v75.820313h-6.769532c-20.902344 0-37.910156-17.007813-37.910156-37.910157zm0 90.820313c0-20.90625 17.007812-37.910156 37.910156-37.910156h6.769532v75.816406h-6.769532c-20.902344 0-37.910156-17.003906-37.910156-37.90625zm59.679688 37.90625v-75.816406h43.074218v75.816406zm131.621093 137.214844c-8.832031 0-16.023437-7.1875-16.023437-16.023438 0-8.835937 7.191406-16.023437 16.023437-16.023437 8.835938 0 16.023438 7.1875 16.023438 16.023437 0 8.835938-7.1875 16.023438-16.023438 16.023438zm97.6875-182.144531c3.871094 0 7.023438 3.152343 7.023438 7.023437 0 .902344-.171875 1.777344-.503907 2.601563-1.988281 1.425781-3.933593 2.914062-5.835937 4.453124-.226563-.023437-.453125-.035156-.683594-.035156-3.867187 0-7.019531-3.148437-7.019531-7.019531.003906-3.871094 3.152344-7.023437 7.019531-7.023437zm0 0"/><path d="m426.644531 340.335938c0-4.144532-3.359375-7.5-7.5-7.5h-27.03125v-43.5c0-4.140626-3.355469-7.5-7.5-7.5-4.140625 0-7.5 3.359374-7.5 7.5v51c0 4.140624 3.359375 7.5 7.5 7.5h34.53125c4.140625 0 7.5-3.359376 7.5-7.5zm0 0"/><path d="m384.613281 267.695312c4.144531 0 7.5-3.359374 7.5-7.5v-15.214843c0-4.140625-3.355469-7.5-7.5-7.5s-7.5 3.359375-7.5 7.5v15.214843c0 4.140626 3.359375 7.5 7.5 7.5zm0 0"/><path d="m377.113281 421.203125v15.214844c0 4.144531 3.355469 7.5 7.5 7.5s7.5-3.355469 7.5-7.5v-15.214844c0-4.140625-3.355469-7.5-7.5-7.5s-7.5 3.359375-7.5 7.5zm0 0"/><path d="m487.832031 340.699219c0-4.140625-3.355469-7.5-7.5-7.5h-15.214843c-4.140626 0-7.5 3.359375-7.5 7.5 0 4.144531 3.359374 7.5 7.5 7.5h15.214843c4.144531 0 7.5-3.355469 7.5-7.5zm0 0"/><path d="m304.109375 333.199219h-15.214844c-4.144531 0-7.5 3.359375-7.5 7.5 0 4.144531 3.355469 7.5 7.5 7.5h15.214844c4.144531 0 7.5-3.355469 7.5-7.5 0-4.140625-3.355469-7.5-7.5-7.5zm0 0"/><path d="m299.296875 381.53125c-3.585937 2.074219-4.8125 6.660156-2.738281 10.246094l.046875.082031c1.382812 2.394531 3.875 3.714844 6.449219 3.714844 1.28125 0 2.582031-.328125 3.773437-1.015625 3.585937-2.074219 4.789063-6.703125 2.714844-10.289063-2.074219-3.585937-6.660157-4.808593-10.246094-2.738281zm0 0"/><path d="m459.515625 297.007812.046875.082032c1.375 2.414062 3.882812 3.757812 6.472656 3.757812 1.265625 0 2.550782-.320312 3.734375-.996094 3.597657-2.050781 4.832031-6.667968 2.78125-10.269531-2.050781-3.601562-6.632812-4.855469-10.230469-2.804687-3.597656 2.050781-4.855468 6.628906-2.804687 10.230468zm0 0"/><path d="m333.878906 428.933594.082032.046875c1.175781.679687 2.453124 1 3.71875 1 2.582031 0 5.09375-1.351563 6.488281-3.761719 2.070312-3.585938.808593-8.199219-2.777344-10.273438-3.585937-2.070312-8.175781-.84375-10.25 2.738282-2.074219 3.589844-.847656 8.175781 2.738281 10.25zm0 0"/><path d="m427.660156 265.402344.082032.046875c1.175781.683593 2.453124 1.003906 3.71875 1.003906 2.582031 0 5.09375-1.355469 6.488281-3.765625 2.070312-3.585938.808593-8.195312-2.777344-10.269531-3.589844-2.074219-8.175781-.847657-10.25 2.738281s-.847656 8.175781 2.738281 10.246094zm0 0"/><path d="m337.21875 266.691406c1.285156 0 2.589844-.328125 3.777344-1.011718 3.585937-2.074219 4.8125-6.664063 2.734375-10.25-2.074219-3.585938-6.660157-4.8125-10.246094-2.738282l-.082031.046875c-3.585938 2.074219-4.769532 6.640625-2.695313 10.226563 1.386719 2.394531 3.914063 3.726562 6.511719 3.726562zm0 0"/><path d="m431.945312 429.675781c1.285157 0 2.589844-.328125 3.777344-1.015625 3.585938-2.074218 4.8125-6.664062 2.738282-10.25-2.074219-3.585937-6.660157-4.808594-10.246094-2.738281l-.082032.046875c-3.585937 2.074219-4.769531 6.640625-2.695312 10.226562 1.386719 2.398438 3.914062 3.730469 6.507812 3.730469zm0 0"/><path d="m302.765625 301.300781c2.632813 0 5.199219-1.390625 6.585937-3.835937 2.039063-3.605469.769532-8.183594-2.832031-10.222656-3.601562-2.039063-8.179687-.773438-10.222656 2.832031l-.046875.078125c-2.039062 3.605468-.75 8.144531 2.855469 10.183594 1.15625.652343 2.414062.964843 3.660156.964843zm0 0"/><path d="m459.859375 383.792969-.046875.082031c-2.074219 3.585938-.824219 8.132812 2.761719 10.207031 1.171875.675781 2.453125 1 3.71875 1 2.609375 0 5.15625-1.363281 6.550781-3.777343 2.074219-3.585938.851562-8.175782-2.734375-10.25-3.589844-2.070313-8.175781-.84375-10.25 2.738281zm0 0"/><path d="m415.507812 381.003906c0-10.136718-8.246093-18.382812-18.382812-18.382812h-25.023438c-10.136718 0-18.382812 8.246094-18.382812 18.382812 0 10.136719 8.246094 18.382813 18.382812 18.382813h25.023438c10.136719 0 18.382812-8.246094 18.382812-18.382813zm-46.789062 0c0-1.867187 1.519531-3.382812 3.382812-3.382812h25.023438c1.863281 0 3.382812 1.515625 3.382812 3.382812 0 1.863282-1.519531 3.382813-3.382812 3.382813h-25.023438c-1.863281 0-3.382812-1.519531-3.382812-3.382813zm0 0"/></svg>