<svg height="512pt" viewBox="0 -49 512 511" width="512pt" xmlns="http://www.w3.org/2000/svg"><path d="m313.011719 100.070312h-262.910157c-23.527343 0-42.601562-19.074218-42.601562-42.605468 0-23.527344 19.074219-42.601563 42.601562-42.601563h262.914063c23.527344 0 42.601563 19.074219 42.601563 42.601563 0 23.53125-19.074219 42.605468-42.605469 42.605468zm0 0" fill="#f1eded"/><path d="m355.621094 57.46875c0 11.765625-4.773438 22.421875-12.484375 30.128906-7.707031 7.710938-18.355469 12.472656-30.121094 12.472656h-28.253906c11.765625 0 22.410156-4.761718 30.121093-12.472656 7.710938-7.707031 12.484376-18.363281 12.484376-30.128906 0-23.535156-19.082032-42.605469-42.605469-42.605469h28.253906c23.523437 0 42.605469 19.070313 42.605469 42.605469zm0 0" fill="#dad0cd"/><path d="m63.488281 14.863281h54.488281v85.207031h-54.488281zm0 0" fill="#27bef4"/><path d="m97.511719 14.863281h20.464843v85.207031h-20.464843zm0 0" fill="#209ced"/><path d="m297.164062 57.464844c0 7.523437-6.097656 13.625-13.625 13.625-7.523437 0-13.621093-6.101563-13.621093-13.625 0-7.523438 6.097656-13.621094 13.621093-13.621094 7.527344 0 13.625 6.097656 13.625 13.621094zm0 0" fill="#27bef4"/><path d="m313.011719 185.273438h-262.910157c-23.527343 0-42.601562-19.074219-42.601562-42.601563s19.074219-42.601563 42.601562-42.601563h262.914063c23.527344 0 42.601563 19.074219 42.601563 42.601563s-19.074219 42.601563-42.605469 42.601563zm0 0" fill="#dad0cd"/><path d="m355.621094 142.671875c0 11.765625-4.773438 22.421875-12.484375 30.132813-7.707031 7.710937-18.355469 12.472656-30.121094 12.472656h-28.253906c11.765625 0 22.410156-4.761719 30.121093-12.472656 7.710938-7.707032 12.484376-18.363282 12.484376-30.132813 0-23.53125-19.082032-42.601563-42.605469-42.601563h28.253906c23.523437 0 42.605469 19.070313 42.605469 42.601563zm0 0" fill="#c1bab8"/><path d="m63.488281 100.070312h54.488281v85.203126h-54.488281zm0 0" fill="#209ced"/><path d="m97.511719 100.070312h20.464843v85.203126h-20.464843zm0 0" fill="#197ae5"/><path d="m297.164062 142.671875c0 7.523437-6.097656 13.625-13.625 13.625-7.523437 0-13.621093-6.101563-13.621093-13.625s6.097656-13.625 13.621093-13.625c7.527344 0 13.625 6.101563 13.625 13.625zm0 0" fill="#209ced"/><path d="m313.011719 270.480469h-262.910157c-23.527343 0-42.601562-19.074219-42.601562-42.601563 0-23.53125 19.074219-42.605468 42.601562-42.605468h262.914063c23.527344 0 42.601563 19.074218 42.601563 42.605468 0 23.527344-19.074219 42.601563-42.605469 42.601563zm0 0" fill="#f1eded"/><path d="m355.621094 227.878906c0 11.765625-4.773438 22.421875-12.484375 30.132813-7.707031 7.707031-18.355469 12.472656-30.121094 12.472656h-28.253906c11.765625 0 22.410156-4.765625 30.121093-12.472656 7.710938-7.710938 12.484376-18.367188 12.484376-30.132813 0-23.53125-19.082032-42.605468-42.605469-42.605468h28.253906c23.523437 0 42.605469 19.074218 42.605469 42.605468zm0 0" fill="#dad0cd"/><path d="m63.488281 185.273438h54.488281v85.207031h-54.488281zm0 0" fill="#27bef4"/><path d="m97.511719 185.273438h20.464843v85.207031h-20.464843zm0 0" fill="#209ced"/><path d="m297.164062 227.878906c0 7.523438-6.097656 13.621094-13.625 13.621094-7.523437 0-13.621093-6.097656-13.621093-13.621094 0-7.523437 6.097656-13.625 13.621093-13.625 7.527344 0 13.625 6.101563 13.625 13.625zm0 0" fill="#27bef4"/><path d="m203.628906 377.144531c0 12.1875-9.878906 22.070313-22.070312 22.070313-12.1875 0-22.070313-9.882813-22.070313-22.070313s9.882813-22.070312 22.070313-22.070312c12.191406 0 22.070312 9.882812 22.070312 22.070312zm0 0" fill="#50758e"/><path d="m470.371094 312.140625v-210.207031c20.082031-8.738282 34.128906-28.742188 34.128906-52.035156 0-14.75-5.625-28.179688-14.84375-38.269532-6.917969-7.566406-19.558594-2.519531-19.558594 7.730469v21.046875c0 6.242188-5.0625 11.300781-11.304687 11.300781h-22.058594c-6.242187 0-11.304687-5.058593-11.304687-11.300781v-21.046875c0-10.25-12.644532-15.296875-19.558594-7.730469-9.222656 10.089844-14.847656 23.519532-14.847656 38.269532 0 23.292968 14.050781 43.300781 34.128906 52.039062v210.207031c-20.082032 8.738281-34.128906 28.742188-34.128906 52.035157 0 14.746093 5.625 28.179687 14.847656 38.269531 6.914062 7.5625 19.558594 2.519531 19.558594-7.734375v-21.042969c0-6.242187 5.0625-11.300781 11.304687-11.300781h22.058594c6.242187 0 11.304687 5.058594 11.304687 11.300781v21.042969c0 10.253906 12.640625 15.296875 19.558594 7.734375 9.21875-10.089844 14.84375-23.519531 14.84375-38.269531 0-23.292969-14.046875-43.300782-34.128906-52.039063zm0 0" fill="#6b97af"/><path d="m504.503906 364.179688c0 14.742187-5.632812 28.183593-14.847656 38.269531-3.5 3.832031-8.472656 4.421875-12.519531 2.746093 4.917969-8.398437 7.734375-18.183593 7.734375-28.617187 0-21.160156-11.589844-39.601563-28.761719-49.355469-3.28125-1.863281-5.371094-5.285156-5.371094-9.0625v-222.246094c0-3.773437 2.089844-7.195312 5.371094-9.058593 17.171875-9.757813 28.761719-28.195313 28.761719-49.355469 0-10.433594-2.816406-20.21875-7.734375-28.617188 4.046875-1.675781 9.015625-1.085937 12.519531 2.746094 9.214844 10.085938 14.847656 23.527344 14.847656 38.269532 0 23.296874-14.050781 43.296874-34.136718 52.039062v210.203125c20.085937 8.742187 34.136718 28.742187 34.136718 52.039063zm0 0" fill="#50758e"/><path d="m363.117188 57.464844c0-27.625-22.476563-50.101563-50.105469-50.101563h-262.910157c-27.625 0-50.101562 22.476563-50.101562 50.101563 0 17.976562 9.519531 33.761718 23.773438 42.605468-14.253907 8.839844-23.773438 24.628907-23.773438 42.601563s9.519531 33.761719 23.773438 42.601563c-14.253907 8.84375-23.773438 24.628906-23.773438 42.605468 0 27.625 22.476562 50.101563 50.101562 50.101563h172.570313c4.140625 0 7.5-3.359375 7.5-7.5s-3.359375-7.5-7.5-7.5h-97.195313v-70.207031h187.535157c19.355469 0 35.105469 15.75 35.105469 35.105468 0 19.355469-15.75 35.101563-35.105469 35.101563h-57.679688c-4.140625 0-7.5 3.359375-7.5 7.5 0 4.144531 3.359375 7.5 7.5 7.5h57.679688c27.628906 0 50.105469-22.476563 50.105469-50.101563 0-17.976562-9.519532-33.761718-23.773438-42.605468 14.253906-8.839844 23.773438-24.628907 23.773438-42.601563s-9.519532-33.761719-23.773438-42.601563c14.253906-8.84375 23.773438-24.628906 23.773438-42.605468zm-292.128907 50.105468h39.488281v70.203126h-39.488281zm39.488281-15h-39.488281v-70.207031h39.488281zm-95.476562-35.105468c0-19.355469 15.746094-35.101563 35.101562-35.101563h5.890626v70.207031h-5.890626c-19.355468 0-35.101562-15.75-35.101562-35.105468zm0 85.207031c0-19.355469 15.746094-35.101563 35.101562-35.101563h5.890626v70.203126h-5.890626c-19.355468 0-35.101562-15.746094-35.101562-35.101563zm0 85.207031c0-19.355468 15.746094-35.105468 35.101562-35.105468h5.890626v70.207031h-5.890626c-19.355468 0-35.101562-15.746094-35.101562-35.101563zm55.988281 35.101563v-70.207031h39.488281v70.207031zm242.023438-170.410157h-109.679688c-4.140625 0-7.5 3.355469-7.5 7.5 0 4.140626 3.359375 7.5 7.5 7.5h109.683594c19.351563 0 35.101563 15.746094 35.101563 35.101563s-15.746094 35.101563-35.101563 35.101563h-187.539063v-70.203126h45.195313c4.140625 0 7.5-3.359374 7.5-7.5 0-4.144531-3.359375-7.5-7.5-7.5h-45.195313v-70.207031h187.535157c19.355469 0 35.105469 15.746094 35.105469 35.101563 0 19.359375-15.75 35.105468-35.105469 35.105468zm0 0"/><path d="m283.539062 36.34375c-11.644531 0-21.121093 9.476562-21.121093 21.121094 0 11.648437 9.476562 21.125 21.121093 21.125 11.648438 0 21.125-9.476563 21.125-21.125 0-11.644532-9.476562-21.121094-21.125-21.121094zm0 27.246094c-3.375 0-6.121093-2.75-6.121093-6.125s2.746093-6.121094 6.121093-6.121094c3.378907 0 6.125 2.746094 6.125 6.121094s-2.746093 6.125-6.125 6.125zm0 0"/><path d="m210.722656 50.984375h-.105468c-.011719 0-.023438 0-.035157 0-4.125 0-7.480469 3.335937-7.5 7.464844-.019531 4.144531 3.324219 7.515625 7.464844 7.535156h.105469.035156c4.125 0 7.480469-3.332031 7.5-7.464844.019531-4.140625-3.324219-7.515625-7.464844-7.535156zm0 0"/><path d="m185.492188 50.984375h-.101563c-4.109375.015625-7.515625 3.324219-7.535156 7.464844-.019531 4.144531 3.324219 7.515625 7.464843 7.535156h.105469.035157c4.125 0 7.476562-3.332031 7.5-7.464844.015624-4.140625-3.324219-7.515625-7.46875-7.535156zm0 0"/><path d="m160.265625 50.984375h-.105469c-.011718 0-.023437 0-.035156 0-4.125 0-7.476562 3.335937-7.5 7.464844-.015625 4.144531 3.324219 7.515625 7.46875 7.535156h.101562.035157c4.125 0 7.480469-3.332031 7.5-7.464844.019531-4.140625-3.324219-7.515625-7.464844-7.535156zm0 0"/><path d="m283.539062 163.796875c11.648438 0 21.125-9.476563 21.125-21.125s-9.476562-21.125-21.125-21.125c-11.644531 0-21.121093 9.476563-21.121093 21.125s9.476562 21.125 21.121093 21.125zm0-27.246094c3.378907 0 6.125 2.746094 6.125 6.121094s-2.746093 6.125-6.125 6.125c-3.375 0-6.121093-2.75-6.121093-6.125s2.746093-6.121094 6.121093-6.121094zm0 0"/><path d="m210.546875 151.191406h.101563.039062c4.125 0 7.476562-3.335937 7.496094-7.464844.019531-4.144531-3.320313-7.515624-7.464844-7.535156h-.101562c-.011719 0-.023438 0-.035157 0-4.125 0-7.480469 3.335938-7.5 7.464844-.019531 4.140625 3.320313 7.515625 7.464844 7.535156zm0 0"/><path d="m185.492188 136.191406h-.101563c-.011719 0-.023437 0-.035156 0-4.125 0-7.480469 3.335938-7.5 7.464844-.019531 4.140625 3.324219 7.515625 7.464843 7.535156h.105469.035157c4.125 0 7.476562-3.335937 7.5-7.464844.015624-4.140624-3.324219-7.515624-7.46875-7.535156zm0 0"/><path d="m160.265625 136.191406h-.105469c-.011718 0-.023437 0-.035156 0-4.125 0-7.476562 3.335938-7.5 7.464844-.015625 4.140625 3.324219 7.515625 7.46875 7.535156h.101562.035157c4.125 0 7.480469-3.335937 7.5-7.464844.019531-4.140624-3.324219-7.515624-7.464844-7.535156zm0 0"/><path d="m304.664062 227.878906c0-11.648437-9.476562-21.125-21.125-21.125-11.644531 0-21.121093 9.476563-21.121093 21.125 0 11.644532 9.476562 21.121094 21.121093 21.121094 11.648438 0 21.125-9.476562 21.125-21.121094zm-27.246093 0c0-3.378906 2.746093-6.125 6.121093-6.125 3.378907 0 6.125 2.746094 6.125 6.125 0 3.375-2.746093 6.121094-6.125 6.121094-3.375 0-6.121093-2.746094-6.121093-6.121094zm0 0"/><path d="m210.582031 221.398438c-4.144531 0-7.5 3.355468-7.5 7.5 0 4.140624 3.355469 7.5 7.5 7.5h.101563c4.144531 0 7.5-3.359376 7.5-7.5 0-4.144532-3.355469-7.5-7.5-7.5zm0 0"/><path d="m185.355469 221.398438c-4.144531 0-7.5 3.355468-7.5 7.5 0 4.140624 3.355469 7.5 7.5 7.5h.101562c4.144531 0 7.5-3.359376 7.5-7.5 0-4.144532-3.355469-7.5-7.5-7.5zm0 0"/><path d="m160.125 221.398438c-4.140625 0-7.5 3.355468-7.5 7.5 0 4.140624 3.359375 7.5 7.5 7.5h.105469c4.140625 0 7.5-3.359376 7.5-7.5 0-4.144532-3.359375-7.5-7.5-7.5zm0 0"/><path d="m317.113281 369.644531h-106.949219c-2.699218-10.289062-10.816406-18.40625-21.105468-21.105469 0-.019531.003906-.042968.003906-.066406v-46.066406c0-4.140625-3.359375-7.5-7.5-7.5-4.144531 0-7.5 3.359375-7.5 7.5v46.066406.066406c-10.289062 2.699219-18.40625 10.816407-21.105469 21.105469h-106.949219c-4.140624 0-7.5 3.359375-7.5 7.5s3.359376 7.5 7.5 7.5h106.949219c3.328125 12.683594 14.890625 22.070313 28.601563 22.070313 13.714844 0 25.277344-9.386719 28.605468-22.070313h106.949219c4.140625 0 7.5-3.359375 7.5-7.5s-3.355469-7.5-7.5-7.5zm-135.550781 22.070313c-8.035156 0-14.570312-6.535156-14.570312-14.570313 0-8.035156 6.535156-14.570312 14.570312-14.570312 8.03125 0 14.566406 6.535156 14.566406 14.570312 0 8.03125-6.535156 14.570313-14.566406 14.570313zm0 0"/><path d="m477.871094 307.4375v-200.796875c20.886718-11.085937 34.128906-32.84375 34.128906-56.742187 0-16.082032-5.96875-31.46875-16.808594-43.328126-5.226562-5.71875-13.292968-7.59375-20.539062-4.78125-7.324219 2.84375-12.054688 9.738282-12.054688 17.570313v21.046875c0 2.097656-1.707031 3.800781-3.808594 3.800781h-22.054687c-2.101563 0-3.804687-1.707031-3.804687-3.800781v-21.046875c0-7.832031-4.730469-14.726563-12.054688-17.566406-7.25-2.816407-15.3125-.941407-20.542969 4.777343-10.835937 11.859376-16.808593 27.246094-16.808593 43.328126 0 23.902343 13.242187 45.660156 34.128906 56.742187v35.066406c0 4.144531 3.359375 7.5 7.5 7.5s7.5-3.355469 7.5-7.5v-39.769531c0-2.988281-1.769532-5.6875-4.507813-6.878906-17.992187-7.828125-29.621093-25.554688-29.621093-45.160156 0-12.324219 4.574218-24.121094 12.882812-33.207032 1.457031-1.597656 3.15625-1.261718 4.039062-.917968.746094.289062 2.480469 1.21875 2.480469 3.585937v21.042969c0 10.371094 8.4375 18.804687 18.804688 18.804687h22.058593c10.371094 0 18.804688-8.4375 18.804688-18.804687v-21.042969c0-2.367187 1.738281-3.296875 2.484375-3.585937.878906-.34375 2.582031-.679688 4.039063.917968 8.308593 9.085938 12.878906 20.882813 12.878906 33.207032 0 19.605468-11.625 37.332031-29.621094 45.160156-2.734375 1.191406-4.507812 3.890625-4.507812 6.875v210.210937c0 2.984375 1.773437 5.683594 4.507812 6.875 17.996094 7.828125 29.621094 25.554688 29.621094 45.160157 0 12.328124-4.574219 24.121093-12.878906 33.207031-1.457032 1.597656-3.160157 1.261719-4.042969.917969-.746094-.289063-2.480469-1.21875-2.480469-3.585938v-21.042969c0-10.371093-8.4375-18.804687-18.804688-18.804687h-22.058593c-10.367188 0-18.804688 8.4375-18.804688 18.804687v21.042969c0 2.367188-1.734375 3.296875-2.480469 3.585938-.886718.34375-2.582031.679687-4.039062-.917969-8.308594-9.085938-12.882812-20.878907-12.882812-33.207031 0-19.605469 11.625-37.328126 29.621093-45.15625 2.738281-1.191407 4.507813-3.894532 4.507813-6.878907v-137.777343c0-4.140626-3.359375-7.5-7.5-7.5s-7.5 3.359374-7.5 7.5v133.070312c-20.886719 11.082031-34.128906 32.839844-34.128906 56.742188 0 16.082031 5.972656 31.46875 16.808593 43.328124 3.613281 3.953126 8.585938 6.070313 13.703125 6.070313 2.285156 0 4.601563-.421875 6.839844-1.289063 7.320312-2.84375 12.054688-9.742187 12.054688-17.574218v-21.042969c0-2.097656 1.707031-3.800781 3.804687-3.800781h22.058594c2.097656 0 3.804687 1.707031 3.804687 3.800781v21.042969c0 7.832031 4.730469 14.730468 12.050782 17.570312 7.253906 2.816406 15.316406.9375 20.542968-4.777344 10.839844-11.863281 16.808594-27.25 16.808594-43.328124 0-23.902344-13.242188-45.660157-34.128906-56.742188zm0 0"/></svg>