<svg height="512pt" viewBox="0 -52 512 512" width="512pt" xmlns="http://www.w3.org/2000/svg"><path d="m313.46875 92.832031h-263.304688c-23.5625 0-42.664062-19.101562-42.664062-42.664062 0-23.566407 19.101562-42.667969 42.664062-42.667969h263.304688c23.5625 0 42.664062 19.101562 42.664062 42.667969 0 23.5625-19.101562 42.664062-42.664062 42.664062zm0 0" fill="#f1eded"/><path d="m356.136719 50.167969c0 11.785156-4.777344 22.453125-12.5 30.175781-7.722657 7.722656-18.382813 12.492188-30.164063 12.492188h-28.296875c11.78125 0 22.441407-4.769532 30.164063-12.492188s12.5-18.394531 12.5-30.175781c0-23.566407-19.109375-42.667969-42.664063-42.667969h28.296875c23.554688 0 42.664063 19.101562 42.664063 42.667969zm0 0" fill="#dad0cd"/><path d="m63.574219 7.5h54.566406v85.332031h-54.566406zm0 0" fill="#27bef4"/><path d="m97.648438 7.5h20.492187v85.332031h-20.492187zm0 0" fill="#209ced"/><path d="m297.59375 50.167969c0 7.535156-6.109375 13.640625-13.644531 13.640625-7.53125 0-13.640625-6.105469-13.640625-13.640625 0-7.535157 6.109375-13.644531 13.640625-13.644531 7.535156 0 13.644531 6.109374 13.644531 13.644531zm0 0" fill="#27bef4"/><path d="m313.46875 178.164062h-263.304688c-23.5625 0-42.664062-19.101562-42.664062-42.664062 0-23.566406 19.101562-42.667969 42.664062-42.667969h263.304688c23.5625 0 42.664062 19.101563 42.664062 42.667969 0 23.5625-19.101562 42.664062-42.664062 42.664062zm0 0" fill="#dad0cd"/><path d="m356.136719 135.5c0 11.785156-4.777344 22.453125-12.5 30.175781-7.722657 7.722657-18.382813 12.492188-30.164063 12.492188h-28.296875c11.78125 0 22.441407-4.769531 30.164063-12.492188 7.722656-7.722656 12.5-18.394531 12.5-30.175781 0-23.566406-19.109375-42.667969-42.664063-42.667969h28.296875c23.554688 0 42.664063 19.101563 42.664063 42.667969zm0 0" fill="#c1bab8"/><path d="m63.574219 92.832031h54.566406v85.332031h-54.566406zm0 0" fill="#209ced"/><path d="m97.648438 92.832031h20.492187v85.332031h-20.492187zm0 0" fill="#197ae5"/><path d="m297.59375 135.5c0 7.535156-6.109375 13.640625-13.644531 13.640625-7.53125 0-13.640625-6.105469-13.640625-13.640625s6.109375-13.644531 13.640625-13.644531c7.535156 0 13.644531 6.109375 13.644531 13.644531zm0 0" fill="#209ced"/><path d="m313.46875 263.496094h-263.304688c-23.5625 0-42.664062-19.101563-42.664062-42.664063 0-23.566406 19.101562-42.667969 42.664062-42.667969h263.304688c23.5625 0 42.664062 19.101563 42.664062 42.667969 0 23.5625-19.101562 42.664063-42.664062 42.664063zm0 0" fill="#f1eded"/><path d="m356.136719 220.832031c0 11.785157-4.777344 22.457031-12.5 30.175781-7.722657 7.722657-18.382813 12.492188-30.164063 12.492188h-28.296875c11.78125 0 22.441407-4.769531 30.164063-12.492188 7.722656-7.71875 12.5-18.390624 12.5-30.175781 0-23.566406-19.109375-42.667969-42.664063-42.667969h28.296875c23.554688 0 42.664063 19.101563 42.664063 42.667969zm0 0" fill="#dad0cd"/><path d="m63.574219 178.164062h54.566406v85.332032h-54.566406zm0 0" fill="#27bef4"/><path d="m97.648438 178.164062h20.492187v85.332032h-20.492187zm0 0" fill="#209ced"/><path d="m297.59375 220.832031c0 7.535157-6.109375 13.640625-13.644531 13.640625-7.53125 0-13.640625-6.105468-13.640625-13.640625 0-7.535156 6.109375-13.644531 13.640625-13.644531 7.535156 0 13.644531 6.109375 13.644531 13.644531zm0 0" fill="#27bef4"/><path d="m203.921875 370.320312c0 12.207032-9.894531 22.101563-22.101563 22.101563-12.207031 0-22.105468-9.894531-22.105468-22.101563 0-12.207031 9.898437-22.101562 22.105468-22.101562 12.207032 0 22.101563 9.894531 22.101563 22.101562zm0 0" fill="#50758e"/><path d="m484.46875 401.300781h-216.335938c-11.0625 0-20.027343-8.96875-20.027343-20.03125v-216.335937c0-11.0625 8.964843-20.027344 20.027343-20.027344h216.335938c11.0625 0 20.03125 8.964844 20.03125 20.027344v216.335937c0 11.0625-8.96875 20.03125-20.03125 20.03125zm0 0" fill="#27bef4"/><path d="m504.5 164.941406v216.332032c0 11.066406-8.964844 20.027343-20.03125 20.027343h-26.039062c11.066406 0 20.03125-8.960937 20.03125-20.027343v-216.332032c0-11.070312-8.964844-20.03125-20.03125-20.03125h26.039062c11.066406 0 20.03125 8.960938 20.03125 20.03125zm0 0" fill="#209ced"/><g fill="#fc6393"><path d="m334.359375 318.539062c0 10.4375-8.460937 18.902344-18.898437 18.902344-10.441407 0-18.902344-8.464844-18.902344-18.902344s8.460937-18.902343 18.902344-18.902343c10.4375 0 18.898437 8.464843 18.898437 18.902343zm0 0"/><path d="m395.203125 228.152344c0 10.4375-8.460937 18.902344-18.902344 18.902344-10.4375 0-18.902343-8.464844-18.902343-18.902344 0-10.441406 8.464843-18.902344 18.902343-18.902344 10.441407 0 18.902344 8.460938 18.902344 18.902344zm0 0"/><path d="m456.046875 295.660156c0 10.4375-8.460937 18.902344-18.902344 18.902344-10.4375 0-18.902343-8.464844-18.902343-18.902344s8.464843-18.902344 18.902343-18.902344c10.441407 0 18.902344 8.464844 18.902344 18.902344zm0 0"/></g><path d="m283.949219 71.308594c11.660156 0 21.144531-9.484375 21.144531-21.140625 0-11.660157-9.484375-21.144531-21.144531-21.144531-11.65625 0-21.140625 9.484374-21.140625 21.144531 0 11.65625 9.484375 21.140625 21.140625 21.140625zm0-27.285156c3.390625 0 6.144531 2.757812 6.144531 6.144531s-2.753906 6.140625-6.144531 6.140625c-3.386719 0-6.140625-2.753906-6.140625-6.140625s2.753906-6.144531 6.140625-6.144531zm0 0"/><path d="m210.882812 58.6875h.105469c4.140625 0 7.5-3.359375 7.5-7.5s-3.359375-7.5-7.5-7.5h-.105469c-4.140624 0-7.5 3.359375-7.5 7.5s3.359376 7.5 7.5 7.5zm0 0"/><path d="m185.617188 58.6875h.105468c4.140625 0 7.5-3.359375 7.5-7.5s-3.359375-7.5-7.5-7.5h-.105468c-4.140626 0-7.5 3.359375-7.5 7.5s3.359374 7.5 7.5 7.5zm0 0"/><path d="m160.351562 58.6875h.105469c4.144531 0 7.5-3.359375 7.5-7.5s-3.355469-7.5-7.5-7.5h-.105469c-4.140624 0-7.5 3.359375-7.5 7.5s3.359376 7.5 7.5 7.5zm0 0"/><path d="m210.847656 144.019531h.105469.035156c4.125 0 7.480469-3.335937 7.5-7.464843.019531-4.140626-3.324219-7.515626-7.464843-7.535157h-.105469c-.011719 0-.023438 0-.035157 0-4.125 0-7.480468 3.335938-7.5 7.464844-.019531 4.144531 3.324219 7.515625 7.464844 7.535156zm0 0"/><path d="m185.582031 144.019531h.105469.035156c4.125 0 7.480469-3.335937 7.5-7.464843.019532-4.140626-3.324218-7.515626-7.464844-7.535157h-.105468c-4.164063-.0625-7.515625 3.324219-7.535156 7.464844-.019532 4.144531 3.324218 7.515625 7.464843 7.535156zm0 0"/><path d="m160.316406 144.019531h.105469.039063c4.125 0 7.476562-3.335937 7.496093-7.464843.019531-4.140626-3.320312-7.515626-7.464843-7.535157h-.105469c-.011719 0-.023438 0-.035157 0-4.125 0-7.480468 3.335938-7.5 7.464844-.015624 4.144531 3.324219 7.515625 7.464844 7.535156zm0 0"/><path d="m141.5 270.996094c4.140625 0 7.5-3.355469 7.5-7.5 0-4.140625-3.359375-7.5-7.5-7.5h-15.859375v-70.332032h114.964844v70.332032h-66.398438c-4.140625 0-7.5 3.359375-7.5 7.5 0 4.144531 3.359375 7.5 7.5 7.5h66.398438v15.195312c0 4.144532 3.355469 7.5 7.5 7.5 4.140625 0 7.5-3.355468 7.5-7.5v-121.257812c0-6.90625 5.621093-12.527344 12.527343-12.527344h121.734376c4.144531 0 7.5-3.359375 7.5-7.5 0-4.144531-3.355469-7.5-7.5-7.5h-26.277344c.023437-.636719.042968-1.273438.042968-1.90625 0-18.003906-9.535156-33.816406-23.820312-42.667969 14.285156-8.851562 23.820312-24.664062 23.820312-42.667969 0-27.660156-22.503906-50.164062-50.164062-50.164062h-263.304688c-27.660156 0-50.164062 22.503906-50.164062 50.167969 0 18.003906 9.535156 33.8125 23.820312 42.664062-14.285156 8.851563-23.820312 24.664063-23.820312 42.667969s9.535156 33.8125 23.820312 42.664062c-14.285156 8.851563-23.820312 24.664063-23.820312 42.667969 0 27.660157 22.503906 50.164063 50.164062 50.164063zm-30.859375-170.664063v70.332031h-39.566406v-70.332031zm0-15h-39.566406v-70.332031h39.566406zm-39.566406 170.664063v-70.332032h39.566406v70.332032zm206.734375-120.496094c0-3.386719 2.753906-6.144531 6.140625-6.144531 3.390625 0 6.144531 2.757812 6.144531 6.144531 0 .652344-.109375 1.292969-.3125 1.90625h-11.664062c-.199219-.613281-.308594-1.253906-.308594-1.90625zm70.824218 0c0 .636719-.023437 1.269531-.058593 1.90625h-43.578125c.058594-.632812.097656-1.265625.097656-1.90625 0-11.660156-9.484375-21.144531-21.144531-21.144531-11.65625 0-21.140625 9.484375-21.140625 21.144531 0 .804688.058594 1.605469.148437 2.398438-12.714843 2.429687-22.351562 13.625-22.351562 27.035156v5.730468h-114.964844v-70.332031h187.828125c19.386719 0 35.164062 15.777344 35.164062 35.167969zm0-85.332031c0 19.390625-15.773437 35.164062-35.164062 35.164062h-187.828125v-70.332031h187.828125c19.386719 0 35.164062 15.777344 35.164062 35.167969zm-333.632812 0c0-19.390625 15.773438-35.167969 35.164062-35.167969h5.910157v70.332031h-5.910157c-19.390624 0-35.164062-15.773437-35.164062-35.164062zm0 85.332031c0-19.390625 15.773438-35.167969 35.164062-35.167969h5.910157v70.332031h-5.910157c-19.390624 0-35.164062-15.773437-35.164062-35.164062zm0 85.332031c0-19.390625 15.773438-35.167969 35.164062-35.167969h5.910157v70.332032h-5.910157c-19.390624 0-35.164062-15.773438-35.164062-35.164063zm0 0"/><path d="m210.953125 229.351562h.035156c4.125 0 7.480469-3.335937 7.5-7.464843.019531-4.140625-3.324219-7.515625-7.464843-7.535157h-.105469c-.011719 0-.023438 0-.035157 0-4.125 0-7.480468 3.335938-7.5 7.464844-.019531 4.144532 3.324219 7.515625 7.464844 7.535156zm0 0"/><path d="m185.6875 229.351562h.035156c4.125 0 7.480469-3.335937 7.5-7.464843.019532-4.140625-3.324218-7.515625-7.464844-7.535157h-.105468c-4.164063-.003906-7.515625 3.324219-7.535156 7.464844-.019532 4.144532 3.324218 7.515625 7.464843 7.535156zm0 0"/><path d="m160.492188 214.351562h-.105469c-.011719 0-.023438 0-.035157 0-4.125 0-7.480468 3.335938-7.5 7.464844-.015624 4.144532 3.324219 7.515625 7.464844 7.535156h.105469.039063c4.125 0 7.476562-3.335937 7.496093-7.464843.019531-4.140625-3.320312-7.515625-7.464843-7.535157zm0 0"/><path d="m484.46875 137.40625h-61.890625c-4.140625 0-7.5 3.355469-7.5 7.5 0 4.140625 3.359375 7.5 7.5 7.5h61.890625c6.910156 0 12.53125 5.621094 12.53125 12.527344v216.335937c0 6.910157-5.621094 12.53125-12.53125 12.53125h-216.335938c-6.90625 0-12.527343-5.621093-12.527343-12.53125v-62.367187c0-4.140625-3.359375-7.5-7.5-7.5-4.144531 0-7.5 3.359375-7.5 7.5v43.917968h-30.148438c-2.703125-10.308593-10.835937-18.4375-21.140625-21.140624 0-.023438.003906-.046876.003906-.074219v-46.136719c0-4.140625-3.359374-7.5-7.5-7.5-4.144531 0-7.5 3.359375-7.5 7.5v46.136719c0 .027343 0 .050781.003907.074219-10.308594 2.703124-18.441407 10.832031-21.140625 21.140624h-107.121094c-4.140625 0-7.5 3.359376-7.5 7.5 0 4.140626 3.359375 7.5 7.5 7.5h107.117188c3.332031 12.703126 14.90625 22.101563 28.636718 22.101563 13.734375 0 25.308594-9.398437 28.636719-22.101563h30.148437v3.449219c0 15.179688 12.351563 27.53125 27.53125 27.53125h216.335938c15.179688 0 27.53125-12.351562 27.53125-27.53125v-216.335937c0-15.179688-12.351562-27.527344-27.53125-27.527344zm-302.648438 247.515625c-8.054687 0-14.605468-6.550781-14.605468-14.601563 0-8.050781 6.550781-14.601562 14.605468-14.601562 8.050782 0 14.601563 6.550781 14.601563 14.601562 0 8.050782-6.550781 14.601563-14.601563 14.601563zm0 0"/><path d="m315.457031 360.730469c4.144531 0 7.5-3.359375 7.5-7.5v-9.382813c10.914063-3.238281 18.902344-13.355468 18.902344-25.308594 0-11.953124-7.988281-22.070312-18.902344-25.3125v-101.59375c0-4.140624-3.355469-7.5-7.5-7.5-4.140625 0-7.5 3.359376-7.5 7.5v101.59375c-10.914062 3.242188-18.902343 13.359376-18.902343 25.3125 0 11.953126 7.988281 22.070313 18.902343 25.308594v9.382813c0 4.140625 3.359375 7.5 7.5 7.5zm-11.402343-42.191407c0-6.285156 5.117187-11.402343 11.402343-11.402343 6.289063 0 11.402344 5.117187 11.402344 11.402343 0 6.285157-5.113281 11.402344-11.402344 11.402344-6.285156 0-11.402343-5.117187-11.402343-11.402344zm0 0"/><path d="m376.300781 360.730469c4.144531 0 7.5-3.359375 7.5-7.5v-99.769531c10.917969-3.238282 18.902344-13.355469 18.902344-25.308594s-7.984375-22.070313-18.902344-25.3125v-11.207032c0-4.140624-3.355469-7.5-7.5-7.5-4.140625 0-7.5 3.359376-7.5 7.5v11.207032c-10.914062 3.242187-18.902343 13.359375-18.902343 25.3125s7.988281 22.070312 18.902343 25.308594v99.769531c0 4.140625 3.359375 7.5 7.5 7.5zm-11.402343-132.578125c0-6.289063 5.117187-11.402344 11.402343-11.402344 6.289063 0 11.402344 5.113281 11.402344 11.402344 0 6.285156-5.113281 11.402344-11.402344 11.402344-6.285156 0-11.402343-5.117188-11.402343-11.402344zm0 0"/><path d="m437.144531 184.132812c-4.140625 0-7.5 3.359376-7.5 7.5v78.71875c-10.914062 3.238282-18.902343 13.355469-18.902343 25.308594s7.988281 22.070313 18.902343 25.3125v32.257813c0 4.144531 3.359375 7.5 7.5 7.5 4.144531 0 7.5-3.355469 7.5-7.5v-32.257813c10.917969-3.242187 18.902344-13.359375 18.902344-25.3125s-7.984375-22.070312-18.902344-25.308594v-78.71875c0-4.140624-3.355469-7.5-7.5-7.5zm11.402344 111.527344c0 6.285156-5.113281 11.402344-11.402344 11.402344-6.285156 0-11.402343-5.117188-11.402343-11.402344 0-6.289062 5.117187-11.402344 11.402343-11.402344 6.289063 0 11.402344 5.113282 11.402344 11.402344zm0 0"/><path d="m285.140625 185.667969h.035156c4.125 0 7.480469-3.335938 7.5-7.46875.015625-4.140625-3.328125-7.511719-7.46875-7.53125h-.113281c-.011719 0-.023438 0-.03125 0-4.128906 0-7.484375 3.335937-7.5 7.46875-.019531 4.140625 3.324219 7.511719 7.464844 7.53125zm0 0"/><path d="m285.117188 205.460938h.113281c4.140625 0 7.5-3.359376 7.5-7.5 0-4.144532-3.359375-7.5-7.5-7.5h-.113281c-4.140626 0-7.5 3.355468-7.5 7.5 0 4.140624 3.359374 7.5 7.5 7.5zm0 0"/></svg>