<svg height="511pt" viewBox="0 -47 511.99988 511" width="511pt" xmlns="http://www.w3.org/2000/svg"><path d="m304.882812 173.878906h-255.914062c-22.902344 0-41.46875-18.566406-41.46875-41.46875s18.566406-41.46875 41.46875-41.46875h255.914062c22.90625 0 41.472657 18.566406 41.472657 41.46875s-18.566407 41.46875-41.472657 41.46875zm0 0" fill="#50758e"/><path d="m346.359375 132.410156c0 11.453125-4.648437 21.824219-12.152344 29.328125-7.503906 7.507813-17.863281 12.140625-29.320312 12.140625h-27.5c11.453125 0 21.816406-4.632812 29.320312-12.140625 7.503907-7.503906 12.148438-17.875 12.148438-29.328125 0-22.90625-18.574219-41.46875-41.46875-41.46875h27.5c22.898437 0 41.472656 18.5625 41.472656 41.46875zm0 0" fill="#2b597f"/><path d="m62 90.941406h53.039062v82.9375h-53.039062zm0 0" fill="#14f2d7"/><path d="m95.117188 90.941406h19.921874v82.9375h-19.921874zm0 0" fill="#00e2c7"/><path d="m289.457031 132.410156c0 7.324219-5.9375 13.257813-13.261719 13.257813-7.320312 0-13.257812-5.933594-13.257812-13.257813 0-7.324218 5.9375-13.261718 13.257812-13.261718 7.324219 0 13.261719 5.9375 13.261719 13.261718zm0 0" fill="#14f2d7"/><path d="m304.882812 256.816406h-255.914062c-22.902344 0-41.46875-18.566406-41.46875-41.46875s18.566406-41.46875 41.46875-41.46875h255.914062c22.90625 0 41.472657 18.566406 41.472657 41.46875s-18.566407 41.46875-41.472657 41.46875zm0 0" fill="#6b97af"/><path d="m346.359375 215.347656c0 11.453125-4.648437 21.828125-12.152344 29.332032-7.503906 7.503906-17.863281 12.140624-29.320312 12.140624h-27.5c11.453125 0 21.816406-4.636718 29.320312-12.140624 7.503907-7.503907 12.148438-17.878907 12.148438-29.332032 0-22.90625-18.574219-41.46875-41.46875-41.46875h27.5c22.898437 0 41.472656 18.5625 41.472656 41.46875zm0 0" fill="#50758e"/><path d="m62 173.878906h53.039062v82.9375h-53.039062zm0 0" fill="#a6fff2"/><path d="m95.117188 173.878906h19.921874v82.9375h-19.921874zm0 0" fill="#14f2d7"/><path d="m289.457031 215.347656c0 7.324219-5.9375 13.261719-13.261719 13.261719-7.320312 0-13.257812-5.9375-13.257812-13.261719 0-7.324218 5.9375-13.261718 13.257812-13.261718 7.324219 0 13.261719 5.9375 13.261719 13.261718zm0 0" fill="#a6fff2"/><path d="m304.882812 90.941406h-255.914062c-22.902344 0-41.46875-18.566406-41.46875-41.472656 0-22.902344 18.566406-41.46875 41.46875-41.46875h255.914062c22.90625 0 41.472657 18.566406 41.472657 41.46875 0 22.90625-18.566407 41.472656-41.472657 41.472656zm0 0" fill="#6b97af"/><path d="m346.359375 49.472656c0 11.453125-4.648437 21.824219-12.152344 29.328125-7.503906 7.503907-17.863281 12.140625-29.320312 12.140625h-27.5c11.453125 0 21.816406-4.636718 29.320312-12.140625 7.503907-7.503906 12.148438-17.875 12.148438-29.328125 0-22.90625-18.574219-41.46875-41.46875-41.46875h27.5c22.898437-.003906 41.472656 18.5625 41.472656 41.46875zm0 0" fill="#50758e"/><path d="m62 8h53.039062v82.941406h-53.039062zm0 0" fill="#a6fff2"/><path d="m95.117188 8h19.921874v82.941406h-19.921874zm0 0" fill="#14f2d7"/><path d="m289.457031 49.46875c0 7.324219-5.9375 13.261719-13.261719 13.261719-7.320312 0-13.257812-5.9375-13.257812-13.261719 0-7.320312 5.9375-13.257812 13.257812-13.257812 7.324219 0 13.261719 5.9375 13.261719 13.257812zm0 0" fill="#a6fff2"/><path d="m198.414062 360.644531c0 11.863281-9.621093 21.480469-21.484374 21.480469-11.863282 0-21.484376-9.617188-21.484376-21.480469 0-11.867187 9.621094-21.484375 21.484376-21.484375 11.863281 0 21.484374 9.617188 21.484374 21.484375zm0 0" fill="#50758e"/><path d="m388.210938 263.527344 109.925781 109.929687c8.5 8.5 8.507812 22.285157 0 30.792969-8.5 8.5-22.292969 8.5-30.792969 0l-109.925781-109.925781zm0 0" fill="#dad0cd"/><path d="m447.5625 322.878906 50.574219 50.574219c8.5 8.5 8.507812 22.289063 0 30.796875-8.5 8.5-22.292969 8.5-30.792969 0l-50.574219-50.578125zm0 0" fill="#50758e"/><path d="m416.761719 353.671875 30.796875-30.792969 18.3125 18.316406-30.792969 30.792969zm0 0" fill="#2ee0fd"/><path d="m416.164062 216.460938c0 58.4375-47.375 105.8125-105.8125 105.8125s-105.8125-47.375-105.8125-105.8125 47.375-105.8125 105.8125-105.8125 105.8125 47.375 105.8125 105.8125zm0 0" fill="#f1eded"/><path d="m366.664062 272.78125c-22.699218 22.699219-55.699218 28.832031-83.957031 18.390625-5.03125-1.851563-9.917969-4.234375-14.5625-7.148437-3.699219-2.316407-7.25-4.960938-10.609375-7.941407-1.195312-1.0625-2.363281-2.160156-3.503906-3.300781-4.613281-4.613281-8.546875-9.65625-11.777344-14.992188-18.640625-30.648437-14.707031-71.152343 11.777344-97.648437 26.488281-26.488281 67-30.417969 97.644531-11.777344 5.34375 3.238281 10.375 7.164063 14.988281 11.777344 1.140626 1.136719 2.238282 2.304687 3.289063 3.503906 3 3.359375 5.648437 6.910157 7.964844 10.609375 2.898437 4.644532 5.285156 9.53125 7.144531 14.5625 10.445312 28.269532 4.3125 61.257813-18.398438 83.964844zm0 0" fill="#14f2d7"/><path d="m369.953125 163.644531-112.417969 112.4375c-1.195312-1.058593-2.363281-2.160156-3.503906-3.300781-4.613281-4.613281-8.542969-9.65625-11.777344-14.988281l109.421875-109.429688c5.34375 3.242188 10.375 7.164063 14.988281 11.777344 1.140626 1.140625 2.238282 2.308594 3.289063 3.503906zm0 0" fill="#a6fff2"/><path d="m385.0625 188.816406-102.355469 102.355469c-5.03125-1.851563-9.917969-4.234375-14.5625-7.148437l109.773438-109.769532c2.898437 4.644532 5.285156 9.53125 7.144531 14.5625zm0 0" fill="#a6fff2"/><path d="m205.242188 140.902344h.039062c4.125 0 7.476562-3.335938 7.5-7.464844.019531-4.140625-3.324219-7.515625-7.464844-7.535156h-.101562c-.015625 0-.027344 0-.039063 0-4.125 0-7.480469 3.332031-7.5 7.464844-.019531 4.140624 3.324219 7.515624 7.464844 7.535156zm0 0"/><path d="m180.6875 140.902344h.039062c4.125 0 7.476563-3.335938 7.496094-7.464844.019532-4.140625-3.320312-7.515625-7.464844-7.535156h-.101562c-.011719 0-.023438 0-.035156 0-4.125 0-7.480469 3.332031-7.5 7.464844-.019532 4.140624 3.320312 7.515624 7.464844 7.535156zm0 0"/><path d="m156.101562 125.902344c-.011718 0-.023437 0-.035156 0-4.125 0-7.480468 3.332031-7.5 7.460937-.019531 4.144531 3.320313 7.519531 7.464844 7.539063h.101562.035157c4.125 0 7.480469-3.335938 7.5-7.464844.019531-4.140625-3.320313-7.515625-7.464844-7.535156zm0 0"/><path d="m180.757812 208.839844h-.101562c-.011719 0-.023438 0-.035156 0-4.125 0-7.480469 3.335937-7.5 7.464844-.019532 4.140624 3.320312 7.515624 7.464844 7.535156h.101562.035156c4.125 0 7.480469-3.332032 7.5-7.464844.019532-4.140625-3.320312-7.515625-7.464844-7.535156zm0 0"/><path d="m156.203125 208.839844h-.101563c-.011718 0-.023437 0-.035156 0-4.125 0-7.480468 3.335937-7.5 7.464844-.019531 4.140624 3.320313 7.515624 7.464844 7.535156h.101562.035157c4.125 0 7.480469-3.332032 7.5-7.464844.019531-4.140625-3.320313-7.515625-7.464844-7.535156zm0 0"/><path d="m296.957031 49.46875c0-11.445312-9.3125-20.757812-20.761719-20.757812-11.445312 0-20.761718 9.3125-20.761718 20.757812 0 11.449219 9.316406 20.761719 20.761718 20.761719 11.449219 0 20.761719-9.3125 20.761719-20.761719zm-26.519531 0c0-3.175781 2.582031-5.757812 5.757812-5.757812 3.175782 0 5.761719 2.582031 5.761719 5.757812 0 3.179688-2.585937 5.761719-5.761719 5.761719-3.175781 0-5.757812-2.582031-5.757812-5.761719zm0 0"/><path d="m205.28125 42.964844h-.105469c-4.140625 0-7.5 3.355468-7.5 7.5 0 4.140625 3.359375 7.5 7.5 7.5h.105469c4.140625 0 7.5-3.359375 7.5-7.5 0-4.144532-3.359375-7.5-7.5-7.5zm0 0"/><path d="m180.621094 42.964844c-4.140625 0-7.5 3.355468-7.5 7.5 0 4.140625 3.359375 7.5 7.5 7.5h.101562c4.144532 0 7.5-3.359375 7.5-7.5 0-4.144532-3.355468-7.5-7.5-7.5zm0 0"/><path d="m156.167969 42.964844h-.101563c-4.144531 0-7.5 3.355468-7.5 7.5 0 4.140625 3.355469 7.5 7.5 7.5h.101563c4.140625 0 7.5-3.359375 7.5-7.5 0-4.144532-3.359375-7.5-7.5-7.5zm0 0"/><path d="m308.875 353.144531h-103.953125c-2.671875-9.964843-10.53125-17.820312-20.492187-20.496093v-44.753907c0-4.144531-3.359376-7.5-7.5-7.5-4.140626 0-7.5 3.355469-7.5 7.5v44.753907c-9.960938 2.675781-17.820313 10.53125-20.492188 20.496093h-103.953125c-4.144531 0-7.5 3.355469-7.5 7.5 0 4.140625 3.355469 7.5 7.5 7.5h103.953125c3.3125 12.355469 14.605469 21.480469 27.992188 21.480469 13.386718 0 24.679687-9.125 27.992187-21.480469h103.953125c4.144531 0 7.5-3.359375 7.5-7.5 0-4.144531-3.355469-7.5-7.5-7.5zm-131.945312 21.480469c-7.710938 0-13.984376-6.273438-13.984376-13.980469 0-7.710937 6.273438-13.984375 13.984376-13.984375 7.710937 0 13.980468 6.273438 13.980468 13.984375 0 7.710938-6.269531 13.980469-13.980468 13.980469zm0 0"/><path d="m503.441406 368.148438-32.257812-32.257813s0-.003906-.003906-.003906l-62.695313-62.695313c9.898437-17.054687 15.179687-36.484375 15.179687-56.730468 0-30.269532-11.785156-58.722657-33.1875-80.125-12.316406-12.316407-26.785156-21.191407-42.203124-26.644532-4.082032-7.773437-10.160157-14.195312-17.414063-18.738281 13.796875-8.671875 22.996094-24.019531 22.996094-41.484375 0-27-21.96875-48.96875-48.972657-48.96875h-59.542968c-4.144532 0-7.5 3.359375-7.5 7.5s3.355468 7.5 7.5 7.5h59.542968c18.730469 0 33.972657 15.238281 33.972657 33.96875s-15.242188 33.96875-33.972657 33.96875h-125.546874c-4.140626 0-7.5 3.359375-7.5 7.5 0 4.144531 3.359374 7.5 7.5 7.5h125.546874c6.648438 0 13.039063 2 18.457032 5.507812-33.175782-3.792968-67.722656 7-93.113282 32.390626-8.988281 8.988281-16.164062 19.164062-21.535156 30.042968h-86.152344v-67.9375h24.136719c4.140625 0 7.5-3.359375 7.5-7.5 0-4.144531-3.359375-7.5-7.5-7.5h-24.136719v-67.941406h90.136719c4.144531 0 7.5-3.355469 7.5-7.5 0-4.140625-3.355469-7.5-7.5-7.5h-163.707031c-27 0-48.96875 21.96875-48.96875 48.96875 0 17.457031 9.1875 32.796875 22.972656 41.472656-13.785156 8.671875-22.972656 24.011719-22.972656 41.46875 0 17.453125 9.1875 32.796875 22.972656 41.46875-13.785156 8.671875-22.972656 24.015625-22.972656 41.46875 0 27 21.96875 48.96875 48.96875 48.96875h158.632812c2.703126 5.777344 5.910157 11.394532 9.660157 16.78125 2.363281 3.398438 7.039062 4.234375 10.4375 1.871094 3.402343-2.367188 4.238281-7.042969 1.871093-10.441406-27.179687-39.058594-22.445312-91.875 11.261719-125.582032 38.332031-38.332031 100.703125-38.332031 139.035157 0 18.570312 18.566407 28.796874 43.253907 28.796874 69.515626 0 26.257812-10.226562 50.949218-28.796874 69.515624-34.785157 34.785157-90.382813 38.449219-129.324219 8.523438-3.285157-2.523438-7.992188-1.910156-10.515625 1.375-2.523438 3.285156-1.910156 7.992188 1.375 10.515625 20.34375 15.632813 44.617187 23.316406 68.824218 23.316406 19.710938 0 39.371094-5.105469 56.8125-15.15625l44.410157 44.40625c.003906.007813.007812.011719.015625.019531.003906.003907.011718.007813.015625.015626l50.558593 50.554687c5.527344 5.53125 12.878907 8.574219 20.699219 8.574219 7.820313 0 15.171875-3.042969 20.703125-8.574219 11.410156-11.414063 11.410156-29.984375 0-41.398437zm-433.941406-201.769532v-67.9375h38.039062v67.9375zm0 15h38.039062v67.9375h-38.039062zm38.039062-97.9375h-38.039062v-67.941406h38.039062zm-92.539062-33.972656c0-18.730469 15.238281-33.96875 33.96875-33.96875h5.53125v67.941406h-5.53125c-18.730469 0-33.96875-15.242187-33.96875-33.972656zm0 82.941406c0-18.730468 15.238281-33.96875 33.96875-33.96875h5.53125v67.9375h-5.53125c-18.730469 0-33.96875-15.238281-33.96875-33.96875zm0 82.9375c0-18.730468 15.238281-33.96875 33.96875-33.96875h5.53125v67.9375h-5.53125c-18.730469 0-33.96875-15.238281-33.96875-33.96875zm107.539062 33.96875v-67.9375h80.035157c-7.144531 21.914063-7.496094 45.65625-.734375 67.9375zm304.835938 104.355469 20.1875-20.1875 7.707031 7.707031-20.1875 20.1875zm-36.898438-57.085937c3.402344-3.402344 6.558594-6.984376 9.464844-10.722657l37.015625 37.015625-20.1875 20.1875-37.027343-37.027344c3.734374-2.890624 7.320312-6.042968 10.734374-9.453124zm102.355469 102.355468c-2.695312 2.695313-6.28125 4.183594-10.09375 4.183594s-7.398437-1.488281-10.09375-4.183594l-26.957031-26.953125 20.1875-20.1875 26.957031 26.953125c5.566407 5.566406 5.566407 14.621094 0 20.1875zm0 0"/><path d="m310.351562 303.566406c22.316407 0 44.632813-8.496094 61.621094-25.484375 33.980469-33.976562 33.980469-89.265625 0-123.242187-33.980468-33.980469-89.265625-33.980469-123.242187 0-16.460938 16.457031-25.527344 38.34375-25.527344 61.621094 0 23.277343 9.066406 45.164062 25.527344 61.621093 16.988281 16.988281 39.304687 25.484375 61.621093 25.484375zm-51.015624-138.121094c14.0625-14.0625 32.539062-21.097656 51.015624-21.097656 18.476563 0 36.949219 7.03125 51.015626 21.097656 28.128906 28.128907 28.128906 73.902344 0 102.03125-28.132813 28.128907-73.902344 28.128907-102.03125 0-13.625-13.625-21.128907-31.746093-21.128907-51.015624 0-19.273438 7.5-37.386719 21.128907-51.015626zm0 0"/></svg>