<svg height="511pt" viewBox="0 -76 511.99975 511" width="511pt" xmlns="http://www.w3.org/2000/svg"><path d="m281.582031 84.441406h-235.863281c-21.105469 0-38.21875-17.113281-38.21875-38.222656 0-21.105469 17.113281-38.21875 38.21875-38.21875h235.863281c21.109375 0 38.21875 17.113281 38.21875 38.21875 0 21.109375-17.109375 38.222656-38.21875 38.222656zm0 0" fill="#6b97af"/><path d="m319.808594 46.222656c0 10.554688-4.285156 20.113282-11.199219 27.03125-6.917969 6.914063-16.46875 11.1875-27.023437 11.1875h-25.347657c10.554688 0 20.105469-4.273437 27.023438-11.1875 6.914062-6.917968 11.199219-16.476562 11.199219-27.03125 0-21.113281-17.121094-38.222656-38.222657-38.222656h25.347657c21.101562 0 38.222656 17.109375 38.222656 38.222656zm0 0" fill="#50758e"/><path d="m57.730469 8h48.882812v76.441406h-48.882812zm0 0" fill="#ff97bd"/><path d="m88.253906 8h18.359375v76.441406h-18.359375zm0 0" fill="#fc6393"/><path d="m267.363281 46.21875c0 6.75-5.472656 12.222656-12.222656 12.222656s-12.21875-5.472656-12.21875-12.222656c0-6.746094 5.46875-12.21875 12.21875-12.21875s12.222656 5.472656 12.222656 12.21875zm0 0" fill="#ff97bd"/><path d="m281.582031 160.878906h-235.863281c-21.105469 0-38.21875-17.109375-38.21875-38.21875s17.113281-38.21875 38.21875-38.21875h235.863281c21.109375 0 38.21875 17.109375 38.21875 38.21875s-17.109375 38.21875-38.21875 38.21875zm0 0" fill="#50758e"/><path d="m319.808594 122.660156c0 10.558594-4.285156 20.117188-11.199219 27.03125-6.917969 6.917969-16.46875 11.191406-27.023437 11.191406h-25.347657c10.554688 0 20.105469-4.273437 27.023438-11.191406 6.914062-6.914062 11.199219-16.472656 11.199219-27.03125 0-21.109375-17.121094-38.21875-38.222657-38.21875h25.347657c21.101562 0 38.222656 17.109375 38.222656 38.21875zm0 0" fill="#2b597f"/><path d="m57.730469 84.441406h48.882812v76.4375h-48.882812zm0 0" fill="#fc6393"/><path d="m88.253906 84.441406h18.359375v76.4375h-18.359375zm0 0" fill="#f2256f"/><path d="m267.363281 122.660156c0 6.75-5.472656 12.222656-12.222656 12.222656s-12.21875-5.472656-12.21875-12.222656 5.46875-12.222656 12.21875-12.222656 12.222656 5.472656 12.222656 12.222656zm0 0" fill="#fc6393"/><path d="m281.582031 237.320312h-235.863281c-21.105469 0-38.21875-17.113281-38.21875-38.21875 0-21.109374 17.113281-38.222656 38.21875-38.222656h235.863281c21.109375 0 38.21875 17.113282 38.21875 38.222656 0 21.105469-17.109375 38.21875-38.21875 38.21875zm0 0" fill="#6b97af"/><path d="m319.808594 199.101562c0 10.554688-4.285156 20.113282-11.199219 27.03125-6.917969 6.914063-16.46875 11.1875-27.023437 11.1875h-25.347657c10.554688 0 20.105469-4.273437 27.023438-11.1875 6.914062-6.917968 11.199219-16.476562 11.199219-27.03125 0-21.113281-17.121094-38.222656-38.222657-38.222656h25.347657c21.101562 0 38.222656 17.109375 38.222656 38.222656zm0 0" fill="#50758e"/><path d="m57.730469 160.878906h48.882812v76.441406h-48.882812zm0 0" fill="#ff97bd"/><path d="m88.253906 160.878906h18.359375v76.441406h-18.359375zm0 0" fill="#fc6393"/><path d="m267.363281 199.101562c0 6.746094-5.472656 12.21875-12.222656 12.21875s-12.21875-5.472656-12.21875-12.21875c0-6.75 5.46875-12.222656 12.21875-12.222656s12.222656 5.472656 12.222656 12.222656zm0 0" fill="#ff97bd"/><path d="m183.453125 333.011719c0 10.933593-8.867187 19.796875-19.800781 19.796875s-19.796875-8.863282-19.796875-19.796875c0-10.933594 8.863281-19.800781 19.796875-19.800781s19.800781 8.867187 19.800781 19.800781zm0 0" fill="#50758e"/><path d="m403.597656 305.132812c0 15.28125-12.429687 27.710938-27.710937 27.710938-15.277344 0-27.707031-12.429688-27.707031-27.710938v-144.097656c0-6.070312 4.917968-10.980468 10.976562-10.980468 6.0625 0 10.972656 4.910156 10.972656 10.980468v144.097656c0 3.171876 2.589844 5.75 5.757813 5.75 3.171875 0 5.761719-2.578124 5.761719-5.75 0-6.058593 4.910156-10.980468 10.96875-10.980468 6.058593 0 10.980468 4.921875 10.980468 10.980468zm0 0" fill="#f1eded"/><path d="m403.597656 305.132812c0 15.28125-12.429687 27.710938-27.710937 27.710938-15.277344 0-27.707031-12.429688-27.707031-27.710938v-33.730468h21.949218v33.730468c0 3.171876 2.589844 5.75 5.757813 5.75 3.171875 0 5.761719-2.578124 5.761719-5.75 0-6.058593 4.910156-10.980468 10.96875-10.980468 6.058593 0 10.980468 4.921875 10.980468 10.980468zm0 0" fill="#6b97af"/><path d="m494.503906 164.300781c-3.359375-.445312-6.789062-.675781-10.273437-.675781-22.066407 0-41.972657 9.1875-56.117188 23.945312-1.445312 1.515626-3.296875 2.40625-5.222656 2.664063-2.71875.375-5.578125-.515625-7.628906-2.664063-14.132813-14.757812-34.050781-23.945312-56.105469-23.945312s-41.972656 9.1875-56.109375 23.945312c-2.039063 2.136719-4.882813 3.03125-7.582031 2.664063-1.933594-.25-3.804688-1.140625-5.265625-2.664063-14.144531-14.757812-34.054688-23.945312-56.117188-23.945312-3.46875 0-6.890625.230469-10.230469.667969-6.5625.863281-11.675781-5.597657-9.476562-11.828125 21.09375-59.625 77.960938-102.339844 144.808594-102.339844s123.710937 42.722656 144.796875 102.339844c2.199219 6.238281-2.917969 12.699218-9.476563 11.835937zm0 0" fill="#a6fff2"/><path d="m494.507812 164.304688c-3.359374-.449219-6.789062-.679688-10.28125-.679688-1.21875 0-2.4375.03125-3.648437.089844-14.902344-47.660156-43.082031-86.1875-78.402344-107.480469 47.460938 13.8125 85.429688 49.921875 101.800781 96.230469 2.199219 6.238281-2.910156 12.699218-9.46875 11.839844zm0 0" fill="#14f2d7"/><path d="m422.890625 190.234375c-2.71875.375-5.578125-.519531-7.628906-2.664063-14.132813-14.757812-34.050781-23.949218-56.105469-23.949218-22.058594 0-41.976562 9.191406-56.109375 23.949218-2.039063 2.136719-4.882813 3.027344-7.582031 2.664063 12.289062-83.46875 36.214844-140.109375 63.71875-140.109375 27.488281 0 51.417968 56.640625 63.707031 140.109375zm0 0" fill="#fc6393"/><path d="m255.140625 65.941406c10.875 0 19.722656-8.847656 19.722656-19.722656 0-10.871094-8.847656-19.71875-19.722656-19.71875s-19.71875 8.847656-19.71875 19.71875c0 10.875 8.84375 19.722656 19.71875 19.722656zm0-24.441406c2.605469 0 4.722656 2.117188 4.722656 4.71875 0 2.605469-2.117187 4.722656-4.722656 4.722656-2.601563 0-4.71875-2.117187-4.71875-4.722656 0-2.601562 2.117187-4.71875 4.71875-4.71875zm0 0"/><path d="m189.78125 54.632812c4.144531 0 7.5-3.355468 7.5-7.5 0-4.140624-3.355469-7.5-7.5-7.5h-.09375c-4.144531 0-7.453125 3.359376-7.453125 7.5 0 4.144532 3.40625 7.5 7.546875 7.5zm0 0"/><path d="m167.148438 54.632812c4.144531 0 7.5-3.355468 7.5-7.5 0-4.140624-3.355469-7.5-7.5-7.5h-.09375c-4.140626 0-7.453126 3.359376-7.453126 7.5 0 4.144532 3.40625 7.5 7.546876 7.5zm0 0"/><path d="m144.519531 54.632812c4.140625 0 7.5-3.355468 7.5-7.5 0-4.140624-3.359375-7.5-7.5-7.5h-.09375c-4.144531 0-7.453125 3.359376-7.453125 7.5 0 4.144532 3.402344 7.5 7.546875 7.5zm0 0"/><path d="m189.820312 116.074219h-.09375c-4.167968-.007813-7.46875 3.320312-7.492187 7.460937-.019531 4.144532 3.367187 7.519532 7.507813 7.539063h.039062c4.125 0 7.480469-3.332031 7.5-7.460938.023438-4.140625-3.320312-7.515625-7.460938-7.539062zm0 0"/><path d="m167.1875 116.074219h-.09375c-.011719 0-.023438 0-.039062 0-4.121094 0-7.429688 3.332031-7.453126 7.460937-.019531 4.144532 3.367188 7.519532 7.507813 7.539063h.042969c4.121094 0 7.476562-3.332031 7.496094-7.460938.023437-4.140625-3.316407-7.515625-7.460938-7.539062zm0 0"/><path d="m144.558594 116.074219h-.09375c-4.113282-.007813-7.472656 3.320312-7.492188 7.460937-.023437 4.144532 3.363282 7.519532 7.507813 7.539063h.039062c4.125 0 7.476563-3.332031 7.5-7.460938.019531-4.140625-3.320312-7.515625-7.460937-7.539062zm0 0"/><path d="m274.863281 199.101562c0-10.875-8.847656-19.722656-19.722656-19.722656s-19.722656 8.847656-19.722656 19.722656c0 10.871094 8.847656 19.71875 19.722656 19.71875s19.722656-8.84375 19.722656-19.71875zm-24.441406 0c0-2.605468 2.117187-4.722656 4.71875-4.722656 2.605469 0 4.722656 2.117188 4.722656 4.722656 0 2.601563-2.117187 4.71875-4.722656 4.71875-2.601563 0-4.71875-2.117187-4.71875-4.71875zm0 0"/><path d="m189.6875 192.515625c-4.144531 0-7.453125 3.355469-7.453125 7.5 0 4.140625 3.40625 7.5 7.546875 7.5 4.144531 0 7.5-3.359375 7.5-7.5 0-4.144531-3.355469-7.5-7.5-7.5zm0 0"/><path d="m167.058594 192.515625c-4.144532 0-7.453125 3.355469-7.453125 7.5 0 4.140625 3.402343 7.5 7.546875 7.5 4.140625 0 7.5-3.359375 7.5-7.5 0-4.144531-3.359375-7.5-7.5-7.5zm0 0"/><path d="m144.425781 192.515625c-4.144531 0-7.453125 3.355469-7.453125 7.5 0 4.140625 3.402344 7.5 7.546875 7.5 4.140625 0 7.5-3.359375 7.5-7.5 0-4.144531-3.359375-7.5-7.5-7.5zm0 0"/><path d="m285.261719 325.511719h-95.363281c-2.585938-9.03125-9.714844-16.160157-18.746094-18.742188v-40.808593c0-4.140626-3.355469-7.5-7.5-7.5-4.140625 0-7.5 3.359374-7.5 7.5v40.808593c-9.03125 2.582031-16.15625 9.710938-18.742188 18.742188h-95.363281c-4.144531 0-7.5 3.355469-7.5 7.5 0 4.140625 3.355469 7.5 7.5 7.5h95.363281c3.269532 11.414062 13.792969 19.796875 26.242188 19.796875 12.453125 0 22.976562-8.382813 26.246094-19.796875h95.363281c4.144531 0 7.5-3.359375 7.5-7.5 0-4.144531-3.359375-7.5-7.5-7.5zm-121.609375 19.796875c-6.78125 0-12.300782-5.515625-12.300782-12.296875s5.519532-12.300781 12.300782-12.300781 12.300781 5.519531 12.300781 12.300781-5.515625 12.296875-12.300781 12.296875zm0 0"/><path d="m511.046875 149.96875c-7.414063-20.96875-18.917969-39.890625-34.195313-56.234375-2.824218-3.027344-7.570312-3.1875-10.601562-.359375-3.023438 2.828125-3.1875 7.574219-.355469 10.601562 13.855469 14.828126 24.289063 31.984376 31.011719 50.992188.222656.632812-.015625 1.117188-.25 1.410156-.46875.574219-.992188.503906-1.164062.480469-3.703126-.488281-7.492188-.734375-11.261719-.734375-20.8125 0-40.351563 7.359375-55.832031 20.847656-6.148438-37.011718-14.65625-68.351562-24.808594-91.144531-4.519532-10.144531-9.3125-18.503906-14.359375-25.085937 18.96875 3.960937 36.980469 11.660156 53.125 22.871093 3.40625 2.363281 8.078125 1.519531 10.4375-1.882812 2.363281-3.402344 1.519531-8.074219-1.882813-10.4375-24.957031-17.328125-53.9375-27.101563-84.230468-28.492188v-8.972656c0-4.140625-3.355469-7.5-7.5-7.5-4.140626 0-7.5 3.359375-7.5 7.5v8.976563c-8.273438.386718-16.421876 1.402343-24.386719 3.019531-.21875-25.027344-20.632813-45.324219-45.710938-45.324219h-235.863281c-5.878906 0-11.621094 1.113281-17.066406 3.304688-3.84375 1.546874-5.703125 5.917968-4.15625 9.761718 1.546875 3.839844 5.914062 5.699219 9.757812 4.152344 3.660156-1.472656 7.519532-2.21875 11.46875-2.21875h4.507813v61.4375h-4.507813c-16.941406 0-30.722656-13.777344-30.722656-30.71875 0-3.144531.476562-6.246094 1.410156-9.21875 1.238282-3.953125-.957031-8.160156-4.910156-9.402344-3.949219-1.242187-8.160156.953125-9.402344 4.90625-1.390625 4.429688-2.097656 9.046875-2.097656 13.714844 0 15.96875 8.234375 30.042969 20.671875 38.222656-12.4375 8.179688-20.671875 22.25-20.671875 38.21875s8.234375 30.039063 20.671875 38.21875c-12.4375 8.179688-20.671875 22.253906-20.671875 38.222656 0 25.207032 20.511719 45.71875 45.71875 45.71875h148.949219c4.144531 0 7.5-3.359374 7.5-7.5 0-4.144531-3.355469-7.5-7.5-7.5h-80.554688v-61.441406h98.53125c3.410157 2.699219 7.753907 3.933594 12.179688 3.351563 3.042969-.402344 6.15625-.605469 9.253906-.605469 19.324219 0 37.328125 7.683594 50.703125 21.640625 3.078125 3.210937 7.394531 5.054687 11.839844 5.050781 4.445312 0 8.761718-1.839844 11.839844-5.054687.824218-.859375 1.667968-1.695313 2.527343-2.511719.855469 2.859375 1.3125 5.835938 1.3125 8.851562 0 16.9375-13.78125 30.71875-30.71875 30.71875h-54.253906c-4.140625 0-7.5 3.359376-7.5 7.5 0 4.140626 3.359375 7.5 7.5 7.5h54.253906c25.210938 0 45.71875-20.507812 45.71875-45.71875 0-6.308593-1.320312-12.527343-3.816406-18.265624 5.382813-3.1875 11.152344-5.628907 17.195313-7.261719v91.199219c-2.378907 1.257812-4 3.753906-4 6.632812s1.621093 5.375 4 6.632812v27.09375c0 19.414063 15.792968 35.207032 35.207031 35.207032 19.414062 0 35.207031-15.792969 35.207031-35.207032 0-10.1875-8.285156-18.476562-18.472656-18.476562-6.164063 0-11.632813 3.035156-14.992188 7.6875v-16.308594c2.378906-1.257812 4-3.75 4-6.628906 0-2.875-1.621094-5.371094-4-6.628906v-91.203125c12.160156 3.285156 23.238282 9.816406 32.21875 19.1875 3.078125 3.214843 7.394532 5.054687 11.839844 5.058593h.003906c4.445313 0 8.757813-1.84375 11.839844-5.054687 13.371094-13.953125 31.378906-21.640625 50.699219-21.640625 3.113281 0 6.242187.207031 9.296875.609375 5.652344.75 11.175781-1.464844 14.78125-5.910156 3.636718-4.488281 4.660156-10.414063 2.738281-15.855469zm-198.746094-103.75c0 1.160156-.070312 2.316406-.199219 3.460938-19.023437 5.835937-36.71875 15.125-52.226562 27.261718h-145.761719v-61.441406h167.46875c16.9375 0 30.71875 13.78125 30.71875 30.71875zm-104.992187 103.746094c-.398438 1.121094-.660156 2.265625-.8125 3.414062h-92.382813v-61.4375h129.105469c-15.679688 16.230469-28.078125 35.871094-35.910156 58.023438zm-142.078125-58.023438h33.882812v61.4375h-33.882812zm33.882812-76.441406v61.441406h-33.882812v-61.441406zm-84.113281 107.160156c0-16.9375 13.78125-30.71875 30.71875-30.71875h4.511719v61.4375h-4.511719c-16.9375 0-30.71875-13.78125-30.71875-30.71875zm0 76.441406c0-16.941406 13.78125-30.722656 30.71875-30.722656h4.511719v61.441406h-4.511719c-16.9375 0-30.71875-13.78125-30.71875-30.71875zm50.230469 30.71875v-61.441406h33.882812v61.441406zm168.847656-73.695312c-3.75 0-7.519531.246094-11.210937.730469-.179688.023437-.703126.09375-1.167969-.480469-.238281-.292969-.472657-.777344-.25-1.410156 17.175781-48.566406 58.542969-83.835938 107.65625-94.199219-5.039063 6.582031-9.824219 14.929687-14.339844 25.0625-10.15625 22.796875-18.667969 54.148437-24.8125 91.179687-15.488281-13.511718-35.046875-20.882812-55.875-20.882812zm155.066406 149.007812c0-1.917968 1.558594-3.476562 3.476563-3.476562 1.914062 0 3.472656 1.558594 3.472656 3.476562 0 11.140626-9.0625 20.207032-20.207031 20.207032-11.140625 0-20.207031-9.066406-20.207031-20.207032v-26.230468h6.953124v26.230468c0 7.308594 5.945313 13.253907 13.253907 13.253907 7.3125 0 13.257812-5.945313 13.257812-13.253907zm-26.511719-41.226562h-6.953124v-92.695312c1.152343-.054688 2.3125-.085938 3.476562-.085938s2.320312.03125 3.476562.085938zm-3.480468-107.78125c-19.863282 0-38.5625 6.710938-53.679688 19.050781 5.863282-33.894531 13.734375-62.449219 22.996094-83.246093 9.851562-22.121094 20.761719-34.304688 30.710938-34.304688 9.945312 0 20.851562 12.183594 30.707031 34.304688 9.265625 20.804687 17.136719 49.378906 23.003906 83.289062-15.128906-12.367188-33.851563-19.09375-53.738281-19.09375zm0 0"/></svg>