<svg height="512pt" viewBox="0 -10 512 512" width="512pt" xmlns="http://www.w3.org/2000/svg"><path d="m129.28125 426.601562h253.441406v58.5h-253.441406zm0 0" fill="#dad0cd"/><path d="m484.5 438.367188h-457c-11.046875 0-20-8.953126-20-20v-286.882813c0-11.046875 8.953125-20 20-20h457c11.046875 0 20 8.953125 20 20v286.882813c0 11.046874-8.953125 20-20 20zm0 0" fill="#ff97bd"/><path d="m504.5 131.484375v286.882813c0 11.046874-8.949219 20-20 20h-31.660156c11.050781 0 20-8.953126 20-20v-286.882813c0-11.046875-8.949219-20-20-20h31.660156c11.050781 0 20 8.953125 20 20zm0 0" fill="#fc6393"/><path d="m504.5 389.347656v29.019532c0 11.046874-8.949219 20-20 20h-457c-11.050781 0-20-8.953126-20-20v-29.019532zm0 0" fill="#6b97af"/><path d="m504.5 389.347656v29.019532c0 11.046874-8.949219 20-20 20h-31.660156c11.050781 0 20-8.953126 20-20v-29.019532zm0 0" fill="#50758e"/><path d="m421.589844 173.089844c0 91.449218-74.140625 165.582031-165.589844 165.582031-18.808594 0-36.890625-3.140625-53.75-8.921875-56.761719-19.46875-99.601562-68.910156-109.621094-129.441406-1.457031-8.859375-2.21875-17.949219-2.21875-27.21875 0-58.28125 30.109375-109.53125 75.628906-139.039063 25.902344-16.789062 56.800782-26.550781 89.960938-26.550781 66.601562 0 124.011719 39.320312 150.300781 96.011719 9.820313 21.148437 15.289063 44.71875 15.289063 69.578125zm0 0" fill="#27bef4"/><path d="m421.589844 173.089844c0 91.449218-74.140625 165.582031-165.589844 165.582031-6.601562 0-13.109375-.390625-19.511719-1.152344 82.222657-9.691406 146-79.609375 146-164.429687 0-24.859375-5.46875-48.429688-15.289062-69.578125-23.679688-51.0625-72.609375-88.03125-130.757813-94.863281 6.417969-.757813 12.9375-1.148438 19.558594-1.148438 66.601562 0 124.011719 39.320312 150.300781 96.011719 9.820313 21.148437 15.289063 44.71875 15.289063 69.578125zm0 0" fill="#209ced"/><path d="m233.28125 310.929688c-1.019531 0-2.03125-.050782-3.03125-.128907-10.601562-.878906-20.511719 5.089844-25.449219 14.519531-.789062 1.507813-1.640625 2.988282-2.550781 4.429688-56.761719-19.46875-99.601562-68.910156-109.621094-129.441406 2.25-3.730469 5.121094-7.179688 8.589844-10.199219 16.679688-14.507813 42.109375-13.789063 57.929688 1.660156 8.453124 8.261719 12.730468 19.058594 12.921874 29.878907.148438 8.53125 4.300782 16.460937 11.417969 21.171874.550781.371094 1.089844.738282 1.632813 1.121094 8.667968 6.136719 20.109375 6.058594 29.117187.429688 6.160157-3.851563 13.582031-5.890625 21.492188-5.359375 17.789062 1.179687 32.210937 15.539062 33.460937 33.316406 1.46875 21.0625-15.171875 38.601563-35.910156 38.601563zm0 0" fill="#00e2c7"/><path d="m406.300781 103.511719c-6.992187 11.796875-17 21.628906-28.972656 28.398437-.867187.488282-1.738281.960938-2.628906 1.417969-9.359375 4.832031-15.347657 14.34375-15.558594 24.863281-.03125 1.519532-.140625 3.058594-.320313 4.609375-2.589843 21.738281-20.621093 38.777344-42.480468 40.167969-26.640625 1.679688-48.761719-19.417969-48.761719-45.699219 0-7.96875 2.042969-15.46875 5.621094-22 5.082031-9.230469 5.128906-20.480469-.570313-29.347656-.070312-.121094-.148437-.242187-.230468-.371094-6.457032-10.179687-18.539063-15.351562-30.308594-12.742187-4.371094.980468-8.917969 1.492187-13.589844 1.492187-33.769531 0-61.269531-26.769531-62.460938-60.25 20.730469-13.441406 44.671876-22.378906 70.402344-25.402343 6.417969-.757813 12.9375-1.148438 19.558594-1.148438 66.601562 0 124.011719 39.320312 150.300781 96.011719zm0 0" fill="#00e2c7"/><path d="m406.300781 103.511719c-6.992187 11.796875-17 21.628906-28.972656 28.398437-2.519531-9.851562-5.929687-19.351562-10.128906-28.398437-23.679688-51.0625-72.609375-88.03125-130.757813-94.863281 6.417969-.757813 12.9375-1.148438 19.558594-1.148438 66.601562 0 124.011719 39.320312 150.300781 96.011719zm0 0" fill="#00c6a9"/><path d="m504.5 302.46875c4.140625 0 7.5-3.355469 7.5-7.5v-163.484375c0-15.164063-12.335938-27.5-27.5-27.5h-69.820312c-.425782-.980469-.855469-1.964844-1.300782-2.941406-.175781-.503907-.40625-.992188-.6875-1.449219-10.164062-21.667969-24.8125-41.246094-43.332031-57.308594-3.128906-2.714844-7.867187-2.378906-10.582031.75-2.710938 3.128906-2.375 7.867188.753906 10.582032 16.082031 13.949218 28.976562 30.796874 38.183594 49.429687-6.679688 9.964844-15.75 18.089844-26.453125 23.617187-11.835938 6.113282-19.355469 18.136719-19.617188 31.378907-.027343 1.28125-.117187 2.585937-.269531 3.871093-2.179688 18.28125-17.109375 32.398438-35.503906 33.566407-10.722656.679687-20.910156-2.972657-28.699219-10.28125-7.796875-7.316407-12.089844-17.238281-12.089844-27.929688 0-6.433593 1.625-12.789062 4.695313-18.382812 6.527344-11.878907 6.207031-26.066407-.839844-37.035157l-.207031-.320312c-8.164063-12.867188-23.546875-19.308594-38.261719-16.039062-3.90625.867187-7.933594 1.308593-11.96875 1.308593-28.320312 0-51.535156-21.089843-54.632812-48.742187 23.949218-14.625 52.074218-23.058594 82.132812-23.058594 27.234375 0 54.089844 7.046875 77.667969 20.375 3.605469 2.039062 8.183593.765625 10.222656-2.839844 2.039063-3.605468.765625-8.179687-2.839844-10.21875-25.824219-14.597656-55.238281-22.316406-85.050781-22.316406-34.273438 0-66.253906 10.015625-93.164062 27.269531-.636719.300781-1.226563.691407-1.746094 1.148438-27.929688 18.386719-50.242188 44.632812-63.765625 75.566406h-69.824219c-15.164062 0-27.5 12.335937-27.5 27.5v286.882813c0 15.164062 12.335938 27.5 27.5 27.5h33.171875c4.140625 0 7.5-3.359376 7.5-7.5 0-4.140626-3.359375-7.5-7.5-7.5h-33.171875c-6.894531 0-12.5-5.605469-12.5-12.5v-21.523438h482v21.523438c0 6.894531-5.605469 12.5-12.5 12.5h-391.167969c-4.144531 0-7.5 3.359374-7.5 7.5 0 4.140624 3.355469 7.5 7.5 7.5h28.449219v31.734374h-16.113281c-4.144531 0-7.5 3.355469-7.5 7.5 0 4.140626 3.355469 7.5 7.5 7.5h300.664062c4.144531 0 7.5-3.359374 7.5-7.5 0-4.144531-3.355469-7.5-7.5-7.5h-16.113281v-31.734374h94.28125c15.164062 0 27.5-12.335938 27.5-27.5v-90.738282c0-4.140625-3.359375-7.5-7.5-7.5s-7.5 3.359375-7.5 7.5v54.214844h-482v-250.359375c0-6.890625 5.605469-12.5 12.5-12.5h64.085938c-5.617188 17.03125-8.671876 35.214844-8.671876 54.101563 0 9.464843.777344 18.746093 2.242188 27.800781.035156.445312.109375.886719.222656 1.320312 13.886719 81.621094 85.105469 143.964844 170.621094 143.964844 95.4375 0 173.085938-77.648437 173.085938-173.085937 0-18.589844-2.992188-36.828126-8.679688-54.101563h64.09375c6.894531 0 12.5 5.609375 12.5 12.5v163.484375c0 4.144531 3.359375 7.5 7.5 7.5zm-129.28125 175.132812h-238.4375v-31.734374h238.4375zm-274.664062-275.699218c1.601562-2.238282 3.472656-4.292969 5.585937-6.132813 13.753906-11.964843 34.734375-11.363281 47.765625 1.363281 6.714844 6.5625 10.5 15.316407 10.664062 24.648438.195313 11.097656 5.722657 21.300781 14.730469 27.257812.507813.34375 1.003907.683594 1.484375 1.019532 10.964844 7.765625 25.65625 8.027344 37.429688.671875 5.082031-3.179688 10.96875-4.640625 17.019531-4.238281 14.101563.9375 25.484375 12.269531 26.476563 26.359374.558593 8.027344-2.136719 15.664063-7.585938 21.511719-5.453125 5.847657-12.855469 9.066407-20.84375 9.066407-.746094 0-1.542969-.035157-2.410156-.105469-12.902344-1.078125-25.269532 5.640625-31.949219 17.175781-50.378906-19.570312-88.316406-64.253906-98.367187-118.597656zm155.445312 129.269531c-14.65625 0-28.851562-2.015625-42.328125-5.765625 3.949219-4.90625 9.871094-7.636719 15.980469-7.128906 1.289062.101562 2.476562.152344 3.628906.152344 12.015625 0 23.613281-5.042969 31.8125-13.835938 8.320312-8.917969 12.429688-20.5625 11.578125-32.789062-1.515625-21.53125-18.902344-38.847657-40.441406-40.277344-9.210938-.617188-18.191407 1.625-25.964844 6.484375-6.628906 4.140625-14.796875 4.066406-20.828125-.203125-.582031-.410156-1.164062-.8125-1.808594-1.246094-4.9375-3.265625-7.953125-8.890625-8.058594-15.042969-.234374-13.304687-5.625-25.773437-15.179687-35.117187-17.984375-17.558594-46.574219-18.929688-66.164063-3.542969-.199218-3.234375-.3125-6.492187-.3125-9.773437 0-51.203126 24.476563-96.789063 62.332032-125.695313 2.980468 13.140625 9.707031 25.167969 19.59375 34.730469 13.117187 12.691406 30.398437 19.679687 48.660156 19.679687 5.128906 0 10.25-.5625 15.222656-1.664062 8.570313-1.90625 17.550782 1.882812 22.34375 9.433593l.257813.40625c4.066406 6.324219 4.183593 14.632813.308593 21.6875-4.289062 7.800782-6.554687 16.65625-6.554687 25.605469 0 14.664063 6.136719 28.832031 16.828125 38.867188 9.984375 9.371093 22.800781 14.425781 36.402344 14.425781 1.164062 0 2.335937-.039062 3.507812-.113281 25.621094-1.625 46.417969-21.289063 49.449219-46.761719.210937-1.773438.335937-3.570312.375-5.34375.152344-7.734375 4.5625-14.769531 11.5-18.355469 10.152344-5.242187 19.089844-12.410156 26.375-21.066406 6.261719 17.167969 9.570313 35.472656 9.570313 54.164063 0 87.167968-70.917969 158.085937-158.085938 158.085937zm0 0"/><path d="m256.015625 421.355469h.039063c4.125 0 7.476562-3.335938 7.496093-7.464844.019531-4.144531-3.320312-7.515625-7.464843-7.535156h-.101563c-.011719 0-.023437 0-.039063 0-4.125 0-7.476562 3.332031-7.496093 7.464843-.019531 4.140626 3.320312 7.515626 7.464843 7.535157zm0 0"/><path d="m217.035156 129.800781h-.105468c-.011719 0-.023438 0-.035157 0-4.125 0-7.480469 3.332031-7.5 7.464844-.019531 4.140625 3.324219 7.515625 7.464844 7.535156h.105469.035156c4.125 0 7.480469-3.335937 7.5-7.464843.019531-4.144532-3.324219-7.515626-7.464844-7.535157zm0 0"/><path d="m291.035156 277.800781h-.105468c-.011719 0-.023438 0-.035157 0-4.125 0-7.480469 3.332031-7.5 7.464844-.019531 4.140625 3.324219 7.515625 7.464844 7.535156h.105469.035156c4.125 0 7.480469-3.335937 7.5-7.464843.019531-4.144532-3.324219-7.515626-7.464844-7.535157zm0 0"/></svg>