<svg height="512pt" viewBox="-6 0 512 512.00089" width="512pt" xmlns="http://www.w3.org/2000/svg"><path d="m493.535156 248.792969c-8.773437-118.964844-105.304687-213.914063-224.9375-220.191407 1.738282-5.757812.265625-12.273437-4.433594-16.730468-6.527343-6.191406-16.917968-5.746094-23.277343.613281l-21.105469 21.109375c-6.433594 6.429688-6.433594 16.859375 0 23.289062l21.410156 21.414063c3.214844 3.214844 7.429688 4.820313 11.644532 4.820313 4.214843 0 8.433593-1.605469 11.648437-4.820313 4.519531-4.519531 5.847656-11.007813 4.019531-16.699219 102.316406 6.191406 184.652344 87.660156 192.183594 189.617188.632812 8.601562 7.789062 15.261718 16.414062 15.261718 9.574219 0 17.136719-8.136718 16.433594-17.683593zm0 0" fill="#ff97bd"/><path d="m7.542969 263.207031c8.773437 118.964844 105.304687 213.914063 224.9375 220.191407-1.738281 5.757812-.261719 12.273437 4.433593 16.730468 6.527344 6.191406 16.917969 5.746094 23.28125-.613281l21.105469-21.109375c6.429688-6.429688 6.429688-16.859375 0-23.289062l-21.414062-21.414063c-3.214844-3.214844-7.429688-4.820313-11.644531-4.820313-4.214844 0-8.429688 1.605469-11.644532 4.820313-4.519531 4.519531-5.851562 11.007813-4.019531 16.699219-102.316406-6.191406-184.652344-87.660156-192.183594-189.613282-.636719-8.605468-7.789062-15.265624-16.417969-15.265624-9.574218 0-17.136718 8.136718-16.433593 17.683593zm0 0" fill="#fc6393"/><path d="m347.980469 195.96875h-194.886719c-17.4375 0-31.578125-14.140625-31.578125-31.578125 0-17.441406 14.140625-31.582031 31.578125-31.582031h194.886719c17.441406 0 31.582031 14.140625 31.582031 31.582031-.003906 17.441406-14.140625 31.578125-31.582031 31.578125zm0 0" fill="#6b97af"/><path d="m379.5625 164.390625c0 8.722656-3.535156 16.621094-9.25 22.335937-5.714844 5.714844-13.605469 9.246094-22.328125 9.246094h-20.945313c8.722657 0 16.613282-3.53125 22.328126-9.246094 5.714843-5.714843 9.25-13.613281 9.25-22.335937 0-17.445313-14.144532-31.582031-31.578126-31.582031h20.941407c17.441406 0 31.582031 14.136718 31.582031 31.582031zm0 0" fill="#50758e"/><path d="m163.019531 132.808594h40.386719v63.160156h-40.386719zm0 0" fill="#f1eded"/><path d="m188.238281 132.808594h15.167969v63.160156h-15.167969zm0 0" fill="#dad0cd"/><path d="m336.234375 164.390625c0 5.574219-4.523437 10.097656-10.101563 10.097656-5.574218 0-10.097656-4.523437-10.097656-10.097656 0-5.578125 4.523438-10.101563 10.097656-10.101563 5.578126 0 10.101563 4.523438 10.101563 10.101563zm0 0" fill="#00e2c7"/><path d="m347.980469 259.128906h-194.886719c-17.4375 0-31.578125-14.140625-31.578125-31.578125 0-17.441406 14.140625-31.582031 31.578125-31.582031h194.886719c17.441406 0 31.582031 14.140625 31.582031 31.582031-.003906 17.441407-14.140625 31.578125-31.582031 31.578125zm0 0" fill="#50758e"/><path d="m379.5625 227.550781c0 8.71875-3.535156 16.621094-9.25 22.335938-5.714844 5.714843-13.605469 9.246093-22.328125 9.246093h-20.945313c8.722657 0 16.613282-3.53125 22.328126-9.246093 5.714843-5.714844 9.25-13.617188 9.25-22.335938 0-17.445312-14.144532-31.582031-31.578126-31.582031h20.941407c17.441406 0 31.582031 14.136719 31.582031 31.582031zm0 0" fill="#2b597f"/><path d="m163.019531 195.96875h40.386719v63.160156h-40.386719zm0 0" fill="#dad0cd"/><path d="m188.238281 195.96875h15.167969v63.160156h-15.167969zm0 0" fill="#c1bab8"/><path d="m336.234375 227.550781c0 5.574219-4.523437 10.097657-10.101563 10.097657-5.574218 0-10.097656-4.523438-10.097656-10.097657 0-5.578125 4.523438-10.101562 10.097656-10.101562 5.578126 0 10.101563 4.523437 10.101563 10.101562zm0 0" fill="#00e2c7"/><path d="m347.980469 322.289062h-194.886719c-17.4375 0-31.578125-14.140624-31.578125-31.582031 0-17.4375 14.140625-31.578125 31.578125-31.578125h194.886719c17.441406 0 31.582031 14.140625 31.582031 31.578125-.003906 17.445313-14.140625 31.582031-31.582031 31.582031zm0 0" fill="#6b97af"/><path d="m379.5625 290.710938c0 8.71875-3.535156 16.621093-9.25 22.335937s-13.605469 9.242187-22.328125 9.242187h-20.945313c8.722657 0 16.613282-3.527343 22.328126-9.242187 5.714843-5.714844 9.25-13.617187 9.25-22.335937 0-17.445313-14.144532-31.582032-31.578126-31.582032h20.941407c17.441406 0 31.582031 14.136719 31.582031 31.582032zm0 0" fill="#50758e"/><path d="m163.019531 259.128906h40.386719v63.160156h-40.386719zm0 0" fill="#f1eded"/><path d="m188.238281 259.128906h15.167969v63.160156h-15.167969zm0 0" fill="#dad0cd"/><path d="m336.234375 290.707031c0 5.578125-4.523437 10.101563-10.101563 10.101563-5.574218 0-10.097656-4.523438-10.097656-10.101563 0-5.574219 4.523438-10.097656 10.097656-10.097656 5.578126 0 10.101563 4.523437 10.101563 10.097656zm0 0" fill="#00e2c7"/><path d="m262.804688 372.925781c0 6.773438-5.492188 12.265625-12.265626 12.265625-6.773437 0-12.261718-5.492187-12.261718-12.265625 0-6.773437 5.488281-12.265625 12.261718-12.265625 6.773438 0 12.265626 5.492188 12.265626 12.265625zm0 0" fill="#50758e"/><path d="m501.015625 248.242188c-3.613281-49.011719-21.714844-95.363282-52.347656-134.042969-2.570313-3.25-7.289063-3.796875-10.535157-1.226563-3.25 2.574219-3.796874 7.292969-1.226562 10.539063 28.761719 36.316406 45.753906 79.828125 49.148438 125.832031.1875 2.515625-.65625 4.914062-2.375 6.761719-1.71875 1.851562-4.054688 2.871093-6.578126 2.871093-4.667968 0-8.589843-3.652343-8.9375-8.316406-7.800781-105.652344-93.445312-190.148437-199.210937-196.550781-2.46875-.15625-4.859375.933594-6.378906 2.890625s-1.972657 4.539062-1.214844 6.894531c1.039063 3.230469.203125 6.714844-2.183594 9.097657-1.691406 1.695312-3.945312 2.625-6.339843 2.625-2.394532 0-4.644532-.933594-6.339844-2.625l-21.410156-21.414063c-3.5-3.496094-3.5-9.1875-.003907-12.683594l21.109375-21.105469c3.570313-3.574218 9.320313-3.789062 12.808594-.476562 2.480469 2.351562 3.40625 5.84375 2.417969 9.121094-.667969 2.203125-.28125 4.59375 1.042969 6.480468 1.324218 1.882813 3.441406 3.054688 5.742187 3.175782 55.058594 2.890625 107.402344 25.613281 147.386719 63.984375 2.992187 2.867187 7.738281 2.769531 10.609375-.222657 2.867187-2.988281 2.769531-7.734374-.222657-10.605468-40.703124-39.058594-93.449218-62.894532-149.253906-67.605469-.511718-5.699219-3.066406-11.105469-7.394531-15.210937-9.335937-8.859376-24.472656-8.519532-33.746094.75l-21.105469 21.109374c-9.347656 9.34375-9.347656 24.550782 0 33.898438l21.410157 21.410156c4.527343 4.527344 10.546875 7.023438 16.949219 7.023438 6.402343 0 12.421874-2.496094 16.949218-7.023438 3.816406-3.8125 6.148438-8.675781 6.820313-13.808594 94.332031 9.84375 169.554687 86.644532 176.597656 181.976563.917969 12.453125 11.417969 22.210937 23.898437 22.210937 6.644532 0 13.046876-2.792968 17.566407-7.660156 4.523437-4.863281 6.835937-11.453125 6.347656-18.074218zm0 0"/><path d="m265.191406 428.402344c-4.527344-4.527344-10.546875-7.019532-16.949218-7.019532-6.402344 0-12.421876 2.492188-16.949219 7.019532-3.8125 3.8125-6.148438 8.675781-6.820313 13.808594-94.332031-9.84375-169.554687-86.644532-176.597656-181.976563-.917969-12.453125-11.414062-22.210937-23.898438-22.210937-6.640624 0-13.046874 2.792968-17.566406 7.660156-4.519531 4.867187-6.832031 11.457031-6.3437498 18.078125 4.6640628 63.285156 33.3632818 121.660156 80.8046878 164.371093 3.082031 2.773438 7.820312 2.523438 10.59375-.558593 2.773437-3.078125 2.523437-7.820313-.554688-10.59375-44.554687-40.105469-71.503906-94.914063-75.882812-154.324219-.1875-2.511719.65625-4.914062 2.371094-6.761719 1.722656-1.847656 4.054687-2.867187 6.578124-2.867187 4.667969 0 8.59375 3.648437 8.9375 8.3125 7.804688 105.652344 93.445313 190.152344 199.210938 196.550781 2.453125.144531 4.859375-.929687 6.378906-2.886719 1.519532-1.960937 1.976563-4.539062 1.214844-6.898437-1.035156-3.226563-.199219-6.710938 2.183594-9.097657 1.695312-1.691406 3.945312-2.625 6.339844-2.625 2.398437 0 4.648437.933594 6.34375 2.625l21.410156 21.414063c3.496094 3.496094 3.496094 9.1875.003906 12.683594l-21.109375 21.105469c-3.574219 3.574218-9.324219 3.789062-12.8125.476562-2.476563-2.351562-3.402344-5.84375-2.414063-9.121094.667969-2.203125.28125-4.59375-1.042968-6.480468-1.324219-1.882813-3.441406-3.054688-5.746094-3.175782-41.769531-2.191406-82.179688-15.773437-116.863281-39.277344-3.433594-2.324218-8.09375-1.429687-10.417969 2-2.324219 3.429688-1.429688 8.09375 2 10.417969 34.800781 23.582031 75.019531 37.789063 116.765625 41.3125.511719 5.695313 3.066406 11.105469 7.394531 15.210938 4.527344 4.292969 10.417969 6.425781 16.34375 6.425781 6.292969 0 12.625-2.40625 17.402344-7.179688l21.105469-21.105468c9.347656-9.347656 9.347656-24.554688 0-33.902344zm0 0"/><path d="m285.714844 132.808594c0-4.140625-3.359375-7.5-7.5-7.5h-125.121094c-21.546875 0-39.082031 17.53125-39.082031 39.082031 0 12.960937 6.351562 24.464844 16.097656 31.578125-9.746094 7.113281-16.097656 18.617188-16.097656 31.582031 0 12.960938 6.351562 24.464844 16.097656 31.578125-9.746094 7.113282-16.097656 18.617188-16.097656 31.578125 0 21.550781 17.535156 39.082031 39.082031 39.082031h89.945312v24.859376c-4.875 2.003906-8.769531 5.902343-10.777343 10.777343h-82.386719c-4.144531 0-7.5 3.355469-7.5 7.5 0 4.140625 3.355469 7.5 7.5 7.5h82.386719c2.960937 7.191407 10.035156 12.265625 18.277343 12.265625 8.246094 0 15.316407-5.074218 18.277344-12.265625h82.386719c4.144531 0 7.5-3.359375 7.5-7.5 0-4.144531-3.355469-7.5-7.5-7.5h-82.386719c-2.003906-4.875-5.902344-8.773437-10.777344-10.777343v-24.859376h89.941407c21.550781 0 39.082031-17.53125 39.082031-39.082031 0-12.960937-6.351562-24.464843-16.097656-31.578125 9.746094-7.113281 16.097656-18.617187 16.097656-31.578125 0-12.964843-6.351562-24.46875-16.097656-31.582031 9.746094-7.113281 16.097656-18.617188 16.097656-31.578125 0-21.550781-17.53125-39.082031-39.082031-39.082031h-37.101563c-4.144531 0-7.5 3.359375-7.5 7.5 0 4.144531 3.355469 7.5 7.5 7.5h37.101563c13.277343 0 24.078125 10.804687 24.078125 24.082031s-10.800782 24.078125-24.078125 24.078125h-137.070313v-48.160156h67.304688c4.140625 0 7.5-3.355469 7.5-7.5zm-35.175782 244.882812c-2.625 0-4.761718-2.136718-4.761718-4.765625 0-2.628906 2.136718-4.765625 4.761718-4.765625 2.628907 0 4.765626 2.140625 4.765626 4.765625s-2.136719 4.765625-4.765626 4.765625zm-80.019531-111.0625h25.386719v48.160156h-25.386719zm25.386719-15h-25.386719v-48.160156h25.386719zm-66.890625-87.238281c0-13.277344 10.800781-24.082031 24.078125-24.082031h2.425781v48.160156h-2.425781c-13.277344 0-24.078125-10.800781-24.078125-24.078125zm0 63.160156c0-13.277343 10.800781-24.082031 24.078125-24.082031h2.425781v48.160156h-2.425781c-13.277344 0-24.078125-10.804687-24.078125-24.078125zm0 63.15625c0-13.273437 10.800781-24.078125 24.078125-24.078125h2.425781v48.160156h-2.425781c-13.277344 0-24.078125-10.804687-24.078125-24.082031zm243.042969 0c0 13.277344-10.800782 24.082031-24.078125 24.082031h-137.070313v-48.160156h137.070313c13.277343 0 24.078125 10.804688 24.078125 24.078125zm0-63.15625c0 13.273438-10.800782 24.078125-24.078125 24.078125h-137.070313v-48.160156h137.070313c13.277343.003906 24.078125 10.804688 24.078125 24.082031zm-176.152344-39.082031h-25.386719v-48.15625h25.386719zm0 0"/><path d="m343.734375 164.390625c0-9.707031-7.898437-17.601563-17.601563-17.601563-9.703124 0-17.597656 7.894532-17.597656 17.601563 0 9.703125 7.894532 17.597656 17.597656 17.597656 9.703126 0 17.601563-7.894531 17.601563-17.597656zm-20.199219 0c0-1.433594 1.167969-2.597656 2.597656-2.597656 1.433594 0 2.597657 1.164062 2.597657 2.597656 0 1.429687-1.164063 2.597656-2.597657 2.597656-1.429687 0-2.597656-1.167969-2.597656-2.597656zm0 0"/><path d="m272.128906 157.644531h-.078125c-4.144531 0-7.460937 3.359375-7.460937 7.5 0 4.144531 3.394531 7.503907 7.539062 7.503907 4.144532 0 7.5-3.359376 7.5-7.503907 0-4.140625-3.355468-7.5-7.5-7.5zm0 0"/><path d="m253.351562 157.644531c-4.144531 0-7.464843 3.359375-7.464843 7.5 0 4.144531 3.398437 7.503907 7.542969 7.503907 4.144531 0 7.5-3.359376 7.5-7.503907 0-4.140625-3.355469-7.5-7.5-7.5zm0 0"/><path d="m234.652344 157.644531c-4.144532 0-7.464844 3.359375-7.464844 7.5 0 4.144531 3.398438 7.503907 7.542969 7.503907 4.140625 0 7.5-3.359376 7.5-7.503907 0-4.140625-3.359375-7.5-7.5-7.5zm0 0"/><path d="m326.132812 245.148438c9.707032 0 17.601563-7.894532 17.601563-17.597657 0-9.707031-7.894531-17.601562-17.601563-17.601562-9.703124 0-17.597656 7.894531-17.597656 17.601562 0 9.703125 7.894532 17.597657 17.597656 17.597657zm0-20.195313c1.433594 0 2.597657 1.164063 2.597657 2.597656 0 1.429688-1.164063 2.59375-2.597657 2.59375-1.429687 0-2.597656-1.164062-2.597656-2.59375 0-1.433593 1.167969-2.597656 2.597656-2.597656zm0 0"/><path d="m272.082031 235.804688h.046875c4.121094 0 7.476563-3.324219 7.5-7.453126.027344-4.140624-3.308594-7.523437-7.453125-7.546874h-.074219c-.019531 0-.03125 0-.050781 0-4.121093 0-7.433593 3.328124-7.460937 7.453124-.027344 4.140626 3.347656 7.523438 7.492187 7.546876zm0 0"/><path d="m253.378906 235.804688h.050782c4.121093 0 7.472656-3.324219 7.5-7.453126.027343-4.140624-3.3125-7.523437-7.453126-7.546874h-.078124c-.015626 0-.03125 0-.046876 0-4.121093 0-7.4375 3.328124-7.460937 7.453124-.027344 4.140626 3.347656 7.523438 7.488281 7.546876zm0 0"/><path d="m234.679688 235.804688h.050781c4.121093 0 7.472656-3.324219 7.5-7.453126.027343-4.140624-3.3125-7.523437-7.453125-7.546874h-.078125c-.015625 0-.03125 0-.046875 0-4.121094 0-7.4375 3.328124-7.460938 7.453124-.027344 4.140626 3.347656 7.523438 7.488282 7.546876zm0 0"/><path d="m326.132812 308.308594c9.707032 0 17.601563-7.894532 17.601563-17.601563 0-9.703125-7.894531-17.597656-17.601563-17.597656-9.703124 0-17.597656 7.894531-17.597656 17.597656 0 9.707031 7.894532 17.601563 17.597656 17.601563zm0-20.195313c1.433594 0 2.597657 1.164063 2.597657 2.59375 0 1.433594-1.164063 2.597657-2.597657 2.597657-1.429687 0-2.597656-1.164063-2.597656-2.597657 0-1.429687 1.167969-2.59375 2.597656-2.59375zm0 0"/><path d="m272.082031 298.964844h.046875c4.121094 0 7.476563-3.328125 7.5-7.453125.027344-4.140625-3.308594-7.523438-7.453125-7.546875h-.074219c-.019531 0-.03125 0-.050781 0-4.121093 0-7.433593 3.328125-7.460937 7.453125-.027344 4.140625 3.347656 7.523437 7.492187 7.546875zm0 0"/><path d="m253.378906 298.964844h.050782c4.121093 0 7.472656-3.328125 7.5-7.453125.027343-4.140625-3.3125-7.523438-7.453126-7.546875h-.078124c-.015626 0-.03125 0-.046876 0-4.121093 0-7.4375 3.328125-7.460937 7.453125-.027344 4.140625 3.347656 7.523437 7.488281 7.546875zm0 0"/><path d="m234.679688 298.964844h.050781c4.121093 0 7.472656-3.328125 7.5-7.453125.027343-4.140625-3.3125-7.523438-7.453125-7.546875h-.078125c-.015625 0-.03125 0-.046875 0-4.121094 0-7.4375 3.328125-7.460938 7.453125-.027344 4.140625 3.347656 7.523437 7.488282 7.546875zm0 0"/><path d="m328.390625 436.988281c-4.144531 0-7.5 3.359375-7.5 7.503907 0 4.140624 3.355469 7.5 7.5 7.5h25.625c4.140625 0 7.5-3.359376 7.5-7.5 0-4.144532-3.359375-7.503907-7.5-7.503907zm0 0"/><path d="m400.019531 458.992188h-71.628906c-4.144531 0-7.5 3.359374-7.5 7.5 0 4.144531 3.355469 7.503906 7.5 7.503906h71.628906c4.144531 0 7.503907-3.359375 7.503907-7.503906 0-4.140626-3.359376-7.5-7.503907-7.5zm0 0"/><path d="m400.019531 480.996094h-71.628906c-4.144531 0-7.5 3.359375-7.5 7.5 0 4.144531 3.355469 7.503906 7.5 7.503906h71.628906c4.144531 0 7.503907-3.359375 7.503907-7.503906 0-4.140625-3.359376-7.5-7.503907-7.5zm0 0"/><path d="m147.066406 31.003906h25.621094c4.144531 0 7.503906-3.359375 7.503906-7.5 0-4.144531-3.359375-7.5-7.503906-7.5h-25.621094c-4.144531 0-7.503906 3.355469-7.503906 7.5 0 4.140625 3.359375 7.5 7.503906 7.5zm0 0"/><path d="m101.058594 53.007812h71.628906c4.144531 0 7.503906-3.359374 7.503906-7.5 0-4.144531-3.359375-7.503906-7.503906-7.503906h-71.628906c-4.144532 0-7.5 3.359375-7.5 7.503906 0 4.140626 3.355468 7.5 7.5 7.5zm0 0"/><path d="m101.058594 75.011719h71.628906c4.144531 0 7.503906-3.359375 7.503906-7.5 0-4.144531-3.359375-7.503907-7.503906-7.503907h-71.628906c-4.144532 0-7.5 3.359376-7.5 7.503907 0 4.140625 3.355468 7.5 7.5 7.5zm0 0"/></svg>