<svg height="512pt" viewBox="0 -24 512.00199 512" width="512pt" xmlns="http://www.w3.org/2000/svg"><path d="m474.203125 334.472656h-168.757813c-16.746093 0-30.320312-13.574218-30.320312-30.316406 0-16.746094 13.574219-30.320312 30.320312-30.320312h168.757813c16.742187 0 30.316406 13.574218 30.316406 30.320312 0 16.742188-13.574219 30.316406-30.316406 30.316406zm0 0" fill="#f1eded"/><path d="m504.523438 304.15625c0 8.371094-3.394532 15.957031-8.882813 21.441406-5.484375 5.488282-13.0625 8.878906-21.4375 8.878906h-20.109375c8.375 0 15.953125-3.390624 21.4375-8.878906 5.488281-5.484375 8.882812-13.070312 8.882812-21.441406 0-16.75-13.578124-30.320312-30.320312-30.320312h20.109375c16.742187 0 30.320313 13.570312 30.320313 30.320312zm0 0" fill="#dad0cd"/><path d="m314.972656 273.835938h38.777344v60.636718h-38.777344zm0 0" fill="#a6fff2"/><path d="m339.1875 273.835938h14.5625v60.636718h-14.5625zm0 0" fill="#14f2d7"/><path d="m464.746094 304.15625c0 5.351562-4.339844 9.695312-9.695313 9.695312s-9.695312-4.34375-9.695312-9.695312c0-5.355469 4.339843-9.695312 9.695312-9.695312s9.695313 4.339843 9.695313 9.695312zm0 0" fill="#27bef4"/><path d="m474.203125 395.113281h-168.757813c-16.746093 0-30.320312-13.574219-30.320312-30.320312 0-16.746094 13.574219-30.320313 30.320312-30.320313h168.757813c16.742187 0 30.316406 13.574219 30.316406 30.320313 0 16.746093-13.574219 30.320312-30.316406 30.320312zm0 0" fill="#dad0cd"/><path d="m504.523438 364.796875c0 8.371094-3.394532 15.957031-8.882813 21.441406-5.484375 5.488281-13.0625 8.878907-21.4375 8.878907h-20.109375c8.375 0 15.953125-3.390626 21.4375-8.878907 5.488281-5.484375 8.882812-13.070312 8.882812-21.441406 0-16.75-13.578124-30.324219-30.320312-30.324219h20.109375c16.742187 0 30.320313 13.574219 30.320313 30.324219zm0 0" fill="#c1bab8"/><path d="m314.972656 334.472656h38.777344v60.640625h-38.777344zm0 0" fill="#14f2d7"/><path d="m339.1875 334.472656h14.5625v60.640625h-14.5625zm0 0" fill="#00e2c7"/><path d="m464.746094 364.792969c0 5.355469-4.339844 9.695312-9.695313 9.695312s-9.695312-4.339843-9.695312-9.695312c0-5.351563 4.339843-9.695313 9.695312-9.695313s9.695313 4.34375 9.695313 9.695313zm0 0" fill="#209ced"/><path d="m474.203125 455.753906h-168.757813c-16.746093 0-30.320312-13.574218-30.320312-30.320312s13.574219-30.320313 30.320312-30.320313h168.757813c16.742187 0 30.316406 13.574219 30.316406 30.320313s-13.574219 30.320312-30.316406 30.320312zm0 0" fill="#f1eded"/><path d="m504.523438 425.433594c0 8.375-3.394532 15.957031-8.882813 21.445312-5.484375 5.484375-13.0625 8.875-21.4375 8.875h-20.109375c8.375 0 15.953125-3.390625 21.4375-8.875 5.488281-5.488281 8.882812-13.070312 8.882812-21.445312 0-16.746094-13.578124-30.320313-30.320312-30.320313h20.109375c16.742187 0 30.320313 13.574219 30.320313 30.320313zm0 0" fill="#dad0cd"/><path d="m314.972656 395.113281h38.777344v60.640625h-38.777344zm0 0" fill="#a6fff2"/><path d="m339.1875 395.113281h14.5625v60.640625h-14.5625zm0 0" fill="#14f2d7"/><path d="m464.746094 425.433594c0 5.355468-4.339844 9.695312-9.695313 9.695312s-9.695312-4.339844-9.695312-9.695312c0-5.355469 4.339843-9.695313 9.695312-9.695313s9.695313 4.339844 9.695313 9.695313zm0 0" fill="#27bef4"/><path d="m58.691406 427.5h106.585938v28.253906h-106.585938zm0 0" fill="#dad0cd"/><path d="m216.492188 286.304688v137.867187c0 4.976563-4.039063 9.011719-9.015626 9.011719h-190.988281c-4.976562 0-9.003906-4.035156-9.003906-9.011719v-137.867187c0-4.976563 4.027344-9.015626 9.003906-9.015626h190.988281c4.976563 0 9.015626 4.039063 9.015626 9.015626zm0 0" fill="#14f2d7"/><path d="m140.375 277.289062-132.890625 132.902344v-34.496094l98.40625-98.40625zm0 0" fill="#a6fff2"/><path d="m198.363281 277.289062-155.898437 155.894532h-22.304688l155.894532-155.894532zm0 0" fill="#a6fff2"/><path d="m216.488281 286.949219v136.570312c0 5.339844-3.761719 9.660157-8.410156 9.660157h-19.296875c4.648438 0 8.410156-4.320313 8.410156-9.660157v-136.570312c0-5.335938-3.761718-9.660157-8.410156-9.660157h19.296875c4.648437 0 8.410156 4.324219 8.410156 9.660157zm0 0" fill="#00e2c7"/><path d="m216.488281 409.503906v14.015625c0 5.339844-3.761719 9.660157-8.410156 9.660157h-192.1875c-4.648437 0-8.410156-4.320313-8.410156-9.660157v-14.015625zm0 0" fill="#6b97af"/><path d="m216.488281 409.503906v14.015625c0 5.339844-3.761719 9.660157-8.410156 9.660157h-19.296875c4.648438 0 8.410156-4.320313 8.410156-9.660157v-14.015625zm0 0" fill="#50758e"/><path d="m339.113281 74.027344c-7.140625-37.886719-40.402343-66.546875-80.363281-66.546875-44.132812 0-80.097656 34.960937-81.726562 78.695312-22.394532 1.183594-40.195313 19.71875-40.195313 42.410157 0 23.457031 19.019531 42.472656 42.472656 42.472656h144.769531c27.4375 0 49.675782-22.242188 49.675782-49.675782.003906-22.191406-14.550782-40.980468-34.632813-47.355468zm0 0" fill="#2ee0fd"/><path d="m373.75 121.382812c0 22.660157-15.179688 41.78125-35.921875 47.742188 10.214844-9.09375 16.648437-22.347656 16.648437-37.101562 0-22.1875-14.554687-40.976563-34.632812-47.351563-7.140625-37.886719-40.402344-66.542969-80.367188-66.542969-10.40625 0-20.355468 1.945313-29.507812 5.484375 13.617188-10.136719 30.5-16.132812 48.78125-16.132812 39.960938 0 73.21875 28.664062 80.367188 66.546875 20.078124 6.371094 34.632812 25.164062 34.632812 47.355468zm0 0" fill="#27bef4"/><path d="m455.050781 321.328125c9.46875 0 17.171875-7.703125 17.171875-17.171875 0-9.472656-7.703125-17.175781-17.171875-17.175781-9.472656 0-17.175781 7.703125-17.175781 17.175781 0 9.46875 7.703125 17.171875 17.175781 17.171875zm0-19.390625c1.21875 0 2.214844.996094 2.214844 2.214844 0 1.222656-.996094 2.21875-2.214844 2.21875-1.222656 0-2.21875-.996094-2.21875-2.21875 0-1.21875.996094-2.214844 2.21875-2.214844zm0 0"/><path d="m417.90625 312.359375c4.128906 0 7.480469-3.347656 7.480469-7.480469 0-4.128906-3.351563-7.476562-7.480469-7.476562h-.074219c-4.132812 0-7.441406 3.347656-7.441406 7.476562 0 4.132813 3.386719 7.480469 7.515625 7.480469zm0 0"/><path d="m399.953125 312.359375c4.128906 0 7.476563-3.347656 7.476563-7.480469 0-4.128906-3.347657-7.476562-7.476563-7.476562h-.074219c-4.132812 0-7.441406 3.347656-7.441406 7.476562 0 4.132813 3.382812 7.480469 7.515625 7.480469zm0 0"/><path d="m382 312.359375c4.128906 0 7.476562-3.347656 7.476562-7.480469 0-4.128906-3.347656-7.476562-7.476562-7.476562h-.074219c-4.132812 0-7.445312 3.347656-7.445312 7.476562 0 4.132813 3.386719 7.480469 7.519531 7.480469zm0 0"/><path d="m512 364.792969c0-12.398438-6.003906-23.421875-15.253906-30.320313 9.25-6.894531 15.253906-17.917968 15.253906-30.316406 0-20.84375-16.957031-37.800781-37.796875-37.800781h-168.757813c-20.839843 0-37.796874 16.957031-37.796874 37.800781 0 12.398438 6 23.421875 15.253906 30.316406-9.253906 6.898438-15.253906 17.921875-15.253906 30.320313 0 12.402343 6 23.421875 15.253906 30.320312-9.253906 6.898438-15.253906 17.921875-15.253906 30.320313 0 20.839844 16.957031 37.796875 37.796874 37.796875h9.519532.007812.011719 38.757813.011718.007813 22.574219c4.132812 0 7.480468-3.347657 7.480468-7.476563 0-4.132812-3.347656-7.480468-7.480468-7.480468h-15.101563v-45.679688h112.96875c12.59375 0 22.839844 10.246094 22.839844 22.839844s-10.246094 22.839844-22.839844 22.839844h-65.296875c-4.128906 0-7.476562 3.347656-7.476562 7.480468 0 4.128906 3.347656 7.476563 7.476562 7.476563h65.296875c20.84375 0 37.800781-16.953125 37.800781-37.796875 0-12.398438-6.003906-23.421875-15.253906-30.320313 9.246094-6.898437 15.25-17.917969 15.25-30.320312zm-14.957031-60.640625c0 12.59375-10.246094 22.84375-22.839844 22.84375h-112.972656v-45.683594h112.972656c12.59375.003906 22.839844 10.246094 22.839844 22.839844zm-150.769531 22.84375h-23.820313v-45.679688h23.820313zm-23.820313 14.957031h23.820313v45.679687h-23.820313zm-39.847656-37.800781c0-12.59375 10.246093-22.839844 22.839843-22.839844h2.046876v45.683594h-2.046876c-12.59375 0-22.839843-10.246094-22.839843-22.84375zm0 60.640625c0-12.59375 10.246093-22.839844 22.839843-22.839844h2.046876v45.679687h-2.046876c-12.59375 0-22.839843-10.246093-22.839843-22.839843zm0 60.640625c0-12.59375 10.246093-22.839844 22.839843-22.839844h2.046876v45.679688h-2.046876c-12.59375 0-22.839843-10.246094-22.839843-22.839844zm39.847656 22.839844v-45.679688h23.820313v45.679688zm151.75-60.640626h-112.972656v-45.679687h112.972656c12.59375 0 22.839844 10.246094 22.839844 22.839844s-10.246094 22.839843-22.839844 22.839843zm0 0"/><path d="m455.050781 347.621094c-9.472656 0-17.175781 7.703125-17.175781 17.171875s7.703125 17.175781 17.175781 17.175781c9.46875 0 17.171875-7.707031 17.171875-17.175781s-7.703125-17.171875-17.171875-17.171875zm0 19.390625c-1.222656 0-2.21875-.996094-2.21875-2.21875 0-1.21875.996094-2.214844 2.21875-2.214844 1.21875 0 2.214844.996094 2.214844 2.214844 0 1.222656-.996094 2.21875-2.214844 2.21875zm0 0"/><path d="m417.953125 358.039062h-.074219c-.015625 0-.03125 0-.046875 0-4.109375 0-7.417969 3.320313-7.441406 7.433594-.027344 4.128906 3.335937 7.5 7.464844 7.527344h.050781c4.109375 0 7.453125-3.316406 7.480469-7.429688.027343-4.132812-3.300781-7.503906-7.433594-7.53125zm0 0"/><path d="m400 358.039062h-.074219c-.015625 0-.03125 0-.046875 0-4.109375 0-7.414062 3.320313-7.441406 7.433594-.027344 4.128906 3.335938 7.5 7.464844 7.527344h.050781c4.109375 0 7.453125-3.316406 7.476563-7.429688.027343-4.132812-3.296876-7.503906-7.429688-7.53125zm0 0"/><path d="m382.046875 358.039062h-.074219c-.015625 0-.035156 0-.050781 0-4.105469 0-7.414063 3.320313-7.441406 7.433594-.023438 4.128906 3.339843 7.5 7.46875 7.527344h.050781c4.105469 0 7.449219-3.316406 7.476562-7.429688.027344-4.132812-3.300781-7.503906-7.429687-7.53125zm0 0"/><path d="m472.226562 425.433594c0-9.46875-7.707031-17.175782-17.175781-17.175782s-17.175781 7.707032-17.175781 17.175782 7.707031 17.171875 17.175781 17.171875 17.175781-7.703125 17.175781-17.171875zm-19.390624 0c0-1.222656.992187-2.214844 2.214843-2.214844 1.222657 0 2.214844.992188 2.214844 2.214844s-.992187 2.214844-2.214844 2.214844c-1.222656 0-2.214843-.992188-2.214843-2.214844zm0 0"/><path d="m425.386719 426.160156c0-4.132812-3.351563-7.480468-7.480469-7.480468h-.074219c-4.132812 0-7.441406 3.347656-7.441406 7.480468 0 4.128906 3.386719 7.476563 7.515625 7.476563s7.480469-3.347657 7.480469-7.476563zm0 0"/><path d="m407.429688 426.160156c0-4.132812-3.347657-7.480468-7.476563-7.480468h-.074219c-4.132812 0-7.441406 3.347656-7.441406 7.480468 0 4.128906 3.382812 7.476563 7.515625 7.476563 4.128906 0 7.476563-3.347657 7.476563-7.476563zm0 0"/><path d="m382 418.679688h-.074219c-4.132812 0-7.445312 3.347656-7.445312 7.480468 0 4.128906 3.386719 7.476563 7.519531 7.476563 4.128906 0 7.476562-3.347657 7.476562-7.476563 0-4.132812-3.347656-7.480468-7.476562-7.480468zm0 0"/><path d="m207.476562 269.808594h-43.886718c-4.132813 0-7.480469 3.347656-7.480469 7.480468 0 4.128907 3.347656 7.476563 7.480469 7.476563h43.886718c.847657 0 1.535157.6875 1.535157 1.535156v115.722657h-194.054688v-115.722657c0-.84375.6875-1.53125 1.535157-1.53125h114.527343c4.132813 0 7.480469-3.351562 7.480469-7.480469 0-4.128906-3.347656-7.480468-7.480469-7.480468h-114.527343c-9.09375 0-16.492188 7.398437-16.492188 16.492187v137.867188c0 9.09375 7.398438 16.492187 16.492188 16.492187h34.722656v7.617188h-2.453125c-4.128907 0-7.480469 3.347656-7.480469 7.476562 0 4.132813 3.351562 7.480469 7.480469 7.480469h126.445312c4.128907 0 7.476563-3.347656 7.476563-7.480469 0-4.128906-3.347656-7.476562-7.476563-7.476562h-2.453125v-7.617188h34.722656c9.09375 0 16.492188-7.398437 16.492188-16.492187v-137.867188c0-9.09375-7.398438-16.492187-16.492188-16.492187zm-49.679687 178.46875h-91.625v-7.617188h91.625zm49.679687-22.574219h-190.984374c-.847657 0-1.535157-.6875-1.535157-1.535156v-7.1875h194.054688v7.1875c0 .847656-.6875 1.535156-1.535157 1.535156zm0 0"/><path d="m275.054688 235.023438h142.253906c6.382812 0 11.574218 5.191406 11.574218 11.574218 0 4.128906 3.347657 7.476563 7.480469 7.476563 4.128907 0 7.476563-3.347657 7.476563-7.476563 0-14.632812-11.902344-26.535156-26.53125-26.535156h-142.253906c-6.382813 0-11.574219-5.191406-11.574219-11.570312v-11.105469c0-4.128907-3.347657-7.480469-7.476563-7.480469-4.132812 0-7.480468 3.351562-7.480468 7.480469v11.105469c0 6.378906-5.191407 11.570312-11.574219 11.570312h-142.253907c-14.628906 0-26.53125 11.90625-26.53125 26.535156 0 4.128906 3.347657 7.476563 7.476563 7.476563 4.132813 0 7.480469-3.347657 7.480469-7.476563 0-6.382812 5.191406-11.574218 11.574218-11.574218h142.253907c7.46875 0 14.226562-3.109376 19.050781-8.097657 4.828125 4.988281 11.582031 8.097657 19.054688 8.097657zm0 0"/><path d="m179.300781 178.539062h144.769531c31.515626 0 57.15625-25.640624 57.15625-57.15625 0-23.53125-14.160156-44.292968-35.671874-52.980468-3.570313-14.917969-10.957032-28.667969-21.507813-39.988282-2.816406-3.023437-7.550781-3.1875-10.570313-.371093-3.023437 2.816406-3.191406 7.550781-.371093 10.570312 9.609375 10.3125 16.0625 23.035157 18.65625 36.796875.511719 2.707032 2.464843 4.914063 5.085937 5.746094 17.597656 5.585938 29.417969 21.75 29.417969 40.222656 0 23.269532-18.929687 42.199219-42.195313 42.199219h-144.769531c-19.296875 0-34.992187-15.699219-34.992187-34.996094 0-18.609375 14.542968-33.957031 33.109375-34.941406 3.863281-.203125 6.9375-3.320313 7.082031-7.1875.714844-19.25 8.757812-37.238281 22.644531-50.648437 13.917969-13.441407 32.246094-20.847657 51.605469-20.847657 10.371094 0 20.421875 2.113281 29.882812 6.273438 3.78125 1.664062 8.195313-.054688 9.855469-3.832031 1.664063-3.785157-.050781-8.195313-3.832031-9.859376-11.367188-5.003906-23.449219-7.539062-35.90625-7.539062-23.257812 0-45.273438 8.894531-61.996094 25.046875-15.132812 14.613281-24.488281 33.75-26.738281 54.449219-23.269531 4.363281-40.664063 24.773437-40.664063 49.085937 0 27.546875 22.40625 49.957031 49.949219 49.957031zm0 0"/></svg>