<svg height="512pt" viewBox="0 -24 512 512" width="512pt" xmlns="http://www.w3.org/2000/svg"><path d="m58.710938 428.132812h106.578124v28.253907h-106.578124zm0 0" fill="#dad0cd"/><path d="m216.503906 286.945312v137.859376c0 4.976562-4.039062 9.015624-9.015625 9.015624h-190.976562c-4.976563 0-9.007813-4.039062-9.007813-9.015624v-137.859376c0-4.976562 4.03125-9.015624 9.007813-9.015624h190.976562c4.976563 0 9.015625 4.039062 9.015625 9.015624zm0 0" fill="#14f2d7"/><path d="m140.390625 277.929688-132.886719 132.894531v-34.492188l98.402344-98.402343zm0 0" fill="#a6fff2"/><path d="m198.375 277.929688-155.890625 155.890624h-22.304687l155.886718-155.890624zm0 0" fill="#a6fff2"/><path d="m216.503906 287.589844v136.566406c0 5.335938-3.765625 9.660156-8.414062 9.660156h-19.296875c4.648437 0 8.410156-4.324218 8.410156-9.660156v-136.566406c0-5.335938-3.761719-9.660156-8.410156-9.660156h19.296875c4.648437 0 8.414062 4.324218 8.414062 9.660156zm0 0" fill="#00e2c7"/><path d="m216.503906 410.140625v14.015625c0 5.335938-3.765625 9.660156-8.414062 9.660156h-192.179688c-4.644531 0-8.410156-4.324218-8.410156-9.660156v-14.015625zm0 0" fill="#6b97af"/><path d="m216.503906 410.140625v14.015625c0 5.335938-3.765625 9.660156-8.414062 9.660156h-19.296875c4.648437 0 8.410156-4.324218 8.410156-9.660156v-14.015625zm0 0" fill="#50758e"/><path d="m490.066406 286.949219v117.921875c0 4.972656-4.035156 9.007812-9.007812 9.007812h-190.980469c-3.277344 0-6.140625-1.742187-7.714844-4.355468-.828125-1.355469-1.296875-2.949219-1.296875-4.65625v-117.917969c0-4.984375 4.027344-9.019531 9.011719-9.019531h190.980469c4.972656 0 9.007812 4.035156 9.007812 9.019531zm0 0" fill="#14f2d7"/><path d="m413.949219 277.929688-131.585938 131.59375c-.828125-1.355469-1.296875-2.949219-1.296875-4.652344v-28.535156l98.394532-98.40625zm0 0" fill="#a6fff2"/><path d="m455.320312 277.929688-135.949218 135.953124h-22.304688l135.949219-135.953124zm0 0" fill="#a6fff2"/><path d="m490.0625 287.589844v116.632812c0 5.335938-3.761719 9.660156-8.410156 9.660156h-19.296875c4.648437 0 8.410156-4.324218 8.410156-9.660156v-116.632812c0-5.335938-3.761719-9.660156-8.410156-9.660156h19.296875c4.648437 0 8.410156 4.324218 8.410156 9.660156zm0 0" fill="#00e2c7"/><path d="m504.5 408.132812v5.519532c0 5.503906-4.460938 9.96875-9.96875 9.96875h-217.9375c-5.507812 0-9.96875-4.464844-9.96875-9.96875v-5.519532c0-5.507812 4.460938-9.96875 9.96875-9.96875h70.765625l5.980469 5.082032h64.445312l5.980469-5.082032h70.765625c5.507812 0 9.96875 4.460938 9.96875 9.96875zm0 0" fill="#6b97af"/><path d="m339.34375 74.230469c-7.164062-37.988281-40.515625-66.730469-80.589844-66.730469-44.257812 0-80.316406 35.054688-81.949218 78.914062-22.460938 1.1875-40.308594 19.773438-40.308594 42.527344 0 23.523438 19.070312 42.59375 42.589844 42.59375h145.171874c27.511719 0 49.816407-22.304687 49.816407-49.816406 0-22.253906-14.59375-41.09375-34.730469-47.488281zm0 0" fill="#2ee0fd"/><path d="m374.074219 121.71875c0 22.722656-15.21875 41.898438-36.019531 47.878906 10.246093-9.121094 16.691406-22.410156 16.691406-37.207031 0-22.25-14.59375-41.089844-34.726563-47.488281-7.160156-37.988282-40.515625-66.726563-80.589843-66.726563-10.433594 0-20.410157 1.953125-29.589844 5.503907 13.652344-10.167969 30.585937-16.183594 48.917968-16.183594 40.070313 0 73.421876 28.746094 80.589844 66.734375 20.132813 6.390625 34.726563 25.234375 34.726563 47.488281zm0 0" fill="#27bef4"/><path d="m207.488281 270.429688h-190.972656c-9.109375 0-16.515625 7.40625-16.515625 16.511718v137.863282c0 9.101562 7.40625 16.511718 16.515625 16.511718h34.695313v7.574219h-2.429688c-4.140625 0-7.5 3.355469-7.5 7.5 0 4.140625 3.359375 7.5 7.5 7.5h126.4375c4.144531 0 7.5-3.359375 7.5-7.5 0-4.144531-3.355469-7.5-7.5-7.5h-2.429688v-7.574219h34.699219c9.105469 0 16.515625-7.40625 16.515625-16.511718v-67.214844c0-4.140625-3.359375-7.5-7.5-7.5-4.144531 0-7.5 3.359375-7.5 7.5v45.046875h-194.003906v-115.695313c0-.832031.679688-1.511718 1.515625-1.511718h190.972656c.835938 0 1.515625.679687 1.515625 1.511718v37.988282c0 4.140624 3.355469 7.5 7.5 7.5 4.140625 0 7.5-3.359376 7.5-7.5v-37.988282c0-9.105468-7.410156-16.511718-16.515625-16.511718zm-49.699219 178.457031h-91.578124v-7.570313h91.578124zm51.214844-31.25v7.164062c0 .835938-.679687 1.515625-1.515625 1.515625h-190.972656c-.835937 0-1.515625-.679687-1.515625-1.515625v-7.164062zm0 0"/><path d="m275.0625 235.6875h142.25c6.371094 0 11.550781 5.179688 11.550781 11.550781 0 4.144531 3.359375 7.5 7.5 7.5 4.144531 0 7.5-3.355469 7.5-7.5 0-14.640625-11.910156-26.550781-26.550781-26.550781h-142.25c-6.367188 0-11.550781-5.183594-11.550781-11.554688v-11.101562c0-4.140625-3.359375-7.5-7.5-7.5-4.144531 0-7.5 3.359375-7.5 7.5v11.101562c0 6.371094-5.183594 11.554688-11.550781 11.554688h-142.25c-14.640626 0-26.550782 11.910156-26.550782 26.550781 0 4.144531 3.355469 7.5 7.5 7.5 4.140625 0 7.5-3.355469 7.5-7.5 0-6.371093 5.179688-11.550781 11.550782-11.550781h142.25c7.46875 0 14.222656-3.105469 19.050781-8.085938 4.828125 4.980469 11.582031 8.085938 19.050781 8.085938zm0 0"/><path d="m497.5625 390.945312v-104.003906c0-9.101562-7.410156-16.511718-16.515625-16.511718h-104.714844c-4.144531 0-7.5 3.359374-7.5 7.5 0 4.140624 3.355469 7.5 7.5 7.5h104.71875c.832031 0 1.511719.679687 1.511719 1.511718v103.722656h-58.796875c-1.777344 0-3.5.632813-4.855469 1.785157l-3.878906 3.296875h-58.933594l-3.882812-3.296875c-1.355469-1.152344-3.078125-1.785157-4.855469-1.785157h-58.796875v-103.722656c0-.832031.675781-1.511718 1.511719-1.511718h53.597656c4.140625 0 7.5-3.359376 7.5-7.5 0-4.140626-3.359375-7.5-7.5-7.5h-53.597656c-9.105469 0-16.511719 7.410156-16.511719 16.511718v104.003906c-8.191406 1.441407-14.4375 8.589844-14.4375 17.1875v5.519532c0 9.632812 7.835938 17.46875 17.46875 17.46875h217.9375c9.632812 0 17.46875-7.835938 17.46875-17.46875v-5.519532c0-8.597656-6.246094-15.746093-14.4375-17.1875zm-.5625 22.707032c0 1.359375-1.105469 2.464844-2.46875 2.464844h-217.9375c-1.363281 0-2.46875-1.105469-2.46875-2.464844v-5.519532c0-1.363281 1.105469-2.46875 2.46875-2.46875h68.007812l3.878907 3.296876c1.359375 1.152343 3.078125 1.785156 4.859375 1.785156h64.445312c1.78125 0 3.5-.632813 4.859375-1.785156l3.878907-3.296876h68.007812c1.359375 0 2.46875 1.105469 2.46875 2.46875zm0 0"/><path d="m179.085938 179.03125h24.582031c4.144531 0 7.5-3.355469 7.5-7.5 0-4.140625-3.355469-7.5-7.5-7.5h-24.582031c-19.347657 0-35.089844-15.742188-35.089844-35.089844 0-18.664062 14.582031-34.054687 33.203125-35.039062 3.875-.203125 6.953125-3.332032 7.097656-7.210938.71875-19.300781 8.785156-37.339844 22.710937-50.785156 13.957032-13.480469 32.335938-20.90625 51.75-20.90625 35.800782 0 66.59375 25.496094 73.214844 60.621094.511719 2.710937 2.472656 4.925781 5.101563 5.757812 17.644531 5.601563 29.5 21.8125 29.5 40.335938 0 23.335937-18.980469 42.316406-42.316407 42.316406h-87.925781c-4.140625 0-7.5 3.359375-7.5 7.5 0 4.144531 3.359375 7.5 7.5 7.5h87.925781c31.605469 0 57.316407-25.710938 57.316407-57.316406 0-23.59375-14.199219-44.414063-35.769531-53.121094-9.5625-40-45.496094-68.59375-87.050782-68.59375-23.320312 0-45.398437 8.917969-62.167968 25.113281-15.175782 14.65625-24.554688 33.847657-26.8125 54.601563-23.335938 4.375-40.777344 24.84375-40.777344 49.226562 0 27.621094 22.472656 50.089844 50.089844 50.089844zm0 0"/></svg>