<svg height="512pt" viewBox="0 -32 512 512" width="512pt" xmlns="http://www.w3.org/2000/svg"><path d="m474.347656 155.183594v246.375c0 10.390625-8.4375 18.824218-18.828125 18.824218h-399.019531c-6.851562 0-12.828125-3.644531-16.117188-9.101562-1.730468-2.832031-2.707031-6.164062-2.707031-9.722656v-246.375c0-10.414063 8.414063-18.847656 18.824219-18.847656h399.019531c10.390625 0 18.828125 8.433593 18.828125 18.847656zm0 0" fill="#c1bab8"/><path d="m474.335938 156.519531v243.683594c0 11.148437-7.863282 20.183594-17.574219 20.183594h-40.316407c9.707032 0 17.570313-9.035157 17.570313-20.183594v-243.683594c0-11.152343-7.863281-20.183593-17.570313-20.183593h40.316407c9.710937 0 17.574219 9.03125 17.574219 20.183593zm0 0" fill="#b7a6a3"/><path d="m504.5 397.546875v22.359375c0 11.5-9.324219 20.824219-20.824219 20.824219h-455.351562c-11.5 0-20.824219-9.320313-20.824219-20.824219v-22.359375c0-5.523437 4.476562-10 10-10h158.679688l12.496093 10.617187h134.648438l12.496093-10.617187h158.679688c5.523438 0 10 4.476563 10 10zm0 0" fill="#6b97af"/><path d="m504.5 402.433594v17.46875c0 11.5-9.320312 20.832031-20.820312 20.832031h-455.359376c-11.5 0-20.820312-9.332031-20.820312-20.832031v-17.46875c0 11.5 9.320312 20.820312 20.820312 20.820312h455.359376c11.5 0 20.820312-9.320312 20.820312-20.820312zm0 0" fill="#50758e"/><path d="m314.089844 154.613281h-116.738282c-5.511718 0-9.984374-4.46875-9.984374-9.980469v-127.152343c0-5.511719 4.472656-9.980469 9.984374-9.980469h116.738282c5.511718 0 9.980468 4.46875 9.980468 9.980469v127.152343c0 5.511719-4.46875 9.980469-9.980468 9.980469zm0 0" fill="#f1eded"/><path d="m324.070312 17.484375v127.148437c0 5.511719-4.46875 9.980469-9.980468 9.980469h-15.621094c3.058594 0 5.527344-2.476562 5.527344-5.527343v-136.058594c0-3.054688-2.46875-5.523438-5.527344-5.523438h15.621094c5.511718 0 9.980468 4.46875 9.980468 9.980469zm0 0" fill="#dad0cd"/><path d="m324.070312 17.484375v20.144531h-136.699218v-20.144531c0-5.511719 4.46875-9.980469 9.980468-9.980469h116.738282c5.511718 0 9.980468 4.46875 9.980468 9.980469zm0 0" fill="#27bef4"/><path d="m324.070312 17.484375v20.144531h-20.074218v-24.601562c0-3.054688-2.46875-5.523438-5.527344-5.523438h15.617188c5.515624 0 9.984374 4.46875 9.984374 9.980469zm0 0" fill="#209ced"/><path d="m226.691406 7.503906v30.125h-39.320312v-20.144531c0-5.511719 4.46875-9.980469 9.980468-9.980469zm0 0" fill="#fc6393"/><path d="m145.640625 154.613281h-116.742187c-5.511719 0-9.980469-4.46875-9.980469-9.980469v-127.152343c0-5.511719 4.46875-9.980469 9.980469-9.980469h116.742187c5.511719 0 9.980469 4.46875 9.980469 9.980469v127.152343c0 5.511719-4.46875 9.980469-9.980469 9.980469zm0 0" fill="#f1eded"/><path d="m155.617188 17.484375v127.148437c0 5.511719-4.46875 9.980469-9.980469 9.980469h-15.617188c3.054688 0 5.527344-2.476562 5.527344-5.527343v-136.058594c0-3.054688-2.46875-5.523438-5.527344-5.523438h15.617188c5.515625 0 9.980469 4.46875 9.980469 9.980469zm0 0" fill="#dad0cd"/><path d="m155.617188 17.484375v20.144531h-136.695313v-20.144531c0-5.511719 4.46875-9.980469 9.980469-9.980469h116.738281c5.511719 0 9.976563 4.46875 9.976563 9.980469zm0 0" fill="#27bef4"/><path d="m155.617188 17.484375v20.144531h-20.070313v-24.601562c0-3.054688-2.472656-5.523438-5.527344-5.523438h15.617188c5.515625 0 9.980469 4.46875 9.980469 9.980469zm0 0" fill="#209ced"/><path d="m58.242188 7.503906v30.125h-39.320313v-20.144531c0-5.511719 4.46875-9.980469 9.980469-9.980469zm0 0" fill="#14f2d7"/><path d="m483.101562 336.675781h-116.742187c-5.511719 0-9.980469-4.472656-9.980469-9.984375v-127.148437c0-5.511719 4.46875-9.980469 9.980469-9.980469h116.742187c5.511719 0 9.980469 4.46875 9.980469 9.980469v127.148437c0 5.511719-4.46875 9.984375-9.980469 9.984375zm0 0" fill="#f1eded"/><path d="m493.078125 199.546875v127.148437c0 5.511719-4.46875 9.980469-9.980469 9.980469h-15.617187c3.054687 0 5.527343-2.476562 5.527343-5.527343v-136.058594c0-3.054688-2.472656-5.527344-5.527343-5.527344h15.617187c5.511719.003906 9.980469 4.46875 9.980469 9.984375zm0 0" fill="#dad0cd"/><path d="m493.078125 199.546875v20.140625h-136.699219v-20.140625c0-5.515625 4.46875-9.984375 9.980469-9.984375h116.738281c5.511719.003906 9.980469 4.46875 9.980469 9.984375zm0 0" fill="#27bef4"/><path d="m493.078125 199.546875v20.140625h-20.070313v-24.597656c0-3.054688-2.472656-5.527344-5.527343-5.527344h15.617187c5.511719.003906 9.980469 4.46875 9.980469 9.984375zm0 0" fill="#209ced"/><path d="m395.703125 189.566406v30.125h-39.324219v-20.144531c0-5.511719 4.46875-9.980469 9.980469-9.980469zm0 0" fill="#fab03c"/><path d="m314.648438 336.675781h-116.738282c-5.511718 0-9.980468-4.472656-9.980468-9.984375v-127.148437c0-5.511719 4.46875-9.980469 9.980468-9.980469h116.738282c5.511718 0 9.984374 4.46875 9.984374 9.980469v127.148437c-.003906 5.511719-4.472656 9.984375-9.984374 9.984375zm0 0" fill="#f1eded"/><path d="m324.628906 199.546875v127.148437c0 5.511719-4.46875 9.980469-9.980468 9.980469h-15.617188c3.054688 0 5.527344-2.476562 5.527344-5.527343v-136.058594c0-3.054688-2.472656-5.527344-5.527344-5.527344h15.617188c5.511718.003906 9.980468 4.46875 9.980468 9.984375zm0 0" fill="#dad0cd"/><path d="m324.628906 199.546875v20.140625h-136.699218v-20.140625c0-5.515625 4.46875-9.984375 9.980468-9.984375h116.738282c5.511718.003906 9.980468 4.46875 9.980468 9.984375zm0 0" fill="#27bef4"/><path d="m324.628906 199.546875v20.140625h-20.074218v-24.597656c0-3.054688-2.46875-5.527344-5.527344-5.527344h15.621094c5.511718.003906 9.980468 4.46875 9.980468 9.984375zm0 0" fill="#209ced"/><path d="m227.25 189.566406v30.125h-39.320312v-20.144531c0-5.511719 4.46875-9.980469 9.980468-9.980469zm0 0" fill="#fab03c"/><path d="m494.5 380.046875h-12.664062v-35.871094h1.265624c9.636719 0 17.476563-7.84375 17.476563-17.480469v-127.152343c0-9.636719-7.839844-17.480469-17.476563-17.480469h-1.265624v-26.890625c0-14.523437-11.8125-26.335937-26.332032-26.335937h-48.175781c-4.140625 0-7.5 3.359374-7.5 7.5 0 4.144531 3.359375 7.5 7.5 7.5h48.175781c6.246094 0 11.332032 5.085937 11.332032 11.335937v26.890625h-100.476563c-9.640625 0-17.480469 7.84375-17.480469 17.480469v65.65625h-16.746094v-65.65625c0-9.636719-7.84375-17.480469-17.484374-17.480469h-62.300782v-19.949219h61.742188c9.640625 0 17.480468-7.84375 17.480468-17.480469v-.792968h43.101563c4.140625 0 7.5-3.359375 7.5-7.5 0-4.144532-3.359375-7.5-7.5-7.5h-43.101563v-111.359375c0-9.636719-7.839843-17.480469-17.480468-17.480469h-116.738282c-9.640624 0-17.480468 7.84375-17.480468 17.480469v65.65625h-16.75v-65.65625c0-9.636719-7.84375-17.480469-17.480469-17.480469h-116.742187c-9.636719 0-17.480469 7.84375-17.480469 17.480469v127.152343c0 9.636719 7.84375 17.476563 17.480469 17.476563h1.261718v62.675781c0 4.144532 3.359375 7.5 7.5 7.5 4.144532 0 7.5-3.355468 7.5-7.5v-62.675781h100.480469c9.636719 0 17.480469-7.839844 17.480469-17.476563v-.796874h16.746094v.796874c0 9.636719 7.84375 17.476563 17.484374 17.476563h39.996094v19.953125h-39.4375c-9.640625 0-17.480468 7.839844-17.480468 17.480469v127.148437c0 9.640625 7.839843 17.480469 17.480468 17.480469h116.738282c9.640624 0 17.480468-7.84375 17.480468-17.480469v-46.492187h16.75v46.492187c0 9.640625 7.839844 17.480469 17.480469 17.480469h100.476563v35.871094h-131.015626c-1.78125 0-3.503906.632812-4.855468 1.785156l-10.394532 8.835937h-129.140624l-10.394532-8.835937c-1.355468-1.152344-3.074218-1.785156-4.855468-1.785156h-49.847657c-4.144531 0-7.5 3.359375-7.5 7.5 0 4.144531 3.355469 7.5 7.5 7.5h47.089844l10.394531 8.835937c1.355469 1.152344 3.078125 1.785156 4.859375 1.785156h134.648438c1.78125 0 3.503906-.632812 4.859375-1.785156l10.394531-8.835937h39.589844v7.136719c0 4.140624 3.355469 7.5 7.5 7.5 4.140625 0 7.5-3.359376 7.5-7.5v-7.136719h7.664062v7.136719c0 4.140624 3.359375 7.5 7.5 7.5 4.144531 0 7.5-3.359376 7.5-7.5v-7.136719h7.667969v7.136719c0 4.140624 3.355469 7.5 7.5 7.5s7.5-3.359376 7.5-7.5v-7.136719h56c1.378906 0 2.5 1.121093 2.5 2.5v22.363281c0 7.347656-5.976562 13.324219-13.324219 13.324219h-455.351562c-7.347657 0-13.324219-5.976563-13.324219-13.324219v-22.359375c0-1.378906 1.121094-2.5 2.5-2.5h76.167969c4.144531 0 7.5-3.359375 7.5-7.5 0-4.144531-3.355469-7.5-7.5-7.5h-48.507813v-122.601563c0-4.140624-3.355468-7.5-7.5-7.5-4.140625 0-7.5 3.359376-7.5 7.5v122.601563h-12.660156c-9.648438 0-17.5 7.851563-17.5 17.5v22.359375c0 15.617188 12.707031 28.324219 28.324219 28.324219h455.351562c15.617188 0 28.324219-12.707031 28.324219-28.324219v-22.359375c0-9.652344-7.851562-17.5-17.5-17.5zm-177.929688-362.566406v12.644531h-82.378906v-15.125h79.898438c1.367187 0 2.480468 1.113281 2.480468 2.480469zm-119.21875-2.480469h21.839844v15.125h-24.320312v-12.644531c0-1.367188 1.109375-2.480469 2.480468-2.480469zm-49.230468 2.480469v12.644531h-82.378906v-15.125h79.898437c1.367187 0 2.480469 1.113281 2.480469 2.480469zm-119.222656-2.480469h21.84375v15.125h-24.324219v-12.644531c0-1.367188 1.113281-2.480469 2.480469-2.480469zm116.742187 132.113281h-116.742187c-1.367188 0-2.480469-1.113281-2.480469-2.480469v-99.507812h121.703125v99.507812c0 1.367188-1.113282 2.480469-2.480469 2.480469zm17.480469-18.277343v-30.699219h16.75v30.699219zm31.75 15.796874v-99.507812h121.699218v99.507812c0 1.367188-1.109374 2.476563-2.480468 2.476563h-116.738282c-1.371093.003906-2.480468-1.109375-2.480468-2.476563zm122.261718 54.910157v12.644531h-82.378906v-15.125h79.894532c1.371093 0 2.484374 1.113281 2.484374 2.480469zm-119.222656-2.480469h21.839844v15.125h-24.320312v-12.644531c0-1.367188 1.113281-2.480469 2.480468-2.480469zm116.738282 132.113281h-116.738282c-1.367187 0-2.480468-1.113281-2.480468-2.480469v-99.507812h121.703124v99.507812c0 1.367188-1.113281 2.480469-2.484374 2.480469zm170.929687-129.632812v12.644531h-82.378906v-15.125h79.902343c1.367188 0 2.476563 1.113281 2.476563 2.480469zm-119.21875-2.480469h21.839844v15.125h-24.320313v-12.644531c0-1.367188 1.113282-2.480469 2.480469-2.480469zm-2.480469 129.628906v-99.503906h121.699219v99.503906c0 1.371094-1.109375 2.480469-2.476563 2.480469h-116.742187c-1.367187.003906-2.480469-1.109375-2.480469-2.480469zm0 0"/><path d="m229.253906 247.324219h-.113281c-.011719 0-.023437 0-.035156 0-4.125 0-7.480469 3.335937-7.5 7.46875-.015625 4.140625 3.328125 7.515625 7.46875 7.53125h.113281.03125c4.128906 0 7.480469-3.335938 7.5-7.464844.019531-4.144531-3.324219-7.515625-7.464844-7.535156zm0 0"/><path d="m283.453125 247.324219h-27.765625c-4.144531 0-7.5 3.359375-7.5 7.5s3.355469 7.5 7.5 7.5h27.765625c4.140625 0 7.5-3.359375 7.5-7.5s-3.359375-7.5-7.5-7.5zm0 0"/><path d="m229.253906 271.167969h-.113281c-.011719 0-.023437 0-.035156 0-4.125 0-7.480469 3.335937-7.5 7.46875-.015625 4.140625 3.328125 7.511719 7.46875 7.53125h.113281.03125c4.128906 0 7.480469-3.335938 7.5-7.46875.019531-4.140625-3.324219-7.511719-7.464844-7.53125zm0 0"/><path d="m283.453125 271.167969h-27.765625c-4.144531 0-7.5 3.355469-7.5 7.5 0 4.140625 3.355469 7.5 7.5 7.5h27.765625c4.140625 0 7.5-3.359375 7.5-7.5 0-4.144531-3.359375-7.5-7.5-7.5zm0 0"/><path d="m229.21875 295.011719h-.113281c-4.140625 0-7.5 3.355469-7.5 7.5 0 4.140625 3.359375 7.5 7.5 7.5h.113281c4.140625 0 7.5-3.359375 7.5-7.5 0-4.144531-3.359375-7.5-7.5-7.5zm0 0"/><path d="m283.453125 295.011719h-27.765625c-4.144531 0-7.5 3.355469-7.5 7.5 0 4.140625 3.355469 7.5 7.5 7.5h27.765625c4.140625 0 7.5-3.359375 7.5-7.5 0-4.144531-3.359375-7.5-7.5-7.5zm0 0"/><path d="m399.867188 247.324219h-.109376c-.011718 0-.023437 0-.035156 0-4.125 0-7.480468 3.335937-7.496094 7.46875-.019531 4.140625 3.324219 7.515625 7.464844 7.53125h.113282.035156c4.125 0 7.480468-3.335938 7.496094-7.464844.019531-4.144531-3.324219-7.515625-7.46875-7.535156zm0 0"/><path d="m454.070312 247.324219h-27.765624c-4.144532 0-7.5 3.359375-7.5 7.5s3.355468 7.5 7.5 7.5h27.765624c4.144532 0 7.5-3.359375 7.5-7.5s-3.355468-7.5-7.5-7.5zm0 0"/><path d="m399.867188 271.167969h-.109376c-.011718 0-.023437 0-.035156 0-4.125 0-7.480468 3.335937-7.496094 7.46875-.019531 4.140625 3.324219 7.511719 7.464844 7.53125h.113282.035156c4.125 0 7.480468-3.335938 7.496094-7.46875.019531-4.140625-3.324219-7.511719-7.46875-7.53125zm0 0"/><path d="m454.070312 271.167969h-27.765624c-4.144532 0-7.5 3.355469-7.5 7.5 0 4.140625 3.355468 7.5 7.5 7.5h27.765624c4.144532 0 7.5-3.359375 7.5-7.5 0-4.144531-3.355468-7.5-7.5-7.5zm0 0"/><path d="m399.835938 295.011719h-.109376c-4.144531 0-7.5 3.355469-7.5 7.5 0 4.140625 3.355469 7.5 7.5 7.5h.109376c4.144531 0 7.5-3.359375 7.5-7.5 0-4.144531-3.355469-7.5-7.5-7.5zm0 0"/><path d="m454.070312 295.011719h-27.765624c-4.144532 0-7.5 3.355469-7.5 7.5 0 4.140625 3.355468 7.5 7.5 7.5h27.765624c4.144532 0 7.5-3.359375 7.5-7.5 0-4.144531-3.355468-7.5-7.5-7.5zm0 0"/><path d="m87.269531 89.429688h.039063c4.125 0 7.476562-3.335938 7.5-7.464844l.011718-2.714844c.019532-4.144531-3.320312-7.519531-7.464843-7.539062-4.117188-.042969-7.515625 3.320312-7.535157 7.464843l-.011718 2.714844c-.023438 4.140625 3.320312 7.515625 7.460937 7.539063zm0 0"/><path d="m87.269531 99.359375c-.011719 0-.023437 0-.035156 0-4.125 0-7.480469 3.332031-7.5 7.460937l-.011719 2.71875c-.023437 4.140626 3.320313 7.515626 7.460938 7.535157h.039062c4.125 0 7.476563-3.332031 7.5-7.460938l.011719-2.71875c.019531-4.140625-3.320313-7.515625-7.464844-7.535156zm0 0"/><path d="m102.519531 86.941406-2.722656-.011718c-.011719 0-.023437 0-.035156 0-4.125 0-7.480469 3.335937-7.5 7.464843-.019531 4.140625 3.320312 7.515625 7.464843 7.535157l2.71875.011718h.039063c4.125 0 7.480469-3.332031 7.5-7.460937.019531-4.144531-3.324219-7.515625-7.464844-7.539063zm0 0"/><path d="m82.277344 94.390625c.019531-4.140625-3.324219-7.515625-7.464844-7.535156l-2.722656-.011719c-.011719 0-.023438 0-.035156 0-4.125 0-7.480469 3.335938-7.5 7.464844-.019532 4.140625 3.324218 7.515625 7.464843 7.535156l2.722657.011719h.035156c4.125 0 7.480468-3.332031 7.5-7.464844zm0 0"/><path d="m255.6875 89.429688h.035156c4.125 0 7.480469-3.335938 7.5-7.464844l.011719-2.71875c.019531-4.140625-3.320313-7.515625-7.464844-7.535156-.011719 0-.023437 0-.035156 0-4.125 0-7.476563 3.335937-7.5 7.464843l-.011719 2.71875c-.019531 4.140625 3.324219 7.511719 7.464844 7.535157zm0 0"/><path d="m255.683594 99.359375c-.011719 0-.023438 0-.035156 0-4.125 0-7.476563 3.335937-7.5 7.464844l-.011719 2.714843c-.019531 4.144532 3.324219 7.515626 7.464843 7.535157h.035157c4.125 0 7.480469-3.335938 7.5-7.464844l.011719-2.714844c.019531-4.140625-3.324219-7.515625-7.464844-7.535156zm0 0"/><path d="m260.679688 94.394531c-.023438 4.140625 3.320312 7.515625 7.460937 7.535157l2.722656.011718h.039063c4.125 0 7.476562-3.332031 7.496094-7.464844.023437-4.140624-3.320313-7.515624-7.460938-7.535156l-2.722656-.011718c-.011719 0-.023438 0-.039063 0-4.125 0-7.476562 3.332031-7.496093 7.464843zm0 0"/><path d="m243.230469 86.855469-2.722657-.011719c-.011718 0-.023437 0-.035156 0-4.125 0-7.480468 3.335938-7.5 7.464844-.019531 4.140625 3.324219 7.515625 7.464844 7.535156l2.722656.011719h.035156c4.125 0 7.480469-3.332031 7.5-7.464844.019532-4.140625-3.324218-7.511719-7.464843-7.535156zm0 0"/><path d="m229.050781 101.65625c-2.5625-3.257812-7.277343-3.816406-10.53125-1.257812-3.257812 2.5625-3.820312 7.277343-1.257812 10.535156l13.972656 17.75c1.480469 1.878906 3.675781 2.859375 5.898437 2.859375 1.621094 0 3.257813-.523438 4.632813-1.605469 3.253906-2.5625 3.816406-7.277344 1.253906-10.53125zm0 0"/><path d="m293.386719 100.398438c-3.253907-2.558594-7.972657-2-10.53125 1.257812l-13.972657 17.75c-2.5625 3.253906-2 7.96875 1.257813 10.53125 1.375 1.082031 3.007813 1.605469 4.632813 1.605469 2.21875 0 4.417968-.980469 5.898437-2.859375l13.96875-17.75c2.5625-3.257813 2-7.972656-1.253906-10.535156zm0 0"/><path d="m280.671875 58.027344c-2.5625-3.253906-7.277344-3.816406-10.53125-1.253906-3.257813 2.5625-3.816406 7.277343-1.257813 10.53125l13.972657 17.75c1.476562 1.882812 3.675781 2.863281 5.898437 2.863281 1.621094 0 3.257813-.523438 4.632813-1.605469 3.253906-2.5625 3.816406-7.277344 1.253906-10.535156zm0 0"/><path d="m218.519531 86.3125c1.375 1.082031 3.007813 1.605469 4.632813 1.605469 2.21875 0 4.417968-.980469 5.898437-2.863281l13.96875-17.75c2.5625-3.253907 2-7.96875-1.253906-10.53125-3.257813-2.5625-7.972656-2-10.53125 1.253906l-13.972656 17.75c-2.5625 3.257812-2 7.972656 1.257812 10.535156zm0 0"/></svg>