<svg height="512pt" viewBox="0 -14 512 512" width="512pt" xmlns="http://www.w3.org/2000/svg"><path d="m319.859375 476.929688h-127.71875c-5.085937 0-9.207031-4.121094-9.207031-9.207032v-117.324218c0-5.085938 4.121094-9.210938 9.207031-9.210938h127.71875c5.085937 0 9.207031 4.125 9.207031 9.210938v117.320312c0 5.089844-4.121094 9.210938-9.207031 9.210938zm0 0" fill="#f1eded"/><path d="m329.066406 350.398438v117.324218c0 5.085938-4.121094 9.207032-9.207031 9.207032h-14.414063c2.820313 0 5.101563-2.285157 5.101563-5.097657v-125.542969c0-2.820312-2.28125-5.097656-5.101563-5.097656h14.414063c5.085937 0 9.207031 4.121094 9.207031 9.207032zm0 0" fill="#dad0cd"/><path d="m329.066406 350.398438v18.589843h-146.132812v-18.589843c0-5.085938 4.121094-9.207032 9.207031-9.207032h127.714844c5.089843 0 9.210937 4.121094 9.210937 9.207032zm0 0" fill="#27bef4"/><path d="m329.066406 350.398438v18.589843h-18.519531v-22.699219c0-2.820312-2.28125-5.097656-5.101563-5.097656h14.414063c5.085937 0 9.207031 4.121094 9.207031 9.207032zm0 0" fill="#209ced"/><path d="m239.214844 341.191406v27.796875h-56.28125v-18.589843c0-5.085938 4.121094-9.207032 9.207031-9.207032zm0 0" fill="#fc6393"/><path d="m144.425781 476.929688h-127.714843c-5.089844 0-9.210938-4.121094-9.210938-9.207032v-117.324218c0-5.085938 4.121094-9.210938 9.210938-9.210938h127.714843c5.085938 0 9.210938 4.125 9.210938 9.210938v117.320312c0 5.089844-4.125 9.210938-9.210938 9.210938zm0 0" fill="#f1eded"/><path d="m153.636719 350.398438v117.324218c0 5.085938-4.125 9.207032-9.210938 9.207032h-14.410156c2.820313 0 5.097656-2.285157 5.097656-5.097657v-125.542969c0-2.820312-2.277343-5.097656-5.097656-5.097656h14.410156c5.085938 0 9.210938 4.121094 9.210938 9.207032zm0 0" fill="#dad0cd"/><path d="m153.636719 350.398438v18.589843h-146.136719v-18.589843c0-5.085938 4.125-9.207032 9.210938-9.207032h127.714843c5.085938 0 9.210938 4.121094 9.210938 9.207032zm0 0" fill="#27bef4"/><path d="m153.636719 350.398438v18.589843h-18.523438v-22.699219c0-2.820312-2.277343-5.097656-5.097656-5.097656h14.410156c5.085938 0 9.210938 4.121094 9.210938 9.207032zm0 0" fill="#209ced"/><path d="m63.78125 341.191406v27.796875h-56.28125v-18.589843c0-5.085938 4.125-9.207032 9.210938-9.207032zm0 0" fill="#fab03c"/><path d="m495.289062 476.929688h-127.714843c-5.085938 0-9.210938-4.121094-9.210938-9.207032v-117.324218c0-5.085938 4.125-9.210938 9.210938-9.210938h127.714843c5.089844 0 9.210938 4.125 9.210938 9.210938v117.320312c0 5.089844-4.121094 9.210938-9.210938 9.210938zm0 0" fill="#f1eded"/><path d="m504.5 350.398438v117.324218c0 5.085938-4.125 9.207032-9.210938 9.207032h-14.410156c2.820313 0 5.097656-2.285157 5.097656-5.097657v-125.542969c0-2.820312-2.277343-5.097656-5.097656-5.097656h14.410156c5.085938 0 9.210938 4.121094 9.210938 9.207032zm0 0" fill="#dad0cd"/><path d="m504.5 350.398438v18.589843h-146.136719v-18.589843c0-5.085938 4.125-9.207032 9.210938-9.207032h127.714843c5.085938 0 9.210938 4.121094 9.210938 9.207032zm0 0" fill="#27bef4"/><path d="m504.5 350.398438v18.589843h-18.523438v-22.699219c0-2.820312-2.277343-5.097656-5.097656-5.097656h14.410156c5.085938 0 9.210938 4.121094 9.210938 9.207032zm0 0" fill="#209ced"/><path d="m414.648438 341.191406v27.796875h-56.285157v-18.589843c0-5.085938 4.125-9.207032 9.210938-9.207032zm0 0" fill="#fab03c"/><path d="m380.753906 84.324219h-249.511718c-21.214844 0-38.414063-17.199219-38.414063-38.414063 0-21.210937 17.199219-38.410156 38.414063-38.410156h249.511718c21.214844 0 38.414063 17.199219 38.414063 38.410156 0 21.214844-17.199219 38.414063-38.414063 38.414063zm0 0" fill="#f1eded"/><path d="m419.171875 45.914062c0 10.609376-4.304687 20.214844-11.257813 27.167969-6.949218 6.949219-16.546874 11.246094-27.15625 11.246094h-25.476562c10.609375 0 20.207031-4.296875 27.160156-11.246094 6.949219-6.953125 11.253906-16.558593 11.253906-27.167969 0-21.21875-17.203124-38.414062-38.414062-38.414062h25.476562c21.207032 0 38.414063 17.195312 38.414063 38.414062zm0 0" fill="#dad0cd"/><path d="m143.3125 7.5h49.128906v76.824219h-49.128906zm0 0" fill="#6b97af"/><path d="m173.988281 7.5h18.449219v76.824219h-18.449219zm0 0" fill="#50758e"/><path d="m345.914062 45.910156c0 6.785156-5.496093 12.285156-12.28125 12.285156-6.785156 0-12.28125-5.5-12.28125-12.285156 0-6.78125 5.496094-12.28125 12.28125-12.28125 6.785157 0 12.28125 5.5 12.28125 12.28125zm0 0" fill="#f6cb43"/><path d="m380.753906 161.148438h-249.511718c-21.214844 0-38.414063-17.199219-38.414063-38.414063 0-21.210937 17.199219-38.410156 38.414063-38.410156h249.511718c21.214844 0 38.414063 17.199219 38.414063 38.410156 0 21.214844-17.199219 38.414063-38.414063 38.414063zm0 0" fill="#dad0cd"/><path d="m419.171875 122.738281c0 10.609375-4.304687 20.214844-11.257813 27.167969-6.949218 6.949219-16.546874 11.246094-27.15625 11.246094h-25.476562c10.609375 0 20.207031-4.296875 27.160156-11.246094 6.949219-6.953125 11.253906-16.558594 11.253906-27.167969 0-21.21875-17.203124-38.414062-38.414062-38.414062h25.476562c21.207032 0 38.414063 17.195312 38.414063 38.414062zm0 0" fill="#c1bab8"/><path d="m143.3125 84.324219h49.128906v76.824219h-49.128906zm0 0" fill="#50758e"/><path d="m173.988281 84.324219h18.449219v76.824219h-18.449219zm0 0" fill="#2b597f"/><path d="m345.914062 122.734375c0 6.785156-5.496093 12.285156-12.28125 12.285156-6.785156 0-12.28125-5.5-12.28125-12.285156 0-6.78125 5.496094-12.28125 12.28125-12.28125 6.785157 0 12.28125 5.5 12.28125 12.28125zm0 0" fill="#fab03c"/><path d="m380.753906 237.972656h-249.511718c-21.214844 0-38.414063-17.199218-38.414063-38.414062 0-21.210938 17.199219-38.410156 38.414063-38.410156h249.511718c21.214844 0 38.414063 17.199218 38.414063 38.410156 0 21.214844-17.199219 38.414062-38.414063 38.414062zm0 0" fill="#f1eded"/><path d="m419.171875 199.5625c0 10.609375-4.304687 20.214844-11.257813 27.167969-6.949218 6.949219-16.546874 11.246093-27.15625 11.246093h-25.476562c10.609375 0 20.207031-4.296874 27.160156-11.246093 6.949219-6.953125 11.253906-16.558594 11.253906-27.167969 0-21.21875-17.203124-38.414062-38.414062-38.414062h25.476562c21.207032 0 38.414063 17.195312 38.414063 38.414062zm0 0" fill="#dad0cd"/><path d="m143.3125 161.148438h49.128906v76.824218h-49.128906zm0 0" fill="#6b97af"/><path d="m173.988281 161.148438h18.449219v76.824218h-18.449219zm0 0" fill="#50758e"/><path d="m345.914062 199.558594c0 6.785156-5.496093 12.285156-12.28125 12.285156-6.785156 0-12.28125-5.5-12.28125-12.285156 0-6.78125 5.496094-12.28125 12.28125-12.28125 6.785157 0 12.28125 5.5 12.28125 12.28125zm0 0" fill="#f6cb43"/><path d="m495.289062 333.6875h-127.714843c-9.214844 0-16.710938 7.496094-16.710938 16.710938v60h-14.296875v-60c0-9.214844-7.496094-16.710938-16.707031-16.710938h-127.71875c-9.210937 0-16.707031 7.496094-16.707031 16.710938v60h-14.296875v-60c0-9.214844-7.496094-16.710938-16.710938-16.710938h-127.714843c-9.214844 0-16.710938 7.496094-16.710938 16.710938v117.320312c0 9.214844 7.496094 16.710938 16.710938 16.710938h127.714843c9.214844 0 16.710938-7.496094 16.710938-16.710938v-42.320312h14.296875v42.320312c0 9.214844 7.496094 16.710938 16.707031 16.710938h76.53125c4.140625 0 7.5-3.359376 7.5-7.5 0-4.144532-3.359375-7.5-7.5-7.5h-76.53125c-.941406 0-1.707031-.769532-1.707031-1.710938v-91.234375h131.136718v91.234375c0 .941406-.769531 1.710938-1.710937 1.710938h-18.53125c-4.140625 0-7.5 3.355468-7.5 7.5 0 4.140624 3.359375 7.5 7.5 7.5h18.53125c9.210937 0 16.707031-7.496094 16.707031-16.710938v-42.320312h14.296875v42.320312c0 9.214844 7.496094 16.710938 16.710938 16.710938h127.714843c9.214844 0 16.710938-7.496094 16.710938-16.710938v-117.320312c0-9.214844-7.496094-16.710938-16.710938-16.710938zm-349.152343 16.710938v11.085937h-74.855469v-12.796875h73.144531c.945313 0 1.710938.765625 1.710938 1.710938zm-129.425781-1.710938h39.570312v12.796875h-41.28125v-11.085937c0-.945313.765625-1.710938 1.710938-1.710938zm127.714843 120.742188h-127.714843c-.945313 0-1.710938-.765626-1.710938-1.707032v-91.238281h131.136719v91.238281c0 .941406-.765625 1.707032-1.710938 1.707032zm46.007813-119.03125c0-.941407.765625-1.710938 1.707031-1.710938h39.574219v12.800781h-41.28125zm56.28125 11.085937v-12.796875h73.144531c.941406 0 1.710937.765625 1.710937 1.710938v11.085937zm250.285156-11.085937v11.085937h-74.855469v-12.796875h73.144531c.945313 0 1.710938.765625 1.710938 1.710938zm-129.425781-1.710938h39.570312v12.796875h-41.28125v-11.085937c0-.945313.765625-1.710938 1.710938-1.710938zm127.714843 120.742188h-127.714843c-.945313 0-1.710938-.765626-1.710938-1.707032v-91.238281h131.136719v91.238281c0 .941406-.765625 1.707032-1.710938 1.707032zm0 0"/><path d="m406.464844 393.90625h-.105469c-4.144531 0-7.5 3.359375-7.5 7.5 0 4.144531 3.355469 7.5 7.5 7.5h.105469c4.140625 0 7.5-3.355469 7.5-7.5 0-4.140625-3.359375-7.5-7.5-7.5zm0 0"/><path d="m456.503906 393.90625h-25.621094c-4.140624 0-7.5 3.359375-7.5 7.5 0 4.144531 3.359376 7.5 7.5 7.5h25.621094c4.144532 0 7.5-3.355469 7.5-7.5 0-4.140625-3.355468-7.5-7.5-7.5zm0 0"/><path d="m406.464844 415.90625h-.105469c-4.144531 0-7.5 3.359375-7.5 7.5 0 4.144531 3.355469 7.5 7.5 7.5h.105469c4.140625 0 7.5-3.355469 7.5-7.5 0-4.140625-3.359375-7.5-7.5-7.5zm0 0"/><path d="m456.503906 415.90625h-25.621094c-4.140624 0-7.5 3.359375-7.5 7.5 0 4.144531 3.359376 7.5 7.5 7.5h25.621094c4.144532 0 7.5-3.355469 7.5-7.5 0-4.140625-3.355468-7.5-7.5-7.5zm0 0"/><path d="m406.464844 437.90625h-.105469c-4.144531 0-7.5 3.359375-7.5 7.5 0 4.144531 3.355469 7.5 7.5 7.5h.105469c4.140625 0 7.5-3.355469 7.5-7.5 0-4.140625-3.359375-7.5-7.5-7.5zm0 0"/><path d="m456.503906 437.90625h-25.621094c-4.140624 0-7.5 3.359375-7.5 7.5 0 4.144531 3.359376 7.5 7.5 7.5h25.621094c4.144532 0 7.5-3.355469 7.5-7.5 0-4.140625-3.355468-7.5-7.5-7.5zm0 0"/><path d="m55.597656 393.90625h-.101562c-4.144532 0-7.5 3.359375-7.5 7.5 0 4.144531 3.355468 7.5 7.5 7.5h.101562c4.144532 0 7.5-3.355469 7.5-7.5 0-4.140625-3.355468-7.5-7.5-7.5zm0 0"/><path d="m105.640625 393.90625h-25.621094c-4.140625 0-7.5 3.359375-7.5 7.5 0 4.144531 3.359375 7.5 7.5 7.5h25.621094c4.144531 0 7.5-3.355469 7.5-7.5 0-4.140625-3.359375-7.5-7.5-7.5zm0 0"/><path d="m55.597656 415.90625h-.101562c-4.144532 0-7.5 3.359375-7.5 7.5 0 4.144531 3.355468 7.5 7.5 7.5h.101562c4.144532 0 7.5-3.355469 7.5-7.5 0-4.140625-3.355468-7.5-7.5-7.5zm0 0"/><path d="m105.640625 415.90625h-25.621094c-4.140625 0-7.5 3.359375-7.5 7.5 0 4.144531 3.359375 7.5 7.5 7.5h25.621094c4.144531 0 7.5-3.355469 7.5-7.5 0-4.140625-3.359375-7.5-7.5-7.5zm0 0"/><path d="m55.597656 437.90625h-.101562c-4.144532 0-7.5 3.359375-7.5 7.5 0 4.144531 3.355468 7.5 7.5 7.5h.101562c4.144532 0 7.5-3.355469 7.5-7.5 0-4.140625-3.355468-7.5-7.5-7.5zm0 0"/><path d="m105.640625 437.90625h-25.621094c-4.140625 0-7.5 3.359375-7.5 7.5 0 4.144531 3.359375 7.5 7.5 7.5h25.621094c4.144531 0 7.5-3.355469 7.5-7.5 0-4.140625-3.359375-7.5-7.5-7.5zm0 0"/><path d="m333.632812 65.695312c10.90625 0 19.78125-8.875 19.78125-19.785156 0-10.90625-8.875-19.78125-19.78125-19.78125s-19.78125 8.875-19.78125 19.78125c0 10.910156 8.875 19.785156 19.78125 19.785156zm0-24.566406c2.636719 0 4.78125 2.144532 4.78125 4.78125 0 2.640625-2.144531 4.785156-4.78125 4.785156-2.636718 0-4.78125-2.144531-4.78125-4.785156 0-2.636718 2.144532-4.78125 4.78125-4.78125zm0 0"/><path d="m296.574219 54.332031c4.144531 0 7.5-3.359375 7.5-7.5 0-4.144531-3.355469-7.5-7.5-7.5h-.09375c-4.140625 0-7.453125 3.355469-7.453125 7.5 0 4.140625 3.40625 7.5 7.546875 7.5zm0 0"/><path d="m273.828125 54.332031c4.144531 0 7.5-3.359375 7.5-7.5 0-4.144531-3.355469-7.5-7.5-7.5h-.09375c-4.140625 0-7.453125 3.355469-7.453125 7.5 0 4.140625 3.40625 7.5 7.546875 7.5zm0 0"/><path d="m251.085938 54.332031c4.140624 0 7.5-3.359375 7.5-7.5 0-4.144531-3.359376-7.5-7.5-7.5h-.097657c-4.140625 0-7.453125 3.355469-7.453125 7.5 0 4.140625 3.40625 7.5 7.550782 7.5zm0 0"/><path d="m333.632812 142.519531c10.90625 0 19.78125-8.875 19.78125-19.785156 0-10.90625-8.875-19.78125-19.78125-19.78125s-19.78125 8.875-19.78125 19.78125c0 10.910156 8.875 19.785156 19.78125 19.785156zm0-24.566406c2.636719 0 4.78125 2.144531 4.78125 4.78125s-2.144531 4.785156-4.78125 4.785156c-2.636718 0-4.78125-2.148437-4.78125-4.785156s2.144532-4.78125 4.78125-4.78125zm0 0"/><path d="m296.613281 116.15625h-.09375c-.011719 0-.027343 0-.039062 0-4.125 0-7.429688 3.332031-7.453125 7.460938-.019532 4.140624 3.367187 7.515624 7.507812 7.539062h.039063c4.125 0 7.480469-3.332031 7.5-7.460938.023437-4.144531-3.316407-7.519531-7.460938-7.539062zm0 0"/><path d="m273.867188 116.15625h-.09375c-.011719 0-.027344 0-.039063 0-4.125 0-7.429687 3.332031-7.453125 7.460938-.019531 4.140624 3.367188 7.515624 7.507812 7.539062h.042969c4.121094 0 7.476563-3.335938 7.496094-7.460938.023437-4.144531-3.316406-7.519531-7.460937-7.539062zm0 0"/><path d="m251.121094 116.15625h-.09375c-.011719 0-.023438 0-.039063 0-4.125 0-7.429687 3.332031-7.453125 7.460938-.019531 4.140624 3.367188 7.515624 7.511719 7.539062h.039063c4.125 0 7.476562-3.335938 7.5-7.460938.019531-4.144531-3.320313-7.519531-7.464844-7.539062zm0 0"/><path d="m85.328125 199.558594c0 25.316406 20.597656 45.914062 45.910156 45.914062h12.0625.011719.007812 49.109376.011718.007813 25.222656c4.140625 0 7.5-3.359375 7.5-7.5 0-4.144531-3.359375-7.5-7.5-7.5h-17.730469v-61.824218h180.816406c17.042969 0 30.910157 13.867187 30.910157 30.910156 0 17.046875-13.867188 30.914062-30.910157 30.914062h-130.429687c-4.140625 0-7.5 3.355469-7.5 7.5 0 4.140625 3.359375 7.5 7.5 7.5h130.425781c25.316406 0 45.914063-20.597656 45.914063-45.914062 0-16.054688-8.289063-30.203125-20.808594-38.410156 12.519531-8.210938 20.808594-22.359376 20.808594-38.414063s-8.289063-30.203125-20.808594-38.410156c12.519531-8.210938 20.808594-22.355469 20.808594-38.414063 0-25.3125-20.597657-45.910156-45.914063-45.910156h-249.515625c-25.3125 0-45.910156 20.597656-45.910156 45.910156 0 16.058594 8.289063 30.203125 20.808594 38.414063-12.519531 8.207031-20.808594 22.355469-20.808594 38.410156s8.289063 30.203125 20.808594 38.414063c-12.519531 8.207031-20.808594 22.355468-20.808594 38.410156zm99.609375-107.734375v61.824219h-34.128906v-61.824219zm0-15h-34.128906v-61.824219h34.128906zm-34.125 153.648437v-61.824218h34.128906v61.824218zm260.855469-184.5625c0 17.046875-13.867188 30.914063-30.914063 30.914063h-57.425781c-4.140625 0-7.5 3.359375-7.5 7.5s3.359375 7.5 7.5 7.5h57.425781c17.046875 0 30.914063 13.867187 30.914063 30.910156 0 17.046875-13.867188 30.914063-30.914063 30.914063h-180.816406v-61.824219h90.730469c4.144531 0 7.5-3.359375 7.5-7.5s-3.355469-7.5-7.5-7.5h-90.730469v-61.824219h180.816406c17.046875 0 30.914063 13.867188 30.914063 30.910156zm-311.339844 0c0-17.042968 13.867187-30.910156 30.910156-30.910156h4.570313v61.824219h-4.570313c-17.042969 0-30.910156-13.867188-30.910156-30.914063zm0 76.824219c0-17.042969 13.867187-30.910156 30.910156-30.910156h4.570313v61.824219h-4.570313c-17.042969 0-30.910156-13.867188-30.910156-30.914063zm30.910156 45.914063h4.570313v61.824218h-4.570313c-17.042969 0-30.910156-13.867187-30.910156-30.914062 0-17.042969 13.867187-30.910156 30.910156-30.910156zm0 0"/><path d="m353.414062 199.558594c0-10.90625-8.875-19.78125-19.78125-19.78125s-19.78125 8.875-19.78125 19.78125c0 10.910156 8.875 19.785156 19.78125 19.785156s19.78125-8.875 19.78125-19.785156zm-24.5625 0c0-2.636719 2.144532-4.78125 4.78125-4.78125 2.636719 0 4.78125 2.144531 4.78125 4.78125 0 2.636718-2.144531 4.785156-4.78125 4.785156-2.636718 0-4.78125-2.148438-4.78125-4.785156zm0 0"/><path d="m304.074219 200.480469c0-4.144531-3.355469-7.5-7.5-7.5h-.09375c-4.140625 0-7.453125 3.355469-7.453125 7.5 0 4.140625 3.40625 7.5 7.546875 7.5 4.144531 0 7.5-3.359375 7.5-7.5zm0 0"/><path d="m281.328125 200.480469c0-4.144531-3.355469-7.5-7.5-7.5h-.09375c-4.140625 0-7.453125 3.355469-7.453125 7.5 0 4.140625 3.40625 7.5 7.546875 7.5 4.144531 0 7.5-3.359375 7.5-7.5zm0 0"/><path d="m251.085938 207.980469c4.140624 0 7.5-3.359375 7.5-7.5 0-4.144531-3.359376-7.5-7.5-7.5h-.097657c-4.140625 0-7.453125 3.355469-7.453125 7.5 0 4.140625 3.40625 7.5 7.550782 7.5zm0 0"/><path d="m75.136719 321.753906c4.144531 0 7.5-3.359375 7.5-7.5 0-6.398437 5.207031-11.605468 11.605469-11.605468h142.652343c7.492188 0 14.265625-3.117188 19.105469-8.117188 4.839844 5 11.613281 8.117188 19.105469 8.117188h142.648437c6.398438 0 11.605469 5.207031 11.605469 11.605468 0 4.140625 3.359375 7.5 7.5 7.5 4.144531 0 7.5-3.359375 7.5-7.5 0-14.671875-11.933594-26.605468-26.605469-26.605468h-142.648437c-6.398438 0-11.605469-5.207032-11.605469-11.605469v-11.132813c0-4.144531-3.359375-7.5-7.5-7.5-4.144531 0-7.5 3.355469-7.5 7.5v11.132813c0 6.398437-5.207031 11.605469-11.605469 11.605469h-142.652343c-14.671876 0-26.605469 11.9375-26.605469 26.605468 0 4.140625 3.355469 7.5 7.5 7.5zm0 0"/><path d="m286.621094 414.074219-26-20.363281c-2.714844-2.128907-6.53125-2.128907-9.25 0l-26 20.363281c-3.257813 2.554687-3.832032 7.269531-1.277344 10.53125 1.738281 2.214843 4.472656 3.183593 7.070312 2.78125v15.8125c0 4.144531 3.355469 7.5 7.5 7.5h34.667969c4.140625 0 7.5-3.355469 7.5-7.5v-15.8125c.386719.058593.773438.09375 1.160157.09375 2.226562 0 4.429687-.988281 5.910156-2.875 2.554687-3.261719 1.980468-7.976563-1.28125-10.53125zm-40.457032 21.625v-18.855469l9.832032-7.703125 9.835937 7.703125v18.855469zm0 0"/></svg>