<svg height="512pt" viewBox="0 -65 512 512" width="512pt" xmlns="http://www.w3.org/2000/svg"><path d="m319.089844 141.605469h-126.179688c-5.023437 0-9.097656-4.074219-9.097656-9.097657v-115.910156c0-5.023437 4.074219-9.097656 9.097656-9.097656h126.179688c5.023437 0 9.097656 4.074219 9.097656 9.097656v115.910156c0 5.023438-4.074219 9.097657-9.097656 9.097657zm0 0" fill="#f1eded"/><path d="m328.183594 16.601562v115.90625c0 5.023438-4.070313 9.097657-9.097656 9.097657h-14.234376c2.785157 0 5.035157-2.257813 5.035157-5.039063v-124.027344c0-2.785156-2.25-5.035156-5.035157-5.035156h14.234376c5.023437 0 9.097656 4.070313 9.097656 9.097656zm0 0" fill="#dad0cd"/><path d="m328.183594 16.601562v18.363282h-144.367188v-18.363282c0-5.027343 4.070313-9.097656 9.097656-9.097656h126.171876c5.023437 0 9.097656 4.070313 9.097656 9.097656zm0 0" fill="#27bef4"/><path d="m328.183594 16.601562v18.363282h-18.296875v-22.425782c0-2.785156-2.25-5.035156-5.039063-5.035156h14.238282c5.023437 0 9.097656 4.070313 9.097656 9.097656zm0 0" fill="#209ced"/><path d="m239.417969 7.503906v27.460938h-55.601563v-18.363282c0-5.027343 4.070313-9.097656 9.097656-9.097656zm0 0" fill="#fc6393"/><path d="m319.859375 373.5625h-127.71875c-5.085937 0-9.207031-4.125-9.207031-9.210938v-117.324218c0-5.085938 4.121094-9.207032 9.207031-9.207032h127.71875c5.085937 0 9.207031 4.121094 9.207031 9.207032v117.324218c0 5.085938-4.121094 9.210938-9.207031 9.210938zm0 0" fill="#f1eded"/><path d="m329.066406 247.03125v117.320312c0 5.085938-4.121094 9.210938-9.207031 9.210938h-14.414063c2.820313 0 5.101563-2.285156 5.101563-5.101562v-125.539063c0-2.820313-2.28125-5.101563-5.101563-5.101563h14.414063c5.085937 0 9.207031 4.125 9.207031 9.210938zm0 0" fill="#dad0cd"/><path d="m329.066406 247.03125v18.585938h-146.132812v-18.585938c0-5.085938 4.121094-9.210938 9.207031-9.210938h127.714844c5.089843 0 9.210937 4.125 9.210937 9.210938zm0 0" fill="#27bef4"/><path d="m329.066406 247.03125v18.585938h-18.519531v-22.695313c0-2.820313-2.28125-5.101563-5.101563-5.101563h14.414063c5.085937 0 9.207031 4.125 9.207031 9.210938zm0 0" fill="#209ced"/><path d="m239.214844 237.820312v27.796876h-56.28125v-18.585938c0-5.085938 4.121094-9.210938 9.207031-9.210938zm0 0" fill="#fab03c"/><path d="m144.425781 373.5625h-127.714843c-5.089844 0-9.210938-4.125-9.210938-9.210938v-117.324218c0-5.085938 4.121094-9.207032 9.210938-9.207032h127.714843c5.085938 0 9.210938 4.121094 9.210938 9.207032v117.324218c0 5.085938-4.125 9.210938-9.210938 9.210938zm0 0" fill="#f1eded"/><path d="m153.636719 247.03125v117.320312c0 5.085938-4.125 9.210938-9.210938 9.210938h-14.410156c2.820313 0 5.097656-2.285156 5.097656-5.101562v-125.539063c0-2.820313-2.277343-5.101563-5.097656-5.101563h14.410156c5.085938 0 9.210938 4.125 9.210938 9.210938zm0 0" fill="#dad0cd"/><path d="m153.636719 247.03125v18.585938h-146.136719v-18.585938c0-5.085938 4.125-9.210938 9.210938-9.210938h127.714843c5.085938 0 9.210938 4.125 9.210938 9.210938zm0 0" fill="#27bef4"/><path d="m153.636719 247.03125v18.585938h-18.523438v-22.695313c0-2.820313-2.277343-5.101563-5.097656-5.101563h14.410156c5.085938 0 9.210938 4.125 9.210938 9.210938zm0 0" fill="#209ced"/><path d="m63.78125 237.820312v27.796876h-56.28125v-18.585938c0-5.085938 4.125-9.210938 9.210938-9.210938zm0 0" fill="#fab03c"/><path d="m495.289062 373.5625h-127.714843c-5.085938 0-9.210938-4.125-9.210938-9.210938v-117.324218c0-5.085938 4.125-9.207032 9.210938-9.207032h127.714843c5.089844 0 9.210938 4.121094 9.210938 9.207032v117.324218c0 5.085938-4.121094 9.210938-9.210938 9.210938zm0 0" fill="#f1eded"/><path d="m504.5 247.03125v117.320312c0 5.085938-4.125 9.210938-9.210938 9.210938h-14.410156c2.820313 0 5.097656-2.285156 5.097656-5.101562v-125.539063c0-2.820313-2.277343-5.101563-5.097656-5.101563h14.410156c5.085938 0 9.210938 4.125 9.210938 9.210938zm0 0" fill="#dad0cd"/><path d="m504.5 247.03125v18.585938h-146.136719v-18.585938c0-5.085938 4.125-9.210938 9.210938-9.210938h127.714843c5.085938 0 9.210938 4.125 9.210938 9.210938zm0 0" fill="#27bef4"/><path d="m504.5 247.03125v18.585938h-18.523438v-22.695313c0-2.820313-2.277343-5.101563-5.097656-5.101563h14.410156c5.085938 0 9.210938 4.125 9.210938 9.210938zm0 0" fill="#209ced"/><path d="m414.648438 237.820312v27.796876h-56.285157v-18.585938c0-5.085938 4.125-9.210938 9.210938-9.210938zm0 0" fill="#fab03c"/><path d="m192.910156 149.105469h126.179688c9.148437 0 16.597656-7.445313 16.597656-16.597657v-37.648437c0-4.140625-3.359375-7.5-7.5-7.5-4.144531 0-7.5 3.359375-7.5 7.5v37.648437c0 .878907-.71875 1.597657-1.597656 1.597657h-126.179688c-.878906 0-1.597656-.71875-1.597656-1.597657v-90.042968h129.371094v19.734375c0 4.144531 3.359375 7.5 7.5 7.5 4.144531 0 7.5-3.355469 7.5-7.5v-27.214844c0-.007813.003906-.015625.003906-.019531 0-.007813-.003906-.015625-.003906-.019532v-18.347656c0-9.152344-7.445313-16.597656-16.597656-16.597656h-126.175782c-9.148437 0-16.597656 7.445312-16.597656 16.597656v115.910156c0 9.148438 7.449219 16.597657 16.597656 16.597657zm127.777344-132.507813v10.867188h-73.769531v-12.464844h72.171875c.878906 0 1.597656.71875 1.597656 1.597656zm-127.777344-1.597656h39.007813v12.464844h-40.605469v-10.867188c0-.878906.71875-1.597656 1.597656-1.597656zm0 0"/><path d="m495.289062 230.320312h-127.71875c-9.210937 0-16.707031 7.496094-16.707031 16.707032v60.003906h-14.296875v-60.003906c0-9.214844-7.496094-16.707032-16.707031-16.707032h-127.71875c-9.210937 0-16.707031 7.496094-16.707031 16.707032v60.003906h-14.296875v-60.003906c0-9.214844-7.496094-16.707032-16.710938-16.707032h-127.714843c-9.214844 0-16.710938 7.492188-16.710938 16.707032v61.171875c0 4.144531 3.355469 7.5 7.5 7.5s7.5-3.355469 7.5-7.5v-35.082031h131.136719v91.234374c0 .941407-.765625 1.710938-1.710938 1.710938h-127.714843c-.945313 0-1.710938-.769531-1.710938-1.710938v-23.488281c0-4.144531-3.355469-7.5-7.5-7.5s-7.5 3.355469-7.5 7.5v23.488281c0 9.214844 7.496094 16.710938 16.710938 16.710938h127.714843c9.214844 0 16.710938-7.496094 16.710938-16.710938v-42.320312h14.296875v42.320312c0 9.214844 7.496094 16.707032 16.707031 16.707032h127.71875c9.214844 0 16.710937-7.496094 16.710937-16.707032v-42.320312h14.292969v42.320312c0 9.210938 7.496094 16.707032 16.710938 16.707032h24.097656c4.140625 0 7.5-3.355469 7.5-7.5 0-4.140625-3.359375-7.5-7.5-7.5h-24.097656c-.941407 0-1.710938-.765625-1.710938-1.707032v-91.234374h131.136719v91.234374c0 .941407-.765625 1.707032-1.710938 1.707032h-70.960937c-4.140625 0-7.5 3.359375-7.5 7.5 0 4.144531 3.359375 7.5 7.5 7.5h70.960937c9.214844 0 16.710938-7.496094 16.710938-16.707032v-117.324218c0-9.214844-7.496094-16.707032-16.710938-16.707032zm-480.289062 16.707032c0-.941406.765625-1.707032 1.710938-1.707032h39.570312v12.796876h-41.28125zm56.28125 11.089844v-12.800782h73.144531c.945313 0 1.710938.769532 1.710938 1.710938v11.085937h-74.855469zm250.285156-11.089844v11.089844h-74.851562v-12.800782h73.144531c.941406.003906 1.707031.769532 1.707031 1.710938zm-129.425781-1.707032h39.574219v12.796876h-41.28125v-11.089844c0-.941406.765625-1.707032 1.707031-1.707032zm127.71875 120.742188h-127.71875c-.941406 0-1.707031-.769531-1.707031-1.710938v-91.234374h131.136718v91.234374c-.003906.941407-.769531 1.710938-1.710937 1.710938zm46.003906-119.035156c0-.941406.765625-1.707032 1.707031-1.707032h39.574219v12.796876h-41.28125zm56.28125 11.089844v-12.800782h73.144531c.945313 0 1.710938.769532 1.710938 1.710938v11.085937h-74.855469zm0 0"/><path d="m238.667969 115.316406h34.664062c4.144531 0 7.5-3.359375 7.5-7.5v-15.816406c.386719.0625.773438.09375 1.164063.09375 2.226562 0 4.429687-.984375 5.90625-2.875 2.558594-3.257812 1.984375-7.972656-1.277344-10.527344l-26-20.367187c-2.71875-2.128907-6.53125-2.128907-9.25 0l-26 20.367187c-3.261719 2.554688-3.835938 7.269532-1.277344 10.527344 1.734375 2.21875 4.472656 3.1875 7.070313 2.78125v15.816406c0 4.140625 3.355469 7.5 7.5 7.5zm17.332031-41.5625 9.832031 7.703125v18.859375h-19.664062v-18.859375zm0 0"/><path d="m231.066406 290.539062h-.105468c-.011719 0-.023438 0-.035157 0-4.125 0-7.480469 3.332032-7.5 7.464844-.019531 4.140625 3.324219 7.515625 7.464844 7.535156h.105469.035156c4.125 0 7.480469-3.335937 7.5-7.464843.019531-4.144531-3.320312-7.515625-7.464844-7.535157zm0 0"/><path d="m281.070312 290.535156h-25.617187c-4.144531 0-7.5 3.359375-7.5 7.5 0 4.144532 3.355469 7.5 7.5 7.5h25.617187c4.144532 0 7.5-3.355468 7.5-7.5 0-4.140625-3.355468-7.5-7.5-7.5zm0 0"/><path d="m231.066406 312.539062h-.105468c-.011719 0-.023438 0-.035157 0-4.125 0-7.480469 3.332032-7.5 7.464844-.019531 4.140625 3.324219 7.515625 7.464844 7.535156h.105469.035156c4.125 0 7.480469-3.335937 7.5-7.464843.019531-4.144531-3.320312-7.515625-7.464844-7.535157zm0 0"/><path d="m281.070312 312.535156h-25.617187c-4.144531 0-7.5 3.359375-7.5 7.5 0 4.144532 3.355469 7.5 7.5 7.5h25.617187c4.144532 0 7.5-3.355468 7.5-7.5 0-4.140625-3.355468-7.5-7.5-7.5zm0 0"/><path d="m231.066406 334.539062h-.105468c-.011719 0-.023438 0-.035157 0-4.125 0-7.480469 3.332032-7.5 7.464844-.019531 4.140625 3.324219 7.515625 7.464844 7.535156h.105469.035156c4.125 0 7.480469-3.335937 7.5-7.464843.019531-4.144531-3.320312-7.515625-7.464844-7.535157zm0 0"/><path d="m281.070312 334.535156h-25.617187c-4.144531 0-7.5 3.359375-7.5 7.5 0 4.144532 3.355469 7.5 7.5 7.5h25.617187c4.144532 0 7.5-3.355468 7.5-7.5 0-4.140625-3.355468-7.5-7.5-7.5zm0 0"/><path d="m406.496094 290.539062h-.101563c-.011719 0-.023437 0-.035156 0-4.125 0-7.480469 3.332032-7.5 7.464844-.019531 4.140625 3.320313 7.515625 7.464844 7.535156h.105469.035156c4.125 0 7.476562-3.335937 7.5-7.464843.015625-4.144531-3.324219-7.515625-7.46875-7.535157zm0 0"/><path d="m430.882812 305.535156h25.621094c4.144532 0 7.5-3.355468 7.5-7.5 0-4.140625-3.355468-7.5-7.5-7.5h-25.621094c-4.140624 0-7.5 3.359375-7.5 7.5 0 4.144532 3.359376 7.5 7.5 7.5zm0 0"/><path d="m406.496094 312.539062h-.101563c-.011719 0-.023437 0-.035156 0-4.125 0-7.480469 3.332032-7.5 7.464844-.019531 4.140625 3.320313 7.515625 7.464844 7.535156h.105469.035156c4.125 0 7.476562-3.335937 7.5-7.464843.015625-4.144531-3.324219-7.515625-7.46875-7.535157zm0 0"/><path d="m430.882812 327.535156h25.621094c4.144532 0 7.5-3.355468 7.5-7.5 0-4.140625-3.355468-7.5-7.5-7.5h-25.621094c-4.140624 0-7.5 3.359375-7.5 7.5 0 4.144532 3.359376 7.5 7.5 7.5zm0 0"/><path d="m406.496094 334.539062h-.101563c-.011719 0-.023437 0-.035156 0-4.125 0-7.480469 3.332032-7.5 7.464844-.019531 4.140625 3.320313 7.515625 7.464844 7.535156h.105469.035156c4.125 0 7.476562-3.335937 7.5-7.464843.015625-4.144531-3.324219-7.515625-7.46875-7.535157zm0 0"/><path d="m430.882812 349.535156h25.621094c4.144532 0 7.5-3.355468 7.5-7.5 0-4.140625-3.355468-7.5-7.5-7.5h-25.621094c-4.140624 0-7.5 3.359375-7.5 7.5 0 4.144532 3.359376 7.5 7.5 7.5zm0 0"/><path d="m55.5625 305.539062h.035156c4.125 0 7.480469-3.335937 7.5-7.464843.019532-4.144531-3.320312-7.515625-7.464844-7.535157h-.105468c-.011719 0-.019532 0-.035156 0-4.125 0-7.476563 3.332032-7.5 7.464844-.019532 4.140625 3.324218 7.515625 7.46875 7.535156zm0 0"/><path d="m80.019531 305.535156h25.621094c4.144531 0 7.5-3.355468 7.5-7.5 0-4.140625-3.355469-7.5-7.5-7.5h-25.621094c-4.140625 0-7.5 3.359375-7.5 7.5 0 4.144532 3.359375 7.5 7.5 7.5zm0 0"/><path d="m55.460938 327.535156h.101562.039062c4.125 0 7.476563-3.332031 7.496094-7.464844.019532-4.140624-3.320312-7.515624-7.464844-7.535156h-.101562c-.011719 0-.023438 0-.039062 0-4.125 0-7.476563 3.335938-7.496094 7.46875-.019532 4.140625 3.320312 7.515625 7.464844 7.53125zm0 0"/><path d="m80.019531 327.535156h25.621094c4.144531 0 7.5-3.355468 7.5-7.5 0-4.140625-3.355469-7.5-7.5-7.5h-25.621094c-4.140625 0-7.5 3.359375-7.5 7.5 0 4.144532 3.359375 7.5 7.5 7.5zm0 0"/><path d="m55.460938 349.535156h.101562.039062c4.125 0 7.476563-3.332031 7.496094-7.464844.019532-4.140624-3.320312-7.515624-7.464844-7.535156h-.101562c-.011719 0-.023438 0-.039062 0-4.125 0-7.476563 3.335938-7.496094 7.46875-.019532 4.140625 3.320312 7.515625 7.464844 7.53125zm0 0"/><path d="m80.019531 349.535156h25.621094c4.144531 0 7.5-3.355468 7.5-7.5 0-4.140625-3.355469-7.5-7.5-7.5h-25.621094c-4.140625 0-7.5 3.359375-7.5 7.5 0 4.144532 3.359375 7.5 7.5 7.5zm0 0"/><path d="m75.136719 221.054688c4.144531 0 7.5-3.359376 7.5-7.5 0-6.402344 5.207031-11.609376 11.605469-11.609376h142.652343c7.492188 0 14.265625-3.117187 19.105469-8.117187 4.839844 5 11.613281 8.117187 19.105469 8.117187h142.648437c6.398438 0 11.605469 5.207032 11.605469 11.609376 0 4.140624 3.359375 7.5 7.5 7.5 4.144531 0 7.5-3.359376 7.5-7.5 0-14.671876-11.933594-26.609376-26.605469-26.609376h-142.648437c-6.398438 0-11.605469-5.207031-11.605469-11.605468v-11.132813c0-4.140625-3.359375-7.5-7.5-7.5-4.144531 0-7.5 3.359375-7.5 7.5v11.132813c0 6.402344-5.207031 11.605468-11.605469 11.605468h-142.652343c-14.671876 0-26.605469 11.9375-26.605469 26.609376 0 4.140624 3.355469 7.5 7.5 7.5zm0 0"/></svg>