<svg height="512pt" viewBox="-44 0 512 512.0005" width="512pt" xmlns="http://www.w3.org/2000/svg"><path d="m287.058594 42.554688-64.546875-32.558594c-6.636719-3.347656-14.46875-3.347656-21.105469 0l-64.546875 32.558594c-12.328125 6.21875-26.773437 6.683593-39.476563 1.269531l-57.269531-24.414063c-15.453125-6.585937-32.613281 4.753906-32.613281 21.550782v215.214843c0 123.105469 87.945312 225.695313 204.46875 248.324219 116.503906-22.628906 204.449219-125.214844 204.449219-248.324219v-215.214843c0-16.796876-17.160157-28.136719-32.613281-21.550782l-57.269532 24.414063c-12.703125 5.414062-27.148437 4.949219-39.476562-1.269531zm0 0" fill="#fab03c"/><path d="m210.425781 466.058594-1.484375-.386719c-45.832031-11.902344-87.148437-39.199219-116.335937-76.855469-29.300781-37.8125-45.441407-84.914062-45.441407-132.632812v-162.816406c0-8.757813 7.125-15.886719 15.878907-15.886719 1.984375 0 3.929687.367187 5.78125 1.09375l.113281.039062.367188.15625c12.78125 5.453125 26.332031 8.21875 40.261718 8.21875 15.980469 0 31.976563-3.808593 46.261719-11.007812l46.226563-23.320313c3.097656-1.546875 6.507812-2.351562 9.90625-2.351562 3.398437 0 6.8125.804687 9.867187 2.335937l46.269531 23.339844c14.28125 7.199219 30.277344 11.003906 46.257813 11.003906 13.929687 0 27.480469-2.765625 40.261719-8.21875l.335937-.144531.144531-.050781c1.851563-.726563 3.792969-1.09375 5.78125-1.09375 8.753906 0 15.878906 7.128906 15.878906 15.886719v162.816406c0 47.722656-16.136718 94.824218-45.433593 132.636718-29.183594 37.660157-70.5 64.953126-116.335938 76.855469l-1.484375.382813zm0 0" fill="#fd8f3e"/><path d="m364.753906 93.367188v162.816406c0 93.429687-63.523437 174.703125-152.785156 197.875h-.007812c-89.253907-23.179688-152.796876-104.445313-152.796876-197.875v-162.816406c0-2.78125 2.839844-4.660157 5.402344-3.570313l.027344.011719c14.300781 6.097656 29.433594 9.179687 44.972656 9.179687 17.851563 0 35.710938-4.25 51.660156-12.292969l46.234376-23.320312c1.417968-.707031 2.957031-1.070312 4.5-1.070312 1.539062 0 3.078124.363281 4.5 1.070312l46.230468 23.320312c15.949219 8.042969 33.808594 12.292969 51.660156 12.292969 15.550782 0 30.671876-3.082031 44.972657-9.179687l.03125-.011719c2.558593-1.089844 5.398437.789063 5.398437 3.570313zm0 0" fill="#27bef4"/><path d="m359.324219 89.816406c2.5625-1.097656 5.414062.78125 5.414062 3.570313v162.796875c0 93.433594-63.511719 174.699218-152.777343 197.863281-11.246094-2.917969-22.070313-6.757813-32.417969-11.421875 71.839843-32.390625 120.363281-104.777344 120.363281-186.441406v-158.136719c4.785156.625 9.625.949219 14.4375.949219 15.558594 0 30.695312-3.09375 44.980469-9.179688zm0 0" fill="#209ced"/><path d="m211.960938 62.304688v130.433593h-152.796876v-99.371093c0-2.78125 2.839844-4.660157 5.402344-3.570313l.027344.011719c14.300781 6.097656 29.433594 9.179687 44.972656 9.179687 17.851563 0 35.710938-4.25 51.660156-12.292969l46.234376-23.320312c1.417968-.707031 2.957031-1.070312 4.5-1.070312zm0 0" fill="#b4f5fe"/><path d="m364.753906 192.738281v63.445313c0 93.429687-63.523437 174.703125-152.78125 197.871094h-.011718v-261.316407zm0 0" fill="#b4f5fe"/><path d="m364.753906 192.738281v63.445313c0 93.429687-63.523437 174.703125-152.78125 197.871094h-.011718v-29.808594c53.628906-37.285156 87.945312-99.390625 87.945312-168.0625v-63.441406h64.847656zm0 0" fill="#6beafd"/><path d="m109.082031 378.210938c-2.566406-3.253907-7.28125-3.808594-10.535156-1.246094-3.253906 2.566406-3.808594 7.28125-1.246094 10.535156 28.492188 36.117188 68.546875 62.332031 112.785157 73.8125.617187.160156 1.25.242188 1.882812.242188s1.265625-.082032 1.882812-.242188c44.875-11.648438 85.328126-38.371094 113.902344-75.25 28.691406-37.023438 44.492188-83.148438 44.492188-129.878906v-162.8125c0-3.835938-1.910156-7.386719-5.109375-9.5-3.160157-2.089844-7.121094-2.46875-10.617188-1.019532-.042969.019532-.089843.035157-.136719.054688-8.996093 3.835938-18.4375 6.417969-28.0625 7.675781-4.109374.535157-7 4.300781-6.464843 8.410157.539062 4.105468 4.300781 6.996093 8.410156 6.464843 9.203125-1.203125 18.253906-3.464843 26.980469-6.738281v86.523438h-137.785156v-111.953126l39.855468 20.105469c11.320313 5.710938 23.480469 9.613281 36.152344 11.605469 4.089844.636719 7.929688-2.15625 8.574219-6.246094.640625-4.09375-2.15625-7.933594-6.246094-8.574218-11.128906-1.746094-21.800781-5.171876-31.722656-10.179688l-46.234375-23.320312c-4.933594-2.488282-10.828125-2.488282-15.761719 0l-46.226563 23.320312c-14.898437 7.515625-31.597656 11.488281-48.285156 11.488281-14.523437 0-28.667968-2.886719-42.046875-8.585937-3.527343-1.507813-7.542969-1.144532-10.742187.96875-3.199219 2.113281-5.109375 5.664062-5.109375 9.5v162.816406c0 35.773438 9.167969 71.238281 26.515625 102.558594 1.367187 2.472656 3.929687 3.871094 6.566406 3.867187 1.230469 0 2.476562-.300781 3.625-.9375 3.625-2.007812 4.9375-6.570312 2.929688-10.195312-16.117188-29.101563-24.632813-62.054688-24.632813-95.292969v-55.941406h137.789063v243.851562c-37.347657-11.761718-70.9375-34.902344-95.378907-65.886718zm-42.410156-192.96875v-86.523438c13.742187 5.160156 28.144531 7.769531 42.894531 7.769531 19.023438 0 38.058594-4.527343 55.039063-13.097656l39.855469-20.101563v111.953126zm290.578125 15v55.941406c0 43.417968-14.6875 86.28125-41.347656 120.691406-24.550782 31.679688-58.519532 55.292969-96.441406 67.226562v-243.859374zm0 0"/><path d="m410.042969 15.15625c-8.691407-5.738281-19.597657-6.730469-29.179688-2.644531l-57.273437 24.410156c-10.6875 4.558594-22.773438 4.171875-33.152344-1.0625l-64.550781-32.5625c-8.722657-4.394531-19.132813-4.394531-27.855469 0l-64.550781 32.5625c-10.378907 5.234375-22.464844 5.625-33.15625 1.0625l-57.269531-24.410156c-9.582032-4.085938-20.488282-3.097657-29.179688 2.644531-8.6875 5.742188-13.875 15.390625-13.875 25.804688v215.214843c0 124.460938 88.542969 231.992188 210.542969 255.6875.46875.089844.949219.136719 1.429687.136719.476563 0 .957032-.046875 1.429688-.136719 41.027344-7.972656 80.042968-26.070312 112.820312-52.347656 3.234375-2.589844 3.753906-7.3125 1.164063-10.542969-2.59375-3.234375-7.3125-3.753906-10.546875-1.160156-30.507813 24.453125-66.742188 41.394531-104.871094 49.042969-114.21875-22.886719-196.96875-123.871094-196.96875-240.679688v-31.683593h13.953125c4.144531 0 7.5-3.359376 7.5-7.5 0-4.144532-3.355469-7.5-7.5-7.5h-13.953125v-11h13.953125c4.144531 0 7.5-3.359376 7.5-7.503907 0-4.140625-3.355469-7.5-7.5-7.5h-13.953125v-11h13.953125c4.144531 0 7.5-3.355469 7.5-7.5 0-4.140625-3.355469-7.5-7.5-7.5h-13.953125v-11h13.953125c4.144531 0 7.5-3.355469 7.5-7.5s-3.355469-7.5-7.5-7.5h-13.953125v-90.527343c0-5.445313 2.605469-10.285157 7.148438-13.289063 4.539062-3 10.015624-3.496094 15.023437-1.363281l57.269531 24.414062c14.769532 6.292969 31.460938 5.757813 45.796875-1.472656l64.546875-32.558594c4.492188-2.265625 9.855469-2.265625 14.34375 0l64.550782 32.558594c14.335937 7.234375 31.027343 7.769531 45.792968 1.472656l57.273438-24.414062c5.007812-2.132813 10.484375-1.636719 15.023437 1.363281 4.542969 3.003906 7.148438 7.84375 7.148438 13.289063v90.527343h-13.957031c-4.140626 0-7.5 3.355469-7.5 7.5s3.359374 7.5 7.5 7.5h13.957031v11h-13.957031c-4.140626 0-7.5 3.359375-7.5 7.5 0 4.144531 3.359374 7.5 7.5 7.5h13.957031v11h-13.957031c-4.140626 0-7.5 3.359375-7.5 7.5 0 4.144531 3.359374 7.503907 7.5 7.503907h13.957031v11h-13.957031c-4.140626 0-7.5 3.355468-7.5 7.5 0 4.140624 3.359374 7.5 7.5 7.5h13.957031v31.683593c0 63.8125-24.378907 124.269531-68.644531 170.238281-2.875 2.984376-2.785157 7.730469.199218 10.605469 2.984375 2.871094 7.734375 2.78125 10.605469-.199219 46.96875-48.78125 72.835937-112.933593 72.835937-180.648437v-215.210937c.003907-10.414063-5.183593-20.0625-13.871093-25.804688zm0 0"/></svg>