<svg height="511pt" viewBox="-3 0 511 511.99721" width="511pt" xmlns="http://www.w3.org/2000/svg"><g fill="#2b597f"><path d="m337.214844 216.015625h-168.238282v-36.816406c0-46.457031 37.660157-84.121094 84.117188-84.121094s84.121094 37.664063 84.121094 84.121094zm0 0"/><path d="m484.535156 315.9375h-94.332031c-7.542969 0-13.65625-6.113281-13.65625-13.652344 0-7.542968 6.113281-13.65625 13.65625-13.65625h94.332031c7.542969 0 13.65625 6.113282 13.65625 13.65625 0 7.539063-6.113281 13.652344-13.65625 13.652344zm0 0"/><path d="m449.042969 503.910156c-7.539063 0-13.652344-6.113281-13.652344-13.65625v-47.546875c0-31.941406-25.984375-57.925781-57.925781-57.925781h-24.398438c-7.542968 0-13.65625-6.113281-13.65625-13.652344 0-7.542968 6.113282-13.65625 13.65625-13.65625h24.398438c47 0 85.234375 38.234375 85.234375 85.234375v47.546875c0 7.542969-6.117188 13.65625-13.65625 13.65625zm0 0"/><path d="m361.035156 241.515625h-24.402344c-7.539062 0-13.652343-6.113281-13.652343-13.652344 0-7.542969 6.113281-13.65625 13.652343-13.65625h24.402344c31.941406 0 57.925782-25.984375 57.925782-57.921875v-47.550781c0-7.539063 6.113281-13.652344 13.652343-13.652344 7.542969 0 13.65625 6.113281 13.65625 13.652344v47.550781c0 46.996094-38.234375 85.230469-85.234375 85.230469zm0 0"/><path d="m21.652344 315.9375h94.332031c7.542969 0 13.65625-6.113281 13.65625-13.652344 0-7.542968-6.113281-13.65625-13.65625-13.65625h-94.332031c-7.539063 0-13.652344 6.113282-13.652344 13.65625 0 7.539063 6.113281 13.652344 13.652344 13.652344zm0 0"/><path d="m57.144531 503.910156c7.542969 0 13.65625-6.113281 13.65625-13.65625v-47.546875c0-31.941406 25.984375-57.925781 57.921875-57.925781h24.402344c7.539062 0 13.652344-6.113281 13.652344-13.652344 0-7.542968-6.113282-13.65625-13.652344-13.65625h-24.402344c-46.996094 0-85.230468 38.234375-85.230468 85.234375v47.546875c0 7.542969 6.113281 13.65625 13.652343 13.65625zm0 0"/><path d="m145.152344 241.515625h24.402344c7.539062 0 13.652343-6.113281 13.652343-13.652344 0-7.542969-6.113281-13.65625-13.652343-13.65625h-24.402344c-31.9375 0-57.925782-25.984375-57.925782-57.921875v-47.550781c0-7.539063-6.113281-13.652344-13.652343-13.652344-7.539063 0-13.652344 6.113281-13.652344 13.652344v47.550781c-.003906 46.996094 38.234375 85.230469 85.230469 85.230469zm0 0"/></g><path d="m253.09375 480.710938c-39.988281 0-72.40625-32.417969-72.40625-72.40625v-209.1875h144.8125v209.1875c0 39.988281-32.417969 72.40625-72.40625 72.40625zm0 0" fill="#209ced"/><path d="m180.6875 273.734375c0 39.988281 32.417969 72.40625 72.40625 72.40625s72.40625-32.417969 72.40625-72.40625v67.285156c0 39.988281-32.417969 72.40625-72.40625 72.40625s-72.40625-32.417969-72.40625-72.40625zm0 0" fill="#f6cb43"/><path d="m253.09375 186.804688 36.351562 233.496093c.757813 4.863281 5.128907 8.289063 10.039063 7.9375 62.667969-4.484375 112.117187-56.746093 112.117187-120.558593v-85.472657c0-19.550781-15.847656-35.398437-35.398437-35.398437h-123.109375zm0 0" fill="#6beafd"/><path d="m411.597656 222.207031v85.464844c0 63.824219-49.449218 116.082031-112.113281 120.566406-3.765625.265625-7.207031-1.6875-8.957031-4.796875 49.761718-14.953125 86.015625-61.117187 86.015625-115.769531v-85.464844c0-19.554687-15.84375-35.398437-35.394531-35.398437h35.050781c19.554687 0 35.398437 15.84375 35.398437 35.398437zm0 0" fill="#2ee0fd"/><path d="m253.09375 186.804688-36.351562 233.496093c-.753907 4.863281-5.128907 8.289063-10.035157 7.9375-62.671875-4.484375-112.121093-56.746093-112.121093-120.558593v-85.472657c0-19.550781 15.851562-35.398437 35.402343-35.398437h123.105469zm0 0" fill="#6beafd"/><path d="m253.09375 186.808594-36.351562 233.492187c-.75 4.859375-5.125 8.289063-10.039063 7.9375-8.894531-.632812-17.515625-2.234375-25.777344-4.6875.570313-.976562.964844-2.070312 1.148438-3.25l36.351562-233.492187zm0 0" fill="#2ee0fd"/><path d="m484.535156 281.128906h-65.433594v-52.703125c.304688-.183593.609376-.378906.894532-.613281 21.460937-17.71875 33.773437-43.792969 33.773437-71.527344v-47.550781c0-11.664063-9.492187-21.152344-21.15625-21.152344-11.664062 0-21.152343 9.488281-21.152343 21.152344v47.550781c0 11.308594-3.730469 22.054688-10.589844 30.859375-6.984375-4.929687-15.492188-7.835937-24.671875-7.835937h-31.488281v-.109375c0-31.867188-16.359376-59.984375-41.117188-76.40625 1.023438-4.785157 2.335938-9.84375 4.019531-15.035157 11.453125-35.316406 33.796875-59.984374 66.417969-73.3125 3.835938-1.566406 5.671875-5.945312 4.105469-9.777343-1.566407-3.835938-5.941407-5.675781-9.777344-4.105469-36.546875 14.929688-62.546875 43.664062-75.183594 83.089844-1.277343 3.988281-2.351562 7.890625-3.265625 11.660156-11.273437-4.964844-23.726562-7.730469-36.816406-7.730469-12.769531 0-25.304688 2.703125-36.808594 7.757813-.917968-3.78125-1.996094-7.691406-3.277344-11.6875-12.632812-39.425782-38.632812-68.160156-75.179687-83.09375-3.832031-1.566406-8.210937.273437-9.777344 4.105468-1.570312 3.835938.269531 8.214844 4.105469 9.78125 32.617188 13.328126 54.964844 37.992188 66.417969 73.308594 1.683593 5.199219 2.996093 10.253906 4.019531 15.042969-6.101562 4.027344-11.753906 8.792969-16.789062 14.242187-2.808594 3.039063-2.625 7.785157.417968 10.597657 3.042969 2.808593 7.789063 2.621093 10.601563-.417969 2.621093-2.839844 5.449219-5.449219 8.4375-7.835938 1.21875 11.230469.847656 18.636719.839843 18.765626-.234374 4.132812 2.921876 7.671874 7.054688 7.910156.148438.011718.296875.015625.441406.015625 3.941406 0 7.25-3.078125 7.480469-7.066407.039063-.699218.640625-12.144531-1.824219-28.503906 10.441406-5.144531 22.015625-7.921875 33.839844-7.921875 12.144531 0 23.628906 2.851563 33.84375 7.902344-2.46875 16.367187-1.871094 27.824219-1.828125 28.523437.230469 3.988282 3.535156 7.0625 7.480469 7.0625.140625 0 .285156-.003906.429687-.011718 4.132813-.234375 7.292969-3.777344 7.0625-7.90625-.007812-.132813-.378906-7.527344.835938-18.746094 17.535156 14.054688 28.792969 35.628906 28.792969 59.796875v.105469h-153.238282v-.105469c0-8.835937 1.5-17.515625 4.464844-25.796875 1.394531-3.902344-.640625-8.195312-4.539062-9.589844-3.902344-1.394531-8.191407.636719-9.585938 4.535156-3.542969 9.910157-5.339844 20.289063-5.339844 30.851563v.105469h-31.488281c-9.179687 0-17.691406 2.910156-24.675781 7.839844-6.851563-8.816407-10.582032-19.613282-10.582032-30.863282v-47.550781c0-11.664063-9.492187-21.152344-21.15625-21.152344-11.664062 0-21.152343 9.488281-21.152343 21.152344v47.550781c0 27.734375 12.308593 53.808594 33.773437 71.527344.285156.234375.585938.429688.894532.617188v52.703124h-65.433594c-11.664063 0-21.152344 9.488282-21.152344 21.152344 0 11.664063 9.488281 21.152344 21.152344 21.152344h21.113281c4.140625 0 7.5-3.355469 7.5-7.5 0-4.140625-3.359375-7.5-7.5-7.5h-21.113281c-3.394532 0-6.152344-2.757812-6.152344-6.152344 0-3.394531 2.757812-6.152344 6.152344-6.152344h65.4375v11.546876c0 .253906.003906.507812.007812.761718h-11.671875c-4.140625 0-7.5 3.355469-7.5 7.5 0 4.140625 3.359375 7.5 7.5 7.5h12.628907c1.371093 11.164063 4.1875 22.027344 8.363281 32.351563-35.902344 13.394531-60.425781 48.179687-60.425781 86.914062v47.550781c0 11.664063 9.488281 21.152344 21.152343 21.152344 11.664063 0 21.15625-9.488281 21.15625-21.152344v-47.550781c0-24.152343 17.695313-45.269531 41.34375-49.59375.664063.742188 1.339844 1.484375 2.023438 2.214844 15.113281 16.167969 33.859375 27.972656 54.484375 34.589844 3.070312 10.910156 8.527344 21.203125 15.878906 29.90625 1.484375 1.757812 3.601562 2.664062 5.734375 2.664062 1.707031 0 3.425781-.582031 4.835937-1.773437 3.164063-2.671875 3.5625-7.402344.890626-10.566406-4.0625-4.808594-7.402344-10.214844-9.914063-15.960938 4.148437.710938 8.347656 1.226562 12.59375 1.53125.421875.03125.84375.046875 1.261719.046875 8.347656 0 15.421875-5.960937 16.722656-14.3125l.871094-5.597656c8.933594 3.363281 18.339844 5.074219 28.066406 5.074219s19.136719-1.710938 28.070312-5.074219l.871094 5.597656c1.300782 8.351563 8.371094 14.3125 16.71875 14.3125.417969 0 .839844-.015625 1.265625-.046875 4.257813-.304688 8.472657-.824219 12.636719-1.539062-10.128906 23.425781-33.296875 39.03125-59.5625 39.03125-9.019531 0-17.769531-1.828126-26.003906-5.433594-3.792969-1.664063-8.214844.066406-9.878906 3.859375-1.660157 3.792969.070312 8.21875 3.863281 9.878906 4.09375 1.792969 8.296875 3.210937 12.574219 4.289063-2.140626 6.492187-8.257813 11.191406-15.457032 11.191406-4.144531 0-7.5 3.359375-7.5 7.5 0 4.144531 3.355469 7.5 7.5 7.5 14.710938 0 27.078125-10.210938 30.402344-23.917969 1.492188.082031 2.996094.132813 4.503906.132813 1.507813 0 3.007813-.054688 4.5-.140626 3.320313 13.710938 15.6875 23.925782 30.402344 23.925782 4.144531 0 7.5-3.355469 7.5-7.5 0-4.140625-3.355469-7.5-7.5-7.5-7.191406 0-13.300781-4.691406-15.449219-11.175782 27.425781-6.835937 49.632813-27.851562 57.476563-55.902343 20.628906-6.613281 39.378906-18.421875 54.496094-34.589844.683593-.734375 1.355468-1.472656 2.023437-2.21875 23.648437 4.328125 41.34375 25.433594 41.34375 49.59375v47.550781c0 11.664063 9.492187 21.152344 21.15625 21.152344 11.660156 0 21.152344-9.488281 21.152344-21.152344v-47.546875c0-38.738281-24.523438-73.523437-60.425781-86.914062 4.171874-10.324219 6.992187-21.1875 8.363281-32.355469h66.402343c11.664063 0 21.152344-9.488281 21.152344-21.152344 0-11.664062-9.492187-21.15625-21.15625-21.15625zm-58.074218-124.847656v-47.546875c0-3.394531 2.761718-6.15625 6.152343-6.15625 3.394531 0 6.15625 2.761719 6.15625 6.15625v47.546875c0 20.117188-7.738281 39.191406-21.484375 53.59375-1.300781-4.324219-3.265625-8.363281-5.777344-12 9.679688-11.699219 14.953126-26.246094 14.953126-41.59375zm-173.367188 79.28125 15.746094 101.144531c-5.125 1.277344-10.402344 1.933594-15.746094 1.933594-5.347656 0-10.625-.648437-15.746094-1.925781zm-185.675781-79.28125v-47.546875c0-3.394531 2.761719-6.15625 6.15625-6.15625s6.152343 2.761719 6.152343 6.15625v47.546875c0 15.261719 5.292969 29.875 14.960938 41.582031-2.515625 3.640625-4.484375 7.683594-5.785156 12.011719-13.746094-14.402344-21.484375-33.476562-21.484375-53.59375zm11.730469 243.769531c-10.21875 11.863281-15.851563 27.011719-15.851563 42.652344v47.550781c0 3.394532-2.757813 6.152344-6.152344 6.152344s-6.152343-2.761719-6.152343-6.152344v-47.546875c0-32.914062 21.121093-62.417969 51.886718-73.300781 2.023438 3.6875 4.234375 7.277344 6.628906 10.765625-11.695312 3.609375-22.257812 10.472656-30.359374 19.878906zm128.09375 20.707031c-28.519532-2.042968-55.019532-14.710937-74.617188-35.675781-19.691406-21.0625-30.535156-48.554687-30.535156-77.40625v-85.46875c0-15.386719 12.515625-27.898437 27.898437-27.898437h114.347657l-35.003907 224.839844c-.152343.992187-1.058593 1.660156-2.089843 1.609374zm45.851562-14.832031c-8.964844 0-17.59375-1.78125-25.699219-5.289062l7.636719-49.058594c5.898438 1.363281 11.945312 2.0625 18.0625 2.0625 6.113281 0 12.164062-.691406 18.0625-2.050781l7.636719 49.046875c-8.105469 3.507812-16.730469 5.289062-25.699219 5.289062zm45.851562 14.832031c-1.042968.070313-1.9375-.617187-2.089843-1.609374l-35.003907-224.84375h114.347657c15.386719 0 27.902343 12.515624 27.902343 27.902343v85.46875c0 28.855469-10.847656 56.34375-30.539062 77.40625-19.597656 20.964844-46.097656 33.632813-74.617188 35.675781zm156.253907 21.949219v47.546875c0 3.394532-2.761719 6.15625-6.15625 6.15625s-6.152344-2.761718-6.152344-6.15625v-47.546875c0-15.652343-5.636719-30.808593-15.871094-42.679687-8.097656-9.390625-18.652343-16.25-30.339843-19.851563 2.394531-3.488281 4.605468-7.082031 6.628906-10.769531 30.765625 10.882812 51.890625 40.386719 51.890625 73.300781zm29.335937-134.269531h-65.441406c0-.253906.007812-.507812.007812-.761719v-11.546875h65.433594c3.394532 0 6.15625 2.761719 6.15625 6.15625 0 3.390625-2.761718 6.152344-6.15625 6.152344zm0 0"/><path d="m192.871094 254.917969-63.179688 63.179687c-2.929687 2.933594-2.929687 7.679688 0 10.609375 1.460938 1.464844 3.382813 2.195313 5.300782 2.195313 1.917968 0 3.839843-.730469 5.304687-2.195313l63.179687-63.183593c2.929688-2.929688 2.929688-7.675782 0-10.605469-2.925781-2.929688-7.675781-2.929688-10.605468 0zm0 0"/><path d="m192.871094 306.6875-23.257813 23.257812c-2.929687 2.929688-2.929687 7.679688 0 10.605469 1.464844 1.464844 3.382813 2.199219 5.300781 2.199219 1.921876 0 3.839844-.734375 5.304688-2.199219l23.257812-23.257812c2.929688-2.929688 2.929688-7.675781 0-10.605469-2.925781-2.929688-7.675781-2.929688-10.605468 0zm0 0"/><path d="m320.171875 275.183594c1.921875 0 3.839844-.734375 5.304687-2.195313l23.367188-23.367187c2.929688-2.929688 2.929688-7.679688 0-10.609375-2.925781-2.925781-7.675781-2.925781-10.605469 0l-23.367187 23.367187c-2.929688 2.929688-2.929688 7.679688 0 10.609375 1.464844 1.460938 3.382812 2.195313 5.300781 2.195313zm0 0"/><path d="m372.472656 254.527344-63.957031 63.960937c-2.929687 2.929688-2.929687 7.675781 0 10.605469 1.464844 1.464844 3.382813 2.195312 5.300781 2.195312 1.921875 0 3.839844-.730468 5.304688-2.195312l63.957031-63.957031c2.929687-2.929688 2.929687-7.679688 0-10.609375-2.929687-2.925782-7.675781-2.925782-10.605469 0zm0 0"/></svg>