<svg height="512pt" viewBox="0 0 512 512" width="512pt" xmlns="http://www.w3.org/2000/svg"><path d="m400.429688 53.761719c-40.699219-29.121094-90.558594-46.261719-144.429688-46.261719s-103.730469 17.140625-144.429688 46.261719c-63.011718 45.078125-104.070312 118.867187-104.070312 202.238281 0 84.921875 42.589844 159.878906 107.578125 204.710938 40.050781 27.609374 88.601563 43.789062 140.921875 43.789062s100.871094-16.179688 140.921875-43.789062c64.988281-44.832032 107.578125-119.789063 107.578125-204.710938 0-83.371094-41.058594-157.160156-104.070312-202.238281zm-144.429688 249.847656c-12.628906 0-24.121094-4.917969-32.628906-12.949219-9.222656-8.679687-14.980469-21-14.980469-34.660156 0-12.078125 4.5-23.109375 11.917969-31.5 8.722656-9.878906 21.480468-16.109375 35.691406-16.109375s26.96875 6.230469 35.691406 16.109375c7.417969 8.390625 11.917969 19.421875 11.917969 31.5 0 13.660156-5.757813 25.980469-14.980469 34.660156-8.507812 8.03125-20 12.949219-32.628906 12.949219zm0 0" fill="#dad0cd"/><g fill="#f1eded"><path d="m396.921875 460.710938c-40.050781 27.609374-88.601563 43.789062-140.921875 43.789062s-100.871094-16.179688-140.921875-43.789062l108.292969-170.050782c8.507812 8.03125 20 12.949219 32.628906 12.949219s24.121094-4.917969 32.628906-12.949219zm0 0"/><path d="m256 7.5c4.699219 0 9.359375.128906 13.988281.390625l-3.597656 138.328125-1.640625 62.980469c-2.839844-.527344-5.761719-.808594-8.75-.808594-14.210938 0-26.96875 6.230469-35.691406 16.109375l-34.238282-53.761719-74.5-116.976562c40.699219-29.121094 90.558594-46.261719 144.429688-46.261719zm0 0"/><path d="m400.429688 53.761719-74.5 116.976562-34.238282 53.761719c-3.152344-3.570312-6.839844-6.671875-10.929687-9.160156l16.886719-61.460938 36.761718-133.75c23.808594 7.910156 46.019532 19.320313 66.019532 33.632813zm0 0"/></g><path d="m325.929688 170.738281c-19.03125-15.617187-43.378907-25-69.929688-25s-50.898438 9.382813-69.929688 25c-24.621093 20.230469-40.332031 50.910157-40.332031 85.261719 0 35.898438 17.152344 67.789062 43.710938 87.921875 18.492187 14.019531 41.550781 22.339844 66.550781 22.339844s48.058594-8.320313 66.550781-22.339844c26.558594-20.132813 43.710938-52.023437 43.710938-87.921875 0-34.351562-15.710938-65.03125-40.332031-85.261719zm-69.929688 132.871094c-12.628906 0-24.121094-4.917969-32.628906-12.949219-9.222656-8.679687-14.980469-21-14.980469-34.660156 0-12.078125 4.5-23.109375 11.917969-31.5 8.722656-9.878906 21.480468-16.109375 35.691406-16.109375s26.96875 6.230469 35.691406 16.109375c7.417969 8.390625 11.917969 19.421875 11.917969 31.5 0 13.660156-5.757813 25.980469-14.980469 34.660156-8.507812 8.03125-20 12.949219-32.628906 12.949219zm0 0" fill="#fc6393"/><path d="m256 145.738281c3.511719 0 6.96875.160157 10.390625.480469l-1.640625 62.980469c-2.839844-.527344-5.761719-.808594-8.75-.808594-14.210938 0-26.96875 6.230469-35.691406 16.109375l-34.238282-53.761719c19.03125-15.617187 43.378907-25 69.929688-25zm0 0" fill="#ff97bd"/><path d="m325.929688 170.738281-34.238282 53.761719c-3.152344-3.570312-6.839844-6.671875-10.929687-9.160156l16.886719-61.460938c10.300781 4.199219 19.820312 9.910156 28.28125 16.859375zm0 0" fill="#ff97bd"/><path d="m322.550781 343.921875c-18.492187 14.019531-41.550781 22.339844-66.550781 22.339844s-48.058594-8.320313-66.550781-22.339844l33.921875-53.261719c8.507812 8.03125 20 12.949219 32.628906 12.949219s24.121094-4.917969 32.628906-12.949219zm0 0" fill="#ff97bd"/><path d="m256 373.761719c-64.933594 0-117.761719-52.828125-117.761719-117.761719s52.828125-117.761719 117.761719-117.761719 117.761719 52.828125 117.761719 117.761719-52.828125 117.761719-117.761719 117.761719zm0-220.523438c-56.660156 0-102.761719 46.101563-102.761719 102.761719s46.101563 102.761719 102.761719 102.761719 102.761719-46.101563 102.761719-102.761719-46.101563-102.761719-102.761719-102.761719zm0 0"/><path d="m256 311.109375c-30.386719 0-55.109375-24.722656-55.109375-55.109375s24.722656-55.109375 55.109375-55.109375 55.109375 24.722656 55.109375 55.109375-24.722656 55.109375-55.109375 55.109375zm0-95.21875c-22.117188 0-40.109375 17.992187-40.109375 40.109375s17.992187 40.109375 40.109375 40.109375 40.109375-17.992187 40.109375-40.109375-17.992187-40.109375-40.109375-40.109375zm0 0"/><path d="m315.992188 303.53125c-1.433594 0-2.878907-.410156-4.160157-1.265625-3.445312-2.300781-4.367187-6.960937-2.066406-10.402344 14.566406-21.785156 14.566406-49.941406 0-71.726562-2.300781-3.445313-1.378906-8.101563 2.066406-10.402344 3.441407-2.304687 8.101563-1.378906 10.402344 2.0625 17.953125 26.851563 17.953125 61.550781 0 88.402344-1.445313 2.164062-3.820313 3.332031-6.242187 3.332031zm0 0"/><path d="m238.675781 511.390625c-.171875 0-.347656-.007813-.523437-.019531-64.5625-4.449219-124.574219-32.988282-168.972656-80.355469-44.609376-47.59375-69.179688-109.75-69.179688-175.015625 0-68.378906 26.628906-132.664062 74.980469-181.019531 48.355469-48.351563 112.640625-74.980469 181.019531-74.980469 35.179688 0 69.265625 7.011719 101.3125 20.839844 30.941406 13.355468 58.597656 32.429687 82.203125 56.695312 2.886719 2.972656 2.820313 7.71875-.148437 10.605469-2.96875 2.890625-7.71875 2.824219-10.601563-.144531-45.789063-47.070313-107.144531-72.996094-172.765625-72.996094-64.371094 0-124.890625 25.066406-170.410156 70.589844-45.523438 45.519531-70.589844 106.039062-70.589844 170.410156 0 61.441406 23.128906 119.953125 65.125 164.757812 41.800781 44.59375 98.289062 71.460938 159.0625 75.648438 4.128906.285156 7.25 3.867188 6.964844 7.996094-.273438 3.960937-3.566406 6.988281-7.476563 6.988281zm0 0"/><path d="m368.964844 484.871094c-2.730469 0-5.359375-1.492188-6.683594-4.085938-1.886719-3.6875-.425781-8.207031 3.261719-10.09375 38.941406-19.90625 71.789062-50.054687 94.996093-87.195312 23.855469-38.167969 36.460938-82.257813 36.460938-127.496094 0-52.28125-16.464844-102.015625-47.613281-143.828125-2.472657-3.320313-1.785157-8.019531 1.535156-10.492187 3.320313-2.476563 8.019531-1.789063 10.496094 1.53125 33.089843 44.421874 50.582031 97.253906 50.582031 152.789062 0 48.054688-13.394531 94.890625-38.738281 135.445312-24.648438 39.441407-59.535157 71.460938-100.890625 92.605469-1.09375.558594-2.257813.820313-3.40625.820313zm0 0"/><path d="m271.324219 511.515625c-3.9375 0-7.238281-3.0625-7.480469-7.042969-.25-4.136718 2.894531-7.691406 7.03125-7.941406 22.453125-1.367188 44.566406-5.867188 65.722656-13.371094 3.902344-1.386718 8.1875.65625 9.574219 4.5625 1.386719 3.902344-.65625 8.1875-4.5625 9.574219-22.476563 7.972656-45.96875 12.753906-69.824219 14.207031-.152344.007813-.308594.011719-.460937.011719zm0 0"/></svg>