<svg height="512pt" viewBox="-82 0 512 512.001" width="512pt" xmlns="http://www.w3.org/2000/svg"><path d="m311.160156 135.214844h-116.992187v-107.265625c0-5.722657 4.636719-10.359375 10.363281-10.359375h96.265625c5.726563 0 10.363281 4.636718 10.363281 10.359375zm0 0" fill="#f1eded"/><path d="m194.167969 45.433594h42.71875v38.574218h-42.71875zm0 0" fill="#50758e"/><path d="m268.441406 45.433594h42.71875v38.574218h-42.71875zm0 0" fill="#50758e"/><path d="m276.71875 466.804688h-48.109375c-35.707031 0-64.65625-28.949219-64.65625-64.65625v-266.933594c0-5.722656 4.640625-10.363282 10.363281-10.363282h156.695313c5.722656 0 10.363281 4.640626 10.363281 10.363282v266.933594c0 35.707031-28.949219 64.65625-64.65625 64.65625zm0 0" fill="#14f2d7"/><path d="m341.367188 135.214844v266.933594c0 35.710937-28.941407 64.652343-64.652344 64.652343h-24.558594c35.699219 0 64.652344-28.941406 64.652344-64.652343v-266.933594c0-5.71875-4.644532-10.363282-10.363282-10.363282h24.558594c5.734375 0 10.363282 4.644532 10.363282 10.363282zm0 0" fill="#00e2c7"/><path d="m290.234375 392.136719h-75.140625c-5.722656 0-10.363281-4.640625-10.363281-10.363281v-256.921876h95.867187v256.925782c0 5.722656-4.640625 10.359375-10.363281 10.359375zm0 0" fill="#f6cb43"/><path d="m300.601562 124.851562v256.921876c0 5.71875-4.640624 10.363281-10.363281 10.363281h-24.570312c5.71875 0 10.363281-4.644531 10.363281-10.363281v-256.921876zm0 0" fill="#fab03c"/><path d="m124.539062 17.503906v157.410156c0 5.523438-4.476562 10-10 10h-86.3125c-11.445312 0-20.722656-9.277343-20.722656-20.726562v-135.957031c0-11.445313 9.277344-20.722657 20.722656-20.722657h86.3125c5.523438-.003906 10 4.472657 10 9.996094zm0 0" fill="#14f2d7"/><path d="m7.503906 48.273438h117.035156v95.875h-117.035156zm0 0" fill="#f6cb43"/><path d="m7.503906 48.273438h117.035156v24.90625h-117.035156zm0 0" fill="#fab03c"/><path d="m266.171875 430.667969c0 8.292969-6.722656 15.019531-15.019531 15.019531s-15.019532-6.726562-15.019532-15.019531c0-8.296875 6.722657-15.019531 15.019532-15.019531s15.019531 6.722656 15.019531 15.019531zm0 0" fill="#f6cb43"/><path d="m341.375 212.828125c-4.144531 0-7.5 3.359375-7.5 7.5v181.820313c0 31.515624-25.640625 57.15625-57.15625 57.15625h-22.960938c.789063-2.160157 1.492188-4.367188 2.097657-6.617188 10.167969-2.167969 17.816406-11.21875 17.816406-22.023438 0-12.417968-10.101563-22.519531-22.519531-22.519531-12.417969 0-22.519532 10.101563-22.519532 22.519531 0 8.699219 4.960938 16.257813 12.203126 20.007813-.902344 2.980469-2.011719 5.859375-3.304688 8.628906h-8.921875c-31.515625 0-57.15625-25.640625-57.15625-57.152343v-55.820313c0-4.140625-3.355469-7.5-7.5-7.5-4.140625 0-7.5 3.359375-7.5 7.5v55.820313c0 39.53125 31.960937 71.726562 71.398437 72.136718-12.09375 14.015625-29.96875 22.714844-49.53125 22.714844h-2.046874c-36.023438 0-65.332032-29.308594-65.332032-65.332031v-239.246094h3.59375c9.648438 0 17.5-7.851563 17.5-17.5v-57.59375c0-4.140625-3.355468-7.5-7.5-7.5-4.140625 0-7.5 3.359375-7.5 7.5v19.320313h-102.035156v-80.875h102.035156v28.898437c0 4.140625 3.355469 7.5 7.5 7.5 4.144532 0 7.5-3.359375 7.5-7.5v-67.171875c0-9.648438-7.851562-17.5-17.5-17.5h-86.308594c-15.5625 0-28.226562 12.660156-28.226562 28.226562v135.96875c0 15.5625 12.664062 28.226563 28.226562 28.226563h67.714844v239.246094c0 44.296875 36.035156 80.332031 80.332032 80.332031h2.046874c28.3125 0 53.734376-14.832031 68.085938-37.695312h30.3125c39.785156 0 72.15625-32.367188 72.15625-72.152344v-181.824219c0-4.140625-3.359375-7.5-7.5-7.5zm-90.222656 210.316406c4.144531 0 7.519531 3.375 7.519531 7.523438 0 3.984375-3.117187 7.246093-7.039063 7.492187-.125-.027344-.246093-.0625-.371093-.089844-.640625-.121093-1.273438-.148437-1.898438-.105468-3.285156-.808594-5.730469-3.769532-5.730469-7.296875 0-4.148438 3.371094-7.523438 7.519532-7.523438zm-222.925782-408.144531h86.308594c1.378906 0 2.5 1.121094 2.5 2.5v23.273438h-102.035156v-12.546876c0-7.292968 5.933594-13.226562 13.226562-13.226562zm-13.226562 149.195312v-12.546874h102.035156v23.269531c0 1.378906-1.121094 2.5-2.5 2.5h-86.308594c-7.292968.003906-13.226562-5.929688-13.226562-13.222657zm0 0"/><path d="m331.011719 117.351562h-12.351563v-89.398437c0-9.851563-8.011718-17.863281-17.863281-17.863281h-96.269531c-9.847656 0-17.863282 8.011718-17.863282 17.863281v89.398437h-12.347656c-9.851562 0-17.863281 8.015626-17.863281 17.863282v178.457031c0 4.140625 3.355469 7.5 7.5 7.5s7.5-3.359375 7.5-7.5v-178.457031c0-1.578125 1.285156-2.863282 2.863281-2.863282h22.914063v249.425782c0 9.847656 8.011719 17.863281 17.859375 17.863281h75.144531c9.847656 0 17.863281-8.015625 17.863281-17.863281v-249.425782h22.910156c1.582032 0 2.863282 1.285157 2.863282 2.863282v52.457031c0 4.140625 3.359375 7.5 7.5 7.5 4.144531 0 7.5-3.359375 7.5-7.5v-52.457031c.003906-9.851563-8.011719-17.863282-17.859375-17.863282zm-27.351563-40.84375h-27.71875v-23.574218h27.71875zm-101.992187-23.574218h27.71875v23.574218h-27.71875zm0 38.574218h35.21875c4.144531 0 7.5-3.355468 7.5-7.5v-38.574218c0-4.144532-3.355469-7.5-7.5-7.5h-35.21875v-9.980469c0-1.582031 1.28125-2.863281 2.863281-2.863281h96.269531c1.578125 0 2.859375 1.28125 2.859375 2.863281v9.980469h-35.21875c-4.144531 0-7.5 3.355468-7.5 7.5v38.574218c0 4.144532 3.355469 7.5 7.5 7.5h35.21875v25.84375h-101.992187zm91.429687 290.265626c0 1.582031-1.285156 2.863281-2.863281 2.863281h-75.140625c-1.578125 0-2.863281-1.28125-2.863281-2.863281v-249.421876h80.867187zm0 0"/></svg>