<svg height="512pt" viewBox="0 -5 512 512" width="512pt" xmlns="http://www.w3.org/2000/svg"><path d="m357.1875 182.347656c0 96.5625-78.28125 174.835938-174.847656 174.835938-19.859375 0-38.949219-3.316406-56.753906-9.417969-59.933594-20.558594-105.167969-72.761719-115.746094-136.675781-1.542969-9.355469-2.34375-18.953125-2.34375-28.742188 0-61.539062 31.792968-115.652344 79.855468-146.8125 27.347657-17.730468 59.976563-28.035156 94.988282-28.035156 70.324218 0 130.945312 41.519531 158.703125 101.378906 10.371093 22.332032 16.144531 47.21875 16.144531 73.46875zm0 0" fill="#27bef4"/><path d="m357.1875 182.347656c0 96.5625-78.28125 174.835938-174.847656 174.835938-6.96875 0-13.839844-.410156-20.597656-1.214844 86.816406-10.230469 154.160156-84.058594 154.160156-173.621094 0-26.25-5.773438-51.136718-16.144532-73.46875-25.003906-53.914062-76.667968-92.953125-138.070312-100.164062 6.78125-.800782 13.664062-1.214844 20.652344-1.214844 70.324218 0 130.945312 41.519531 158.703125 101.378906 10.371093 22.332032 16.144531 47.21875 16.144531 73.46875zm0 0" fill="#209ced"/><path d="m158.351562 327.890625c-1.078124 0-2.140624-.050781-3.199218-.136719-11.191406-.925781-21.65625 5.375-26.871094 15.332032-.835938 1.59375-1.734375 3.15625-2.691406 4.679687-59.9375-20.558594-105.171875-72.761719-115.75-136.675781 2.375-3.9375 5.40625-7.582032 9.070312-10.769532 17.613282-15.324218 44.464844-14.5625 61.167969 1.75 8.921875 8.722657 13.441406 20.128907 13.640625 31.550782.160156 9.007812 4.542969 17.382812 12.058594 22.355468.582031.390626 1.152344.78125 1.722656 1.183594 9.152344 6.480469 21.234375 6.398438 30.746094.453125 6.503906-4.066406 14.339844-6.21875 22.691406-5.660156 18.785156 1.246094 34.011719 16.40625 35.332031 35.183594 1.550781 22.234375-16.019531 40.753906-37.917969 40.753906zm0 0" fill="#00e2c7"/><path d="m341.042969 108.878906c-7.378907 12.457032-17.949219 22.835938-30.589844 29.984375-.917969.519531-1.835937 1.015625-2.773437 1.5-9.886719 5.101563-16.210938 15.140625-16.433594 26.25-.03125 1.605469-.144532 3.230469-.335938 4.867188-2.734375 22.957031-21.773437 40.949219-44.855468 42.417969-28.128907 1.773437-51.484376-20.507813-51.484376-48.257813 0-8.414063 2.152344-16.332031 5.933594-23.226563 5.363282-9.746093 5.417969-21.625-.601562-30.992187-.074219-.125-.160156-.253906-.246094-.390625-6.820312-10.75-19.574219-16.207031-32.003906-13.453125-4.613282 1.035156-9.417969 1.574219-14.347656 1.574219-35.660157 0-64.695313-28.265625-65.953126-63.617188 21.890626-14.191406 47.167969-23.632812 74.335938-26.820312 6.78125-.800782 13.664062-1.214844 20.652344-1.214844 70.324218 0 130.945312 41.519531 158.703125 101.378906zm0 0" fill="#00e2c7"/><path d="m341.042969 108.878906c-7.378907 12.457032-17.949219 22.835938-30.589844 29.984375-2.660156-10.398437-6.257813-20.429687-10.695313-29.984375-25.003906-53.914062-76.667968-92.953125-138.070312-100.164062 6.78125-.800782 13.664062-1.214844 20.652344-1.214844 70.324218 0 130.945312 41.519531 158.703125 101.378906zm0 0" fill="#00c6a9"/><path d="m464.492188 334.195312h-246.898438c-22.097656 0-40.007812-17.914062-40.007812-40.007812 0-22.097656 17.910156-40.007812 40.007812-40.007812h246.898438c22.09375 0 40.007812 17.910156 40.007812 40.007812 0 22.09375-17.914062 40.007812-40.007812 40.007812zm0 0" fill="#6b97af"/><path d="m504.503906 294.1875c0 11.046875-4.480468 21.054688-11.722656 28.296875-7.238281 7.238281-17.234375 11.710937-28.285156 11.710937h-26.535156c11.050781 0 21.046874-4.472656 28.289062-11.710937 7.238281-7.242187 11.722656-17.25 11.722656-28.296875 0-22.101562-17.921875-40.011719-40.011718-40.011719h26.535156c22.089844.003907 40.007812 17.914063 40.007812 40.011719zm0 0" fill="#50758e"/><path d="m230.164062 254.179688h51.167969v80.015624h-51.167969zm0 0" fill="#f1eded"/><path d="m262.117188 254.179688h19.21875v80.015624h-19.21875zm0 0" fill="#dad0cd"/><path d="m449.605469 294.1875c0 7.0625-5.726563 12.792969-12.792969 12.792969s-12.792969-5.730469-12.792969-12.792969c0-7.066406 5.726563-12.796875 12.792969-12.796875s12.792969 5.730469 12.792969 12.796875zm0 0" fill="#00e2c7"/><path d="m464.492188 414.210938h-246.898438c-22.097656 0-40.007812-17.914063-40.007812-40.007813 0-22.097656 17.910156-40.007813 40.007812-40.007813h246.898438c22.09375 0 40.007812 17.914063 40.007812 40.007813s-17.914062 40.007813-40.007812 40.007813zm0 0" fill="#50758e"/><path d="m504.503906 374.203125c0 11.050781-4.480468 21.054687-11.722656 28.296875-7.238281 7.238281-17.234375 11.714844-28.285156 11.714844h-26.535156c11.050781 0 21.046874-4.476563 28.289062-11.714844 7.238281-7.242188 11.722656-17.246094 11.722656-28.296875 0-22.097656-17.921875-40.007813-40.011718-40.007813h26.535156c22.089844 0 40.007812 17.910157 40.007812 40.007813zm0 0" fill="#2b597f"/><path d="m230.164062 334.195312h51.167969v80.015626h-51.167969zm0 0" fill="#dad0cd"/><path d="m262.117188 334.195312h19.21875v80.015626h-19.21875zm0 0" fill="#c1bab8"/><path d="m449.605469 374.203125c0 7.066406-5.726563 12.792969-12.792969 12.792969s-12.792969-5.726563-12.792969-12.792969 5.726563-12.792969 12.792969-12.792969 12.792969 5.726563 12.792969 12.792969zm0 0" fill="#00e2c7"/><path d="m464.492188 494.226562h-246.898438c-22.097656 0-40.007812-17.910156-40.007812-40.007812 0-22.09375 17.910156-40.007812 40.007812-40.007812h246.898438c22.09375 0 40.007812 17.914062 40.007812 40.007812 0 22.097656-17.914062 40.007812-40.007812 40.007812zm0 0" fill="#6b97af"/><path d="m504.503906 454.21875c0 11.050781-4.480468 21.058594-11.722656 28.296875-7.238281 7.242187-17.234375 11.714844-28.285156 11.714844h-26.535156c11.050781 0 21.046874-4.472657 28.289062-11.714844 7.238281-7.238281 11.722656-17.246094 11.722656-28.296875 0-22.097656-17.921875-40.007812-40.011718-40.007812h26.535156c22.089844 0 40.007812 17.910156 40.007812 40.007812zm0 0" fill="#50758e"/><path d="m230.164062 414.210938h51.167969v80.015624h-51.167969zm0 0" fill="#f1eded"/><path d="m262.117188 414.210938h19.21875v80.015624h-19.21875zm0 0" fill="#dad0cd"/><path d="m449.605469 454.21875c0 7.066406-5.726563 12.792969-12.792969 12.792969s-12.792969-5.726563-12.792969-12.792969 5.726563-12.792969 12.792969-12.792969 12.792969 5.726563 12.792969 12.792969zm0 0" fill="#00e2c7"/><path d="m141.160156 137.054688h-.105468c-4.144532 0-7.503907 3.359374-7.503907 7.5 0 4.144531 3.359375 7.5 7.503907 7.5h.105468c4.144532 0 7.5-3.355469 7.5-7.5 0-4.140626-3.355468-7.5-7.5-7.5zm0 0"/><path d="m317.15625 174.328125h.109375.035156c4.125 0 7.480469-3.335937 7.5-7.46875.019531-4.140625-3.324219-7.511719-7.464843-7.53125h-.109376c-.011718 0-.023437 0-.035156 0-4.125 0-7.480468 3.335937-7.5 7.464844-.019531 4.140625 3.324219 7.515625 7.464844 7.535156zm0 0"/><path d="m457.105469 294.1875c0-11.191406-9.101563-20.296875-20.292969-20.296875-11.1875 0-20.292969 9.105469-20.292969 20.296875 0 11.1875 9.105469 20.292969 20.292969 20.292969 11.191406 0 20.292969-9.105469 20.292969-20.292969zm-25.585938 0c0-2.917969 2.375-5.292969 5.292969-5.292969s5.292969 2.375 5.292969 5.292969-2.375 5.292969-5.292969 5.292969-5.292969-2.375-5.292969-5.292969zm0 0"/><path d="m368.335938 287.644531c-.015626 0-.027344 0-.039063 0-4.125 0-7.429687 3.332031-7.449219 7.460938-.023437 4.140625 3.371094 7.515625 7.511719 7.539062h.039063c4.121093 0 7.476562-3.332031 7.496093-7.464843.023438-4.140626-3.320312-7.515626-7.460937-7.535157zm0 0"/><path d="m344.644531 287.644531c-.015625 0-.027343 0-.039062 0-4.125 0-7.429688 3.332031-7.449219 7.460938-.023438 4.140625 3.371094 7.515625 7.511719 7.539062h.039062c4.121094 0 7.476563-3.332031 7.496094-7.464843.023437-4.140626-3.320313-7.515626-7.460937-7.535157zm0 0"/><path d="m320.953125 287.644531c-.015625 0-.027344 0-.039063 0-4.125 0-7.429687 3.332031-7.449218 7.460938-.023438 4.140625 3.371094 7.515625 7.511718 7.539062h.039063c4.121094 0 7.476563-3.332031 7.496094-7.464843.023437-4.140626-3.320313-7.515626-7.460938-7.535157zm0 0"/><path d="m512 374.203125c0-16.789063-8.757812-31.554687-21.9375-40.007813 13.179688-8.453124 21.9375-23.222656 21.9375-40.007812 0-26.199219-21.3125-47.511719-47.507812-47.511719h-61.160157c-4.140625 0-7.5 3.359375-7.5 7.5 0 4.144531 3.359375 7.5 7.5 7.5h61.160157c17.925781 0 32.507812 14.585938 32.507812 32.511719 0 17.921875-14.582031 32.507812-32.507812 32.507812h-175.65625v-65.019531h81.835937c4.140625 0 7.5-3.355469 7.5-7.5 0-4.140625-3.359375-7.5-7.5-7.5h-17.671875c7.753906-20.519531 11.683594-42.117187 11.683594-64.335937 0-100.542969-81.796875-182.339844-182.34375-182.339844-100.542969 0-182.339844 81.796875-182.339844 182.339844 0 41.453125 13.558594 80.519531 39.214844 112.980468 1.480468 1.871094 3.671875 2.847657 5.886718 2.847657 1.628907 0 3.269532-.527344 4.648438-1.613281 3.25-2.570313 3.800781-7.285157 1.234375-10.535157-17.144531-21.691406-28.394531-46.601562-33.246094-73.230469 1.742188-2.484374 3.761719-4.78125 6.09375-6.8125 14.683594-12.773437 37.089844-12.132812 51.003907 1.457032 7.164062 7.007812 11.210937 16.355468 11.382812 26.320312.207031 11.578125 5.96875 22.222656 15.375 28.445313.535156.359375 1.0625.722656 1.570312 1.078125 11.4375 8.101562 26.769532 8.375 39.058594.695312 5.441406-3.402344 11.738282-4.96875 18.21875-4.535156 6.722656.445312 13.113282 3.183594 18.152344 7.664062-5.355469 7.691407-8.507812 17.023438-8.507812 27.085938 0 7.617188 1.808593 14.8125 5.007812 21.199219-4.945312 3.246093-10.761719 5.007812-16.742188 5.007812-.796874 0-1.648437-.039062-2.578124-.113281-13.578126-1.132812-26.578126 6.007812-33.511719 18.230469-18.0625-6.953125-34.921875-17.015625-49.691407-29.863281-3.125-2.71875-7.863281-2.386719-10.582031.738281s-2.386719 7.863281.738281 10.582031c30.230469 26.292969 68.507813 41.910156 108.394532 44.363281-.675782 3.1875-1.039063 6.484375-1.039063 9.871094 0 16.785156 8.761719 31.554687 21.941407 40.007813-13.179688 8.453124-21.941407 23.222656-21.941407 40.007812 0 26.199219 21.3125 47.507812 47.511719 47.507812h145.078125c4.140625 0 7.5-3.355468 7.5-7.5 0-4.140624-3.359375-7.5-7.5-7.5h-73.835937v-65.015624h175.65625c17.925781 0 32.507812 14.582031 32.507812 32.507812s-14.582031 32.507812-32.507812 32.507812h-69.160157c-4.140625 0-7.5 3.359376-7.5 7.5 0 4.144532 3.359375 7.5 7.5 7.5h69.160157c26.195312 0 47.507812-21.3125 47.507812-47.507812 0-16.785156-8.757812-31.554688-21.9375-40.007812 13.179688-8.453126 21.9375-23.222657 21.9375-40.007813zm-326.914062-80.015625c0-17.925781 14.582031-32.511719 32.507812-32.511719h5.070312v65.019531h-5.070312c-17.925781 0-32.507812-14.585937-32.507812-32.507812zm52.578124 47.507812h36.167969v65.015626h-36.167969zm36.171876-15h-36.171876v-65.019531h36.171876zm58.613281-218.257812c-7.101563 10.667969-16.78125 19.355469-28.210938 25.261719-12.363281 6.382812-20.210937 18.941406-20.488281 32.769531-.027344 1.371094-.125 2.757812-.289062 4.125-2.324219 19.507812-18.25 34.570312-37.875 35.8125-11.429688.726562-22.308594-3.167969-30.617188-10.964844-8.320312-7.808594-12.898438-18.390625-12.898438-29.796875 0-6.863281 1.730469-13.644531 5.011719-19.617187 6.816407-12.40625 6.484375-27.222656-.875-38.671875l-.21875-.339844c-8.53125-13.4375-24.585937-20.167969-39.960937-16.75-4.148438.921875-8.429688 1.386719-12.722656 1.386719-30.210938 0-54.957032-22.558594-58.132813-52.097656 25.402344-15.566407 55.257813-24.550782 87.167969-24.550782 65.761718-.003906 122.769531 38.128906 150.109375 93.433594zm-198.175781 142.8125c-7.144532 4.464844-15.949219 4.382812-22.457032-.226562-.613281-.429688-1.226562-.851563-1.898437-1.304688-5.332031-3.523438-8.582031-9.589844-8.699219-16.226562-.246094-13.9375-5.890625-27-15.902344-36.785157-19.035156-18.589843-49.414062-19.847656-69.949218-3.1875-.242188-3.703125-.367188-7.429687-.367188-11.175781 0-54.4375 26.132812-102.882812 66.507812-133.460938 3.054688 14.046876 10.164063 26.914063 20.703126 37.109376 13.773437 13.324218 31.917968 20.660156 51.09375 20.660156 5.386718 0 10.761718-.585938 15.980468-1.746094 9.222656-2.054688 18.882813 2.027344 24.039063 10.148438l.273437.421874c4.371094 6.808594 4.5 15.746094.335938 23.332032-4.492188 8.175781-6.867188 17.457031-6.867188 26.832031 0 15.371094 6.429688 30.21875 17.632813 40.734375 10.46875 9.824219 23.898437 15.117188 38.15625 15.117188 1.21875 0 2.445312-.039063 3.675781-.117188 26.851562-1.699219 48.644531-22.3125 51.824219-49.003906.222656-1.855469.351562-3.742188.390625-5.605469.167968-8.320313 4.90625-15.886719 12.371094-19.742187 10.886718-5.621094 20.445312-13.355469 28.1875-22.707032 6.707031 18.085938 10.378906 37.632813 10.378906 58.023438 0 22.316406-4.324219 43.949218-12.828125 64.335937h-119.261719c-10.730469 0-20.636719 3.578125-28.597656 9.601563-7.578125-6.910156-17.304688-11.128906-27.558594-11.8125-9.644531-.640625-19.03125 1.703125-27.164062 6.785156zm2.679687 92.144531c4.25-5.585937 10.816406-8.726562 17.597656-8.164062 1.351563.109375 2.597657.164062 3.800781.164062 9.121094 0 17.996094-2.753906 25.484376-7.816406 2.46875 2.496094 5.21875 4.710937 8.1875 6.617187-6.113282 3.917969-11.277344 9.1875-15.054688 15.394532-13.605469-.429688-27.042969-2.535156-40.015625-6.195313zm48.132813 30.808594c0-17.925781 14.582031-32.507813 32.507812-32.507813h5.070312v65.015626h-5.070312c-17.925781 0-32.507812-14.582032-32.507812-32.507813zm0 80.015625c0-17.925781 14.582031-32.507812 32.507812-32.507812h5.070312v65.015624h-5.070312c-17.925781 0-32.507812-14.582031-32.507812-32.507812zm52.578124 32.507812v-65.015624h36.167969v65.015624zm226.828126-80.015624h-175.65625v-65.015626h175.65625c17.925781 0 32.507812 14.582032 32.507812 32.507813s-14.582031 32.507813-32.507812 32.507813zm0 0"/><path d="m436.8125 353.910156c-11.1875 0-20.292969 9.101563-20.292969 20.292969 0 11.1875 9.105469 20.292969 20.292969 20.292969 11.191406 0 20.292969-9.105469 20.292969-20.292969 0-11.191406-9.101563-20.292969-20.292969-20.292969zm0 25.585938c-2.917969 0-5.292969-2.375-5.292969-5.292969s2.375-5.292969 5.292969-5.292969 5.292969 2.375 5.292969 5.292969-2.371094 5.292969-5.292969 5.292969zm0 0"/><path d="m368.394531 367.660156h-.097656c-4.140625 0-7.449219 3.355469-7.449219 7.5 0 4.140625 3.40625 7.5 7.546875 7.5 4.144531 0 7.5-3.359375 7.5-7.5 0-4.144531-3.355469-7.5-7.5-7.5zm0 0"/><path d="m344.703125 367.660156h-.097656c-4.140625 0-7.449219 3.355469-7.449219 7.5 0 4.140625 3.40625 7.5 7.546875 7.5 4.144531 0 7.5-3.359375 7.5-7.5 0-4.144531-3.355469-7.5-7.5-7.5zm0 0"/><path d="m321.011719 367.660156h-.097657c-4.140624 0-7.449218 3.355469-7.449218 7.5 0 4.140625 3.40625 7.5 7.546875 7.5 4.144531 0 7.5-3.359375 7.5-7.5 0-4.144531-3.355469-7.5-7.5-7.5zm0 0"/><path d="m457.105469 454.21875c0-11.1875-9.101563-20.292969-20.292969-20.292969-11.1875 0-20.292969 9.105469-20.292969 20.292969s9.105469 20.292969 20.292969 20.292969c11.191406 0 20.292969-9.105469 20.292969-20.292969zm-25.585938 0c0-2.917969 2.375-5.292969 5.292969-5.292969s5.292969 2.375 5.292969 5.292969-2.375 5.292969-5.292969 5.292969-5.292969-2.375-5.292969-5.292969zm0 0"/><path d="m368.394531 447.675781h-.097656c-4.140625 0-7.449219 3.359375-7.449219 7.5s3.40625 7.5 7.546875 7.5c4.144531 0 7.5-3.359375 7.5-7.5s-3.355469-7.5-7.5-7.5zm0 0"/><path d="m344.605469 447.675781c-4.140625 0-7.449219 3.359375-7.449219 7.5s3.40625 7.5 7.546875 7.5c4.144531 0 7.5-3.359375 7.5-7.5s-3.355469-7.5-7.5-7.5zm0 0"/><path d="m320.914062 447.675781c-4.140624 0-7.449218 3.359375-7.449218 7.5s3.40625 7.5 7.546875 7.5c4.144531 0 7.5-3.359375 7.5-7.5s-3.355469-7.5-7.5-7.5zm0 0"/><path d="m397.003906 181.148438h25.621094c4.140625 0 7.5-3.359376 7.5-7.5 0-4.140626-3.359375-7.5-7.5-7.5h-25.621094c-4.144531 0-7.5 3.359374-7.5 7.5 0 4.140624 3.355469 7.5 7.5 7.5zm0 0"/><path d="m397.003906 203.148438h71.621094c4.140625 0 7.5-3.359376 7.5-7.5 0-4.140626-3.359375-7.5-7.5-7.5h-71.621094c-4.144531 0-7.5 3.359374-7.5 7.5 0 4.140624 3.355469 7.5 7.5 7.5zm0 0"/><path d="m397.003906 225.148438h71.621094c4.140625 0 7.5-3.355469 7.5-7.5 0-4.140626-3.359375-7.5-7.5-7.5h-71.621094c-4.144531 0-7.5 3.359374-7.5 7.5 0 4.144531 3.355469 7.5 7.5 7.5zm0 0"/></svg>