<svg height="512pt" viewBox="-77 0 512 512.00325" width="512pt" xmlns="http://www.w3.org/2000/svg"><path d="m256.074219 445h-153.148438c-5.421875 0-9.816406-4.394531-9.816406-9.816406v-370.433594c0-5.421875 4.394531-9.816406 9.816406-9.816406h153.148438c5.421875 0 9.820312 4.394531 9.820312 9.816406v370.433594c0 5.421875-4.398437 9.816406-9.820312 9.816406zm0 0" fill="#50758e"/><path d="m265.894531 64.753906v370.425782c0 5.417968-4.402343 9.820312-9.820312 9.820312h-20.992188c5.421875 0 9.820313-4.402344 9.820313-9.820312v-370.425782c0-5.429687-4.398438-9.820312-9.820313-9.820312h20.992188c5.417969 0 9.820312 4.390625 9.820312 9.820312zm0 0" fill="#2b597f"/><path d="m219.203125 137.019531c0 21.929688-17.777344 39.703125-39.703125 39.703125s-39.699219-17.773437-39.699219-39.703125c0-21.925781 17.773438-39.699219 39.699219-39.699219s39.703125 17.773438 39.703125 39.699219zm0 0" fill="#fc6393"/><path d="m219.203125 137.019531c0 21.929688-17.78125 39.699219-39.703125 39.699219-3.207031 0-6.332031-.382812-9.324219-1.109375 17.425781-4.191406 30.375-19.871094 30.375-38.589844 0-18.710937-12.949219-34.402343-30.375-38.59375 2.992188-.726562 6.117188-1.109375 9.324219-1.109375 21.925781 0 39.703125 17.78125 39.703125 39.703125zm0 0" fill="#f2256f"/><path d="m219.203125 249.964844c0 21.925781-17.777344 39.699218-39.703125 39.699218s-39.699219-17.773437-39.699219-39.699218c0-21.925782 17.773438-39.699219 39.699219-39.699219s39.703125 17.773437 39.703125 39.699219zm0 0" fill="#f6cb43"/><path d="m219.203125 249.964844c0 21.921875-17.78125 39.699218-39.703125 39.699218-3.207031 0-6.332031-.382812-9.324219-1.105468 17.425781-4.195313 30.375-19.882813 30.375-38.59375 0-18.710938-12.949219-34.398438-30.375-38.589844 2.992188-.726562 6.117188-1.109375 9.324219-1.109375 21.925781 0 39.703125 17.777344 39.703125 39.699219zm0 0" fill="#fab03c"/><path d="m219.203125 362.910156c0 21.925782-17.777344 39.699219-39.703125 39.699219s-39.699219-17.773437-39.699219-39.699219c0-21.925781 17.773438-39.699218 39.699219-39.699218s39.703125 17.773437 39.703125 39.699218zm0 0" fill="#14f2d7"/><path d="m219.203125 362.914062c0 21.921876-17.78125 39.699219-39.703125 39.699219-3.207031 0-6.332031-.382812-9.324219-1.109375 17.425781-4.191406 30.375-19.878906 30.375-38.589844 0-18.722656-12.949219-34.402343-30.375-38.59375 2.992188-.726562 6.117188-1.109374 9.324219-1.109374 21.925781 0 39.703125 17.769531 39.703125 39.703124zm0 0" fill="#00e2c7"/><path d="m348.859375 296.058594-56.484375-56.488282c-3.511719-3.511718-9.203125-3.511718-12.710938 0l-56.488281 56.488282c-5.664062 5.660156-1.652343 15.339844 6.355469 15.339844h15.371094v96.207031c0 4.964843 4.027344 8.988281 8.988281 8.988281h64.253906c4.964844 0 8.988281-4.023438 8.988281-8.988281v-96.207031h15.375c8.003907 0 12.015626-9.679688 6.351563-15.339844zm0 0" fill="#27bef4"/><path d="m135.828125 66.613281-56.488281-56.488281c-3.511719-3.507812-9.199219-3.507812-12.710938 0l-56.488281 56.488281c-5.660156 5.660157-1.652344 15.34375 6.355469 15.34375h15.375v96.207031c0 4.964844 4.023437 8.984376 8.988281 8.984376h64.253906c4.964844 0 8.988281-4.023438 8.988281-8.984376v-96.207031h15.371094c8.007813 0 12.015625-9.683593 6.355469-15.34375zm0 0" fill="#27bef4"/><path d="m179.5 89.820312c-26.023438 0-47.199219 21.175782-47.199219 47.199219 0 26.027344 21.175781 47.203125 47.199219 47.203125 26.027344 0 47.203125-21.175781 47.203125-47.203125 0-26.023437-21.175781-47.199219-47.203125-47.199219zm0 79.402344c-17.753906 0-32.199219-14.445312-32.199219-32.199218 0-17.757813 14.445313-32.203126 32.199219-32.203126 17.757812 0 32.203125 14.445313 32.203125 32.203126 0 17.753906-14.445313 32.199218-32.203125 32.199218zm0 0"/><path d="m179.5 202.765625c-26.023438 0-47.199219 21.171875-47.199219 47.199219s21.175781 47.199218 47.199219 47.199218c26.027344 0 47.203125-21.171874 47.203125-47.199218s-21.175781-47.199219-47.203125-47.199219zm0 79.398437c-17.753906 0-32.199219-14.441406-32.199219-32.199218 0-17.753906 14.445313-32.199219 32.199219-32.199219 17.757812 0 32.203125 14.445313 32.203125 32.199219 0 17.757812-14.445313 32.199218-32.203125 32.199218zm0 0"/><path d="m132.300781 362.910156c0 26.023438 21.175781 47.199219 47.199219 47.199219 26.027344 0 47.203125-21.175781 47.203125-47.199219 0-26.027344-21.175781-47.199218-47.203125-47.199218-26.023438 0-47.199219 21.171874-47.199219 47.199218zm79.402344 0c0 17.753906-14.445313 32.199219-32.203125 32.199219-17.753906 0-32.199219-14.445313-32.199219-32.199219s14.445313-32.199218 32.199219-32.199218c17.757812 0 32.203125 14.445312 32.203125 32.199218zm0 0"/><path d="m354.164062 290.753906-21.160156-21.164062c-2.929687-2.925782-7.679687-2.925782-10.609375 0-2.925781 2.933594-2.925781 7.679687 0 10.609375l21.164063 21.160156c.171875.175781.703125.703125.320312 1.621094-.378906.917969-1.125.917969-1.371094.917969h-15.375c-4.144531 0-7.5 3.359374-7.5 7.5v96.207031c0 .820312-.667968 1.488281-1.488281 1.488281h-64.253906c-.820313 0-1.488281-.667969-1.488281-1.488281v-96.207031c0-4.140626-3.355469-7.5-7.5-7.5h-15.371094c-.246094 0-.992188 0-1.375-.917969-.378906-.917969.148438-1.445313.324219-1.621094l56.488281-56.484375c.359375-.363281.769531-.4375 1.050781-.4375s.691407.074219 1.050781.4375l12.230469 12.230469c2.929688 2.925781 7.679688 2.925781 10.609375 0 2.925782-2.929688 2.925782-7.679688 0-10.609375l-12.234375-12.230469c-3.113281-3.113281-7.253906-4.828125-11.65625-4.828125-4.402343 0-8.546875 1.714844-11.660156 4.828125l-.964844.964844v-45.902344c0-4.144531-3.359375-7.503906-7.5-7.503906-4.144531 0-7.5 3.359375-7.5 7.503906v60.90625l-40.523437 40.519531c-4.730469 4.730469-6.136719 11.785156-3.574219 17.96875s8.539063 10.179688 15.234375 10.179688h7.871094v118.597656h-134.476563c-1.273437 0-2.3125-1.039062-2.3125-2.316406v-87.855469c0-4.140625-3.359375-7.5-7.503906-7.5-4.140625 0-7.5 3.359375-7.5 7.5v87.855469c0 9.550781 7.769531 17.316406 17.316406 17.316406h134.476563v14.890625c0 4.144531 3.359375 7.5 7.5 7.5 4.144531 0 7.5-3.355469 7.5-7.5v-14.890625h3.675781c9.546875 0 17.316406-7.769531 17.316406-17.316406v-11.085938s45.75-.03125 46.238281-.074218v80.480468c0 4.140625 3.355469 7.5 7.5 7.5 4.144532 0 7.5-3.359375 7.5-7.5v-185.605468h7.875c6.691407 0 12.667969-3.996094 15.230469-10.175782 2.5625-6.183594 1.160157-13.238281-3.574219-17.96875zm-95.769531 144.429688c0 1.277344-1.039062 2.316406-2.316406 2.316406h-3.675781v-13.480469c.492187.042969 5.992187.074219 5.992187.074219zm0 0"/><path d="m304.292969 387.042969h-36.550781c-4.140626 0-7.5 3.359375-7.5 7.5 0 4.144531 3.359374 7.5 7.5 7.5h36.550781c4.144531 0 7.5-3.355469 7.5-7.5 0-4.140625-3.355469-7.5-7.5-7.5zm0 0"/><path d="m294.855469 432.355469c-4.144531 0-7.5 3.355469-7.5 7.5v42.0625c0 4.144531 3.355469 7.5 7.5 7.5 4.140625 0 7.5-3.355469 7.5-7.5v-42.0625c0-4.140625-3.359375-7.5-7.5-7.5zm0 0"/><path d="m85.609375 194.648438v120.019531c0 4.140625 3.359375 7.5 7.5 7.5 4.144531 0 7.5-3.359375 7.5-7.5v-120.019531s5.5-.027344 5.988281-.074219v36.738281c0 4.144531 3.359375 7.5 7.503906 7.5 4.140626 0 7.5-3.355469 7.5-7.5v-141.855469h7.871094c6.691406 0 12.671875-3.996093 15.234375-10.179687 2.363281-5.710938 1.339844-12.164063-2.558593-16.84375h113.925781c1.277343 0 2.316406 1.039062 2.316406 2.316406v91.914062c0 4.144532 3.359375 7.5 7.5 7.5 4.144531 0 7.5-3.355468 7.5-7.5v-91.914062c0-9.550781-7.769531-17.316406-17.316406-17.316406h-128.816407l-42.613281-42.613282c-6.429687-6.429687-16.886719-6.425781-23.316406 0l-56.488281 56.488282c-4.734375 4.734375-6.136719 11.785156-3.574219 17.96875s8.539063 10.179687 15.230469 10.179687h7.875v160.507813c0 4.144531 3.355468 7.5 7.5 7.5 4.140625 0 7.5-3.355469 7.5-7.5v-55.390625c.492187.046875 15.316406.074219 15.316406.074219v87.179687c0 4.144531 3.355469 7.5 7.5 7.5 4.140625 0 7.5-3.355469 7.5-7.5v-87.179687zm-46.238281-16.484376v-96.207031c0-4.144531-3.359375-7.5-7.5-7.5h-15.375c-.246094 0-.992188 0-1.371094-.917969-.382812-.921874.144531-1.449218.320312-1.621093l56.488282-56.488281c.289062-.292969.667968-.4375 1.050781-.4375s.761719.144531 1.050781.4375l56.488282 56.488281c.175781.171875.703124.703125.324218 1.621093-.378906.917969-1.128906.917969-1.375.917969h-15.371094c-4.144531 0-7.503906 3.355469-7.503906 7.5v96.207031c0 .820313-.664062 1.484376-1.484375 1.484376h-64.253906c-.820313 0-1.488281-.664063-1.488281-1.484376zm0 0"/><path d="m91.257812 157.597656h-36.546874c-4.144532 0-7.5 3.359375-7.5 7.5 0 4.144532 3.355468 7.5 7.5 7.5h36.546874c4.144532 0 7.5-3.355468 7.5-7.5 0-4.140625-3.355468-7.5-7.5-7.5zm0 0"/><path d="m62.1875 294.164062c-4.144531 0-7.5 3.355469-7.5 7.5v6.539063c0 4.144531 3.355469 7.5 7.5 7.5 4.140625 0 7.5-3.355469 7.5-7.5v-6.539063c0-4.144531-3.359375-7.5-7.5-7.5zm0 0"/></svg>