<svg height="512pt" viewBox="-62 0 512 512.00205" width="512pt" xmlns="http://www.w3.org/2000/svg"><path d="m325.785156 310.597656h-269.808594c-26.769531 0-48.476562-21.703125-48.476562-48.476562 0-26.773438 21.703125-48.476563 48.476562-48.476563h269.808594c26.773438 0 48.476563 21.703125 48.476563 48.476563 0 26.773437-21.703125 48.476562-48.476563 48.476562zm0 0" fill="#f1eded"/><path d="m374.269531 262.125c0 13.386719-5.433593 25.511719-14.207031 34.285156-8.769531 8.769532-20.882812 14.191406-34.273438 14.191406h-32.148437c13.390625 0 25.503906-5.421874 34.273437-14.191406 8.773438-8.773437 14.203126-20.898437 14.203126-34.285156 0-26.777344-21.710938-48.480469-48.476563-48.480469h32.148437c26.765626 0 48.480469 21.703125 48.480469 48.480469zm0 0" fill="#dad0cd"/><path d="m71.207031 213.644531h62v96.953125h-62zm0 0" fill="#14f2d7"/><path d="m109.925781 213.644531h23.285157v96.953125h-23.285157zm0 0" fill="#00e2c7"/><path d="m310.667969 262.121094c0 8.5625-6.941407 15.5-15.5 15.5-8.5625 0-15.5-6.9375-15.5-15.5s6.9375-15.5 15.5-15.5c8.558593 0 15.5 6.9375 15.5 15.5zm0 0" fill="#14f2d7"/><path d="m325.785156 407.550781h-269.808594c-26.769531 0-48.476562-21.703125-48.476562-48.476562 0-26.773438 21.703125-48.476563 48.476562-48.476563h269.808594c26.773438 0 48.476563 21.703125 48.476563 48.476563 0 26.769531-21.703125 48.476562-48.476563 48.476562zm0 0" fill="#dad0cd"/><path d="m374.269531 359.074219c0 13.386719-5.433593 25.511719-14.207031 34.285156-8.769531 8.773437-20.882812 14.191406-34.273438 14.191406h-32.148437c13.390625 0 25.503906-5.417969 34.273437-14.191406 8.773438-8.773437 14.203126-20.898437 14.203126-34.285156 0-26.777344-21.710938-48.476563-48.476563-48.476563h32.148437c26.765626 0 48.480469 21.699219 48.480469 48.476563zm0 0" fill="#c1bab8"/><path d="m71.207031 310.597656h62v96.953125h-62zm0 0" fill="#00e2c7"/><path d="m109.925781 310.597656h23.285157v96.953125h-23.285157zm0 0" fill="#00c6a9"/><path d="m310.667969 359.074219c0 8.558593-6.941407 15.5-15.5 15.5-8.5625 0-15.5-6.941407-15.5-15.5 0-8.5625 6.9375-15.5 15.5-15.5 8.558593 0 15.5 6.9375 15.5 15.5zm0 0" fill="#00e2c7"/><path d="m325.785156 504.5h-269.808594c-26.769531 0-48.476562-21.703125-48.476562-48.476562 0-26.773438 21.703125-48.476563 48.476562-48.476563h269.808594c26.773438 0 48.476563 21.703125 48.476563 48.476563 0 26.773437-21.703125 48.476562-48.476563 48.476562zm0 0" fill="#f1eded"/><path d="m374.269531 456.027344c0 13.386718-5.433593 25.511718-14.207031 34.285156-8.769531 8.769531-20.882812 14.191406-34.273438 14.191406h-32.148437c13.390625 0 25.503906-5.421875 34.273437-14.191406 8.773438-8.773438 14.203126-20.898438 14.203126-34.285156 0-26.777344-21.710938-48.476563-48.476563-48.476563h32.148437c26.765626 0 48.480469 21.699219 48.480469 48.476563zm0 0" fill="#dad0cd"/><path d="m71.207031 407.550781h62v96.949219h-62zm0 0" fill="#14f2d7"/><path d="m109.925781 407.550781h23.285157v96.949219h-23.285157zm0 0" fill="#00e2c7"/><path d="m310.667969 456.023438c0 8.5625-6.941407 15.503906-15.5 15.503906-8.5625 0-15.5-6.941406-15.5-15.503906 0-8.558594 6.9375-15.5 15.5-15.5 8.558593 0 15.5 6.941406 15.5 15.5zm0 0" fill="#14f2d7"/><path d="m313.410156 28.355469c-29.808594-8.316407-66.882812 2.246093-94.539062 29.902343-13.4375 13.4375-22.828125 29.105469-27.988282 45.078126v49.941406c29.480469 7.367187 65.566407-3.320313 92.625-30.382813 27.660157-27.65625 38.226563-64.722656 29.902344-94.539062zm0 0" fill="#00e2c7"/><path d="m283.507812 122.898438c-27.054687 27.054687-63.144531 37.742187-92.625 30.378906v-15.367188c25.390626.402344 53.15625-10.773437 75.007813-32.625 23.15625-23.15625 34.339844-52.921875 32.476563-79.5 5.160156.363282 10.199218 1.207032 15.042968 2.566406 8.324219 29.816407-2.246094 66.890626-29.902344 94.546876zm0 0" fill="#00c6a9"/><path d="m95.667969 9.632812c23.164062-6.460937 51.976562 1.746094 73.46875 23.238282 10.441406 10.441406 17.738281 22.617187 21.746093 35.035156v38.808594c-22.90625 5.722656-50.949218-2.582032-71.980468-23.609375-21.492188-21.492188-29.703125-50.300781-23.234375-73.472657zm0 0" fill="#00e2c7"/><path d="m118.90625 83.105469c21.023438 21.027343 49.070312 29.332031 71.976562 23.609375v-11.941406c-19.730468.3125-41.304687-8.371094-58.289062-25.355469-17.992188-17.996094-26.6875-41.125-25.238281-61.78125-4.007813.28125-7.925781.941406-11.6875 1.992187-6.46875 23.175782 1.746093 51.984375 23.238281 73.476563zm0 0" fill="#00c6a9"/><path d="m381.761719 262.121094c0-30.863282-25.109375-55.976563-55.976563-55.976563h-65.179687c-4.140625 0-7.5 3.359375-7.5 7.5 0 4.144531 3.359375 7.5 7.5 7.5h65.179687c22.59375 0 40.976563 18.382813 40.976563 40.976563s-18.382813 40.976562-40.976563 40.976562h-185.074218v-81.949218h87.234374c4.140626 0 7.5-3.359376 7.5-7.503907 0-4.140625-3.359374-7.5-7.5-7.5h-29.558593v-43.824219c3.859375.511719 7.761719.773438 11.695312.773438 27.539063 0 56.273438-12.4375 78.730469-34.894531 28.617188-28.617188 41.109375-68.601563 31.820312-101.859375-.703124-2.527344-2.679687-4.503906-5.207031-5.207032-33.265625-9.285156-73.246093 3.207032-101.859375 31.816407-5.679687 5.683593-10.761718 11.851562-15.179687 18.359375v-3.40625c0-.78125-.125-1.558594-.363281-2.304688-4.507813-13.960937-12.664063-27.109375-23.582032-38.03125-22.65625-22.652344-54.367187-32.53125-80.789062-25.15625-2.527344.703125-4.503906 2.679688-5.207032 5.207032-7.378906 26.417968 2.496094 58.132812 25.15625 80.789062 17.765626 17.769531 40.53125 27.605469 62.375 27.605469 2.484376 0 4.957032-.132813 7.410157-.390625v90.523437h-127.410157c-30.863281 0-55.976562 25.109375-55.976562 55.976563 0 20.695312 11.296875 38.789062 28.042969 48.476562-16.742188 9.6875-28.042969 27.78125-28.042969 48.476563 0 20.695312 11.296875 38.789062 28.042969 48.476562-16.742188 9.683594-28.042969 27.777344-28.042969 48.472657 0 30.867187 25.113281 55.976562 55.976562 55.976562h182.96875c4.140626 0 7.5-3.355469 7.5-7.5 0-4.140625-3.359374-7.5-7.5-7.5h-98.234374v-81.949219h185.074218c22.59375 0 40.976563 18.382813 40.976563 40.976563s-18.382813 40.972656-40.976563 40.972656h-54.175781c-4.144531 0-7.503906 3.359375-7.503906 7.5 0 4.144531 3.359375 7.503906 7.503906 7.503906h54.175781c30.867188 0 55.976563-25.113281 55.976563-55.976562 0-20.695313-11.296875-38.789063-28.039063-48.476563 16.742188-9.6875 28.039063-27.78125 28.039063-48.476562 0-20.695313-11.296875-38.789063-28.039063-48.476563 16.742188-9.6875 28.039063-27.78125 28.039063-48.476562zm-157.589844-198.5625c23.628906-23.628906 55.742187-34.714844 83.035156-29 5.71875 27.285156-5.371093 59.402344-29 83.03125-20.214843 20.214844-46.964843 31.316406-71.40625 30.378906l54.769531-54.769531c2.929688-2.929688 2.929688-7.679688 0-10.609375-2.929687-2.925782-7.679687-2.925782-10.609374 0l-52.574219 52.578125v-30.625c5.039062-14.988281 13.9375-29.136719 25.785156-40.984375zm-122.261719-47.683594c20.429688-3.820312 44.265625 4.644531 61.921875 22.300781 8.957031 8.957031 15.703125 19.632813 19.550781 30.9375v19.492188l-38.003906-38.003907c-2.929687-2.929687-7.675781-2.929687-10.605468 0-2.929688 2.929688-2.929688 7.679688 0 10.605469l39.726562 39.730469c-17.425781-.527344-35.996094-8.839844-50.292969-23.136719-17.660156-17.660156-26.121093-41.5-22.296875-61.925781zm23.796875 287.222656h-46.996093v-81.949218h46.996093zm-110.707031-40.976562c0-22.59375 18.382812-40.976563 40.976562-40.976563h7.730469v81.953125h-7.730469c-22.59375 0-40.976562-18.382812-40.976562-40.976562zm0 96.953125c0-22.597657 18.382812-40.976563 40.976562-40.976563h7.730469v81.949219h-7.730469c-22.59375 0-40.976562-18.378906-40.976562-40.972656zm0 96.949219c0-22.59375 18.382812-40.972657 40.976562-40.972657h7.730469v81.949219h-7.730469c-22.59375 0-40.976562-18.382812-40.976562-40.976562zm63.710938 40.976562v-81.949219h47v81.949219zm288.050781-137.925781c0 22.59375-18.382813 40.972656-40.976563 40.972656h-185.074218v-21.835937c0-4.144532-3.359376-7.5-7.5-7.5-4.144532 0-7.503907 3.355468-7.503907 7.5v21.835937h-46.996093v-81.949219h46.996093v25.476563c0 4.140625 3.359375 7.5 7.503907 7.5 4.140624 0 7.5-3.359375 7.5-7.5v-25.476563h185.074218c22.59375 0 40.976563 18.382813 40.976563 40.976563zm0 0"/><path d="m318.167969 262.121094c0-12.683594-10.316407-23-23-23-12.683594 0-23 10.316406-23 23s10.316406 23 23 23c12.683593 0 23-10.316406 23-23zm-31 0c0-4.410156 3.589843-8 8-8 4.410156 0 8 3.589844 8 8s-3.589844 8-8 8c-4.410157 0-8-3.589844-8-8zm0 0"/><path d="m235.664062 255.78125c-4.144531 0-7.503906 3.355469-7.503906 7.5s3.359375 7.5 7.503906 7.5h.117188c4.140625 0 7.5-3.355469 7.5-7.5s-3.359375-7.5-7.5-7.5zm0 0"/><path d="m206.957031 255.78125c-4.140625 0-7.5 3.355469-7.5 7.5s3.359375 7.5 7.5 7.5h.117188c4.144531 0 7.503906-3.355469 7.503906-7.5s-3.359375-7.5-7.503906-7.5zm0 0"/><path d="m178.253906 255.78125c-4.144531 0-7.503906 3.355469-7.503906 7.5s3.359375 7.5 7.503906 7.5h.117188c4.140625 0 7.5-3.355469 7.5-7.5s-3.359375-7.5-7.5-7.5zm0 0"/><path d="m295.167969 382.074219c12.683593 0 23-10.316407 23-23 0-12.683594-10.316407-23.003907-23-23.003907-12.683594 0-23 10.320313-23 23.003907 0 12.683593 10.316406 23 23 23zm0-31c4.410156 0 8 3.585937 8 8 0 4.410156-3.589844 8-8 8-4.410157 0-8-3.589844-8-8 0-4.414063 3.589843-8 8-8zm0 0"/><path d="m235.664062 367.734375h.117188c4.140625 0 7.5-3.359375 7.5-7.5 0-4.144531-3.359375-7.5-7.5-7.5h-.117188c-4.144531 0-7.503906 3.355469-7.503906 7.5 0 4.140625 3.359375 7.5 7.503906 7.5zm0 0"/><path d="m206.957031 367.734375h.117188c4.144531 0 7.503906-3.359375 7.503906-7.5 0-4.144531-3.359375-7.5-7.503906-7.5h-.117188c-4.140625 0-7.5 3.355469-7.5 7.5 0 4.140625 3.359375 7.5 7.5 7.5zm0 0"/><path d="m178.253906 367.734375h.117188c4.140625 0 7.5-3.359375 7.5-7.5 0-4.144531-3.359375-7.5-7.5-7.5h-.117188c-4.144531 0-7.503906 3.355469-7.503906 7.5 0 4.140625 3.359375 7.5 7.503906 7.5zm0 0"/><path d="m318.167969 456.023438c0-12.683594-10.316407-23-23-23-12.683594 0-23 10.316406-23 23 0 12.683593 10.316406 23.003906 23 23.003906 12.683593 0 23-10.320313 23-23.003906zm-31 0c0-4.410157 3.589843-8 8-8 4.410156 0 8 3.589843 8 8 0 4.414062-3.589844 8-8 8-4.410157 0-8-3.585938-8-8zm0 0"/><path d="m235.722656 449.683594c-.019531 0-.042968 0-.0625 0-4.113281 0-7.464844 3.316406-7.5 7.4375-.03125 4.144531 3.296875 7.527344 7.441406 7.5625h.117188.0625c4.113281 0 7.464844-3.316406 7.5-7.4375.035156-4.140625-3.296875-7.527344-7.4375-7.5625zm0 0"/><path d="m207.019531 449.683594c-.023437 0-.042969 0-.0625 0-4.113281 0-7.464843 3.316406-7.5 7.4375-.035156 4.144531 3.296875 7.527344 7.4375 7.5625h.121094.0625c4.113281 0 7.464844-3.316406 7.496094-7.4375.035156-4.140625-3.296875-7.527344-7.4375-7.5625zm0 0"/><path d="m178.3125 449.683594c-.019531 0-.042969 0-.0625 0-4.113281 0-7.464844 3.316406-7.5 7.4375-.03125 4.144531 3.296875 7.527344 7.441406 7.5625h.117188.0625c4.113281 0 7.464844-3.316406 7.5-7.4375.03125-4.140625-3.296875-7.527344-7.4375-7.5625zm0 0"/><path d="m17.773438 95.839844c3.117187 2.734375 7.855468 2.425781 10.585937-.6875l9.96875-11.363282 9.96875 11.363282c1.480469 1.6875 3.554687 2.550781 5.640625 2.550781 1.753906 0 3.519531-.609375 4.941406-1.859375 3.117188-2.730469 3.425782-7.472656.691406-10.585938l-15.605468-17.789062c-1.425782-1.621094-3.480469-2.554688-5.636719-2.554688-2.160156 0-4.214844.933594-5.640625 2.554688l-15.605469 17.789062c-2.730469 3.113282-2.421875 7.851563.691407 10.582032zm0 0"/><path d="m320.636719 155.289062-15.605469 17.789063c-2.730469 3.113281-2.421875 7.851563.691406 10.585937 3.113282 2.730469 7.851563 2.421876 10.582032-.691406l9.96875-11.363281 9.96875 11.363281c1.484374 1.6875 3.558593 2.550782 5.640624 2.550782 1.757813 0 3.523438-.609376 4.945313-1.859376 3.113281-2.730468 3.421875-7.472656.691406-10.585937l-15.605469-17.789063c-1.425781-1.621093-3.480468-2.554687-5.640624-2.554687-2.15625 0-4.210938.933594-5.636719 2.554687zm0 0"/><path d="m386.683594 110.660156-15.605469-17.785156c-1.425781-1.625-3.480469-2.554688-5.640625-2.554688-2.15625 0-4.210938.929688-5.636719 2.554688l-15.605469 17.785156c-2.730468 3.113282-2.421874 7.855469.691407 10.585938 3.113281 2.730468 7.851562 2.421875 10.585937-.691406l9.964844-11.363282 9.96875 11.363282c1.484375 1.691406 3.558594 2.554687 5.644531 2.554687 1.753907 0 3.519531-.613281 4.941407-1.863281 3.113281-2.730469 3.421874-7.472656.691406-10.585938zm0 0"/></svg>