<svg height="512pt" viewBox="0 -29 512 512" width="512pt" xmlns="http://www.w3.org/2000/svg"><path d="m311.53125 189.4375h-257.726562c-25.574219 0-46.304688-20.730469-46.304688-46.304688 0-25.574218 20.730469-46.304687 46.304688-46.304687h257.726562c25.574219 0 46.304688 20.730469 46.304688 46.304687 0 25.574219-20.730469 46.304688-46.304688 46.304688zm0 0" fill="#f1eded"/><path d="m357.839844 143.132812c0 12.789063-5.1875 24.371094-13.566406 32.75-8.378907 8.378907-19.949219 13.558594-32.738282 13.558594h-30.710937c12.789062 0 24.359375-5.179687 32.738281-13.558594 8.378906-8.378906 13.570312-19.960937 13.570312-32.75 0-25.574218-20.742187-46.304687-46.308593-46.304687h30.710937c25.566406 0 46.304688 20.730469 46.304688 46.304687zm0 0" fill="#dad0cd"/><path d="m68.355469 96.828125h59.222656v92.609375h-59.222656zm0 0" fill="#2ee0fd"/><path d="m105.335938 96.828125h22.242187v92.609375h-22.242187zm0 0" fill="#27bef4"/><path d="m297.089844 143.132812c0 8.179688-6.628906 14.808594-14.808594 14.808594-8.175781 0-14.804688-6.628906-14.804688-14.808594 0-8.175781 6.628907-14.808593 14.804688-14.808593 8.179688 0 14.808594 6.632812 14.808594 14.808593zm0 0" fill="#2ee0fd"/><path d="m311.53125 282.046875h-257.726562c-25.574219 0-46.304688-20.730469-46.304688-46.304687 0-25.574219 20.730469-46.304688 46.304688-46.304688h257.726562c25.574219 0 46.304688 20.730469 46.304688 46.304688 0 25.574218-20.730469 46.304687-46.304688 46.304687zm0 0" fill="#dad0cd"/><path d="m357.839844 235.742188c0 12.789062-5.1875 24.371093-13.566406 32.75-8.378907 8.378906-19.949219 13.558593-32.738282 13.558593h-30.710937c12.789062 0 24.359375-5.179687 32.738281-13.558593 8.378906-8.378907 13.570312-19.960938 13.570312-32.75 0-25.578126-20.742187-46.304688-46.308593-46.304688h30.710937c25.566406 0 46.304688 20.726562 46.304688 46.304688zm0 0" fill="#c1bab8"/><path d="m68.355469 189.4375h59.222656v92.609375h-59.222656zm0 0" fill="#27bef4"/><path d="m105.335938 189.4375h22.242187v92.609375h-22.242187zm0 0" fill="#209ced"/><path d="m297.089844 235.742188c0 8.175781-6.628906 14.808593-14.808594 14.808593-8.175781 0-14.804688-6.632812-14.804688-14.808593 0-8.179688 6.628907-14.808594 14.804688-14.808594 8.179688 0 14.808594 6.628906 14.808594 14.808594zm0 0" fill="#209ced"/><path d="m311.53125 374.65625h-257.726562c-25.574219 0-46.304688-20.730469-46.304688-46.304688 0-25.574218 20.730469-46.304687 46.304688-46.304687h257.726562c25.574219 0 46.304688 20.730469 46.304688 46.304687 0 25.574219-20.730469 46.304688-46.304688 46.304688zm0 0" fill="#f1eded"/><path d="m357.839844 328.351562c0 12.789063-5.1875 24.371094-13.566406 32.75-8.378907 8.378907-19.949219 13.558594-32.738282 13.558594h-30.710937c12.789062 0 24.359375-5.179687 32.738281-13.558594 8.378906-8.378906 13.570312-19.960937 13.570312-32.75 0-25.574218-20.742187-46.304687-46.308593-46.304687h30.710937c25.566406 0 46.304688 20.730469 46.304688 46.304687zm0 0" fill="#dad0cd"/><path d="m68.355469 282.046875h59.222656v92.609375h-59.222656zm0 0" fill="#2ee0fd"/><path d="m105.335938 282.046875h22.242187v92.609375h-22.242187zm0 0" fill="#27bef4"/><path d="m297.089844 328.351562c0 8.175782-6.628906 14.804688-14.808594 14.804688-8.175781 0-14.804688-6.628906-14.804688-14.804688 0-8.179687 6.628907-14.808593 14.804688-14.808593 8.179688 0 14.808594 6.628906 14.808594 14.808593zm0 0" fill="#2ee0fd"/><path d="m360.253906 279.972656v-85.324218c0-23.933594 19.472656-43.40625 43.40625-43.40625s43.40625 19.472656 43.40625 43.40625v85.324218h34.921875v-85.324218c0-43.191407-35.136719-78.332032-78.328125-78.332032s-78.332031 35.140625-78.332031 78.332032v85.324218zm0 0" fill="#6b97af"/><path d="m485.394531 446.5h-163.46875c-10.550781 0-19.105469-8.554688-19.105469-19.105469v-144.363281c0-10.550781 8.554688-19.105469 19.105469-19.105469h163.46875c10.550781 0 19.105469 8.554688 19.105469 19.105469v144.363281c0 10.550781-8.554688 19.105469-19.105469 19.105469zm0 0" fill="#fab03c"/><path d="m504.496094 283.03125v144.359375c0 10.554687-8.546875 19.105469-19.105469 19.105469h-25.90625c10.546875 0 19.105469-8.550782 19.105469-19.105469v-144.359375c0-10.554688-8.558594-19.101562-19.105469-19.101562h25.90625c10.554687 0 19.105469 8.546874 19.105469 19.101562zm0 0" fill="#fd8f3e"/><path d="m425.488281 371.0625c0-12.335938-10.234375-22.285156-22.679687-21.8125-11.363282.433594-20.605469 9.734375-20.964844 21.101562-.257812 8.1875 3.992188 15.40625 10.457031 19.351563v17.894531c0 2.859375 2.320313 5.179688 5.179688 5.179688h12.363281c2.859375 0 5.175781-2.320313 5.175781-5.179688v-17.894531c6.277344-3.832031 10.46875-10.746094 10.46875-18.640625zm0 0" fill="#2b597f"/><path d="m182.667969 57.269531c-13.742188 0-24.886719-11.140625-24.886719-24.882812 0-13.746094 11.144531-24.886719 24.886719-24.886719 13.742187 0 24.886719 11.140625 24.886719 24.886719 0 13.742187-11.144532 24.882812-24.886719 24.882812" fill="#50758e"/><path d="m282.28125 165.4375c12.300781 0 22.308594-10.003906 22.308594-22.304688 0-12.300781-10.007813-22.308593-22.308594-22.308593-12.296875 0-22.304688 10.007812-22.304688 22.308593 0 12.300782 10.007813 22.304688 22.304688 22.304688zm0-29.613281c4.03125 0 7.308594 3.277343 7.308594 7.308593s-3.277344 7.308594-7.308594 7.308594c-4.027344 0-7.304688-3.277344-7.304688-7.308594s3.277344-7.308593 7.304688-7.308593zm0 0"/><path d="m225.441406 151.738281h.113282c4.144531 0 7.5-3.355469 7.5-7.5 0-4.140625-3.355469-7.5-7.5-7.5h-.113282c-4.140625 0-7.5 3.359375-7.5 7.5 0 4.144531 3.359375 7.5 7.5 7.5zm0 0"/><path d="m198.023438 151.738281h.113281c4.140625 0 7.5-3.355469 7.5-7.5 0-4.140625-3.359375-7.5-7.5-7.5h-.113281c-4.144532 0-7.5 3.359375-7.5 7.5 0 4.144531 3.355468 7.5 7.5 7.5zm0 0"/><path d="m170.71875 136.738281h-.117188c-4.140624 0-7.5 3.359375-7.5 7.5 0 4.144531 3.359376 7.5 7.5 7.5h.117188c4.140625 0 7.5-3.355469 7.5-7.5 0-4.140625-3.359375-7.5-7.5-7.5zm0 0"/><path d="m282.28125 213.4375c-12.296875 0-22.304688 10.003906-22.304688 22.304688 0 12.300781 10.007813 22.308593 22.304688 22.308593 12.300781 0 22.308594-10.007812 22.308594-22.308593 0-12.300782-10.007813-22.304688-22.308594-22.304688zm0 29.613281c-4.027344 0-7.304688-3.277343-7.304688-7.308593s3.277344-7.308594 7.304688-7.308594c4.03125 0 7.308594 3.277344 7.308594 7.308594s-3.277344 7.308593-7.308594 7.308593zm0 0"/><path d="m225.554688 229.351562h-.113282c-4.140625 0-7.5 3.355469-7.5 7.5 0 4.140626 3.359375 7.5 7.5 7.5h.113282c4.144531 0 7.5-3.359374 7.5-7.5 0-4.144531-3.355469-7.5-7.5-7.5zm0 0"/><path d="m198.136719 229.351562h-.113281c-4.144532 0-7.5 3.355469-7.5 7.5 0 4.140626 3.355468 7.5 7.5 7.5h.113281c4.140625 0 7.5-3.359374 7.5-7.5 0-4.144531-3.359375-7.5-7.5-7.5zm0 0"/><path d="m170.71875 229.351562h-.117188c-4.140624 0-7.5 3.355469-7.5 7.5 0 4.140626 3.359376 7.5 7.5 7.5h.117188c4.140625 0 7.5-3.359374 7.5-7.5 0-4.144531-3.359375-7.5-7.5-7.5zm0 0"/><path d="m225.554688 321.960938h-.113282c-4.140625 0-7.5 3.355468-7.5 7.5 0 4.140624 3.359375 7.5 7.5 7.5h.113282c4.144531 0 7.5-3.359376 7.5-7.5 0-4.144532-3.355469-7.5-7.5-7.5zm0 0"/><path d="m198.136719 321.960938h-.113281c-4.144532 0-7.5 3.355468-7.5 7.5 0 4.140624 3.355468 7.5 7.5 7.5h.113281c4.140625 0 7.5-3.359376 7.5-7.5 0-4.144532-3.359375-7.5-7.5-7.5zm0 0"/><path d="m170.71875 321.960938h-.117188c-4.140624 0-7.5 3.355468-7.5 7.5 0 4.140624 3.359376 7.5 7.5 7.5h.117188c4.140625 0 7.5-3.359376 7.5-7.5 0-4.144532-3.359375-7.5-7.5-7.5zm0 0"/><path d="m489.492188 256.742188v-12.414063c0-4.140625-3.359376-7.5-7.5-7.5-4.144532 0-7.5 3.359375-7.5 7.5v12.097656h-19.925782v-61.777343c0-28.070313-22.835937-50.90625-50.90625-50.90625-28.070312 0-50.90625 22.835937-50.90625 50.90625v61.777343h-19.925781v-61.777343c0-39.054688 31.777344-70.828126 70.832031-70.828126 39.058594 0 70.832032 31.773438 70.832032 70.828126v17.023437c0 4.140625 3.359374 7.5 7.5 7.5 4.140624 0 7.5-3.359375 7.5-7.5v-17.023437c0-47.328126-38.503907-85.828126-85.832032-85.828126-15.777344 0-30.5625 4.296876-43.277344 11.753907-8.683593-18.742188-27.71875-31.246094-48.851562-31.246094h-121.363281v-25.433594c11.84375-2.820312 21.179687-12.164062 24-24.007812h112.734375c4.144531 0 7.5-3.359375 7.5-7.5 0-4.144531-3.355469-7.5-7.5-7.5h-112.738282c-3.390624-14.253907-16.222656-24.886719-31.496093-24.886719-15.277344 0-28.105469 10.632812-31.5 24.886719h-112.738281c-4.140626 0-7.5 3.355469-7.5 7.5 0 4.140625 3.359374 7.5 7.5 7.5h112.734374c2.820313 11.84375 12.160157 21.1875 24.003907 24.007812v25.433594h-121.363281c-7 0-13.828126 1.335937-20.292969 3.972656-3.835938 1.5625-5.679688 5.941407-4.117188 9.777344 1.566407 3.835937 5.941407 5.679687 9.777344 4.113281 4.660156-1.898437 9.585937-2.863281 14.632813-2.863281h7.050781v77.609375h-7.050781c-21.398438 0-38.804688-17.40625-38.804688-38.804688 0-6.074218 1.371094-11.898437 4.078125-17.3125 1.851563-3.707031.351563-8.210937-3.355469-10.0625-3.703125-1.855468-8.207031-.351562-10.0625 3.351563-3.753906 7.519531-5.660156 15.601563-5.660156 24.023437 0 19.683594 10.632812 36.925782 26.449219 46.304688-15.816407 9.378906-26.449219 26.621094-26.449219 46.304688 0 19.683593 10.632812 36.925781 26.449219 46.304687-15.816407 9.378906-26.449219 26.621094-26.449219 46.304687 0 29.667969 24.136719 53.804688 53.804688 53.804688h241.515624v45.238281c0 14.671875 11.9375 26.605469 26.605469 26.605469h22.746094c4.140625 0 7.5-3.355469 7.5-7.5s-3.359375-7.5-7.5-7.5h-22.746094c-6.398437 0-11.605469-5.207031-11.605469-11.605469v-144.363281c0-6.398438 5.207032-11.605469 11.605469-11.605469h163.46875c6.398438 0 11.605469 5.207031 11.605469 11.605469v144.363281c0 6.398438-5.207031 11.605469-11.605469 11.605469h-108.0625c-4.144531 0-7.5 3.355469-7.5 7.5 0 4.140625 3.355469 7.5 7.5 7.5h108.0625c14.671875 0 26.605469-11.9375 26.605469-26.605469v-144.363281c0-13.277344-9.777344-24.3125-22.507812-26.289062zm-324.210938-224.355469c0-9.585938 7.800781-17.386719 17.386719-17.386719 9.585937 0 17.386719 7.800781 17.386719 17.386719 0 9.585937-7.800782 17.382812-17.386719 17.382812-9.585938 0-17.386719-7.796875-17.386719-17.382812zm202.472656 162.261719c0-19.800782 16.105469-35.90625 35.90625-35.90625 19.800782 0 35.90625 16.105468 35.90625 35.90625v61.777343h-71.8125zm-19.878906-65.148438c-15.152344 12.996094-25.746094 31.15625-28.992188 51.742188-2.410156.460937-4.875.695312-7.351562.695312h-176.453125v-77.609375h176.453125c16.214844 0 30.722656 10.199219 36.34375 25.171875zm-272.019531 145.046875v-77.609375h44.222656v77.609375zm0 15h44.222656v77.609375h-44.222656zm44.222656-185.21875v77.609375h-44.222656v-77.609375zm-105.078125 131.414063c0-21.398438 17.40625-38.804688 38.804688-38.804688h7.050781v77.609375h-7.050781c-21.398438 0-38.804688-17.40625-38.804688-38.804687zm0 92.609374c0-21.398437 17.40625-38.804687 38.804688-38.804687h7.050781v77.609375h-7.050781c-21.398438 0-38.804688-17.40625-38.804688-38.804688zm120.078125 38.804688v-77.609375h160.242187v20.722656c-3.667968-2.65625-8.171874-4.222656-13.039062-4.222656-12.296875 0-22.304688 10.003906-22.304688 22.304687 0 12.300782 10.007813 22.308594 22.304688 22.308594 4.867188 0 9.371094-1.570312 13.039062-4.226562v20.722656zm154.511719-38.804688c0 4.03125-3.277344 7.308594-7.308594 7.308594-4.027344 0-7.304688-3.277344-7.304688-7.308594s3.277344-7.304687 7.304688-7.304687c4.03125 0 7.308594 3.273437 7.308594 7.304687zm7.125-53.804687h-161.636719v-77.609375h176.453125c2.117188 0 4.222656.191406 6.296875.527344v59.277344c-9.886719 1.535156-17.984375 8.535156-21.113281 17.804687zm0 0"/><path d="m374.347656 370.113281c-.289062 9.050781 3.640625 17.671875 10.453125 23.40625v14.078125c0 6.992188 5.6875 12.679688 12.679688 12.679688h12.359375c6.992187 0 12.679687-5.6875 12.679687-12.679688v-14.066406c6.625-5.527344 10.46875-13.652344 10.46875-22.46875 0-8.042969-3.191406-15.546875-8.988281-21.128906-5.796875-5.582032-13.429688-8.492188-21.476562-8.175782-15.3125.582032-27.6875 13.035157-28.175782 28.355469zm28.746094-13.367187c3.941406-.148438 7.671875 1.269531 10.5 3.992187 2.835938 2.730469 4.394531 6.394531 4.394531 10.324219 0 5.035156-2.570312 9.613281-6.878906 12.242188-2.230469 1.359374-3.589844 3.785156-3.589844 6.398437v15.574219h-7.71875v-15.574219c0-2.613281-1.363281-5.039063-3.589843-6.398437-4.402344-2.6875-7.035157-7.5625-6.871094-12.714844.238281-7.480469 6.277344-13.5625 13.753906-13.84375zm0 0"/><path d="m390.835938 332.90625h25.648437c4.140625 0 7.5-3.355469 7.5-7.5s-3.359375-7.5-7.5-7.5h-25.648437c-4.144532 0-7.5 3.355469-7.5 7.5s3.355468 7.5 7.5 7.5zm0 0"/><path d="m390.835938 313.996094h25.648437c4.140625 0 7.5-3.355469 7.5-7.5 0-4.140625-3.359375-7.5-7.5-7.5h-25.648437c-4.144532 0-7.5 3.359375-7.5 7.5 0 4.144531 3.355468 7.5 7.5 7.5zm0 0"/></svg>