<svg height="512pt" viewBox="0 -2 512.001 512" width="512pt" xmlns="http://www.w3.org/2000/svg"><path d="m454.074219 372.738281c-10.003907-10.003906-26.222657-10.003906-36.230469 0l-68.53125 68.535157-140.925781-140.925782h-98.078125v121.316406h131.089844l65.195312 65.191407c18.121094 18.121093 47.417969 18.40625 65.886719.632812l81.242187-78.171875c10.335938-9.945312 10.492188-26.4375.351563-36.578125zm0 0" fill="#ffc299"/><path d="m7.5 273.5625h127.625v167.789062h-127.625zm0 0" fill="#50758e"/><path d="m97.160156 273.5625h37.964844v167.789062h-37.964844zm0 0" fill="#14f2d7"/><path d="m267.238281 300.347656h-105.082031l44.101562 58.066406h51.664063l43.027344 43.023438c11.496093 11.5 30.140625 11.5 41.636719 0 11.5-11.496094 11.5-30.140625 0-41.636719l-48.210938-48.210937c-7.195312-7.199219-16.957031-11.242188-27.136719-11.242188zm0 0" fill="#ffc299"/><path d="m461.273438 93.957031h-240.605469c-23.875 0-43.230469-19.355469-43.230469-43.226562 0-23.875 19.355469-43.230469 43.230469-43.230469h240.605469c23.871093 0 43.226562 19.355469 43.226562 43.230469 0 23.871093-19.355469 43.226562-43.226562 43.226562zm0 0" fill="#6b97af"/><path d="m504.503906 50.730469c0 11.9375-4.84375 22.75-12.664062 30.574219-7.824219 7.824218-18.625 12.65625-30.566406 12.65625h-28.667969c11.9375 0 22.742187-4.835938 30.5625-12.65625 7.824219-7.824219 12.667969-18.636719 12.667969-30.574219 0-23.878907-19.363282-43.230469-43.230469-43.230469h28.671875c23.867187 0 43.226562 19.351562 43.226562 43.230469zm0 0" fill="#50758e"/><path d="m234.25 7.5h55.289062v86.457031h-55.289062zm0 0" fill="#f8e98e"/><path d="m268.773438 7.5h20.765624v86.457031h-20.765624zm0 0" fill="#f6cb43"/><path d="m447.789062 50.730469c0 7.632812-6.1875 13.820312-13.824218 13.820312-7.632813 0-13.820313-6.1875-13.820313-13.820312 0-7.636719 6.1875-13.824219 13.820313-13.824219 7.636718 0 13.824218 6.1875 13.824218 13.824219zm0 0" fill="#f6cb43"/><path d="m461.273438 180.414062h-240.605469c-23.875 0-43.230469-19.355468-43.230469-43.226562 0-23.875 19.355469-43.230469 43.230469-43.230469h240.605469c23.871093 0 43.226562 19.355469 43.226562 43.230469s-19.355469 43.226562-43.226562 43.226562zm0 0" fill="#50758e"/><path d="m504.503906 137.1875c0 11.941406-4.84375 22.75-12.664062 30.574219-7.824219 7.824219-18.625 12.65625-30.566406 12.65625h-28.667969c11.9375 0 22.742187-4.832031 30.5625-12.65625 7.824219-7.824219 12.667969-18.632813 12.667969-30.574219 0-23.875-19.363282-43.230469-43.230469-43.230469h28.671875c23.867187 0 43.226562 19.351563 43.226562 43.230469zm0 0" fill="#2b597f"/><path d="m234.25 93.957031h55.289062v86.457031h-55.289062zm0 0" fill="#f6cb43"/><path d="m268.773438 93.957031h20.765624v86.457031h-20.765624zm0 0" fill="#fab03c"/><path d="m447.789062 137.1875c0 7.632812-6.1875 13.820312-13.824218 13.820312-7.632813 0-13.820313-6.1875-13.820313-13.820312 0-7.636719 6.1875-13.824219 13.820313-13.824219 7.636718 0 13.824218 6.1875 13.824218 13.824219zm0 0" fill="#fab03c"/><path d="m461.273438 266.871094h-240.605469c-23.875 0-43.230469-19.355469-43.230469-43.226563 0-23.875 19.355469-43.230469 43.230469-43.230469h240.605469c23.871093 0 43.226562 19.355469 43.226562 43.230469s-19.355469 43.226563-43.226562 43.226563zm0 0" fill="#6b97af"/><path d="m504.503906 223.644531c0 11.9375-4.84375 22.75-12.664062 30.574219-7.824219 7.824219-18.625 12.65625-30.566406 12.65625h-28.667969c11.9375 0 22.742187-4.832031 30.5625-12.65625 7.824219-7.824219 12.667969-18.636719 12.667969-30.574219 0-23.878906-19.363282-43.230469-43.230469-43.230469h28.671875c23.867187 0 43.226562 19.351563 43.226562 43.230469zm0 0" fill="#50758e"/><path d="m234.25 180.414062h55.289062v86.457032h-55.289062zm0 0" fill="#f8e98e"/><path d="m268.773438 180.414062h20.765624v86.457032h-20.765624zm0 0" fill="#f6cb43"/><path d="m447.789062 223.644531c0 7.632813-6.1875 13.820313-13.824218 13.820313-7.632813 0-13.820313-6.1875-13.820313-13.820313 0-7.636719 6.1875-13.824219 13.820313-13.824219 7.636718 0 13.824218 6.1875 13.824218 13.824219zm0 0" fill="#f6cb43"/><path d="m412.542969 367.433594-63.230469 63.234375-15.222656-15.226563c5.042968-1.773437 9.773437-4.671875 13.800781-8.699218 6.980469-6.976563 10.820313-16.253907 10.820313-26.121094 0-9.871094-3.84375-19.148438-10.820313-26.125l-48.207031-48.210938c-8.667969-8.664062-20.191406-13.4375-32.445313-13.4375h-124.613281v-19.285156c0-4.144531-3.359375-7.5-7.5-7.5h-127.625c-4.140625 0-7.5 3.355469-7.5 7.5 0 4.140625 3.359375 7.5 7.5 7.5h82.160156v152.789062h-82.160156c-4.140625 0-7.5 3.355469-7.5 7.5 0 4.144532 3.359375 7.5 7.5 7.5h127.625c4.140625 0 7.5-3.355468 7.5-7.5v-12.1875h29.046875c4.140625 0 7.5-3.355468 7.5-7.5 0-4.144531-3.359375-7.5-7.5-7.5h-29.046875v-106.316406h124.613281c8.25 0 16.003907 3.210938 21.835938 9.046875l48.210937 48.207031c4.144532 4.148438 6.425782 9.65625 6.425782 15.519532 0 5.859375-2.28125 11.371094-6.425782 15.515625-8.554687 8.558593-22.476562 8.558593-31.03125 0l-43.027344-43.027344c-2.929687-2.925781-7.679687-2.925781-10.605468 0-2.929688 2.929687-2.929688 7.679687 0 10.609375l43.023437 43.023438c5.269531 5.269531 11.746094 8.601562 18.546875 10.015624l29.816406 29.820313c1.410157 1.40625 3.316407 2.195313 5.304688 2.195313 1.992188 0 3.898438-.789063 5.304688-2.195313l68.53125-68.535156c7.066406-7.0625 18.5625-7.066407 25.625 0 3.46875 3.46875 5.355468 8.082031 5.308593 12.988281-.046875 4.902344-2.023437 9.476562-5.558593 12.878906l-81.238282 78.175782c-15.414062 14.832031-40.261718 14.59375-55.386718-.535157l-65.191407-65.191406c-1.40625-1.40625-3.316406-2.195313-5.304687-2.195313h-37.066406c-4.144532 0-7.5 3.359376-7.5 7.5 0 4.144532 3.355468 7.5 7.5 7.5h33.960937l62.992187 62.996094c10.164063 10.164063 23.675782 15.835938 38.046876 15.972656.179687.003907.359374.003907.539062.003907 14.171875 0 27.582031-5.402344 37.808594-15.242188l81.242187-78.175781c6.460938-6.214844 10.066407-14.578125 10.152344-23.542969.085937-8.96875-3.355469-17.398437-9.699219-23.738281-12.914062-12.914062-33.921875-12.914062-46.835937-.003906zm-284.917969 66.417968h-22.964844v-152.789062h22.964844zm0 0"/><path d="m66.558594 418.339844c4.140625 0 7.5-3.355469 7.5-7.5 0-4.140625-3.359375-7.5-7.5-7.5h-.121094c-4.144531 0-7.5 3.359375-7.5 7.5 0 4.144531 3.355469 7.5 7.5 7.5zm0 0"/><path d="m455.289062 50.730469c0-11.757813-9.566406-21.324219-21.324218-21.324219-11.753906 0-21.320313 9.566406-21.320313 21.324219 0 11.757812 9.566407 21.320312 21.320313 21.320312 11.757812 0 21.324218-9.566406 21.324218-21.320312zm-27.644531 0c0-3.488281 2.835938-6.324219 6.320313-6.324219 3.488281 0 6.324218 2.835938 6.324218 6.324219 0 3.484375-2.835937 6.320312-6.324218 6.320312-3.484375 0-6.320313-2.835937-6.320313-6.320312zm0 0"/><path d="m373.402344 51.765625c0 4.140625 3.355468 7.5 7.5 7.5h.105468c4.140626 0 7.5-3.359375 7.5-7.5 0-4.144531-3.359374-7.5-7.5-7.5h-.105468c-4.144532 0-7.5 3.355469-7.5 7.5zm0 0"/><path d="m355.304688 44.265625c-4.144532 0-7.5 3.355469-7.5 7.5 0 4.140625 3.355468 7.5 7.5 7.5h.105468c4.140625 0 7.5-3.359375 7.5-7.5 0-4.144531-3.359375-7.5-7.5-7.5zm0 0"/><path d="m329.707031 44.265625c-4.144531 0-7.5 3.355469-7.5 7.5 0 4.140625 3.355469 7.5 7.5 7.5h.105469c4.140625 0 7.5-3.359375 7.5-7.5 0-4.144531-3.359375-7.5-7.5-7.5zm0 0"/><path d="m512 137.1875c0-18.261719-9.699219-34.292969-24.21875-43.230469 14.519531-8.933593 24.21875-24.96875 24.21875-43.226562 0-27.972657-22.757812-50.730469-50.730469-50.730469h-57.9375c-4.140625 0-7.5 3.359375-7.5 7.5 0 4.144531 3.359375 7.5 7.5 7.5h57.941407c19.699218 0 35.726562 16.027344 35.726562 35.730469 0 19.699219-16.027344 35.726562-35.726562 35.726562h-164.234376v-71.457031h73.636719c4.140625 0 7.5-3.355469 7.5-7.5 0-4.140625-3.359375-7.5-7.5-7.5h-150.007812c-27.972657 0-50.730469 22.757812-50.730469 50.730469 0 18.257812 9.703125 34.292969 24.21875 43.226562-14.515625 8.9375-24.21875 24.96875-24.21875 43.230469 0 18.257812 9.703125 34.292969 24.21875 43.226562-14.515625 8.9375-24.21875 24.96875-24.21875 43.230469 0 27.972657 22.757812 50.726563 50.730469 50.726563h157.003906c4.144531 0 7.5-3.355469 7.5-7.5 0-4.140625-3.355469-7.5-7.5-7.5h-80.632813v-71.457032h164.230469c19.703125 0 35.730469 16.027344 35.730469 35.730469 0 19.699219-16.027344 35.726563-35.730469 35.726563h-50.933593c-4.144532 0-7.503907 3.359375-7.503907 7.503906 0 4.140625 3.359375 7.5 7.503907 7.5h50.9375c27.96875 0 50.726562-22.757812 50.726562-50.730469 0-18.261719-9.699219-34.292969-24.214844-43.226562 14.515625-8.9375 24.214844-24.972657 24.214844-43.230469zm-270.25-35.730469h40.289062v71.457031h-40.289062zm40.289062-15h-40.289062v-71.457031h40.289062zm-97.101562-35.726562c0-19.703125 16.027344-35.730469 35.730469-35.730469h6.082031v71.457031h-6.082031c-19.703125 0-35.730469-16.027343-35.730469-35.726562zm0 86.457031c0-19.703125 16.027344-35.730469 35.730469-35.730469h6.082031v71.457031h-6.082031c-19.703125 0-35.730469-16.027343-35.730469-35.726562zm0 86.457031c0-19.703125 16.027344-35.730469 35.730469-35.730469h6.082031v71.457032h-6.082031c-19.703125 0-35.730469-16.027344-35.730469-35.726563zm56.8125 35.726563v-71.457032h40.289062v71.457032zm219.523438-86.457032h-164.234376v-71.457031h164.234376c19.699218 0 35.726562 16.027344 35.726562 35.730469 0 19.699219-16.027344 35.726562-35.726562 35.726562zm0 0"/><path d="m433.964844 115.863281c-11.753906 0-21.320313 9.5625-21.320313 21.324219 0 11.753906 9.566407 21.320312 21.320313 21.320312 11.757812 0 21.324218-9.566406 21.324218-21.320312 0-11.757812-9.566406-21.324219-21.324218-21.324219zm0 27.644531c-3.484375 0-6.320313-2.835937-6.320313-6.320312 0-3.488281 2.835938-6.324219 6.320313-6.324219 3.488281 0 6.324218 2.835938 6.324218 6.324219 0 3.484375-2.835937 6.320312-6.324218 6.320312zm0 0"/><path d="m381.007812 130.722656h-.105468c-4.144532 0-7.5 3.355469-7.5 7.5 0 4.140625 3.355468 7.5 7.5 7.5h.105468c4.144532 0 7.5-3.359375 7.5-7.5 0-4.144531-3.359374-7.5-7.5-7.5zm0 0"/><path d="m355.410156 130.722656h-.105468c-4.144532 0-7.5 3.355469-7.5 7.5 0 4.140625 3.355468 7.5 7.5 7.5h.105468c4.140625 0 7.5-3.359375 7.5-7.5 0-4.144531-3.359375-7.5-7.5-7.5zm0 0"/><path d="m329.8125 130.722656h-.105469c-4.144531 0-7.5 3.355469-7.5 7.5 0 4.140625 3.355469 7.5 7.5 7.5h.105469c4.144531 0 7.5-3.359375 7.5-7.5 0-4.144531-3.359375-7.5-7.5-7.5zm0 0"/><path d="m455.289062 223.644531c0-11.757812-9.566406-21.324219-21.324218-21.324219-11.753906 0-21.320313 9.566407-21.320313 21.324219 0 11.757813 9.566407 21.320313 21.320313 21.320313 11.757812 0 21.324218-9.5625 21.324218-21.320313zm-27.644531 0c0-3.488281 2.835938-6.324219 6.320313-6.324219 3.488281 0 6.324218 2.835938 6.324218 6.324219 0 3.484375-2.835937 6.320313-6.324218 6.320313-3.484375 0-6.320313-2.835938-6.320313-6.320313zm0 0"/><path d="m381.007812 217.175781h-.105468c-4.144532 0-7.5 3.359375-7.5 7.5 0 4.144531 3.355468 7.503907 7.5 7.503907h.105468c4.144532 0 7.5-3.359376 7.5-7.503907 0-4.140625-3.359374-7.5-7.5-7.5zm0 0"/><path d="m355.304688 217.175781c-4.144532 0-7.5 3.359375-7.5 7.5 0 4.144531 3.355468 7.503907 7.5 7.503907h.105468c4.140625 0 7.5-3.359376 7.5-7.503907 0-4.140625-3.359375-7.5-7.5-7.5zm0 0"/><path d="m329.707031 217.175781c-4.144531 0-7.5 3.359375-7.5 7.5 0 4.144531 3.355469 7.503907 7.5 7.503907h.105469c4.140625 0 7.5-3.359376 7.5-7.503907 0-4.140625-3.359375-7.5-7.5-7.5zm0 0"/></svg>