<svg height="512pt" viewBox="0 -14 512 512" width="512pt" xmlns="http://www.w3.org/2000/svg"><path d="m431.84375 147.101562c-14.980469-79.476562-84.757812-139.601562-168.585938-139.601562-92.582031 0-168.023437 73.335938-171.4375 165.082031-46.984374 2.484375-84.320312 41.363281-84.320312 88.96875 0 49.207031 39.890625 89.097657 89.097656 89.097657h303.6875c57.558594 0 104.214844-46.660157 104.214844-104.214844 0-46.550782-30.527344-85.960938-72.65625-99.332032zm0 0" fill="#2ee0fd"/><path d="m504.5 246.4375c0 47.539062-31.839844 87.648438-75.351562 100.160156 21.429687-19.082031 34.921874-46.882812 34.921874-77.832031 0-46.550781-30.53125-85.960937-72.648437-99.339844-14.980469-79.46875-84.761719-139.589843-168.59375-139.589843-21.828125 0-42.699219 4.078124-61.898437 11.511718 28.558593-21.273437 63.980468-33.851562 102.332031-33.851562 83.828125 0 153.597656 60.128906 168.589843 139.601562 42.117188 13.367188 72.648438 52.789063 72.648438 99.339844zm0 0" fill="#27bef4"/><path d="m383.355469 292.933594h-254.714844c-25.277344 0-45.765625-20.488282-45.765625-45.765625 0-25.273438 20.488281-45.761719 45.765625-45.761719h254.714844c25.273437 0 45.761719 20.488281 45.761719 45.761719 0 25.277343-20.488282 45.765625-45.761719 45.765625zm0 0" fill="#f1eded"/><path d="m429.125 247.171875c0 12.636719-5.128906 24.085937-13.410156 32.367187s-19.714844 13.398438-32.355469 13.398438h-30.351563c12.640626 0 24.074219-5.117188 32.355469-13.398438 8.285157-8.28125 13.410157-19.730468 13.410157-32.367187 0-25.277344-20.496094-45.765625-45.765626-45.765625h30.351563c25.269531 0 45.765625 20.484375 45.765625 45.765625zm0 0" fill="#dad0cd"/><path d="m143.019531 201.40625h58.53125v91.527344h-58.53125zm0 0" fill="#ff97bd"/><path d="m179.566406 201.40625h21.984375v91.527344h-21.984375zm0 0" fill="#fc6393"/><path d="m369.082031 247.167969c0 8.082031-6.550781 14.636719-14.632812 14.636719s-14.632813-6.554688-14.632813-14.636719 6.550782-14.632813 14.632813-14.632813 14.632812 6.550782 14.632812 14.632813zm0 0" fill="#fc6393"/><path d="m383.355469 384.460938h-254.714844c-25.277344 0-45.765625-20.488282-45.765625-45.765626 0-25.273437 20.488281-45.761718 45.765625-45.761718h254.714844c25.273437 0 45.761719 20.488281 45.761719 45.761718 0 25.277344-20.488282 45.765626-45.761719 45.765626zm0 0" fill="#dad0cd"/><path d="m429.125 338.699219c0 12.636719-5.128906 24.085937-13.410156 32.367187s-19.714844 13.398438-32.355469 13.398438h-30.351563c12.640626 0 24.074219-5.117188 32.355469-13.398438 8.285157-8.285156 13.410157-19.730468 13.410157-32.367187 0-25.277344-20.496094-45.765625-45.765626-45.765625h30.351563c25.269531 0 45.765625 20.488281 45.765625 45.765625zm0 0" fill="#c1bab8"/><path d="m143.019531 292.933594h58.53125v91.527344h-58.53125zm0 0" fill="#fc6393"/><path d="m179.566406 292.933594h21.984375v91.527344h-21.984375zm0 0" fill="#f2256f"/><path d="m369.082031 338.695312c0 8.082032-6.550781 14.636719-14.632812 14.636719s-14.632813-6.554687-14.632813-14.636719c0-8.082031 6.550782-14.632812 14.632813-14.632812s14.632812 6.550781 14.632812 14.632812zm0 0" fill="#f2256f"/><path d="m383.355469 475.988281h-254.714844c-25.277344 0-45.765625-20.488281-45.765625-45.761719 0-25.277343 20.488281-45.765624 45.765625-45.765624h254.714844c25.273437 0 45.761719 20.488281 45.761719 45.765624 0 25.273438-20.488282 45.761719-45.761719 45.761719zm0 0" fill="#f1eded"/><path d="m429.125 430.226562c0 12.636719-5.128906 24.085938-13.410156 32.367188s-19.714844 13.398438-32.355469 13.398438h-30.351563c12.640626 0 24.074219-5.117188 32.355469-13.398438 8.285157-8.28125 13.410157-19.730469 13.410157-32.367188 0-25.277343-20.496094-45.765624-45.765626-45.765624h30.351563c25.269531 0 45.765625 20.488281 45.765625 45.765624zm0 0" fill="#dad0cd"/><path d="m143.019531 384.460938h58.53125v91.527343h-58.53125zm0 0" fill="#ff97bd"/><path d="m179.566406 384.460938h21.984375v91.527343h-21.984375zm0 0" fill="#fc6393"/><path d="m369.082031 430.226562c0 8.082032-6.550781 14.632813-14.632812 14.632813s-14.632813-6.550781-14.632813-14.632813c0-8.082031 6.550782-14.636718 14.632813-14.636718s14.632812 6.554687 14.632812 14.636718zm0 0" fill="#fc6393"/><path d="m279.707031 92.128906c0 13.09375-10.613281 23.707032-23.707031 23.707032s-23.707031-10.613282-23.707031-23.707032 10.613281-23.707031 23.707031-23.707031 23.707031 10.613281 23.707031 23.707031zm0 0" fill="#f1eded"/><path d="m489.988281 179.847656c-13.21875-17.773437-31.007812-31.003906-51.644531-38.460937-3.152344-14.730469-8.089844-28.714844-14.542969-41.757813h53.480469c4.144531 0 7.5-3.359375 7.5-7.5 0-4.144531-3.355469-7.5-7.5-7.5h-61.816406c-31.894532-51.328125-88.78125-84.628906-152.207032-84.628906-29.246093 0-58.273437 7.214844-83.941406 20.863281-3.660156 1.941407-5.046875 6.484375-3.101562 10.140625 1.941406 3.660156 6.484375 5.050782 10.140625 3.101563 23.511719-12.5 50.101562-19.105469 76.902343-19.105469 54.789063 0 104.242188 27.121094 134.210938 69.628906h-111.179688c-3.367187-13.597656-15.667968-23.707031-30.289062-23.707031s-26.921875 10.109375-30.289062 23.707031h-96.578126c8.585938-12.191406 18.871094-23.285156 30.679688-32.894531 3.210938-2.613281 3.699219-7.335937 1.082031-10.550781-2.613281-3.210938-7.335937-3.699219-10.550781-1.085938-15.621094 12.710938-28.8125 27.800782-39.203125 44.53125h-76.421875c-4.144531 0-7.5 3.355469-7.5 7.5 0 4.140625 3.355469 7.5 7.5 7.5h68.078125c-10.144531 20.472656-16.375 42.871094-18.101563 66.050782-48.007812 5.886718-84.695312 46.761718-84.695312 95.871093 0 23.199219 8.347656 45.628907 23.503906 63.15625 14.261719 16.492188 33.660156 27.660157 54.914063 31.714844 4.179687 11.804687 12.40625 21.710937 23.007812 28.039063-15.585937 9.304687-26.050781 26.332031-26.050781 45.765624 0 29.367188 23.894531 53.261719 53.265625 53.261719h111.03125c4.140625 0 7.5-3.355469 7.5-7.5 0-4.140625-3.359375-7.5-7.5-7.5h-30.621094v-76.527343h174.304688c21.097656 0 38.265625 17.167968 38.265625 38.265624 0 21.097657-17.167969 38.265626-38.265625 38.265626h-111.027344c-4.140625 0-7.5 3.355468-7.5 7.5 0 4.140624 3.359375 7.5 7.5 7.5h111.027344c29.371093 0 53.261719-23.894532 53.261719-53.265626 0-19.433593-10.464844-36.460937-26.050782-45.765624 11.695313-6.976563 20.492188-18.304688 24.164063-31.734376 15.183593-4.921874 29.421875-13.242187 41.21875-24.113281 3.046875-2.804687 3.242187-7.550781.4375-10.597656-2.808594-3.046875-7.550781-3.238281-10.597657-.433594-8.527343 7.855469-18.523437 14.175781-29.234374 18.523438-.882813-18.347657-11.097657-34.285157-25.988282-43.171875 15.585938-9.304688 26.050782-26.332032 26.050782-45.765625 0-29.371094-23.890626-53.265625-53.261719-53.265625h-254.714844c-29.371094 0-53.265625 23.894531-53.265625 53.265625 0 19.433593 10.464844 36.460937 26.050781 45.765625-15.585937 9.300781-26.050781 26.332031-26.050781 45.761718 0 .554688.023438 1.105469.042969 1.65625-15.652344-4.207031-29.832031-13.039062-40.566407-25.457031-12.800781-14.800781-19.851562-33.746093-19.851562-53.34375 0-43.398437 33.917969-79.1875 77.214844-81.480469 3.875-.203124 6.957031-3.332031 7.101562-7.210937.964844-25.945313 8.09375-50.980469 20.417969-73.230469h105.976563c2.773437 11.199219 11.609374 20.03125 22.8125 22.796875-.007813.164063-.023438.332031-.023438.5v45.488281c0 4.140626 3.355469 7.5 7.5 7.5s7.5-3.359374 7.5-7.5v-45.488281c0-.167969-.015625-.335937-.023438-.5 11.203126-2.765625 20.039063-11.597656 22.8125-22.796875h120.582032c8.265625 14.929688 14.304687 31.351563 17.605468 48.859375.507813 2.710938 2.46875 4.925781 5.097657 5.757813 40.328125 12.804687 67.425781 49.851562 67.425781 92.1875 0 16.519531-4.242188 32.828125-12.265625 47.160156-2.019531 3.613281-.730469 8.183594 2.882813 10.207031 1.160156.648438 2.414062.957031 3.65625.957031 2.625 0 5.175781-1.382812 6.550781-3.835937 9.273437-16.566406 14.175781-35.40625 14.175781-54.488281 0-24.195313-7.609375-47.21875-22.011719-66.585938zm-295.9375 120.585938v76.527344h-43.53125v-76.527344zm0-15h-43.53125v-76.527344h43.53125zm-103.675781 144.789062c0-21.097656 17.164062-38.261718 38.265625-38.261718h6.878906v76.527343h-6.878906c-21.101563 0-38.265625-17.164062-38.265625-38.265625zm60.144531 38.265625v-76.527343h43.53125v76.527343zm271.097657-129.792969c0 21.101563-17.164063 38.265626-38.261719 38.265626h-174.304688v-76.527344h174.304688c21.097656 0 38.261719 17.164062 38.261719 38.261718zm0-91.527343c0 21.101562-17.164063 38.265625-38.261719 38.265625h-174.304688v-76.527344h174.304688c21.097656 0 38.261719 17.164062 38.261719 38.261719zm-331.242188 0c0-21.097657 17.164062-38.261719 38.265625-38.261719h6.878906v76.527344h-6.878906c-21.101563 0-38.265625-17.164063-38.265625-38.265625zm38.265625 53.265625h6.878906v76.527344h-6.878906c-21.101563 0-38.265625-17.164063-38.265625-38.265626 0-21.097656 17.164062-38.261718 38.265625-38.261718zm127.359375-192.097656c-8.9375 0-16.207031-7.269532-16.207031-16.207032s7.269531-16.207031 16.207031-16.207031 16.207031 7.269531 16.207031 16.207031-7.269531 16.207032-16.207031 16.207032zm0 0"/><path d="m354.449219 269.304688c12.203125 0 22.132812-9.929688 22.132812-22.136719 0-12.203125-9.929687-22.132813-22.132812-22.132813-12.207031 0-22.132813 9.929688-22.132813 22.132813 0 12.207031 9.925782 22.136719 22.132813 22.136719zm0-29.269532c3.933593 0 7.132812 3.199219 7.132812 7.132813 0 3.933593-3.199219 7.136719-7.132812 7.136719-3.933594 0-7.132813-3.203126-7.132813-7.136719 0-3.933594 3.199219-7.132813 7.132813-7.132813zm0 0"/><path d="m298.273438 255.765625h.109374c4.144532 0 7.5-3.359375 7.5-7.5 0-4.144531-3.355468-7.5-7.5-7.5h-.109374c-4.144532 0-7.5 3.355469-7.5 7.5 0 4.140625 3.355468 7.5 7.5 7.5zm0 0"/><path d="m271.171875 255.765625h.113281c4.144532 0 7.5-3.359375 7.5-7.5 0-4.144531-3.355468-7.5-7.5-7.5h-.113281c-4.140625 0-7.5 3.355469-7.5 7.5 0 4.140625 3.359375 7.5 7.5 7.5zm0 0"/><path d="m244.074219 255.765625h.109375c4.144531 0 7.5-3.359375 7.5-7.5 0-4.144531-3.355469-7.5-7.5-7.5h-.109375c-4.144531 0-7.5 3.355469-7.5 7.5 0 4.140625 3.355469 7.5 7.5 7.5zm0 0"/><path d="m354.449219 360.832031c12.203125 0 22.132812-9.929687 22.132812-22.136719 0-12.203124-9.929687-22.132812-22.132812-22.132812-12.207031 0-22.132813 9.929688-22.132813 22.132812 0 12.207032 9.925782 22.136719 22.132813 22.136719zm0-29.269531c3.933593 0 7.132812 3.199219 7.132812 7.132812 0 3.9375-3.199219 7.136719-7.132812 7.136719-3.933594 0-7.132813-3.199219-7.132813-7.136719 0-3.933593 3.199219-7.132812 7.132813-7.132812zm0 0"/><path d="m298.273438 347.292969h.109374c4.144532 0 7.5-3.359375 7.5-7.5 0-4.144531-3.355468-7.5-7.5-7.5h-.109374c-4.144532 0-7.5 3.355469-7.5 7.5 0 4.140625 3.355468 7.5 7.5 7.5zm0 0"/><path d="m271.171875 347.292969h.113281c4.144532 0 7.5-3.359375 7.5-7.5 0-4.144531-3.355468-7.5-7.5-7.5h-.113281c-4.140625 0-7.5 3.355469-7.5 7.5 0 4.140625 3.359375 7.5 7.5 7.5zm0 0"/><path d="m244.074219 347.292969h.109375c4.144531 0 7.5-3.359375 7.5-7.5 0-4.144531-3.355469-7.5-7.5-7.5h-.109375c-4.144531 0-7.5 3.355469-7.5 7.5 0 4.140625 3.355469 7.5 7.5 7.5zm0 0"/><path d="m376.582031 430.226562c0-12.207031-9.929687-22.136718-22.132812-22.136718-12.207031 0-22.132813 9.929687-22.132813 22.136718 0 12.203126 9.925782 22.132813 22.132813 22.132813 12.203125 0 22.132812-9.929687 22.132812-22.132813zm-29.265625 0c0-3.9375 3.199219-7.136718 7.132813-7.136718 3.933593 0 7.132812 3.199218 7.132812 7.136718 0 3.929688-3.199219 7.132813-7.132812 7.132813-3.933594 0-7.132813-3.203125-7.132813-7.132813zm0 0"/><path d="m298.386719 438.820312c4.140625 0 7.5-3.355468 7.5-7.5 0-4.144531-3.359375-7.5-7.5-7.5h-.113281c-4.144532 0-7.5 3.355469-7.5 7.5 0 4.144532 3.355468 7.5 7.5 7.5zm0 0"/><path d="m271.171875 438.820312h.113281c4.144532 0 7.5-3.355468 7.5-7.5 0-4.144531-3.355468-7.5-7.5-7.5h-.113281c-4.140625 0-7.5 3.355469-7.5 7.5 0 4.144532 3.359375 7.5 7.5 7.5zm0 0"/><path d="m244.1875 423.820312h-.113281c-4.144531 0-7.5 3.355469-7.5 7.5 0 4.144532 3.355469 7.5 7.5 7.5h.113281c4.140625 0 7.5-3.355468 7.5-7.5 0-4.144531-3.359375-7.5-7.5-7.5zm0 0"/></svg>