<svg height="511pt" viewBox="0 1 511 511.999" width="511pt" xmlns="http://www.w3.org/2000/svg"><path d="m496.585938 191.949219-18.652344-3.75c-16.800782-3.378907-30.648438-15.027344-37.179688-30.859375-.070312-.179688-.148437-.347656-.210937-.519532-6.617188-15.878906-5.128907-33.960937 4.390625-48.28125l10.53125-15.839843c2.53125-3.808594 2.03125-8.867188-1.199219-12.097657l-23.082031-23.082031c-3.230469-3.230469-8.289063-3.730469-12.089844-1.199219l-15.839844 10.53125c-14.320312 9.519532-32.410156 11.007813-48.289062 4.398438-.171875-.070312-.339844-.148438-.519532-.210938-15.832031-6.527343-27.480468-20.390624-30.863281-37.1875l-3.75-18.652343c-.898437-4.480469-4.828125-7.699219-9.410156-7.699219h-32.628906c-4.570313 0-8.511719 3.21875-9.410157 7.699219l-3.75 18.652343c-3.378906 16.796876-15.03125 30.660157-30.859374 37.1875-.179688.0625-.351563.140626-.519532.210938-15.882812 6.609375-33.960937 5.121094-48.28125-4.398438l-15.851562-10.53125c-3.796875-2.53125-8.859375-2.03125-12.089844 1.199219l-23.078125 23.082031c-3.230469 3.230469-3.730469 8.289063-1.199219 12.097657l10.527344 15.839843c9.519531 14.320313 11.011719 32.402344 4.402344 48.28125-.070313.171876-.152344.339844-.222656.519532-6.527344 15.832031-20.378907 27.480468-37.179688 30.859375l-18.648438 3.75c-4.480468.902343-7.699218 4.84375-7.699218 9.410156v32.632813c0 4.578124 3.21875 8.507812 7.699218 9.417968l18.648438 3.742188c16.800781 3.390625 30.652344 15.027344 37.179688 30.871094.070312.167968.152343.339843.222656.507812 6.609375 15.878906 5.117187 33.96875-4.402344 48.289062l-10.527344 15.839844c-2.53125 3.800782-2.03125 8.863282 1.199219 12.09375l23.078125 23.078125c3.230469 3.238281 8.292969 3.730469 12.089844 1.210938l15.851562-10.53125c14.320313-9.53125 32.398438-11.019531 48.28125-4.398438.167969.058594.339844.140625.519532.207031 15.828124 6.53125 27.480468 20.382813 30.859374 37.183594l3.75 18.648438c.898438 4.480468 4.839844 7.699218 9.410157 7.699218h32.628906c4.582031 0 8.511719-3.21875 9.410156-7.699218l3.75-18.648438c3.382813-16.800781 15.03125-30.652344 30.863281-37.183594.179688-.066406.347657-.148437.519532-.207031 4.308594-1.800781 8.789062-3 13.308594-3.601562 12.121093-1.621094 24.550781 1.058593 34.980468 8l15.839844 10.53125c3.800781 2.519531 8.859375 2.027343 12.089844-1.210938l23.082031-23.078125c3.230469-3.230468 3.730469-8.292968 1.199219-12.09375l-10.53125-15.839844c-9.519532-14.320312-11.007813-32.410156-4.390625-48.289062.0625-.167969.140625-.339844.210937-.507812 6.53125-15.84375 20.378906-27.480469 37.179688-30.871094l18.652344-3.742188c4.476562-.910156 7.699218-4.839844 7.699218-9.417968v-32.632813c0-4.566406-3.222656-8.507813-7.699218-9.410156zm-132.832032 59.082031c-12.4375 25.941406-38.949218 43.851562-69.640625 43.851562-42.640625 0-77.210937-34.5625-77.210937-77.203124 0-.539063.011718-1.070313.019531-1.597657.851563-41.902343 35.09375-75.609375 77.191406-75.609375 42.640625 0 77.203125 34.570313 77.203125 77.207032-.003906 11.953124-2.710937 23.261718-7.5625 33.351562zm0 0" fill="#50758e"/><path d="m368.273438 360.511719c-4.519532.601562-9 1.800781-13.308594 3.601562-.171875.058594-.339844.140625-.519532.207031-15.832031 6.53125-27.480468 20.382813-30.859374 37.183594l-3.75 18.648438c-.902344 4.480468-4.832032 7.699218-9.410157 7.699218h-32.632812c-4.570313 0-8.507813-3.21875-9.410157-7.699218l-3.75-18.648438c-3.378906-16.800781-15.027343-30.652344-30.859374-37.183594-.179688-.066406-.347657-.148437-.519532-.207031-15.878906-6.621093-33.960937-5.132812-48.28125 4.398438l-15.847656 10.53125c-3.800781 2.519531-8.863281 2.027343-12.089844-1.210938l-23.082031-23.078125c-3.230469-3.230468-3.730469-8.292968-1.199219-12.09375l10.53125-15.839844c9.519532-14.320312 11.007813-32.410156 4.398438-48.289062-.070313-.167969-.148438-.339844-.21875-.507812-6.53125-15.84375-20.382813-27.480469-37.183594-30.871094l-18.648438-3.742188c-4.480468-.910156-7.699218-4.839844-7.699218-9.417968v-17.910157h132.988281c-.007813.527344-.019531 1.058594-.019531 1.597657 0 42.640624 34.570312 77.203124 77.210937 77.203124 30.691407 0 57.203125-17.910156 69.640625-43.851562 3.101563 7.089844 4.8125 14.910156 4.8125 23.121094 0 18.75-8.941406 35.441406-22.78125 46.070312 12.398438 9.507813 20.871094 23.910156 22.488282 40.289063zm0 0" fill="#2b597f"/><path d="m310.492188 320.21875h-256.421876c-25.445312 0-46.070312-20.625-46.070312-46.070312 0-25.445313 20.625-46.070313 46.070312-46.070313h256.421876c25.441406 0 46.070312 20.625 46.070312 46.070313 0 25.445312-20.628906 46.070312-46.070312 46.070312zm0 0" fill="#f1eded"/><path d="m356.566406 274.148438c0 12.726562-5.160156 24.25-13.496094 32.585937-8.335937 8.335937-19.851562 13.488281-32.574218 13.488281h-30.554688c12.726563 0 24.238282-5.152344 32.574219-13.488281s13.496094-19.859375 13.496094-32.585937c0-25.445313-20.632813-46.070313-46.070313-46.070313h30.554688c25.433594 0 46.070312 20.625 46.070312 46.070313zm0 0" fill="#dad0cd"/><path d="m68.546875 228.078125h58.921875v92.140625h-58.921875zm0 0" fill="#f8e98e"/><path d="m105.339844 228.078125h22.128906v92.140625h-22.128906zm0 0" fill="#f6cb43"/><path d="m296.125 274.148438c0 8.136718-6.597656 14.730468-14.734375 14.730468s-14.730469-6.59375-14.730469-14.730468c0-8.136719 6.59375-14.730469 14.730469-14.730469s14.734375 6.59375 14.734375 14.730469zm0 0" fill="#f6cb43"/><path d="m310.492188 412.359375h-256.421876c-25.445312 0-46.070312-20.625-46.070312-46.070313 0-25.445312 20.625-46.070312 46.070312-46.070312h256.421876c25.441406 0 46.070312 20.625 46.070312 46.070312 0 25.445313-20.628906 46.070313-46.070312 46.070313zm0 0" fill="#dad0cd"/><path d="m356.566406 366.289062c0 12.726563-5.160156 24.25-13.496094 32.585938-8.335937 8.335938-19.851562 13.488281-32.574218 13.488281h-30.554688c12.726563 0 24.238282-5.152343 32.574219-13.488281s13.496094-19.859375 13.496094-32.585938c0-25.445312-20.632813-46.070312-46.070313-46.070312h30.554688c25.433594 0 46.070312 20.625 46.070312 46.070312zm0 0" fill="#c1bab8"/><path d="m68.546875 320.21875h58.921875v92.140625h-58.921875zm0 0" fill="#f6cb43"/><path d="m105.339844 320.21875h22.128906v92.140625h-22.128906zm0 0" fill="#fab03c"/><path d="m296.125 366.289062c0 8.136719-6.597656 14.730469-14.734375 14.730469s-14.730469-6.59375-14.730469-14.730469c0-8.136718 6.59375-14.730468 14.730469-14.730468s14.734375 6.59375 14.734375 14.730468zm0 0" fill="#fab03c"/><path d="m310.492188 504.5h-256.421876c-25.445312 0-46.070312-20.625-46.070312-46.070312 0-25.445313 20.625-46.070313 46.070312-46.070313h256.421876c25.441406 0 46.070312 20.625 46.070312 46.070313 0 25.445312-20.628906 46.070312-46.070312 46.070312zm0 0" fill="#f1eded"/><path d="m356.566406 458.429688c0 12.726562-5.160156 24.25-13.496094 32.585937-8.335937 8.335937-19.851562 13.488281-32.574218 13.488281h-30.554688c12.726563 0 24.238282-5.152344 32.574219-13.488281s13.496094-19.859375 13.496094-32.585937c0-25.445313-20.632813-46.070313-46.070313-46.070313h30.554688c25.433594 0 46.070312 20.625 46.070312 46.070313zm0 0" fill="#dad0cd"/><path d="m68.546875 412.359375h58.921875v92.140625h-58.921875zm0 0" fill="#f8e98e"/><path d="m105.339844 412.359375h22.128906v92.140625h-22.128906zm0 0" fill="#f6cb43"/><path d="m296.125 458.429688c0 8.136718-6.597656 14.730468-14.734375 14.730468s-14.730469-6.59375-14.730469-14.730468c0-8.136719 6.59375-14.730469 14.730469-14.730469s14.734375 6.59375 14.734375 14.730469zm0 0" fill="#f6cb43"/><path d="m498.0625 184.601562-18.648438-3.753906c-8.96875-1.804687-17.027343-6.359375-23.300781-13.164062-2.808593-3.046875-7.554687-3.242188-10.597656-.433594-3.046875 2.808594-3.238281 7.550781-.433594 10.597656 8.433594 9.148438 19.28125 15.269532 31.371094 17.703125l18.648437 3.753907c.976563.195312 1.683594 1.0625 1.683594 2.058593v32.632813c0 .996094-.707031 1.859375-1.683594 2.054687l-18.648437 3.753907c-19.160156 3.855468-35.097656 17.074218-42.628906 35.34375l-.210938.507812c-7.644531 18.359375-5.746093 39.039062 5.082031 55.316406l10.527344 15.839844c.550782.828125.441406 1.941406-.261718 2.644531l-23.074219 23.074219c-.707031.703125-1.820313.816406-2.648438.265625l-15.835937-10.53125c-13.226563-8.796875-29.265625-11.71875-44.800782-8.359375-3.398437-14.289062-12.523437-26.375-24.816406-33.683594 15.714844-9.347656 26.277344-26.496094 26.277344-46.070312 0-2.675782-.203125-5.304688-.585938-7.875 10.03125-14.285156 15.339844-31.050782 15.339844-48.597656 0-46.707032-38-84.707032-84.707031-84.707032-17.808594 0-34.863281 5.484375-49.324219 15.859375-3.363281 2.414063-4.136718 7.101563-1.71875 10.464844 2.414063 3.367187 7.101563 4.136719 10.464844 1.722656 11.894531-8.535156 25.925781-13.046875 40.578125-13.046875 38.4375 0 69.707031 31.269532 69.707031 69.707032 0 10.527343-2.324218 20.710937-6.777344 30.011718-9.230468-16.175781-26.628906-27.109375-46.550781-27.109375h-86.011719c-.042968-.96875-.074218-1.9375-.074218-2.902343 0-12.199219 3.214844-24.222657 9.300781-34.769532 2.070313-3.589844.839844-8.175781-2.746094-10.246094-3.589843-2.070312-8.175781-.839843-10.246093 2.746094-7.398438 12.824219-11.308594 27.441406-11.308594 42.269532 0 .964843.039062 1.933593.074218 2.902343h-118.042968v-19.222656c0-.992187.707031-1.859375 1.679687-2.054687l18.652344-3.753907c19.160156-3.855469 35.097656-17.074219 42.632813-35.355469l.203124-.492187c7.648438-18.359375 5.746094-39.042969-5.078124-55.320313l-10.527344-15.839843c-.554688-.828125-.441406-1.9375.261718-2.640625l23.074219-23.078125c.703125-.703125 1.8125-.8125 2.644531-.261719l15.839844 10.53125c16.277344 10.824219 36.960938 12.722656 55.308594 5.082031l.503906-.207031c18.28125-7.539062 31.5-23.476562 35.355469-42.636719l3.753906-18.648437c.195313-.976563 1.0625-1.683594 2.054688-1.683594h32.636719c.996093 0 1.859374.707031 2.054687 1.683594l3.753906 18.648437c3.855469 19.160157 17.074219 35.097657 35.34375 42.628907l.503907.210937c18.363281 7.644531 39.042968 5.742187 55.320312-5.078125l15.839844-10.53125c.828125-.550781 1.941406-.441406 2.644531.261719l23.074219 23.078125c.703125.703125.8125 1.8125.265625 2.644531l-10.53125 15.835937c-7.671875 11.535157-10.953125 25.570313-9.238281 39.519532.507812 4.113281 4.253906 7.035156 8.359374 6.53125 4.109376-.507813 7.035157-4.25 6.527344-8.359375-1.277344-10.394531 1.152344-20.828125 6.839844-29.386719l10.53125-15.835938c4.492188-6.753906 3.589844-15.820312-2.144531-21.558593l-23.078125-23.074219c-5.734375-5.738281-14.804688-6.640625-21.554688-2.144531l-15.839844 10.527343c-12.101562 8.046876-27.519531 9.441407-41.257812 3.71875l-.53125-.222656c-13.644531-5.621094-23.503906-17.480468-26.367188-31.722656l-3.753906-18.652344c-1.605468-7.953125-8.652344-13.722656-16.765625-13.722656h-32.632812c-8.109375 0-15.160157 5.769531-16.761719 13.722656l-3.753906 18.652344c-2.867188 14.242188-12.722656 26.101562-26.367188 31.726562l-.542968.222657c-13.726563 5.714843-29.144532 4.328125-41.246094-3.722657l-15.839844-10.527343c-6.753906-4.492188-15.820312-3.589844-21.558594 2.144531l-23.074218 23.074219c-5.734376 5.738281-6.636719 14.804687-2.144532 21.558593l10.53125 15.839844c8.042969 12.097656 9.4375 27.519532 3.714844 41.257813l-.21875.53125c-5.625 13.644531-17.484375 23.5-31.726562 26.367187l-18.652344 3.753906c-7.949219 1.601563-13.722656 8.648438-13.722656 16.761719v19.214844h-22.359376c-29.539062 0-53.570312 24.03125-53.570312 53.570313 0 19.574218 10.558594 36.722656 26.277344 46.070312-15.71875 9.347656-26.277344 26.496094-26.277344 46.070312 0 19.574219 10.558594 36.722657 26.277344 46.070313-15.71875 9.347656-26.277344 26.496094-26.277344 46.070313 0 29.539062 24.03125 53.570312 53.570312 53.570312h121.742188c4.144531 0 7.5-3.359375 7.5-7.5 0-4.144531-3.355469-7.5-7.5-7.5h-40.84375v-77.140625h175.523438c21.265624 0 38.566406 17.300781 38.566406 38.570313 0 21.265624-17.300782 38.566406-38.566406 38.566406h-102.019532c-4.140625 0-7.5 3.359375-7.5 7.5 0 4.144531 3.359375 7.5 7.5 7.5h102.019532c29.539062 0 53.570312-24.027344 53.570312-53.570313 0-19.574219-10.558594-36.722656-26.277344-46.066406 14.996094-8.917969 25.292969-24.933594 26.210938-43.386719 12.128906-3.132812 24.789062-1.078125 35.105468 5.78125l15.835938 10.53125c2.875 1.910156 6.171875 2.84375 9.449219 2.84375 4.421875 0 8.8125-1.699218 12.105469-4.992187l23.074218-23.074219c5.738282-5.738281 6.640625-14.800781 2.148438-21.558594l-10.53125-15.839844c-8.042969-12.101562-9.4375-27.519531-3.714844-41.257812l.21875-.53125c5.625-13.644531 17.484375-23.5 31.726562-26.367188l18.648438-3.753906c7.953125-1.601562 13.726562-8.648437 13.726562-16.761718v-32.632813c0-8.109375-5.773437-15.160156-13.726562-16.757813zm-149 89.546876c0 21.265624-17.304688 38.570312-38.570312 38.570312h-175.523438v-77.140625h175.523438c21.265624 0 38.570312 17.300781 38.570312 38.570313zm-229.09375-38.570313v77.140625h-43.921875v-77.140625zm-43.921875 92.140625h43.921875v77.140625h-43.921875zm-60.546875-53.570312c0-21.269532 17.300781-38.570313 38.570312-38.570313h6.976563v77.140625h-6.976563c-21.269531 0-38.570312-17.304688-38.570312-38.570312zm0 92.140624c0-21.269531 17.300781-38.570312 38.570312-38.570312h6.976563v77.140625h-6.976563c-21.269531 0-38.570312-17.300781-38.570312-38.570313zm0 92.140626c0-21.269532 17.300781-38.570313 38.570312-38.570313h6.976563v77.140625h-6.976563c-21.269531 0-38.570312-17.304688-38.570312-38.570312zm60.546875 38.570312v-77.140625h43.921875v77.140625zm234.445313-92.140625h-175.523438v-77.140625h175.523438c21.265624 0 38.570312 17.300781 38.570312 38.570312 0 21.265626-17.304688 38.570313-38.570312 38.570313zm0 0"/><path d="m286.609375 112.421875c0 4.144531 3.355469 7.5 7.5 7.5 53.902344 0 97.753906 43.855469 97.753906 97.757813 0 4.140624 3.359375 7.5 7.5 7.5 4.144531 0 7.5-3.359376 7.5-7.5 0-62.175782-50.582031-112.757813-112.753906-112.757813-4.140625 0-7.5 3.359375-7.5 7.5zm0 0"/><path d="m281.390625 296.378906c12.261719 0 22.234375-9.972656 22.234375-22.230468 0-12.257813-9.976562-22.230469-22.234375-22.230469s-22.230469 9.972656-22.230469 22.230469c0 12.257812 9.972656 22.230468 22.230469 22.230468zm0-29.460937c3.988281 0 7.234375 3.242187 7.234375 7.230469 0 3.984374-3.246094 7.230468-7.234375 7.230468-3.984375 0-7.230469-3.246094-7.230469-7.230468 0-3.988282 3.242188-7.230469 7.230469-7.230469zm0 0"/><path d="m224.839844 282.75h.113281c4.140625 0 7.5-3.355469 7.5-7.5 0-4.140625-3.359375-7.5-7.5-7.5h-.113281c-4.144532 0-7.5 3.359375-7.5 7.5 0 4.144531 3.355468 7.5 7.5 7.5zm0 0"/><path d="m197.558594 282.75h.113281c4.140625 0 7.5-3.355469 7.5-7.5 0-4.140625-3.359375-7.5-7.5-7.5h-.113281c-4.144532 0-7.5 3.359375-7.5 7.5 0 4.144531 3.355468 7.5 7.5 7.5zm0 0"/><path d="m170.277344 282.75h.113281c4.140625 0 7.5-3.355469 7.5-7.5 0-4.140625-3.359375-7.5-7.5-7.5h-.113281c-4.144532 0-7.5 3.359375-7.5 7.5 0 4.144531 3.355468 7.5 7.5 7.5zm0 0"/><path d="m281.390625 344.058594c-12.257813 0-22.230469 9.972656-22.230469 22.230468 0 12.257813 9.972656 22.230469 22.230469 22.230469s22.234375-9.972656 22.234375-22.230469c0-12.257812-9.976562-22.230468-22.234375-22.230468zm0 29.460937c-3.984375 0-7.230469-3.242187-7.230469-7.230469 0-3.984374 3.246094-7.230468 7.230469-7.230468 3.988281 0 7.234375 3.246094 7.234375 7.230468 0 3.988282-3.246094 7.230469-7.234375 7.230469zm0 0"/><path d="m225.015625 359.890625h-.113281c-.019532 0-.042969 0-.0625 0-4.113282 0-7.464844 3.316406-7.5 7.4375-.035156 4.140625 3.292968 7.527344 7.4375 7.5625h.113281.0625c4.113281 0 7.464844-3.3125 7.5-7.433594.035156-4.140625-3.292969-7.527343-7.4375-7.566406zm0 0"/><path d="m197.734375 359.890625h-.113281c-.019532 0-.042969 0-.0625 0-4.113282 0-7.464844 3.316406-7.5 7.4375-.035156 4.140625 3.292968 7.527344 7.433594 7.5625h.113281.066406c4.113281 0 7.460937-3.3125 7.5-7.433594.035156-4.140625-3.292969-7.527343-7.4375-7.566406zm0 0"/><path d="m170.453125 359.890625h-.113281c-.019532 0-.042969 0-.0625 0-4.113282 0-7.464844 3.316406-7.5 7.4375-.035156 4.140625 3.292968 7.527344 7.4375 7.5625h.113281.0625c4.113281 0 7.464844-3.3125 7.5-7.433594.035156-4.140625-3.292969-7.527343-7.4375-7.566406zm0 0"/><path d="m303.625 458.429688c0-12.257813-9.976562-22.230469-22.234375-22.230469s-22.230469 9.972656-22.230469 22.230469c0 12.257812 9.972656 22.230468 22.230469 22.230468s22.234375-9.972656 22.234375-22.230468zm-29.464844 0c0-3.988282 3.242188-7.230469 7.230469-7.230469s7.230469 3.242187 7.230469 7.230469c0 3.988281-3.242188 7.230468-7.230469 7.230468s-7.230469-3.242187-7.230469-7.230468zm0 0"/><path d="m224.953125 467.03125c4.140625 0 7.5-3.355469 7.5-7.5s-3.359375-7.5-7.5-7.5h-.113281c-4.144532 0-7.5 3.355469-7.5 7.5s3.355468 7.5 7.5 7.5zm0 0"/><path d="m205.171875 459.53125c0-4.144531-3.359375-7.5-7.5-7.5h-.113281c-4.144532 0-7.5 3.355469-7.5 7.5s3.355468 7.5 7.5 7.5h.113281c4.140625 0 7.5-3.355469 7.5-7.5zm0 0"/><path d="m170.277344 452.03125c-4.144532 0-7.5 3.355469-7.5 7.5s3.355468 7.5 7.5 7.5h.113281c4.140625 0 7.5-3.355469 7.5-7.5s-3.359375-7.5-7.5-7.5zm0 0"/><path d="m392.175781 443.929688h25.621094c4.140625 0 7.5-3.355469 7.5-7.5 0-4.144532-3.359375-7.5-7.5-7.5h-25.621094c-4.144531 0-7.5 3.355468-7.5 7.5 0 4.144531 3.355469 7.5 7.5 7.5zm0 0"/><path d="m463.796875 450.929688h-71.621094c-4.144531 0-7.5 3.355468-7.5 7.5 0 4.144531 3.355469 7.5 7.5 7.5h71.621094c4.140625 0 7.5-3.355469 7.5-7.5 0-4.144532-3.359375-7.5-7.5-7.5zm0 0"/><path d="m463.796875 472.929688h-71.621094c-4.144531 0-7.5 3.355468-7.5 7.5 0 4.144531 3.355469 7.5 7.5 7.5h71.621094c4.140625 0 7.5-3.355469 7.5-7.5 0-4.144532-3.359375-7.5-7.5-7.5zm0 0"/></svg>