<svg height="512pt" viewBox="-26 0 512 512" width="512pt" xmlns="http://www.w3.org/2000/svg"><path d="m441.691406 284.347656h-289.632812c-5.746094 0-10.402344-4.65625-10.402344-10.398437v-256.050781c0-5.742188 4.65625-10.398438 10.402344-10.398438h289.632812c5.746094 0 10.398438 4.65625 10.398438 10.398438v256.050781c.003906 5.742187-4.652344 10.398437-10.398438 10.398437zm0 0" fill="#f1eded"/><path d="m452.089844 17.90625v256.042969c0 5.742187-4.648438 10.402343-10.398438 10.402343h-30.164062c5.753906 0 10.402344-4.660156 10.402344-10.402343v-256.042969c0-5.753906-4.648438-10.402344-10.402344-10.402344h30.164062c5.75 0 10.398438 4.648438 10.398438 10.402344zm0 0" fill="#dad0cd"/><path d="m452.089844 17.90625v46.289062h-310.429688v-46.289062c0-5.753906 4.648438-10.402344 10.398438-10.402344h289.628906c5.753906 0 10.402344 4.648438 10.402344 10.402344zm0 0" fill="#27bef4"/><path d="m452.089844 17.90625v46.289062h-30.160156v-46.289062c0-5.753906-4.648438-10.402344-10.402344-10.402344h30.164062c5.75 0 10.398438 4.648438 10.398438 10.402344zm0 0" fill="#209ced"/><path d="m256.449219 7.503906v56.691406h-114.789063v-46.289062c0-5.753906 4.648438-10.402344 10.398438-10.402344zm0 0" fill="#fc6393"/><path d="m374.613281 394.425781h-289.636719c-5.742187 0-10.398437-4.65625-10.398437-10.402343v-256.046876c0-5.746093 4.65625-10.402343 10.398437-10.402343h289.636719c5.742188 0 10.398438 4.65625 10.398438 10.402343v256.046876c0 5.746093-4.652344 10.402343-10.398438 10.402343zm0 0" fill="#f1eded"/><path d="m385.011719 127.980469v256.046875c0 5.738281-4.648438 10.398437-10.402344 10.398437h-30.160156c5.75 0 10.398437-4.660156 10.398437-10.398437v-256.046875c0-5.753907-4.648437-10.402344-10.398437-10.402344h30.160156c5.753906 0 10.402344 4.648437 10.402344 10.402344zm0 0" fill="#dad0cd"/><path d="m385.011719 127.980469v46.292969h-310.429688v-46.292969c0-5.753907 4.648438-10.402344 10.398438-10.402344h289.628906c5.753906 0 10.402344 4.648437 10.402344 10.402344zm0 0" fill="#27bef4"/><path d="m385.011719 127.980469v46.292969h-30.164063v-46.292969c0-5.753907-4.648437-10.402344-10.398437-10.402344h30.160156c5.753906 0 10.402344 4.648437 10.402344 10.402344zm0 0" fill="#209ced"/><path d="m189.371094 117.578125v56.695313h-114.789063v-46.292969c0-5.753907 4.648438-10.402344 10.398438-10.402344zm0 0" fill="#00e2c7"/><path d="m307.535156 504.5h-289.636718c-5.742188 0-10.398438-4.65625-10.398438-10.398438v-256.050781c0-5.742187 4.65625-10.398437 10.398438-10.398437h289.636718c5.742188 0 10.398438 4.65625 10.398438 10.398437v256.050781c0 5.742188-4.65625 10.398438-10.398438 10.398438zm0 0" fill="#f1eded"/><path d="m317.929688 238.054688v256.046874c0 5.742188-4.648438 10.402344-10.398438 10.402344h-30.160156c5.75 0 10.398437-4.660156 10.398437-10.402344v-256.046874c0-5.75-4.648437-10.398438-10.398437-10.398438h30.160156c5.753906 0 10.398438 4.648438 10.398438 10.398438zm0 0" fill="#dad0cd"/><path d="m317.929688 238.054688v46.292968h-310.425782v-46.292968c0-5.75 4.648438-10.398438 10.398438-10.398438h289.628906c5.753906 0 10.398438 4.648438 10.398438 10.398438zm0 0" fill="#27bef4"/><path d="m317.929688 238.054688v46.292968h-30.160157v-46.292968c0-5.75-4.648437-10.398438-10.398437-10.398438h30.160156c5.753906 0 10.398438 4.648438 10.398438 10.398438zm0 0" fill="#209ced"/><path d="m122.289062 227.65625v56.691406h-114.785156v-46.292968c0-5.75 4.648438-10.398438 10.398438-10.398438zm0 0" fill="#197ae5"/><path d="m50.671875 323.589844h223.316406v63.304687h-223.316406zm0 0" fill="#00e2c7"/><path d="m441.691406 0h-289.632812c-9.871094 0-17.902344 8.03125-17.902344 17.898438v92.175781h-49.179688c-9.867187 0-17.898437 8.03125-17.898437 17.898437v92.175782h-49.179687c-9.867188 0-17.898438 8.03125-17.898438 17.902343v155.621094c0 4.140625 3.359375 7.5 7.5 7.5s7.5-3.359375 7.5-7.5v-101.828125h295.433594v202.257812c0 1.597657-1.300782 2.898438-2.898438 2.898438h-289.636718c-1.597657 0-2.898438-1.300781-2.898438-2.898438v-67.769531c0-4.144531-3.359375-7.5-7.5-7.5s-7.5 3.355469-7.5 7.5v67.769531c0 9.867188 8.03125 17.898438 17.898438 17.898438h289.636718c9.871094 0 17.898438-8.03125 17.898438-17.898438v-92.175781h49.179687c9.871094 0 17.902344-8.03125 17.902344-17.902343v-28.691407c0-4.144531-3.359375-7.5-7.5-7.5-4.144531 0-7.5 3.355469-7.5 7.5v28.691407c0 1.601562-1.300781 2.898437-2.902344 2.898437h-49.179687v-148.871094c0-9.871093-8.027344-17.898437-17.898438-17.898437h-225.457031v-38.382813h295.433594v140.902344c0 4.140625 3.359375 7.5 7.5 7.5 4.144531 0 7.5-3.359375 7.5-7.5v-30.820313h49.179687c9.871094 0 17.902344-8.03125 17.902344-17.902343v-256.050781c0-9.867188-8.03125-17.898438-17.902344-17.898438zm-426.691406 238.050781c0-1.601562 1.300781-2.898437 2.898438-2.898437h96.890624v41.691406h-99.789062zm295.433594 0v38.792969h-180.644532v-41.691406h177.746094c1.597656-.003906 2.898438 1.296875 2.898438 2.898437zm134.160156-220.152343v38.796874h-180.644531v-41.695312h177.742187c1.601563 0 2.902344 1.300781 2.902344 2.898438zm-292.535156-2.898438h96.890625v41.695312h-99.792969v-38.796874c0-1.597657 1.300781-2.898438 2.902344-2.898438zm-69.980469 112.976562c0-1.601562 1.300781-2.902343 2.898437-2.902343h96.894532v41.695312h-99.792969zm359.613281 148.875h-49.179687v-148.875c0-9.871093-8.027344-17.902343-17.898438-17.902343h-109.484375c-4.144531 0-7.5 3.359375-7.5 7.5 0 4.144531 3.355469 7.5 7.5 7.5h109.484375c1.597657 0 2.898438 1.300781 2.898438 2.902343v38.792969h-180.640625v-41.695312h35.59375c4.144531 0 7.5-3.355469 7.5-7.5 0-4.140625-3.355469-7.5-7.5-7.5h-83.308594v-38.378907h295.4375v202.253907c0 1.601562-1.300781 2.902343-2.902344 2.902343zm0 0"/><path d="m177.390625 43.347656c4.140625 0 7.5-3.359375 7.5-7.5 0-4.144531-3.359375-7.5-7.5-7.5h-.09375c-4.140625 0-7.453125 3.355469-7.453125 7.5 0 4.140625 3.402344 7.5 7.546875 7.5zm0 0"/><path d="m198.71875 43.335938c4.140625 0 7.5-3.359376 7.5-7.5 0-4.144532-3.359375-7.5-7.5-7.5h-.09375c-4.140625 0-7.453125 3.355468-7.453125 7.5 0 4.140624 3.40625 7.5 7.546875 7.5zm0 0"/><path d="m220.046875 43.324219c4.140625 0 7.5-3.355469 7.5-7.5s-3.359375-7.5-7.5-7.5h-.09375c-4.140625 0-7.453125 3.355469-7.453125 7.5s3.40625 7.5 7.546875 7.5zm0 0"/><path d="m110.3125 138.421875h-.09375c-4.140625 0-7.453125 3.355469-7.453125 7.5 0 4.140625 3.402344 7.5 7.546875 7.5 4.140625 0 7.5-3.359375 7.5-7.5 0-4.144531-3.359375-7.5-7.5-7.5zm0 0"/><path d="m131.71875 138.410156h-.089844c-.027344 0-.054687 0-.082031 0-4.105469 0-7.410156 3.304688-7.453125 7.421875-.042969 4.140625 3.324219 7.535157 7.464844 7.578125h.082031c4.105469 0 7.457031-3.304687 7.5-7.421875.042969-4.140625-3.28125-7.535156-7.421875-7.578125zm0 0"/><path d="m153.046875 138.398438h-.089844c-.027343 0-.054687 0-.082031 0-4.105469 0-7.410156 3.308593-7.453125 7.421874-.042969 4.140626 3.324219 7.535157 7.464844 7.578126h.082031c4.105469 0 7.457031-3.304688 7.5-7.417969.042969-4.144531-3.277344-7.535157-7.421875-7.582031zm0 0"/><path d="m43.230469 248.496094h-.089844c-4.140625 0-7.453125 3.355468-7.453125 7.5 0 4.144531 3.402344 7.5 7.542969 7.5 4.144531 0 7.5-3.355469 7.5-7.5 0-4.144532-3.355469-7.5-7.5-7.5zm0 0"/><path d="m64.5625 248.484375h-.09375c-4.140625 0-7.453125 3.359375-7.453125 7.5 0 4.144531 3.402344 7.5 7.546875 7.5 4.140625 0 7.5-3.355469 7.5-7.5 0-4.140625-3.359375-7.5-7.5-7.5zm0 0"/><path d="m85.890625 248.476562h-.09375c-4.140625 0-7.453125 3.355469-7.453125 7.5 0 4.140626 3.402344 7.5 7.546875 7.5 4.140625 0 7.5-3.359374 7.5-7.5 0-4.144531-3.359375-7.5-7.5-7.5zm0 0"/><path d="m50.671875 394.394531h223.316406c4.144531 0 7.5-3.355469 7.5-7.5v-63.304687c0-4.140625-3.355469-7.5-7.5-7.5h-223.316406c-4.144531 0-7.5 3.359375-7.5 7.5v63.304687c0 4.144531 3.355469 7.5 7.5 7.5zm7.5-63.304687h208.316406v48.304687h-208.316406zm0 0"/><path d="m50.671875 423.621094h223.316406c4.144531 0 7.5-3.355469 7.5-7.5 0-4.140625-3.355469-7.5-7.5-7.5h-223.316406c-4.144531 0-7.5 3.359375-7.5 7.5 0 4.144531 3.355469 7.5 7.5 7.5zm0 0"/><path d="m50.671875 445.945312h223.316406c4.144531 0 7.5-3.359374 7.5-7.5 0-4.144531-3.355469-7.5-7.5-7.5h-223.316406c-4.144531 0-7.5 3.355469-7.5 7.5 0 4.140626 3.355469 7.5 7.5 7.5zm0 0"/><path d="m50.671875 468.265625h223.316406c4.144531 0 7.5-3.355469 7.5-7.5 0-4.140625-3.355469-7.5-7.5-7.5h-223.316406c-4.144531 0-7.5 3.359375-7.5 7.5 0 4.144531 3.355469 7.5 7.5 7.5zm0 0"/></svg>