<svg height="512pt" viewBox="0 -96 512.001 512" width="512pt" xmlns="http://www.w3.org/2000/svg"><path d="m474.351562 26.347656v246.371094c0 10.398438-8.441406 18.828125-18.832031 18.828125h-399.019531c-6.851562 0-12.828125-3.636719-16.121094-9.097656-1.730468-2.832031-2.707031-6.160157-2.707031-9.730469v-246.371094c0-10.410156 8.417969-18.847656 18.828125-18.847656h399.019531c10.390625 0 18.832031 8.4375 18.832031 18.847656zm0 0" fill="#f6cb43"/><path d="m155 7.5v284.046875h-98.5c-6.851562 0-12.828125-3.636719-16.121094-9.097656-1.730468-2.832031-2.707031-6.160157-2.707031-9.730469v-246.371094c0-10.410156 8.417969-18.847656 18.828125-18.847656zm0 0" fill="#209ced"/><path d="m127 7.5h28v284.046875h-28zm0 0" fill="#197ae5"/><path d="m474.335938 27.683594v243.683594c0 11.148437-7.863282 20.183593-17.574219 20.183593h-26.316407c9.707032 0 17.570313-9.035156 17.570313-20.183593v-243.683594c0-11.152344-7.863281-20.183594-17.570313-20.183594h26.316407c9.710937 0 17.574219 9.035156 17.574219 20.183594zm0 0" fill="#fab03c"/><path d="m504.5 268.710938v22.359374c0 11.503907-9.324219 20.828126-20.824219 20.828126h-455.351562c-11.5 0-20.824219-9.324219-20.824219-20.828126v-22.359374c0-5.523438 4.476562-10 10-10h158.679688l12.496093 10.621093h134.648438l12.496093-10.621093h158.679688c5.523438 0 10 4.476562 10 10zm0 0" fill="#6b97af"/><path d="m504.5 273.597656v17.472656c0 11.5-9.320312 20.828126-20.820312 20.828126h-455.359376c-11.5 0-20.820312-9.328126-20.820312-20.828126v-17.472656c0 11.5 9.320312 20.820313 20.820312 20.820313h455.359376c11.5 0 20.820312-9.320313 20.820312-20.820313zm0 0" fill="#50758e"/><path d="m416.953125 183.949219h-211.5c-5.523437 0-10-4.476563-10-10v-28.5c0-5.523438 4.476563-10 10-10h211.5c5.523437 0 10 4.476562 10 10v28.5c0 5.523437-4.476563 10-10 10zm0 0" fill="#209ced"/><path d="m395.332031 15h60.171875c6.25 0 11.332032 5.085938 11.332032 11.332031v105.035157c0 4.144531 3.359374 7.5 7.5 7.5 4.140624 0 7.5-3.355469 7.5-7.5v-105.035157c0-14.519531-11.8125-26.332031-26.332032-26.332031h-60.171875c-4.144531 0-7.5 3.359375-7.5 7.5 0 4.144531 3.355469 7.5 7.5 7.5zm0 0"/><path d="m494.5 251.210938h-12.664062v-87.183594c0-4.140625-3.359376-7.5-7.5-7.5-4.144532 0-7.5 3.359375-7.5 7.5v87.183594h-131.015626c-1.78125 0-3.5.632812-4.855468 1.785156l-10.394532 8.835937h-76.238281c-4.144531 0-7.5 3.355469-7.5 7.5 0 4.140625 3.355469 7.5 7.5 7.5h78.992188c1.78125 0 3.503906-.632812 4.859375-1.785156l10.394531-8.835937h39.589844v7.132812c0 4.144531 3.355469 7.5 7.5 7.5 4.140625 0 7.5-3.355469 7.5-7.5v-7.132812h7.667969v7.132812c0 4.144531 3.355468 7.5 7.5 7.5 4.140624 0 7.5-3.355469 7.5-7.5v-7.132812h7.664062v7.132812c0 4.144531 3.359375 7.5 7.5 7.5 4.144531 0 7.5-3.355469 7.5-7.5v-7.132812h56c1.378906 0 2.5 1.121093 2.5 2.5v22.359374c0 7.347657-5.976562 13.328126-13.324219 13.328126h-455.351562c-7.347657 0-13.324219-5.980469-13.324219-13.328126v-22.359374c0-1.378907 1.121094-2.5 2.5-2.5h155.921875l10.394531 8.835937c1.355469 1.152344 3.078125 1.785156 4.855469 1.785156h22.996094c4.144531 0 7.5-3.359375 7.5-7.5 0-4.144531-3.355469-7.5-7.5-7.5h-20.238281l-10.394532-8.835937c-1.355468-1.152344-3.078125-1.785156-4.855468-1.785156h-13.679688v-236.210938h200.167969c4.144531 0 7.5-3.355469 7.5-7.5 0-4.140625-3.355469-7.5-7.5-7.5h-306.175781c-14.519532 0-26.332032 11.8125-26.332032 26.332031v224.878907h-12.660156c-9.648438 0-17.5 7.851562-17.5 17.5v22.359374c0 15.621094 12.707031 28.328126 28.324219 28.328126h455.351562c15.617188 0 28.324219-12.707032 28.324219-28.328126v-22.359374c0-9.652344-7.851562-17.5-17.5-17.5zm-449.339844-224.878907c0-6.246093 5.082032-11.332031 11.332032-11.332031h91.007812v236.210938h-102.339844zm0 0"/><path d="m71.667969 69.992188h13.332031c4.140625 0 7.5-3.355469 7.5-7.5 0-4.144532-3.359375-7.5-7.5-7.5h-13.332031c-4.144531 0-7.5 3.355468-7.5 7.5 0 4.144531 3.355469 7.5 7.5 7.5zm0 0"/><path d="m71.667969 100.199219h55.332031c4.140625 0 7.5-3.359375 7.5-7.5 0-4.144531-3.359375-7.5-7.5-7.5h-55.332031c-4.144531 0-7.5 3.355469-7.5 7.5 0 4.140625 3.355469 7.5 7.5 7.5zm0 0"/><path d="m127 104.660156h-55.332031c-4.144531 0-7.5 3.355469-7.5 7.5 0 4.144532 3.355469 7.5 7.5 7.5h55.332031c4.140625 0 7.5-3.355468 7.5-7.5 0-4.144531-3.359375-7.5-7.5-7.5zm0 0"/><path d="m78.332031 138.960938c-4.140625 0-7.5 3.355468-7.5 7.5v83.570312c0 4.144531 3.359375 7.5 7.5 7.5 4.144531 0 7.5-3.355469 7.5-7.5v-83.570312c0-4.144532-3.355469-7.5-7.5-7.5zm0 0"/><path d="m206.671875 110.292969h1.496094c10.320312 0 18.71875-8.398438 18.71875-18.71875v-15.863281c0-10.320313-8.398438-18.71875-18.71875-18.71875h-1.496094c-10.324219 0-18.71875 8.398437-18.71875 18.71875v15.863281c0 10.320312 8.398437 18.71875 18.71875 18.71875zm-3.71875-34.582031c0-2.050782 1.667969-3.71875 3.71875-3.71875h1.496094c2.050781 0 3.71875 1.667968 3.71875 3.71875v15.863281c0 2.050781-1.667969 3.71875-3.71875 3.71875h-1.496094c-2.050781 0-3.71875-1.667969-3.71875-3.71875zm0 0"/><path d="m286.699219 110.292969c10.320312 0 18.71875-8.398438 18.71875-18.71875v-15.863281c0-10.320313-8.398438-18.71875-18.71875-18.71875h-1.496094c-10.320313 0-18.71875 8.398437-18.71875 18.71875v15.863281c0 10.320312 8.398437 18.71875 18.71875 18.71875zm-5.214844-18.71875v-15.863281c0-2.050782 1.667969-3.71875 3.71875-3.71875h1.496094c2.050781 0 3.71875 1.667968 3.71875 3.71875v15.863281c0 2.050781-1.667969 3.71875-3.71875 3.71875h-1.496094c-2.050781 0-3.71875-1.667969-3.71875-3.71875zm0 0"/><path d="m331.761719 110.292969c10.320312 0 18.71875-8.398438 18.71875-18.71875v-15.863281c0-10.320313-8.398438-18.71875-18.71875-18.71875h-1.496094c-10.324219 0-18.71875 8.398437-18.71875 18.71875v15.863281c0 10.320312 8.394531 18.71875 18.71875 18.71875zm-5.214844-18.71875v-15.863281c0-2.050782 1.667969-3.71875 3.71875-3.71875h1.496094c2.050781 0 3.71875 1.667968 3.71875 3.71875v15.863281c0 2.050781-1.667969 3.71875-3.71875 3.71875h-1.496094c-2.050781 0-3.71875-1.667969-3.71875-3.71875zm0 0"/><path d="m356.609375 75.710938v15.863281c0 10.320312 8.394531 18.71875 18.71875 18.71875h1.496094c10.320312 0 18.71875-8.398438 18.71875-18.71875v-15.863281c0-10.320313-8.398438-18.71875-18.71875-18.71875h-1.496094c-10.324219 0-18.71875 8.398437-18.71875 18.71875zm15 0c0-2.050782 1.667969-3.71875 3.71875-3.71875h1.496094c2.046875 0 3.71875 1.667968 3.71875 3.71875v15.863281c0 2.050781-1.667969 3.71875-3.71875 3.71875h-1.496094c-2.050781 0-3.71875-1.667969-3.71875-3.71875zm0 0"/><path d="m238.085938 95.292969c-4.144532 0-7.5 3.355469-7.5 7.5 0 4.140625 3.355468 7.5 7.5 7.5h18.695312c4.144531 0 7.5-3.359375 7.5-7.5 0-4.144531-3.355469-7.5-7.5-7.5h-1.847656v-30.800781c0-4.144532-3.359375-7.5-7.5-7.5h-9.347656c-4.144532 0-7.5 3.355468-7.5 7.5 0 4.144531 3.355468 7.5 7.5 7.5h1.847656v23.300781zm0 0"/><path d="m408.257812 95.292969c-4.144531 0-7.5 3.355469-7.5 7.5 0 4.140625 3.355469 7.5 7.5 7.5h18.695313c4.144531 0 7.5-3.359375 7.5-7.5 0-4.144531-3.355469-7.5-7.5-7.5h-1.847656v-30.800781c0-4.144532-3.359375-7.5-7.5-7.5h-9.347657c-4.144531 0-7.5 3.355468-7.5 7.5 0 4.144531 3.355469 7.5 7.5 7.5h1.847657v23.300781zm0 0"/><path d="m434.453125 173.949219v-28.5c0-9.652344-7.851563-17.5-17.5-17.5h-211.5c-9.648437 0-17.5 7.847656-17.5 17.5v28.5c0 9.648437 7.851563 17.5 17.5 17.5h211.5c9.652344 0 17.5-7.851563 17.5-17.5zm-231.5 0v-28.5c0-1.378907 1.121094-2.5 2.5-2.5h211.5c1.378906 0 2.5 1.121093 2.5 2.5v28.5c0 1.378906-1.121094 2.5-2.5 2.5h-211.5c-1.378906 0-2.5-1.121094-2.5-2.5zm0 0"/><path d="m195.453125 203.777344c-4.140625 0-7.5 3.359375-7.5 7.5 0 4.144531 3.359375 7.5 7.5 7.5h23.933594c4.140625 0 7.5-3.355469 7.5-7.5 0-4.140625-3.359375-7.5-7.5-7.5zm0 0"/><path d="m403.636719 218.777344h23.933593c4.144532 0 7.5-3.355469 7.5-7.5 0-4.140625-3.355468-7.5-7.5-7.5h-23.933593c-4.140625 0-7.5 3.359375-7.5 7.5 0 4.144531 3.359375 7.5 7.5 7.5zm0 0"/></svg>