<svg height="512pt" viewBox="0 -96 512 512" width="512pt" xmlns="http://www.w3.org/2000/svg"><path d="m474.351562 26.347656v246.371094c0 10.398438-8.441406 18.828125-18.832031 18.828125h-399.019531c-6.851562 0-12.828125-3.640625-16.121094-9.097656-1.730468-2.832031-2.707031-6.160157-2.707031-9.730469v-246.371094c0-10.410156 8.417969-18.851562 18.828125-18.851562h399.019531c10.390625 0 18.832031 8.441406 18.832031 18.851562zm0 0" fill="#14f2d7"/><path d="m474.335938 27.683594v243.683594c0 11.148437-7.863282 20.183593-17.574219 20.183593h-26.316407c9.707032 0 17.570313-9.035156 17.570313-20.183593v-243.683594c0-11.152344-7.863281-20.183594-17.570313-20.183594h26.316407c9.710937 0 17.574219 9.03125 17.574219 20.183594zm0 0" fill="#00e2c7"/><path d="m504.5 268.710938v22.359374c0 11.5-9.324219 20.824219-20.824219 20.824219h-455.351562c-11.5 0-20.824219-9.320312-20.824219-20.824219v-22.359374c0-5.523438 4.476562-10 10-10h158.679688l12.496093 10.617187h134.648438l12.496093-10.617187h158.679688c5.523438 0 10 4.476562 10 10zm0 0" fill="#6b97af"/><path d="m504.5 273.597656v17.46875c0 11.5-9.320312 20.832032-20.820312 20.832032h-455.359376c-11.5 0-20.820312-9.332032-20.820312-20.832032v-17.46875c0 11.5 9.320312 20.820313 20.820312 20.820313h455.359376c11.5 0 20.820312-9.320313 20.820312-20.820313zm0 0" fill="#50758e"/><path d="m394.332031 139.683594h-276.664062c-5.523438 0-10-4.480469-10-10v-76.550782c0-5.523437 4.476562-10 10-10h276.667969c5.519531 0 10 4.476563 10 10v76.550782c-.003907 5.519531-4.480469 10-10.003907 10zm0 0" fill="#f1eded"/><path d="m404.328125 53.136719v76.542969c0 5.527343-4.46875 10-10 10h-24c5.53125 0 10-4.472657 10-10v-76.542969c0-5.527344-4.46875-10-10-10h24c5.53125 0 10 4.472656 10 10zm0 0" fill="#dad0cd"/><path d="m146.761719 178.074219c0 7.386719-5.988281 13.375-13.375 13.375s-13.375-5.988281-13.375-13.375 5.988281-13.375 13.375-13.375 13.375 5.988281 13.375 13.375zm0 0" fill="#f2256f"/><path d="m207.003906 216.027344c0 7.386718-5.992187 13.375-13.378906 13.375s-13.375-5.988282-13.375-13.375c0-7.386719 5.988281-13.375 13.375-13.375s13.378906 5.988281 13.378906 13.375zm0 0" fill="#f2256f"/><path d="m37.660156 179.867188c4.144532 0 7.5-3.355469 7.5-7.5v-146.035157c0-6.246093 5.082032-11.332031 11.332032-11.332031h264.179687c4.140625 0 7.5-3.355469 7.5-7.5s-3.359375-7.5-7.5-7.5h-264.179687c-14.519532 0-26.332032 11.8125-26.332032 26.332031v146.035157c0 4.144531 3.359375 7.5 7.5 7.5zm0 0"/><path d="m353.328125 15h102.175781c6.246094 0 11.332032 5.085938 11.332032 11.332031v46.035157c0 4.144531 3.355468 7.5 7.5 7.5 4.140624 0 7.5-3.355469 7.5-7.5v-46.035157c0-14.519531-11.8125-26.332031-26.332032-26.332031h-102.175781c-4.140625 0-7.5 3.355469-7.5 7.5s3.359375 7.5 7.5 7.5zm0 0"/><path d="m494.5 251.210938h-12.664062v-146.183594c0-4.140625-3.359376-7.5-7.5-7.5-4.144532 0-7.5 3.359375-7.5 7.5v146.183594h-131.015626c-1.78125 0-3.503906.632812-4.855468 1.785156l-10.394532 8.835937h-129.140624l-10.394532-8.835937c-1.355468-1.152344-3.074218-1.785156-4.855468-1.785156h-131.019532v-46.183594c0-4.140625-3.355468-7.5-7.5-7.5-4.140625 0-7.5 3.359375-7.5 7.5v46.183594h-12.660156c-9.648438 0-17.5 7.851562-17.5 17.5v22.359374c0 15.617188 12.707031 28.324219 28.324219 28.324219h455.351562c15.617188 0 28.324219-12.707031 28.324219-28.324219v-22.359374c0-9.652344-7.851562-17.5-17.5-17.5zm2.5 39.859374c0 7.347657-5.976562 13.324219-13.324219 13.324219h-455.351562c-7.347657 0-13.324219-5.976562-13.324219-13.324219v-22.359374c0-1.378907 1.121094-2.5 2.5-2.5h155.921875l10.394531 8.835937c1.355469 1.152344 3.078125 1.785156 4.855469 1.785156h134.652344c1.78125 0 3.503906-.632812 4.859375-1.785156l10.390625-8.835937h39.589843v7.132812c0 4.144531 3.359376 7.5 7.5 7.5 4.144532 0 7.5-3.355469 7.5-7.5v-7.132812h7.667969v7.132812c0 4.144531 3.355469 7.5 7.5 7.5s7.5-3.355469 7.5-7.5v-7.132812h7.667969v7.132812c0 4.144531 3.355469 7.5 7.5 7.5 4.140625 0 7.5-3.355469 7.5-7.5v-7.132812h56c1.378906 0 2.5 1.121093 2.5 2.5zm0 0"/><path d="m411.832031 129.679688v-76.546876c0-9.648437-7.851562-17.5-17.5-17.5h-276.664062c-9.648438 0-17.5 7.851563-17.5 17.5v76.546876c0 9.648437 7.851562 17.5 17.5 17.5h276.667969c9.644531 0 17.496093-7.847657 17.496093-17.5zm-15 0c0 1.378906-1.121093 2.5-2.5 2.5h-276.664062c-1.378907 0-2.5-1.121094-2.5-2.5v-76.546876c0-1.378906 1.121093-2.5 2.5-2.5h276.667969c1.378906 0 2.5 1.121094 2.5 2.5v76.546876zm0 0"/><path d="m350.203125 63.503906-49.015625 36.082032-40.464844-32.691407c-2.851562-2.300781-6.945312-2.207031-9.6875.222657l-35.953125 31.859374-23.449219-21.320312c-2.988281-2.722656-7.597656-2.582031-10.417968.316406l-30.515625 31.34375c-2.886719 2.96875-2.824219 7.714844.144531 10.605469 1.457031 1.417969 3.34375 2.125 5.230469 2.125 1.953125 0 3.902343-.757813 5.375-2.269531l25.457031-26.148438 23.066406 20.976563c2.832032 2.574219 7.152344 2.605469 10.019532.0625l36.242187-32.117188 40.027344 32.339844c2.648437 2.140625 6.410156 2.226563 9.160156.207031l53.675781-39.511718c3.335938-2.457032 4.046875-7.152344 1.59375-10.488282-2.457031-3.335937-7.152344-4.046875-10.488281-1.59375zm0 0"/><path d="m109.09375 185.574219h4.832031c3.023438 7.8125 10.597657 13.375 19.460938 13.375 8.867187 0 16.4375-5.5625 19.460937-13.375h101.042969c4.144531 0 7.5-3.355469 7.5-7.5s-3.355469-7.5-7.5-7.5h-101.042969c-3.023437-7.8125-10.59375-13.375-19.460937-13.375-8.863281 0-16.4375 5.5625-19.460938 13.375h-4.832031c-4.144531 0-7.5 3.355469-7.5 7.5s3.355469 7.5 7.5 7.5zm24.292969-13.375c3.242187 0 5.875 2.636719 5.875 5.875s-2.632813 5.875-5.875 5.875c-3.238281 0-5.875-2.636719-5.875-5.875s2.636719-5.875 5.875-5.875zm0 0"/><path d="m109.09375 223.527344h65.070312c3.023438 7.8125 10.597657 13.375 19.460938 13.375 8.867188 0 16.4375-5.5625 19.460938-13.375h40.808593c4.140625 0 7.5-3.355469 7.5-7.5 0-4.144532-3.359375-7.5-7.5-7.5h-40.808593c-3.023438-7.8125-10.59375-13.375-19.460938-13.375-8.863281 0-16.4375 5.5625-19.457031 13.375h-65.074219c-4.144531 0-7.5 3.355468-7.5 7.5 0 4.144531 3.355469 7.5 7.5 7.5zm84.53125-13.375c3.238281 0 5.875 2.632812 5.875 5.875 0 3.238281-2.636719 5.875-5.875 5.875s-5.875-2.636719-5.875-5.875c0-3.242188 2.636719-5.875 5.875-5.875zm0 0"/><path d="m301.667969 236.902344c4.140625 0 7.5-3.355469 7.5-7.5v-37.953125h3.164062c4.144531 0 7.5-3.355469 7.5-7.5s-3.355469-7.5-7.5-7.5h-3.164062v-7.222657c0-4.140624-3.359375-7.5-7.5-7.5-4.144531 0-7.5 3.359376-7.5 7.5v7.222657h-3.167969c-4.144531 0-7.5 3.355469-7.5 7.5s3.355469 7.5 7.5 7.5h3.167969v37.953125c0 4.144531 3.355469 7.5 7.5 7.5zm0 0"/><path d="m343 236.902344c4.144531 0 7.5-3.355469 7.5-7.5v-10.625h3.167969c4.140625 0 7.5-3.355469 7.5-7.5 0-4.140625-3.359375-7.5-7.5-7.5h-3.167969v-34.550782c0-4.140624-3.355469-7.5-7.5-7.5s-7.5 3.359376-7.5 7.5v34.550782h-3.167969c-4.140625 0-7.5 3.359375-7.5 7.5 0 4.144531 3.359375 7.5 7.5 7.5h3.167969v10.625c0 4.144531 3.355469 7.5 7.5 7.5zm0 0"/><path d="m384.332031 236.902344c4.144531 0 7.5-3.355469 7.5-7.5v-33.871094h3.167969c4.144531 0 7.5-3.355469 7.5-7.5s-3.355469-7.5-7.5-7.5h-3.167969v-11.304688c0-4.140624-3.355469-7.5-7.5-7.5-4.140625 0-7.5 3.359376-7.5 7.5v11.304688h-3.164062c-4.144531 0-7.5 3.355469-7.5 7.5s3.355469 7.5 7.5 7.5h3.164062v33.871094c0 4.144531 3.359375 7.5 7.5 7.5zm0 0"/></svg>