<svg height="512pt" viewBox="0 -77 512 512" width="512pt" xmlns="http://www.w3.org/2000/svg"><path d="m474.351562 65.425781v246.371094c0 10.398437-8.441406 18.828125-18.832031 18.828125h-399.019531c-6.851562 0-12.828125-3.640625-16.121094-9.097656-1.730468-2.832032-2.707031-6.160156-2.707031-9.730469v-246.371094c0-10.410156 8.417969-18.851562 18.828125-18.851562h399.019531c10.390625 0 18.832031 8.441406 18.832031 18.851562zm0 0" fill="#f1eded"/><path d="m155 46.574219v284.050781h-98.5c-6.851562 0-12.828125-3.640625-16.121094-9.097656-1.730468-2.832032-2.707031-6.160156-2.707031-9.730469v-246.371094c0-10.410156 8.417969-18.851562 18.828125-18.851562zm0 0" fill="#209ced"/><path d="m127 46.574219h28v284.050781h-28zm0 0" fill="#197ae5"/><path d="m474.335938 66.761719v243.683593c0 11.152344-7.863282 20.183594-17.574219 20.183594h-26.316407c9.707032 0 17.570313-9.03125 17.570313-20.183594v-243.683593c0-11.152344-7.863281-20.183594-17.570313-20.183594h26.316407c9.710937 0 17.574219 9.03125 17.574219 20.183594zm0 0" fill="#dad0cd"/><path d="m504.5 307.789062v22.359376c0 11.5-9.324219 20.824218-20.824219 20.824218h-455.351562c-11.5 0-20.824219-9.324218-20.824219-20.824218v-22.359376c0-5.523437 4.476562-10 10-10h158.679688l12.496093 10.617188h134.648438l12.496093-10.617188h158.679688c5.523438 0 10 4.476563 10 10zm0 0" fill="#6b97af"/><path d="m504.5 312.675781v17.46875c0 11.5-9.320312 20.832031-20.820312 20.832031h-455.359376c-11.5 0-20.820312-9.332031-20.820312-20.832031v-17.46875c0 11.5 9.320312 20.820313 20.820312 20.820313h455.359376c11.5 0 20.820312-9.320313 20.820312-20.820313zm0 0" fill="#50758e"/><path d="m415.800781 145.375c0 36.503906-17.367187 68.949219-44.285156 89.53125-18.949219 14.484375-42.632813 23.089844-68.328125 23.089844h-.007812c-62.203126 0-112.621094-50.421875-112.621094-112.621094 0-62.203125 50.417968-112.621094 112.621094-112.621094h.007812v112.621094zm0 0" fill="#14f2d7"/><path d="m415.800781 145.375c0 36.503906-17.367187 68.949219-44.285156 89.53125-18.949219 14.484375-42.632813 23.089844-68.328125 23.089844v-112.621094zm0 0" fill="#00c6a9"/><path d="m441.054688 120.121094h-112.613282v-112.621094c62.203125.007812 112.613282 50.417969 112.613282 112.621094zm0 0" fill="#209ced"/><path d="m415.800781 145.375c0 36.503906-17.367187 68.949219-44.285156 89.53125l-68.328125-89.53125zm0 0" fill="#00e2c7"/><path d="m494.5 290.289062h-12.664062v-87.722656c0-4.140625-3.359376-7.5-7.5-7.5-4.144532 0-7.5 3.359375-7.5 7.5v87.722656h-131.015626c-1.78125 0-3.503906.632813-4.855468 1.785157l-10.394532 8.835937h-129.140624l-10.394532-8.835937c-1.351562-1.152344-3.074218-1.785157-4.855468-1.785157h-13.679688v-236.210937h62.707031c-25.777343 22.050781-42.148437 54.792969-42.148437 91.296875 0 21.875 5.945312 43.296875 17.1875 61.945312 2.140625 3.546876 6.75 4.6875 10.296875 2.550782 3.546875-2.140625 4.6875-6.75 2.550781-10.296875-9.835938-16.3125-15.03125-35.054688-15.03125-54.199219 0-55.441406 43.144531-100.996094 97.628906-104.855469v209.683594c-23.449218-1.664063-45.644531-11.082031-63.15625-26.980469-3.0625-2.785156-7.808594-2.558594-10.59375.507813-2.785156 3.066406-2.554687 7.8125.511719 10.597656 22.136719 20.097656 50.804687 31.167969 80.738281 31.167969 26.597656 0 51.800782-8.515625 72.878906-24.628906 30.019532-22.949219 47.234376-57.757813 47.234376-95.492188 0-4.144531-3.359376-7.5-7.5-7.5h-105.117188v-83.796875h10.253906v66.042969c0 4.144531 3.355469 7.5 7.5 7.5h112.613282c4.140624 0 7.5-3.355469 7.5-7.5 0-24.378906-7.308594-47.082032-19.839844-66.042969h26.789062c6.246094 0 11.332032 5.085937 11.332032 11.332031v104.5c0 4.140625 3.355468 7.5 7.5 7.5 4.140624 0 7.5-3.359375 7.5-7.5v-104.5c0-14.519531-11.816407-26.332031-26.332032-26.332031h-38.492187c-21.976563-24-53.546875-39.07421875-88.570313-39.078125-1.992187 0-3.898437.789062-5.304687 2.195312s-2.195313 3.316407-2.195313 5.304688v31.578125h-10.253906v-6.324219c0-4.144531-3.363281-7.5-7.507812-7.5-20.277344 0-39.390626 5.054688-56.164063 13.964844-.464844-.089844-.941406-.140625-1.433594-.140625h-189.089843c-14.519532 0-26.332032 11.8125-26.332032 26.332031v224.878906h-12.660156c-9.648438 0-17.5 7.851563-17.5 17.5v22.359376c0 15.617187 12.707031 28.324218 28.324219 28.324218h455.351562c15.617188 0 28.324219-12.707031 28.324219-28.324218v-22.359376c0-9.652343-7.851562-17.5-17.5-17.5zm-158.558594-275.023437c51.992188 3.6875 93.664063 45.363281 97.347656 97.355469h-97.347656zm-25.253906 152.296875 50.148438 65.714844c-15.039063 9.910156-32.132813 15.683594-50.148438 16.941406zm62.070312 56.613281-54.410156-71.300781h89.691406c-1.925781 27.621094-14.476562 52.972656-35.28125 71.300781zm124.242188 105.972657c0 7.347656-5.976562 13.324218-13.324219 13.324218h-455.351562c-7.347657 0-13.324219-5.976562-13.324219-13.324218v-22.359376c0-1.378906 1.121094-2.5 2.5-2.5h71.171875c4.140625 0 7.5-3.359374 7.5-7.5 0-4.144531-3.359375-7.5-7.5-7.5h-43.511719v-224.878906c0-6.25 5.085938-11.332031 11.332032-11.332031h91.007812v236.210937h-26.171875c-4.140625 0-7.5 3.355469-7.5 7.5 0 4.140626 3.359375 7.5 7.5 7.5h52.09375l10.394531 8.832032c1.355469 1.15625 3.078125 1.789062 4.859375 1.789062h134.648438c1.78125 0 3.503906-.632812 4.859375-1.789062l10.394531-8.832032h39.589844v7.132813c0 4.144531 3.355469 7.5 7.5 7.5 4.140625 0 7.5-3.355469 7.5-7.5v-7.132813h7.664062v7.132813c0 4.144531 3.359375 7.5 7.5 7.5 4.144531 0 7.5-3.355469 7.5-7.5v-7.132813h7.667969v7.132813c0 4.144531 3.355469 7.5 7.5 7.5s7.5-3.355469 7.5-7.5v-7.132813h56c1.378906 0 2.5 1.121094 2.5 2.5zm0 0"/><path d="m71.667969 109.070312h13.332031c4.144531 0 7.5-3.355468 7.5-7.5 0-4.144531-3.355469-7.5-7.5-7.5h-13.332031c-4.144531 0-7.5 3.355469-7.5 7.5 0 4.144532 3.355469 7.5 7.5 7.5zm0 0"/><path d="m71.667969 139.277344h55.332031c4.144531 0 7.5-3.359375 7.5-7.5 0-4.144532-3.355469-7.5-7.5-7.5h-55.332031c-4.144531 0-7.5 3.355468-7.5 7.5 0 4.140625 3.355469 7.5 7.5 7.5zm0 0"/><path d="m134.5 151.238281c0-4.144531-3.355469-7.5-7.5-7.5h-55.332031c-4.144531 0-7.5 3.355469-7.5 7.5s3.355469 7.5 7.5 7.5h55.332031c4.144531 0 7.5-3.355469 7.5-7.5zm0 0"/><path d="m78.332031 178.039062c-4.140625 0-7.5 3.355469-7.5 7.5v83.570313c0 4.144531 3.359375 7.5 7.5 7.5 4.144531 0 7.5-3.355469 7.5-7.5v-83.570313c0-4.144531-3.355469-7.5-7.5-7.5zm0 0"/></svg>