<svg height="512pt" viewBox="-29 0 512 512.001" width="512pt" xmlns="http://www.w3.org/2000/svg"><path d="m378.984375 256.003906c0 83.761719-67.90625 151.65625-151.667969 151.65625-17.226562 0-33.785156-2.875-49.230468-8.167968-51.984376-17.835938-91.222657-63.117188-100.402344-118.558594-1.335938-8.113282-2.03125-16.441406-2.03125-24.929688 0-53.378906 27.578125-100.320312 69.269531-127.347656 23.722656-15.378906 52.023437-24.320312 82.394531-24.320312 61 0 113.585938 36.015624 137.664063 87.9375 8.996093 19.375 14.003906 40.960937 14.003906 63.730468zm0 0" fill="#27bef4"/><path d="m378.984375 256.003906c0 83.761719-67.90625 151.65625-151.667969 151.65625-6.042968 0-12.007812-.355468-17.867187-1.050781 75.304687-8.875 133.722656-72.917969 133.722656-150.605469 0-22.769531-5.011719-44.359375-14.003906-63.730468-21.6875-46.765626-66.503907-80.628907-119.765625-86.882813 5.878906-.695313 11.851562-1.054687 17.914062-1.054687 61 0 113.585938 36.015624 137.664063 87.9375 8.996093 19.375 14.003906 40.960937 14.003906 63.730468zm0 0" fill="#209ced"/><path d="m206.507812 382.253906c-.933593 0-1.859374-.046875-2.773437-.117187-9.710937-.808594-18.785156 4.660156-23.3125 13.296875-.722656 1.382812-1.5 2.738281-2.335937 4.058594-51.984376-17.835938-91.222657-63.117188-100.402344-118.558594 2.0625-3.414063 4.691406-6.574219 7.871094-9.339844 15.273437-13.289062 38.566406-12.632812 53.058593 1.519531 7.738281 7.566407 11.660157 17.457031 11.832031 27.367188.136719 7.8125 3.9375 15.078125 10.460938 19.390625.503906.339844.996094.679687 1.492188 1.027344 7.941406 5.621093 18.417968 5.546874 26.671874.390624 5.640626-3.523437 12.4375-5.394531 19.683594-4.90625 16.292969 1.082032 29.5 14.230469 30.644532 30.515626 1.347656 19.289062-13.894532 35.355468-32.890626 35.355468zm0 0" fill="#00e2c7"/><path d="m364.980469 192.273438c-6.402344 10.808593-15.570313 19.8125-26.535157 26.011718-.796874.449219-1.59375.878906-2.40625 1.304688-8.574218 4.421875-14.058593 13.132812-14.253906 22.769531-.027344 1.390625-.128906 2.800781-.292968 4.21875-2.371094 19.914063-18.886719 35.519531-38.90625 36.792969-24.402344 1.539062-44.660157-17.785156-44.660157-41.855469 0-7.300781 1.867188-14.167969 5.144531-20.152344 4.65625-8.453125 4.699219-18.757812-.519531-26.878906-.066406-.113281-.136719-.222656-.210937-.339844-5.917969-9.324219-16.980469-14.058593-27.761719-11.667969-4.003906.894532-8.171875 1.363282-12.449219 1.363282-30.929687 0-56.117187-24.519532-57.207031-55.183594 18.988281-12.308594 40.914063-20.5 64.480469-23.265625 5.882812-.695313 11.851562-1.050781 17.917968-1.050781 61 0 113.582032 36.011718 137.660157 87.933594zm0 0" fill="#00e2c7"/><path d="m364.980469 192.273438c-6.402344 10.808593-15.570313 19.8125-26.535157 26.011718-2.304687-9.019531-5.429687-17.722656-9.277343-26.011718-21.6875-46.765626-66.503907-80.625-119.765625-86.882813 5.882812-.695313 11.851562-1.050781 17.917968-1.050781 61 0 113.582032 36.011718 137.660157 87.933594zm0 0" fill="#00c6a9"/><g fill="#fab03c"><path d="m249.902344 481.914062c0 12.476563-10.109375 22.585938-22.582032 22.585938-12.472656 0-22.585937-10.109375-22.585937-22.585938 0-12.472656 10.113281-22.582031 22.585937-22.582031 12.472657 0 22.582032 10.109375 22.582032 22.582031zm0 0"/><path d="m249.902344 30.085938c0 12.472656-10.109375 22.582031-22.582032 22.582031-12.472656 0-22.585937-10.109375-22.585937-22.582031 0-12.476563 10.113281-22.585938 22.585937-22.585938 12.472657 0 22.582032 10.109375 22.582032 22.585938zm0 0"/><path d="m447.121094 369.570312c0 12.472657-10.109375 22.582032-22.582032 22.582032-12.472656 0-22.585937-10.109375-22.585937-22.582032 0-12.472656 10.113281-22.585937 22.585937-22.585937 12.472657 0 22.582032 10.113281 22.582032 22.585937zm0 0"/><path d="m52.683594 141.839844c0 12.472656-10.113282 22.582031-22.585938 22.582031s-22.582031-10.109375-22.582031-22.582031c0-12.476563 10.109375-22.585938 22.582031-22.585938s22.585938 10.109375 22.585938 22.585938zm0 0"/><path d="m447.121094 142.429688c0 12.472656-10.109375 22.585937-22.582032 22.585937-12.472656 0-22.585937-10.113281-22.585937-22.585937 0-12.472657 10.113281-22.582032 22.585937-22.582032 12.472657 0 22.582032 10.109375 22.582032 22.582032zm0 0"/><path d="m52.683594 370.160156c0 12.476563-10.113282 22.585938-22.585938 22.585938s-22.582031-10.109375-22.582031-22.585938c0-12.472656 10.109375-22.582031 22.582031-22.582031s22.585938 10.109375 22.585938 22.582031zm0 0"/></g><path d="m191.597656 215.722656h-.09375c-4.144531 0-7.453125 3.359375-7.453125 7.5 0 4.144532 3.402344 7.5 7.546875 7.5 4.140625 0 7.5-3.355468 7.5-7.5 0-4.140625-3.359375-7.5-7.5-7.5zm0 0"/><path d="m259.375 351.277344h-.09375c-4.144531 0-7.453125 3.359375-7.453125 7.5 0 4.144531 3.402344 7.5 7.546875 7.5s7.5-3.355469 7.5-7.5c0-4.140625-3.355469-7.5-7.5-7.5zm0 0"/><path d="m439.582031 343.515625c-2.421875-1.398437-4.960937-2.410156-7.542969-3.074219v-168.871094c2.609376-.675781 5.144532-1.703124 7.542969-3.085937 14.363281-8.292969 19.304688-26.730469 11.011719-41.097656-8.296875-14.363281-26.726562-19.304688-41.097656-11.011719-2.339844 1.351562-4.425782 2.976562-6.25 4.804688l-146.554688-84.613282c.460938-2.089844.710938-4.257812.710938-6.480468 0-16.589844-13.496094-30.085938-30.082032-30.085938-16.589843 0-30.085937 13.496094-30.085937 30.085938 0 2.222656.25 4.390624.710937 6.480468l-146.1875 84.402344c-1.910156-1.984375-4.117187-3.738281-6.617187-5.183594-14.367187-8.292968-32.804687-3.355468-41.097656 11.011719-4.0156252 6.960937-5.085938 15.066406-3.003907 22.828125 2.078126 7.761719 7.058594 14.25 14.015626 18.269531 2.421874 1.394531 4.960937 2.414063 7.542968 3.078125v170.0625c-2.582031.664063-5.121094 1.675782-7.542968 3.074219-6.957032 4.019531-11.9375 10.503906-14.015626 18.265625-2.082031 7.761719-1.0117182 15.871094 3.003907 22.828125 5.566406 9.644531 15.699219 15.039063 26.105469 15.039063 5.097656 0 10.265624-1.296876 14.992187-4.023438 2.5-1.445312 4.707031-3.203125 6.617187-5.1875l146.1875 84.402344c-.460937 2.089844-.710937 4.257812-.710937 6.484375 0 16.585937 13.496094 30.082031 30.085937 30.082031 16.585938 0 30.082032-13.496094 30.082032-30.082031 0-2.226563-.25-4.394531-.710938-6.484375l146.554688-84.613282c1.824218 1.828126 3.910156 3.453126 6.25 4.804688 4.636718 2.675781 9.78125 4.042969 14.996094 4.042969 2.613281 0 5.242187-.34375 7.832031-1.039063 7.765625-2.078125 14.25-7.058594 18.269531-14.015625 8.292969-14.367187 3.351562-32.804687-11.011719-41.097656zm-36.707031 5.183594-34.101562-19.691407c9.097656-17.601562 14.890624-36.875 16.902343-56.929687.414063-4.121094-2.59375-7.796875-6.714843-8.210937-4.113282-.414063-7.796876 2.59375-8.210938 6.714843-3.550781 35.351563-20.042969 68.054688-46.445312 92.078125-26.578126 24.183594-61.019532 37.5-96.984376 37.5-12.863281 0-25.496093-1.6875-37.664062-4.96875 3.46875-3.875 8.398438-5.996094 13.480469-5.578125 1.203125.09375 2.304687.140625 3.371093.140625 11.183594 0 21.972657-4.691406 29.601563-12.871094 7.742187-8.300781 11.566406-19.132812 10.769531-30.507812-1.40625-20.035156-17.585937-36.148438-37.625-37.476562-8.570312-.570313-16.925781 1.511718-24.160156 6.03125-5.851562 3.660156-13.0625 3.597656-18.382812-.164063-.535157-.378906-1.070313-.746094-1.667969-1.148437-4.351563-2.878907-7.003907-7.835938-7.097657-13.265626-.21875-12.351562-5.222656-23.929687-14.09375-32.601562-16.410156-16.027344-42.324218-17.519531-60.480468-4.003906-.136719-2.570313-.214844-5.152344-.214844-7.746094 0-46.347656 21.992188-87.648438 56.078125-114.039062 6.867187 28.53125 32.351563 49.378906 62.894531 49.378906 4.746094 0 9.484375-.519532 14.078125-1.539063 7.597657-1.6875 15.550781 1.671875 19.800781 8.363281l.238282.375c3.59375 5.597657 3.695312 12.960938.257812 19.21875-3.976562 7.238282-6.078125 15.453126-6.078125 23.757813 0 13.601563 5.6875 26.746094 15.609375 36.058594 9.261719 8.695312 21.152344 13.382812 33.773438 13.382812 1.078125 0 2.164062-.035156 3.253906-.105469 23.769531-1.503906 43.0625-19.75 45.878906-43.382812.191406-1.644531.308594-3.3125.34375-4.957031.136719-6.855469 4.042969-13.085938 10.195313-16.261719 9.050781-4.675781 17.058593-11.019531 23.65625-18.652344 3.632812 10.222656 6.140625 20.917969 7.390625 31.921875.4375 3.828125 3.679687 6.652344 7.445312 6.652344.28125 0 .566406-.015625.855469-.050781 4.117187-.46875 7.070313-4.183594 6.605469-8.300782-2.210938-19.394531-7.921875-37.925781-16.648438-54.835937l34.078125-19.675781c3.753907 3.914062 8.515625 6.742187 13.886719 8.179687.097656.027344.191406.042969.285156.070313v168.898437c-5.304687 1.367188-10.238281 4.171875-14.160156 8.242188zm-351.484375.210937c-3.859375-3.863281-8.652344-6.539062-13.792969-7.863281v-170.09375c5.140625-1.324219 9.929688-4 13.789063-7.867187l34.519531 19.929687c-11.335938 21.875-17.75 46.695313-17.75 72.984375 0 25.683594 6.152344 50.636719 17.714844 73.003906zm365.605469-219.542968c7.203125-4.160157 16.445312-1.683594 20.605468 5.519531 4.15625 7.203125 1.683594 16.449219-5.519531 20.605469-3.492187 2.015624-7.554687 2.550781-11.449219 1.507812-3.890624-1.042969-7.144531-3.539062-9.15625-7.027344-4.160156-7.203125-1.683593-16.445312 5.519532-20.605468zm-21.347656 4.746093c-1.492188 5.191407-1.601563 10.769531-.160157 16.132813l-34.207031 19.75c-11.875-18.480469-27.609375-34.535156-46.507812-46.984375-3.457032-2.277344-8.109376-1.324219-10.390626 2.136719-2.277343 3.457031-1.320312 8.109374 2.136719 10.386718 21.632813 14.253906 38.695313 33.710938 49.898438 56.230469-6.042969 8.917969-14.207031 16.191406-23.820313 21.15625-11.046875 5.707031-18.0625 16.929687-18.308594 29.289063-.023437 1.152343-.105468 2.324218-.242187 3.480468-1.929687 16.179688-15.65625 29.160156-31.933594 30.191406-9.65625.617188-18.808593-2.671874-25.8125-9.246093-7.015625-6.582031-10.875-15.503907-10.875-25.121094 0-5.789063 1.460938-11.503906 4.222657-16.535156 6.089843-11.085938 5.789062-24.324219-.785157-34.554688l-.191406-.300781c-7.625-12.007812-21.972656-18.019531-35.71875-14.96875-3.527344.785156-7.167969 1.183594-10.820313 1.183594-25.480468 0-46.390624-18.871094-49.371093-43.683594 21.769531-13.207031 47.289062-20.816406 74.558593-20.816406 17.164063 0 33.957032 2.984375 49.917969 8.878906 3.890625 1.433594 8.199219-.554688 9.632813-4.441406 1.4375-3.882813-.550782-8.199219-4.4375-9.632813-15.292969-5.644531-31.277344-8.871093-47.613282-9.628906v-37.792969c5.917969-1.527344 11.132813-4.816406 15.058594-9.269531zm-168.328126-119.113281c8.316407 0 15.082032 6.765625 15.082032 15.085938 0 8.316406-6.765625 15.082031-15.082032 15.082031-8.320312 0-15.085937-6.765625-15.085937-15.082031 0-8.320313 6.765625-15.085938 15.085937-15.085938zm-22.5625 34.953125c3.925782 4.453125 9.140626 7.742187 15.058594 9.269531v37.796875c-53.003906 2.472657-99.316406 30.988281-126.394531 73.015625l-34.417969-19.871094c1.539063-5.34375 1.53125-10.925781.128906-16.132812zm-189.230468 95.789063c-1.042969-3.890626-.507813-7.957032 1.507812-11.445313 2.789063-4.832031 7.871094-7.539063 13.089844-7.539063 2.554688 0 5.144531.648438 7.515625 2.019532 7.203125 4.15625 9.679687 13.402344 5.519531 20.605468-4.15625 7.203126-13.402344 9.675782-20.601562 5.519532-3.492188-2.015625-5.988282-5.269532-7.03125-9.160156zm22.113281 237.484374c-7.203125 4.15625-16.445313 1.679688-20.605469-5.523437-2.015625-3.488281-2.550781-7.554687-1.507812-11.445313 1.042968-3.890624 3.539062-7.144531 7.027344-9.160156 2.371093-1.367187 4.960937-2.015625 7.519531-2.015625 5.214843 0 10.296875 2.703125 13.085937 7.539063 4.160156 7.203125 1.683594 16.445312-5.519531 20.605468zm21.496094-5.257812c1.398437-5.207031 1.40625-10.789062-.132813-16.132812l34.375-19.847657c4.910156 7.636719 10.492188 14.894531 16.730469 21.679688 1.476563 1.609375 3.496094 2.425781 5.523437 2.425781 1.8125 0 3.632813-.65625 5.074219-1.980469 3.046875-2.800781 3.25-7.546875.445313-10.597656-18.425782-20.046875-30.625-44.605469-35.542969-70.957031 1.40625-1.929688 3.03125-3.710938 4.867187-5.308594 12.347657-10.742188 31.1875-10.203125 42.890626 1.226562 6.03125 5.894532 9.429687 13.753907 9.578124 22.136719.183594 10.371094 5.351563 19.910157 13.769532 25.476563.460937.3125.914062.621094 1.347656.925781 10.25 7.257813 23.980469 7.507813 34.980469.632813 4.542969-2.835938 9.804687-4.144532 15.214843-3.785157 12.601563.835938 22.773438 10.964844 23.660157 23.558594.5 7.175781-1.90625 14.003906-6.777344 19.226563-4.875 5.226562-11.492187 8.105468-18.632813 8.105468-.664062 0-1.375-.03125-2.152343-.09375-11.90625-.992187-23.3125 5.097656-29.613281 15.605469-10.589844-4.15625-20.722657-9.570313-30.195313-16.226563-3.386719-2.378906-8.066406-1.5625-10.445313 1.824219-2.382812 3.390625-1.566406 8.070313 1.824219 10.449219 24.816407 17.4375 53.679688 27.269531 83.894531 28.667969v37.796875c-5.921874 1.527344-11.136718 4.816406-15.0625 9.269531zm168.183593 119.03125c-8.320312 0-15.085937-6.765625-15.085937-15.085938 0-8.316406 6.765625-15.082031 15.085937-15.082031 8.316407 0 15.082032 6.765625 15.082032 15.082031 0 8.320313-6.765625 15.085938-15.082032 15.085938zm22.558594-34.953125c-3.925781-4.453125-9.140625-7.742187-15.058594-9.269531v-37.792969c36.972657-1.726563 72.085938-16.214844 99.582032-41.230469 10.398437-9.464844 19.398437-20.15625 26.863281-31.761718l34.226563 19.761718c-1.445313 5.363282-1.332032 10.941406.160156 16.128906zm187.722656-84.9375c-2.015624 3.492187-5.265624 5.988281-9.15625 7.03125-3.894531 1.039063-7.957031.503906-11.449218-1.507813-7.203125-4.160156-9.679688-13.402343-5.519532-20.605468 2.792969-4.835938 7.871094-7.539063 13.089844-7.539063 2.554688 0 5.144532.648438 7.515625 2.019531 7.203125 4.15625 9.679688 13.398438 5.519531 20.601563zm0 0"/></svg>