<svg height="512pt" viewBox="0 -50 512 512" width="512pt" xmlns="http://www.w3.org/2000/svg"><path d="m474.347656 118.949219v246.375c0 10.390625-8.4375 18.824219-18.828125 18.824219h-399.019531c-6.851562 0-12.828125-3.644532-16.117188-9.097657-1.730468-2.832031-2.707031-6.164062-2.707031-9.726562v-246.375c0-10.414063 8.414063-18.847657 18.824219-18.847657h399.019531c10.390625 0 18.828125 8.433594 18.828125 18.847657zm0 0" fill="#f1eded"/><path d="m422.960938 248.300781h-91c-5.523438 0-10-4.476562-10-10v-16.347656c0-5.523437 4.476562-10 10-10h91c5.523437 0 10 4.476563 10 10v16.347656c0 5.523438-4.476563 10-10 10zm0 0" fill="#14f2d7"/><path d="m183.960938 384.152344h-104.921876v-174.851563c0-5.523437 4.476563-10 10-10h84.921876c5.523437 0 10 4.476563 10 10zm0 0" fill="#14f2d7"/><path d="m288.882812 384.152344h-104.921874v-174.851563c0-5.523437 4.476562-10 10-10h84.921874c5.523438 0 10 4.476563 10 10zm0 0" fill="#fab03c"/><path d="m474.335938 120.285156v243.683594c0 11.152344-7.863282 20.183594-17.574219 20.183594h-26.316407c9.707032 0 17.570313-9.03125 17.570313-20.183594v-243.683594c0-11.152344-7.863281-20.183594-17.570313-20.183594h26.316407c9.710937 0 17.574219 9.03125 17.574219 20.183594zm0 0" fill="#dad0cd"/><path d="m504.5 361.3125v22.359375c0 11.503906-9.324219 20.824219-20.824219 20.824219h-455.351562c-11.5 0-20.824219-9.320313-20.824219-20.824219v-22.359375c0-5.523438 4.476562-10 10-10h158.679688l12.496093 10.621094h134.648438l12.496093-10.621094h158.679688c5.523438 0 10 4.476562 10 10zm0 0" fill="#6b97af"/><path d="m504.5 366.199219v17.472656c0 11.5-9.320312 20.828125-20.820312 20.828125h-455.359376c-11.5 0-20.820312-9.328125-20.820312-20.828125v-17.472656c0 11.5 9.320312 20.820312 20.820312 20.820312h455.359376c11.5 0 20.820312-9.320312 20.820312-20.820312zm0 0" fill="#50758e"/><path d="m288.636719 32.386719c0 13.742187-11.140625 24.882812-24.886719 24.882812-13.742188 0-24.882812-11.140625-24.882812-24.882812 0-13.746094 11.140624-24.886719 24.882812-24.886719 13.746094 0 24.886719 11.140625 24.886719 24.886719zm0 0" fill="#50758e"/><path d="m440.460938 238.300781v-16.347656c0-9.648437-7.851563-17.5-17.5-17.5h-91c-9.648438 0-17.5 7.851563-17.5 17.5v16.347656c0 9.648438 7.851562 17.5 17.5 17.5h91c9.648437 0 17.5-7.851562 17.5-17.5zm-111 0v-16.347656c0-1.378906 1.121093-2.5 2.5-2.5h91c1.378906 0 2.5 1.121094 2.5 2.5v16.347656c0 1.378907-1.121094 2.5-2.5 2.5h-91c-1.378907 0-2.5-1.121093-2.5-2.5zm0 0"/><path d="m37.660156 274.171875c4.144532 0 7.5-3.359375 7.5-7.5v-147.738281c0-6.246094 5.085938-11.332032 11.332032-11.332032h199.757812v9.054688c0 4.144531 3.359375 7.5 7.5 7.5 4.144531 0 7.5-3.355469 7.5-7.5v-9.054688h184.253906c6.246094 0 11.332032 5.085938 11.332032 11.332032v152.738281c0 4.140625 3.355468 7.5 7.5 7.5 4.140624 0 7.5-3.359375 7.5-7.5v-152.738281c0-14.519532-11.8125-26.332032-26.332032-26.332032h-184.253906v-27.890624c0-.277344-.015625-.546876-.046875-.816407 11.867187-2.804687 21.222656-12.152343 24.046875-24.007812h172.738281c4.144531 0 7.5-3.359375 7.5-7.5 0-4.144531-3.355469-7.5-7.5-7.5h-172.738281c-3.394531-14.253907-16.222656-24.886719-31.5-24.886719-15.273438 0-28.105469 10.632812-31.496094 24.886719h-172.738281c-4.144531 0-7.5 3.355469-7.5 7.5 0 4.140625 3.355469 7.5 7.5 7.5h172.738281c2.820313 11.855469 12.179688 21.203125 24.042969 24.007812-.027344.269531-.042969.539063-.042969.816407v27.890624h-199.761718c-14.519532 0-26.332032 11.8125-26.332032 26.332032v147.738281c0 4.140625 3.359375 7.5 7.5 7.5zm208.707032-241.785156c0-9.585938 7.796874-17.386719 17.382812-17.386719s17.386719 7.800781 17.386719 17.386719c0 9.585937-7.800781 17.382812-17.386719 17.382812s-17.382812-7.796875-17.382812-17.382812zm0 0"/><path d="m494.5 343.8125h-12.664062v-39.484375c0-4.140625-3.359376-7.5-7.5-7.5-4.144532 0-7.5 3.359375-7.5 7.5v39.484375h-131.015626c-1.78125 0-3.5.632812-4.855468 1.785156l-10.394532 8.835938h-24.1875v-145.132813c0-9.648437-7.851562-17.5-17.5-17.5h-84.921874c-3.71875 0-7.164063 1.175781-10 3.160157-2.839844-1.984376-6.28125-3.160157-10-3.160157h-84.921876c-9.648437 0-17.5 7.851563-17.5 17.5v134.511719h-26.378906v-44.480469c0-4.144531-3.355468-7.5-7.5-7.5-4.140625 0-7.5 3.355469-7.5 7.5v44.480469h-12.660156c-9.648438 0-17.5 7.851562-17.5 17.5v22.363281c0 15.617188 12.707031 28.320313 28.324219 28.320313h81.347656c4.140625 0 7.5-3.355469 7.5-7.5 0-4.140625-3.359375-7.5-7.5-7.5h-81.347656c-7.347657 0-13.324219-5.976563-13.324219-13.320313v-22.363281c0-1.378906 1.121094-2.5 2.5-2.5h155.921875l10.394531 8.835938c1.355469 1.152343 3.078125 1.785156 4.859375 1.785156h134.648438c1.78125 0 3.503906-.632813 4.859375-1.785156l10.394531-8.835938h39.589844v7.132812c0 4.144532 3.355469 7.5 7.5 7.5 4.140625 0 7.5-3.355468 7.5-7.5v-7.132812h7.664062v7.132812c0 4.144532 3.359375 7.5 7.5 7.5 4.144531 0 7.5-3.355468 7.5-7.5v-7.132812h7.667969v7.132812c0 4.144532 3.355469 7.5 7.5 7.5s7.5-3.355468 7.5-7.5v-7.132812h56c1.378906 0 2.5 1.121094 2.5 2.5v22.363281c0 7.34375-5.976562 13.320313-13.324219 13.320313h-341.347656c-4.140625 0-7.5 3.359375-7.5 7.5 0 4.144531 3.359375 7.5 7.5 7.5h341.347656c15.617188 0 28.324219-12.703125 28.324219-28.320313v-22.363281c0-9.648438-7.851562-17.5-17.5-17.5zm-300.539062-137.011719h84.921874c1.378907 0 2.5 1.121094 2.5 2.5v145.132813h-89.921874v-145.132813c0-1.378906 1.121093-2.5 2.5-2.5zm-107.421876 137.011719v-134.511719c0-1.378906 1.121094-2.5 2.5-2.5h84.921876c1.378906 0 2.5 1.121094 2.5 2.5v134.523438c-.09375-.003907-.1875-.011719-.28125-.011719zm0 0"/><path d="m448.421875 162.738281c0-4.140625-3.355469-7.5-7.5-7.5h-369.84375c-4.144531 0-7.5 3.359375-7.5 7.5 0 4.144531 3.355469 7.5 7.5 7.5h369.84375c4.140625 0 7.5-3.355469 7.5-7.5zm0 0"/><path d="m86.046875 141.472656c4.140625 0 7.5-3.359375 7.5-7.5 0-4.144531-3.359375-7.5-7.5-7.5h-.105469c-4.140625 0-7.5 3.355469-7.5 7.5 0 4.140625 3.359375 7.5 7.5 7.5zm0 0"/><path d="m108.398438 141.472656c4.144531 0 7.5-3.359375 7.5-7.5 0-4.144531-3.355469-7.5-7.5-7.5h-.101563c-4.144531 0-7.5 3.355469-7.5 7.5 0 4.140625 3.355469 7.5 7.5 7.5zm0 0"/><path d="m314 141.472656c4.144531 0 7.5-3.359375 7.5-7.5 0-4.144531-3.355469-7.5-7.5-7.5h-22c-4.144531 0-7.5 3.355469-7.5 7.5 0 4.140625 3.355469 7.5 7.5 7.5zm0 0"/><path d="m371.667969 141.472656c4.140625 0 7.5-3.359375 7.5-7.5 0-4.144531-3.359375-7.5-7.5-7.5h-22c-4.144531 0-7.5 3.355469-7.5 7.5 0 4.140625 3.355469 7.5 7.5 7.5zm0 0"/><path d="m429.332031 141.472656c4.144531 0 7.5-3.359375 7.5-7.5 0-4.144531-3.355469-7.5-7.5-7.5h-22c-4.140625 0-7.5 3.355469-7.5 7.5 0 4.140625 3.359375 7.5 7.5 7.5zm0 0"/><path d="m321.960938 283.800781h27.707031c4.140625 0 7.5-3.355469 7.5-7.5s-3.359375-7.5-7.5-7.5h-27.707031c-4.144532 0-7.5 3.355469-7.5 7.5s3.355468 7.5 7.5 7.5zm0 0"/><path d="m414 294.046875h-92.039062c-4.144532 0-7.5 3.355469-7.5 7.5s3.355468 7.5 7.5 7.5h92.039062c4.144531 0 7.5-3.355469 7.5-7.5s-3.355469-7.5-7.5-7.5zm0 0"/><path d="m414 312.800781h-92.039062c-4.144532 0-7.5 3.355469-7.5 7.5s3.355468 7.5 7.5 7.5h92.039062c4.144531 0 7.5-3.355469 7.5-7.5s-3.355469-7.5-7.5-7.5zm0 0"/></svg>