<svg height="512pt" viewBox="0 -29 512 512" width="512pt" xmlns="http://www.w3.org/2000/svg"><path d="m504.503906 19.355469v360.164062c0 6.539063-5.304687 11.851563-11.855468 11.851563h-398.433594c-6.539063 0-11.84375-5.3125-11.84375-11.851563v-360.164062c0-6.539063 5.304687-11.863281 11.84375-11.863281h398.4375c6.546875 0 11.851562 5.324218 11.851562 11.863281zm0 0" fill="#fc6393"/><path d="m504.496094 19.359375v360.15625c0 6.539063-5.296875 11.851563-11.851563 11.851563h-34.371093c6.554687 0 11.851562-5.3125 11.851562-11.851563v-360.15625c0-6.554687-5.296875-11.851563-11.851562-11.851563h34.371093c6.554688 0 11.851563 5.296876 11.851563 11.851563zm0 0" fill="#f2256f"/><path d="m425.039062 229.667969h79.464844v80.445312h-79.464844zm0 0" fill="#ff97bd"/><path d="m470.128906 229.667969h34.363282v80.445312h-34.363282zm0 0" fill="#fc6393"/><path d="m161.820312 72.109375h87.742188v77.101563h-87.742188zm0 0" fill="#f2256f"/><path d="m249.5625 72.109375h87.742188v77.101563h-87.742188zm0 0" fill="#ff97bd"/><g fill="#f2256f"><path d="m337.304688 72.109375h87.738281v77.101563h-87.738281zm0 0"/><path d="m161.820312 229.664062h87.742188v80.453126h-87.742188zm0 0"/><path d="m337.304688 229.664062h87.738281v80.453126h-87.738281zm0 0"/></g><path d="m120.179688 149.210938h85.570312v80.453124h-85.570312zm0 0" fill="#ff97bd"/><path d="m293.433594 149.210938h89.792968v80.453124h-89.792968zm0 0" fill="#f2256f"/><path d="m120.179688 310.117188h85.570312v81.246093h-85.570312zm0 0" fill="#f2256f"/><path d="m293.433594 310.117188h89.792968v81.25h-89.792968zm0 0" fill="#ff97bd"/><path d="m504.496094 19.359375v52.753906h-422.128906v-52.753906c0-6.554687 5.296874-11.851563 11.851562-11.851563h398.425781c6.554688 0 11.851563 5.296876 11.851563 11.851563zm0 0" fill="#27bef4"/><path d="m504.496094 19.359375v52.753906h-34.371094v-52.753906c0-6.554687-5.296875-11.851563-11.851562-11.851563h34.371093c6.554688 0 11.851563 5.296876 11.851563 11.851563zm0 0" fill="#209ced"/><path d="m213.175781 7.507812v64.601563h-130.808593v-52.75c0-6.554687 5.296874-11.851563 11.851562-11.851563zm0 0" fill="#197ae5"/><path d="m103.820312 445.90625c-32.320312 0-96.320312-5.257812-96.320312-86.226562 0-76.046876 77.539062-72.324219 62.582031-157.828126-1.410156-8.066406 6.460938-14.640624 14.101563-11.691406 39.824218 15.378906 131.105468 62.730469 131.105468 173.726563 0 76.761719-65.492187 82.019531-111.46875 82.019531zm0 0" fill="#f6cb43"/><path d="m215.289062 363.886719c0 40.453125-18.191406 61.054687-42.125 71.484375 12.785157-12.199219 21.09375-30.464844 21.09375-57.816406 0-104.304688-80.613281-152.414063-123.382812-170.59375-.230469-1.664063-.492188-3.367188-.796875-5.113282-1.410156-8.066406 6.464844-14.636718 14.101563-11.691406 39.832031 15.382812 131.109374 62.734375 131.109374 173.730469zm0 0" fill="#fab03c"/><path d="m116.421875 445.90625c21.46875 0 63.980469-3.492188 63.980469-57.273438 0-50.515624-51.503906-48.042968-41.566406-104.835937.9375-5.359375-4.292969-9.726563-9.367188-7.765625-26.453125 10.214844-87.085938 41.667969-87.085938 115.394531 0 50.988281 43.503907 54.480469 74.039063 54.480469zm0 0" fill="#fd8f3e"/><path d="m180.402344 388.628906c0 53.78125-42.511719 57.28125-63.980469 57.28125-1.152344 0-2.320313 0-3.5-.019531 19.160156-4.890625 38.460937-18.289063 38.460937-54.53125 0-50.507813-51.503906-48.039063-41.570312-104.839844.089844-.5.117188-.980469.097656-1.460937 7.402344-4 14.191406-6.949219 19.5625-9.027344 5.066406-1.960938 10.296875 2.410156 9.359375 7.769531-9.929687 56.789063 41.570313 54.320313 41.570313 104.828125zm0 0" fill="#ff7110"/><path d="m492.648438 0h-70.316407c-4.140625 0-7.5 3.355469-7.5 7.5s3.359375 7.5 7.5 7.5h70.316407c2.398437 0 4.351562 1.953125 4.351562 4.351562v45.257813h-276.324219v-49.609375h168.996094c4.140625 0 7.5-3.355469 7.5-7.5s-3.359375-7.5-7.5-7.5h-295.457031c-10.671875 0-19.351563 8.683594-19.351563 19.351562v163.46875c-2.082031.683594-4.058593 1.757813-5.835937 3.21875-5.105469 4.191407-7.472656 10.585938-6.332032 17.101563 6.824219 39.035156-6.105468 56.75-25.113281 77.515625-2.796875 3.054688-2.589843 7.800781.464844 10.597656 3.054687 2.792969 7.800781 2.585938 10.597656-.46875 20.488281-22.382812 36.800781-44.621094 28.824219-90.226562-.28125-1.613282.660156-2.585938 1.078125-2.929688.496094-.410156 1.539063-1.007812 2.933594-.476562 37.976562 14.667968 126.308593 60.269531 126.308593 166.730468 0 30.183594-10.617187 48.367188-27.34375 59.207032 4.945313-9.414063 7.457032-20.914063 7.457032-34.460938 0-26.347656-12.71875-40.164062-23.9375-52.355468-12.035156-13.078126-22.433594-24.371094-17.742188-51.183594.902344-5.160156-1.046875-10.425782-5.085937-13.742188-4.078125-3.351562-9.449219-4.214844-14.371094-2.3125-15.125 5.839844-37.128906 16.75-56.046875 35.554688-23.777344 23.640625-35.835938 52.855468-35.835938 86.835937 0 13.289063 2.730469 23.726563 7.230469 31.925781-17.992187-12.765624-27.113281-34.148437-27.113281-63.671874 0-17.082032 4.207031-31.273438 13.242188-44.660157 2.316406-3.433593 1.414062-8.097656-2.019532-10.414062-3.433594-2.316407-8.09375-1.410157-10.414062 2.023437-10.785156 15.980469-15.808594 32.839844-15.808594 53.050782 0 38 13.398438 64.910156 39.824219 79.992187 21.574219 12.3125 46.855469 13.734375 63.996093 13.734375 2.050782 0 4.128907-.011719 6.222657-.039062 2.351562.039062 4.5.039062 6.382812.039062 5.753907 0 12.863281-.242188 20.375-1.5 15.019531-1.628906 30.011719-4.9375 43.3125-11.496094 18.265625-9.011718 30.714844-22.929687 37.257813-41.546875h102.300781c4.140625 0 7.5-3.359375 7.5-7.5 0-4.144531-3.359375-7.5-7.5-7.5h-18.738281v-66.246093h74.792968v66.246093h-23.394531c-4.140625 0-7.5 3.355469-7.5 7.5 0 4.140625 3.359375 7.5 7.5 7.5h140.316407c10.667968 0 19.351562-8.683593 19.351562-19.351562v-360.160157c0-10.667968-8.679688-19.351562-19.351562-19.351562zm-361.347657 283.367188c-5.570312 33.511718 8.871094 49.207031 21.625 63.0625 10.71875 11.648437 19.976563 21.707031 19.976563 42.199218 0 20.71875-6.589844 34.554688-20.15625 42.292969-5.515625 3.152344-11.660156 4.980469-17.660156 6.050781-7.898438.847656-16.113282 1.25-24.476563 1.382813-13.4375-.261719-27.890625-1.648438-39.339844-7.292969-14.390625-7.101562-21.386719-20.0625-21.386719-39.636719 0-68.359375 56.222657-98.152343 81.417969-108.058593zm301.242188 19.25v-65.453126h64.457031v65.453126zm-87.738281 0v-65.453126h72.738281v65.453126zm-87.742188 0v-65.453126h72.742188v65.453126zm-85.808594-65.453126h70.808594v65.453126h-29.316406c-8.492188-24.195313-22.355469-46.074219-41.492188-65.453126zm-43.574218-34.039062v-46.414062h70.570312v65.453124h-43.25c-.074219 0-.152344.007813-.226562.011719-8.988282-7.347656-18.160157-13.65625-27.09375-19.050781zm85.457031-123.515625h.039062.039063 28.847656v62.101563h-72.742188v-62.101563zm283.863281 77.101563v65.453124h-22.816406v-65.453124zm-37.816406 65.453124h-68.457032v-65.453124h68.457032zm-158.25 0v-65.453124h74.792968v65.453124zm-87.683594 0v-65.453124h72.683594v65.453124zm131.554688-80.453124v-62.101563h72.738281v62.101563zm-15 0h-72.742188v-62.101563h72.742188zm-175.484376 0h-64.457031v-62.101563h64.457031zm-64.457031 15h22.816407v38.039062c-8.1875-4.21875-15.917969-7.652344-22.816407-10.414062zm407.136719-15h-64.457031v-62.101563h64.457031zm-402.785156-126.710938h111.460937v49.605469h-115.8125v-45.253907c0-2.398437 1.953125-4.351562 4.351563-4.351562zm191.71875 368.863281h-64.738282c1.058594-6.25 1.59375-12.90625 1.59375-19.980469 0-16.167968-1.863281-31.601562-5.546874-46.265624h68.691406zm104.792968-66.246093h68.457032v66.246093h-68.457032zm101.921876 66.246093h-18.464844v-66.246093h22.816406v61.894531c0 2.398437-1.953125 4.351562-4.351562 4.351562zm0 0"/><path d="m122.980469 47.300781h.101562c4.144531 0 7.5-3.355469 7.5-7.5 0-4.140625-3.355469-7.5-7.5-7.5h-.101562c-4.144531 0-7.5 3.359375-7.5 7.5 0 4.144531 3.355469 7.5 7.5 7.5zm0 0"/><path d="m147.214844 47.289062h.101562.074219c4.109375 0 7.457031-3.3125 7.496094-7.429687.039062-4.140625-3.285157-7.53125-7.429688-7.570313h-.101562c-.023438 0-.046875 0-.074219 0-4.105469 0-7.457031 3.3125-7.496094 7.429688-.039062 4.144531 3.289063 7.53125 7.429688 7.570312zm0 0"/><path d="m171.589844 47.277344h.105468c4.140626 0 7.5-3.355469 7.5-7.5 0-4.140625-3.359374-7.5-7.5-7.5h-.105468c-4.140625 0-7.5 3.359375-7.5 7.5 0 4.144531 3.359375 7.5 7.5 7.5zm0 0"/></svg>