<svg height="512pt" viewBox="-20 0 511 512" width="512pt" xmlns="http://www.w3.org/2000/svg"><path d="m409.109375 18.765625v342.21875c0 6.222656-5.039063 11.261719-11.257813 11.261719h-378.589843c-6.21875 0-11.257813-5.039063-11.257813-11.261719v-342.21875c0-6.21875 5.039063-11.269531 11.257813-11.269531h378.589843c6.21875 0 11.257813 5.050781 11.257813 11.269531zm0 0" fill="#f1eded"/><path d="m409.105469 18.765625v342.21875c0 6.214844-5.03125 11.261719-11.261719 11.261719h-32.65625c6.226562 0 11.261719-5.046875 11.261719-11.261719v-342.21875c0-6.226563-5.035157-11.261719-11.261719-11.261719h32.65625c6.230469 0 11.261719 5.035156 11.261719 11.261719zm0 0" fill="#dad0cd"/><path d="m409.105469 18.765625v50.125h-401.101563v-50.125c0-6.226563 5.035156-11.261719 11.261719-11.261719h378.578125c6.230469 0 11.261719 5.035156 11.261719 11.261719zm0 0" fill="#27bef4"/><path d="m409.105469 18.765625v50.125h-32.65625v-50.125c0-6.226563-5.035157-11.261719-11.261719-11.261719h32.65625c6.230469 0 11.261719 5.035156 11.261719 11.261719zm0 0" fill="#209ced"/><path d="m132.296875 7.503906v61.386719h-124.292969v-50.125c0-6.226563 5.035156-11.261719 11.261719-11.261719zm0 0" fill="#197ae5"/><path d="m350.699219 211.753906h-276.625c-5.363281 0-9.707031-4.347656-9.707031-9.707031v-82.644531c0-5.359375 4.34375-9.707032 9.707031-9.707032h276.625c5.363281 0 9.707031 4.347657 9.707031 9.707032v82.644531c0 5.359375-4.34375 9.707031-9.707031 9.707031zm0 0" fill="#00e2c7"/><path d="m452.230469 481.667969-13.28125-6.464844c-5.085938-2.472656-11.058594.976563-11.460938 6.621094l-1.035156 14.730469c-.558594 7.851562-10.945313 10.246093-14.886719 3.429687l-39.007812-67.566406-21.046875-36.457031 51.070312-29.484376 13.160157 22.804688 46.894531 81.21875c3.941406 6.816406-3.328125 14.621094-10.40625 11.167969zm0 0" fill="#fc6393"/><path d="m415.742188 389.28125c-.683594 1.46875-1.261719 2.992188-1.71875 4.578125-5.742188 19.625-21.984376 34.296875-41.464844 38.558594l-21.046875-36.457031 51.070312-29.484376zm0 0" fill="#f2256f"/><path d="m402.578125 366.484375 60.058594 104.019531c3.9375 6.816406-3.328125 14.617188-10.410157 11.164063l-5.179687-2.523438-59.902344-103.75zm0 0" fill="#f2256f"/><path d="m211.535156 497.070312-1.042968-14.726562c-.398438-5.644531-6.375-9.09375-11.460938-6.617188l-13.273438 6.460938c-7.082031 3.449219-14.347656-4.351562-10.410156-11.171875l60.054688-104.015625 51.066406 29.484375-60.054688 104.015625c-3.9375 6.820312-14.324218 4.425781-14.878906-3.429688zm0 0" fill="#fc6393"/><path d="m235.398438 367.003906 51.070312 29.476563-20.773438 35.976562c-19.539062-4.226562-35.859374-18.921875-41.609374-38.597656-.441407-1.527344-1-2.992187-1.644532-4.410156zm0 0" fill="#f2256f"/><path d="m286.464844 396.484375-60.054688 104.015625c-3.9375 6.820312-14.324218 4.429688-14.875-3.429688l-.40625-5.75 59.898438-103.75zm0 0" fill="#f2256f"/><path d="m339.988281 137.949219c24.425781-13.378907 54.957031-.730469 62.769531 25.996093 4.171876 14.277344 15.332032 25.4375 29.605469 29.609376 26.730469 7.8125 39.378907 38.34375 26 62.769531-7.144531 13.042969-7.144531 28.828125 0 41.871093 13.378907 24.421876.730469 54.957032-26 62.769532-14.273437 4.167968-25.433593 15.332031-29.605469 29.605468-7.8125 26.730469-38.34375 39.375-62.769531 26-13.042969-7.144531-28.828125-7.144531-41.871093 0-24.425782 13.375-54.957032.730469-62.769532-26-4.171875-14.273437-15.332031-25.4375-29.605468-29.605468-26.730469-7.8125-39.378907-38.347656-26-62.769532 7.144531-13.042968 7.144531-28.828124 0-41.871093-13.378907-24.425781-.730469-54.957031 26-62.769531 14.273437-4.171876 25.433593-15.332032 29.605468-29.609376 7.8125-26.726562 38.34375-39.375 62.769532-25.996093 13.042968 7.140625 28.828124 7.140625 41.871093 0zm0 0" fill="#fc6393"/><path d="m421.9375 277.257812c0 56.824219-46.0625 102.886719-102.886719 102.886719-56.820312 0-102.882812-46.0625-102.882812-102.886719 0-56.820312 46.0625-102.882812 102.882812-102.882812 56.824219 0 102.886719 46.0625 102.886719 102.882812zm0 0" fill="#f8e98e"/><path d="m397.417969 277.257812c0 43.28125-35.085938 78.367188-78.367188 78.367188-43.277343 0-78.363281-35.085938-78.363281-78.367188 0-43.277343 35.085938-78.363281 78.363281-78.363281 43.28125 0 78.367188 35.085938 78.367188 78.363281zm0 0" fill="#fab03c"/><path d="m332.789062 308.066406h-5.144531v-70.203125c0-3.21875-1.796875-6.167969-4.660156-7.640625-2.863281-1.46875-6.304687-1.222656-8.925781.652344l-11.101563 7.929688c-3.859375 2.757812-4.75 8.125-1.992187 11.984374 2.199218 3.082032 6.066406 4.273438 9.5 3.222657v54.054687h-5.148438c-4.742187 0-8.589844 3.847656-8.589844 8.589844 0 4.746094 3.847657 8.589844 8.589844 8.589844h27.472656c4.746094 0 8.589844-3.84375 8.589844-8.589844 0-4.742188-3.847656-8.589844-8.589844-8.589844zm0 0" fill="#f1eded"/><path d="m46.691406 30.691406h-.097656c-4.144531 0-7.5 3.359375-7.5 7.5 0 4.144532 3.355469 7.5 7.5 7.5h.097656c4.144532 0 7.5-3.355468 7.5-7.5 0-4.140625-3.355468-7.5-7.5-7.5zm0 0"/><path d="m69.785156 30.679688h-.097656c-4.144531 0-7.449219 3.359374-7.449219 7.5 0 4.144531 3.40625 7.5 7.546875 7.5 4.144532 0 7.5-3.355469 7.5-7.5 0-4.140626-3.355468-7.5-7.5-7.5zm0 0"/><path d="m92.957031 30.671875-.101562-.003906c-4.125-.039063-7.484375 3.285156-7.523438 7.429687-.042969 4.140625 3.335938 7.53125 7.476563 7.574219h.074218c4.105469 0 7.457032-3.3125 7.5-7.429687.039063-4.140626-3.285156-7.53125-7.425781-7.570313zm0 0"/><path d="m429.4375 277.257812c0-60.867187-49.519531-110.386718-110.386719-110.386718-60.863281 0-110.382812 49.519531-110.382812 110.386718 0 60.867188 49.519531 110.386719 110.382812 110.386719 60.867188 0 110.386719-49.519531 110.386719-110.386719zm-110.386719 95.386719c-52.59375 0-95.382812-42.789062-95.382812-95.386719 0-52.59375 42.789062-95.382812 95.382812-95.382812 52.597657 0 95.386719 42.789062 95.386719 95.382812 0 52.597657-42.789062 95.386719-95.386719 95.386719zm0 0"/><path d="m319.050781 191.394531c-47.34375 0-85.863281 38.519531-85.863281 85.863281 0 47.347657 38.519531 85.863282 85.863281 85.863282 47.347657 0 85.867188-38.515625 85.867188-85.863282 0-47.34375-38.519531-85.863281-85.867188-85.863281zm0 156.726563c-39.074219 0-70.863281-31.789063-70.863281-70.863282 0-39.074218 31.789062-70.863281 70.863281-70.863281 39.078125 0 70.867188 31.789063 70.867188 70.863281 0 39.074219-31.789063 70.863282-70.867188 70.863282zm0 0"/><path d="m335.144531 300.738281v-62.878906c0-6.054687-3.34375-11.535156-8.734375-14.308594-5.386718-2.769531-11.789062-2.300781-16.710937 1.21875l-11.101563 7.933594c-3.496094 2.496094-5.8125 6.207031-6.515625 10.449219-.707031 4.238281.28125 8.5 2.777344 11.996094 2.054687 2.871093 4.914063 4.90625 8.105469 5.949218v39.640625c-7.761719 1.140625-13.738282 7.84375-13.738282 15.917969 0 8.871094 7.21875 16.089844 16.089844 16.089844h27.472656c8.871094 0 16.089844-7.21875 16.089844-16.089844 0-8.074219-5.976562-14.777344-13.734375-15.917969zm-2.355469 17.007813h-27.472656c-.601562 0-1.089844-.488282-1.089844-1.089844s.488282-1.089844 1.089844-1.089844h5.148438c4.140625 0 7.5-3.359375 7.5-7.5v-54.058594c0-2.378906-1.128906-4.613281-3.042969-6.03125-1.914063-1.414062-4.382813-1.835937-6.660156-1.136718-.367188.113281-.882813.027344-1.195313-.414063-.21875-.304687-.222656-.609375-.191406-.8125.035156-.203125.140625-.492187.441406-.707031l11.105469-7.933594c.332031-.238281.765625-.269531 1.128906-.082031s.589844.558594.589844.96875v70.207031c0 4.140625 3.359375 7.5 7.5 7.5h5.148437c.601563 0 1.089844.488282 1.089844 1.089844 0 .597656-.488281 1.089844-1.089844 1.089844zm0 0"/><path d="m434.46875 368.164062c14.933594-4.367187 26.910156-15.113281 32.863281-29.484374 5.957031-14.375 5.082031-30.441407-2.390625-44.085938-5.941406-10.855469-5.941406-23.816406 0-34.667969 7.472656-13.644531 8.347656-29.714843 2.390625-44.085937-5.953125-14.375-17.929687-25.121094-32.863281-29.484375-7.164062-2.09375-13.328125-6.269531-17.863281-11.851563 0-.042968.003906-.085937.003906-.132812v-155.609375c0-10.34375-8.414063-18.761719-18.761719-18.761719h-53.644531c-4.140625 0-7.5 3.355469-7.5 7.5s3.359375 7.5 7.5 7.5h53.644531c2.074219 0 3.761719 1.6875 3.761719 3.761719v42.628906h-261.8125v-46.390625h171.746094c4.144531 0 7.5-3.355469 7.5-7.5s-3.355469-7.5-7.5-7.5h-292.28125c-10.34375 0-18.761719 8.417969-18.761719 18.761719v148.90625c0 4.144531 3.359375 7.5 7.5 7.5s7.5-3.355469 7.5-7.5v-91.277344h386.109375v68.886719c-5.394531-7.117188-12.621094-12.773438-21.136719-16.300782-4.082031-1.6875-8.304687-2.808593-12.566406-3.402343v-6.171875c0-9.488282-7.71875-17.207032-17.207031-17.207032h-276.625c-9.488281 0-17.207031 7.71875-17.207031 17.207032v82.644531c0 9.488281 7.71875 17.207031 17.207031 17.207031h33.46875c4.140625 0 7.5-3.359375 7.5-7.5 0-4.144531-3.359375-7.5-7.5-7.5h-33.46875c-1.214844 0-2.207031-.992187-2.207031-2.207031v-82.644531c0-1.214844.992187-2.207032 2.207031-2.207032h276.625c1.21875 0 2.207031.992188 2.207031 2.207032v6.308594c-5.707031.910156-11.292969 2.796874-16.519531 5.660156-10.851563 5.945312-23.8125 5.945312-34.667969 0-13.644531-7.472656-29.710938-8.347656-44.085938-2.394532-14.371093 5.957032-25.117187 17.933594-29.480468 32.867188-3.472656 11.878906-12.636719 21.042969-24.515625 24.511719-10.570313 3.089843-19.644531 9.390625-26.164063 17.898437h-37.269531c-4.140625 0-7.5 3.355469-7.5 7.5 0 4.140625 3.359375 7.5 7.5 7.5h29.3125c-4.503906 13.46875-3.238281 28.097656 3.648437 40.671875 5.945313 10.855469 5.945313 23.816407 0 34.667969-7.472656 13.644531-8.34375 29.714844-2.390624 44.085938 4.75 11.46875 13.339843 20.613281 24.203124 26.0625h-175.714843c-2.074219 0-3.761719-1.6875-3.761719-3.761719v-160.648438c0-4.144531-3.355469-7.5-7.5-7.5-4.140625 0-7.5 3.355469-7.5 7.5v160.648438c0 10.347656 8.417969 18.761719 18.761719 18.761719h200.125l-50.539063 87.527343c-3.421875 5.9375-2.582031 13.292969 2.09375 18.300781 4.671875 5.011719 11.949219 6.359376 18.105469 3.359376l13.265625-6.464844c.082031-.039063.230469-.109375.453125.019531.230469.128906.238281.300781.246094.386719l1.039062 14.730468c.484375 6.832032 5.292969 12.457032 11.96875 13.996094 1.179688.269532 2.359375.402344 3.527344.402344 5.4375 0 10.539063-2.863281 13.363281-7.746094l43.199219-74.828125c.367187.007813.734375.027344 1.101563.027344 8.449218 0 16.859374-2.113281 24.511718-6.304687 10.851563-5.945313 23.808594-5.945313 34.664063 0 8.035156 4.398437 16.910156 6.492187 25.785156 6.269531l42.902344 74.3125c2.824219 4.886719 7.921875 7.75 13.363281 7.75 1.167969 0 2.347656-.132813 3.527344-.402344 6.675781-1.539063 11.484375-7.164063 11.96875-14l1.039062-14.726563c.007813-.089843.019532-.257812.242188-.386718s.371094-.054688.453125-.015625l13.273437 6.460937c6.160156 3 13.4375 1.648438 18.109375-3.363281 4.667969-5.015625 5.507813-12.367187 2.082031-18.300781l-51.058593-88.433594c4.363281-4.726562 9.976562-8.273438 16.394531-10.148438zm-418.96875-349.402343c0-2.074219 1.6875-3.761719 3.761719-3.761719h105.535156v46.390625h-109.296875zm204.417969 477.988281c-.117188.207031-.179688.308594-.53125.230469-.351563-.082031-.359375-.203125-.375-.4375l-1.039063-14.734375c-.363281-5.136719-3.246094-9.742188-7.707031-12.316406-4.460937-2.574219-9.886719-2.765626-14.519531-.511719l-13.273438 6.464843c-.210937.101563-.320312.15625-.5625-.105468-.246094-.265625-.1875-.367188-.070312-.570313l46.699218-80.886719c4.582032 14.367188 15.113282 25.867188 29.09375 31.65625.921876.382813 1.855469.726563 2.789063 1.054688zm99.132812-93.070312c-8.425781 0-16.851562 2.105468-24.535156 6.3125-9.640625 5.28125-20.988281 5.894531-31.140625 1.691406-10.152344-4.207032-17.746094-12.667969-20.828125-23.21875-4.914063-16.8125-17.886719-29.785156-34.703125-34.699219-10.546875-3.082031-19.007812-10.675781-23.210938-20.828125-4.207031-10.152344-3.589843-21.5 1.6875-31.140625 8.414063-15.363281 8.414063-33.710937 0-49.074219-5.277343-9.640625-5.894531-20.988281-1.6875-31.144531 4.203126-10.152344 12.664063-17.742187 23.210938-20.824219 16.816406-4.914062 29.789062-17.886718 34.703125-34.703125 3.085937-10.546875 10.675781-19.007812 20.828125-23.214843 10.152344-4.203126 21.503906-3.589844 31.140625 1.691406 15.363281 8.414062 33.710937 8.414062 49.078125 0 9.636719-5.28125 20.988281-5.894532 31.140625-1.691406 10.152344 4.207031 17.742187 12.667968 20.824219 23.214843 4.914062 16.816407 17.886718 29.789063 34.703125 34.703125 10.546875 3.082032 19.007812 10.671875 23.214843 20.824219 4.203126 10.152344 3.589844 21.503906-1.6875 31.144531-8.417968 15.363282-8.417968 33.710938 0 49.074219 5.277344 9.640625 5.894532 20.988281 1.6875 31.140625-4.207031 10.152344-12.667968 17.746094-23.214843 20.828125-16.816407 4.914063-29.789063 17.886719-34.703125 34.703125-3.082032 10.546875-10.671875 19.007812-20.824219 23.214844-10.152344 4.203125-21.503906 3.589844-31.140625-1.691406-7.683594-4.207032-16.113281-6.3125-24.542969-6.3125zm137.023438 71.140624c-.242188.261719-.351563.207032-.566407.105469l-13.273437-6.464843c-4.632813-2.253907-10.058594-2.0625-14.519531.511718-4.460938 2.578125-7.34375 7.183594-7.707032 12.320313l-1.039062 14.730469c-.019531.234374-.027344.355468-.375.4375-.351562.078124-.410156-.023438-.53125-.230469l-40.230469-69.683594c.882813-.3125 1.765625-.644531 2.640625-1.007813 14.042969-5.816406 24.605469-17.394531 29.15625-31.851562l46.511719 80.558594c.121094.207031.179687.3125-.066406.574218zm0 0"/><path d="m71.777344 271.335938h.109375c4.140625 0 7.5-3.359376 7.5-7.5 0-4.144532-3.359375-7.5-7.5-7.5h-.109375c-4.140625 0-7.5 3.355468-7.5 7.5 0 4.140624 3.359375 7.5 7.5 7.5zm0 0"/><path d="m97.480469 271.335938h47.34375c4.140625 0 7.5-3.359376 7.5-7.5 0-4.144532-3.359375-7.5-7.5-7.5h-47.34375c-4.140625 0-7.5 3.355468-7.5 7.5 0 4.140624 3.359375 7.5 7.5 7.5zm0 0"/><path d="m71.777344 294.390625h.109375c4.140625 0 7.5-3.355469 7.5-7.5s-3.359375-7.5-7.5-7.5h-.109375c-4.140625 0-7.5 3.355469-7.5 7.5s3.359375 7.5 7.5 7.5zm0 0"/><path d="m97.480469 294.390625h47.34375c4.140625 0 7.5-3.355469 7.5-7.5s-3.359375-7.5-7.5-7.5h-47.34375c-4.140625 0-7.5 3.355469-7.5 7.5s3.359375 7.5 7.5 7.5zm0 0"/><path d="m71.777344 317.445312h.109375c4.140625 0 7.5-3.359374 7.5-7.5 0-4.144531-3.359375-7.5-7.5-7.5h-.109375c-4.140625 0-7.5 3.355469-7.5 7.5 0 4.140626 3.359375 7.5 7.5 7.5zm0 0"/><path d="m97.480469 317.445312h47.34375c4.140625 0 7.5-3.359374 7.5-7.5 0-4.144531-3.359375-7.5-7.5-7.5h-47.34375c-4.140625 0-7.5 3.355469-7.5 7.5 0 4.140626 3.359375 7.5 7.5 7.5zm0 0"/></svg>