<svg height="512pt" viewBox="0 -21 512.001 512" width="512pt" xmlns="http://www.w3.org/2000/svg"><path d="m504.5 18.722656v340.929688c0 6.195312-5.019531 11.214844-11.21875 11.214844h-377.15625c-6.195312 0-11.214844-5.023438-11.214844-11.214844v-340.929688c0-6.195312 5.019532-11.226562 11.214844-11.226562h377.15625c6.199219 0 11.21875 5.03125 11.21875 11.226562zm0 0" fill="#f1eded"/><path d="m261.074219 253.363281v117.503907h-109.597657v-117.503907c0-5.5 4.460938-9.960937 9.960938-9.960937h89.671875c5.503906 0 9.964844 4.460937 9.964844 9.960937zm0 0" fill="#fab03c"/><path d="m504.496094 18.722656v340.925782c0 6.195312-5.015625 11.21875-11.21875 11.21875h-32.535156c6.203124 0 11.21875-5.023438 11.21875-11.21875v-340.925782c0-6.203125-5.015626-11.21875-11.21875-11.21875h32.535156c6.203125 0 11.21875 5.015625 11.21875 11.21875zm0 0" fill="#dad0cd"/><path d="m504.496094 18.722656v49.9375h-399.589844v-49.9375c0-6.203125 5.015625-11.21875 11.222656-11.21875h377.148438c6.203125 0 11.21875 5.015625 11.21875 11.21875zm0 0" fill="#27bef4"/><path d="m504.496094 18.722656v49.9375h-32.535156v-49.9375c0-6.203125-5.015626-11.21875-11.21875-11.21875h32.535156c6.203125 0 11.21875 5.015625 11.21875 11.21875zm0 0" fill="#209ced"/><path d="m228.730469 7.503906v61.15625h-123.824219v-49.9375c0-6.203125 5.015625-11.21875 11.222656-11.21875zm0 0" fill="#197ae5"/><path d="m447.136719 202.929688h-285.699219c-5.503906 0-9.960938-4.460938-9.960938-9.960938v-62.582031c0-5.503907 4.460938-9.960938 9.960938-9.960938h285.699219c5.5 0 9.960937 4.460938 9.960937 9.960938v62.582031c0 5.5-4.460937 9.960938-9.960937 9.960938zm0 0" fill="#00e2c7"/><path d="m242.285156 349.273438c-8.289062-43.972657-46.894531-77.238282-93.277344-77.238282-51.222656 0-92.964843 40.574219-94.855468 91.335938-25.996094 1.375-46.652344 22.886718-46.652344 49.226562 0 27.226563 22.070312 49.296875 49.296875 49.296875h168.03125c31.84375 0 57.660156-25.816406 57.660156-57.660156 0-25.757813-16.894531-47.5625-40.203125-54.960937zm0 0" fill="#2ee0fd"/><path d="m282.488281 404.234375c0 26.304687-17.617187 48.496094-41.691406 55.417969 11.855469-10.558594 19.320313-25.9375 19.320313-43.0625 0-25.757813-16.890626-47.5625-40.195313-54.964844-8.289063-43.96875-46.898437-77.234375-93.28125-77.234375-12.078125 0-23.625 2.257813-34.25 6.367187 15.800781-11.765624 35.398437-18.726562 56.621094-18.726562 46.382812 0 84.984375 33.269531 93.277343 77.238281 23.304688 7.398438 40.199219 29.210938 40.199219 54.964844zm0 0" fill="#27bef4"/><path d="m493.28125 0h-377.15625c-10.324219 0-18.71875 8.398438-18.71875 18.71875v259.730469c-7.007812 4.097656-13.566406 9.054687-19.535156 14.824219-17.574219 16.972656-28.359375 39.269531-30.769532 63.351562-26.894531 4.613281-47.101562 28.027344-47.101562 55.972656 0 31.316406 25.480469 56.796875 56.796875 56.796875h92.871094c4.144531 0 7.5-3.355469 7.5-7.5s-3.355469-7.5-7.5-7.5h-92.871094c-23.046875 0-41.796875-18.75-41.796875-41.796875 0-22.230468 17.371094-40.5625 39.550781-41.734375 3.875-.207031 6.953125-3.332031 7.097657-7.210937.84375-22.652344 10.304687-43.8125 26.640624-59.589844 16.382813-15.816406 37.945313-24.527344 60.722657-24.527344 42.007812 0 78.136719 29.914063 85.90625 71.128906.511719 2.710938 2.472656 4.921876 5.101562 5.757813 20.914063 6.640625 34.96875 25.855469 34.96875 47.8125 0 27.65625-22.503906 50.160156-50.160156 50.160156h-42.496094c-4.144531 0-7.5 3.355469-7.5 7.5s3.355469 7.5 7.5 7.5h42.496094c35.929687 0 65.160156-29.230469 65.160156-65.160156 0-9.128906-1.875-17.886719-5.308593-25.867187h208.601562c10.320312 0 18.71875-8.398438 18.71875-18.71875v-127.621094c0-4.144532-3.355469-7.5-7.5-7.5-4.140625 0-7.5 3.355468-7.5 7.5v127.621094c0 2.050781-1.667969 3.71875-3.71875 3.71875h-217.628906c-2.148438-2.675782-4.519532-5.175782-7.078125-7.484376v-102.519531c0-9.628906-7.832031-17.460937-17.460938-17.460937h-89.671875c-9.628906 0-17.460937 7.832031-17.460937 17.460937v11.292969c-10.925781.527344-21.558594 2.777344-31.574219 6.605469v-195.105469h384.59375v123.210938c0 4.140624 3.355469 7.5 7.5 7.5s7.5-3.359376 7.5-7.5v-180.648438c0-10.320312-8.398438-18.71875-18.71875-18.71875zm-331.839844 250.902344h89.671875c1.355469 0 2.460938 1.105468 2.460938 2.460937v92.375c-1.566407-.765625-3.171875-1.476562-4.816407-2.121093-9.972656-42.835938-46.347656-74.355469-89.78125-78.582032v-11.671875c.003907-1.355469 1.105469-2.460937 2.464844-2.460937zm-49.035156-232.183594c0-2.050781 1.667969-3.71875 3.71875-3.71875h105.105469v46.15625h-108.824219zm123.824219 42.4375v-46.15625h257.050781c2.050781 0 3.71875 1.667969 3.71875 3.71875v42.4375zm0 0"/><path d="m143.449219 30.578125h-.097657c-4.140624 0-7.449218 3.355469-7.449218 7.5 0 4.140625 3.40625 7.5 7.546875 7.5 4.144531 0 7.5-3.359375 7.5-7.5 0-4.144531-3.355469-7.5-7.5-7.5zm0 0"/><path d="m166.53125 30.566406h-.097656c-.027344 0-.050782 0-.074219 0-4.109375 0-7.410156 3.308594-7.449219 7.425782-.042968 4.140624 3.332032 7.535156 7.476563 7.574218h.074219c4.105468 0 7.457031-3.308594 7.496093-7.425781.042969-4.144531-3.28125-7.53125-7.425781-7.574219zm0 0"/><path d="m189.464844 30.554688h-.097656c-4.144532 0-7.453126 3.355468-7.453126 7.5 0 4.144531 3.410157 7.5 7.550782 7.5 4.144531 0 7.5-3.355469 7.5-7.5 0-4.144532-3.355469-7.5-7.5-7.5zm0 0"/><path d="m464.597656 130.386719c0-9.628907-7.832031-17.460938-17.460937-17.460938h-213.804688c-4.144531 0-7.5 3.355469-7.5 7.5 0 4.140625 3.355469 7.5 7.5 7.5h213.804688c1.355469 0 2.460937 1.101563 2.460937 2.460938v62.582031c0 1.355469-1.105468 2.460938-2.460937 2.460938h-285.699219c-1.359375 0-2.460938-1.105469-2.460938-2.460938v-62.582031c0-1.355469 1.101563-2.460938 2.460938-2.460938h39.234375c4.140625 0 7.5-3.359375 7.5-7.5 0-4.144531-3.359375-7.5-7.5-7.5h-39.234375c-9.628906 0-17.460938 7.832031-17.460938 17.460938v62.582031c0 9.628906 7.832032 17.460938 17.460938 17.460938h285.699219c9.628906 0 17.460937-7.832032 17.460937-17.460938zm0 0"/><path d="m298.503906 235.902344h-.113281c-.023437 0-.042969 0-.066406 0-4.109375 0-7.460938 3.3125-7.5 7.433594-.035157 4.144531 3.292969 7.53125 7.4375 7.566406h.109375.066406c4.113281 0 7.464844-3.3125 7.5-7.433594.035156-4.140625-3.292969-7.527344-7.433594-7.566406zm0 0"/><path d="m457.097656 235.902344h-132.296875c-4.140625 0-7.5 3.355468-7.5 7.5 0 4.144531 3.359375 7.5 7.5 7.5h132.296875c4.140625 0 7.5-3.355469 7.5-7.5 0-4.144532-3.359375-7.5-7.5-7.5zm0 0"/><path d="m298.4375 259.652344h-.113281c-4.140625 0-7.5 3.359375-7.5 7.5 0 4.144531 3.359375 7.5 7.5 7.5h.113281c4.140625 0 7.5-3.355469 7.5-7.5 0-4.140625-3.359375-7.5-7.5-7.5zm0 0"/><path d="m457.097656 259.652344h-132.296875c-4.140625 0-7.5 3.359375-7.5 7.5 0 4.144531 3.359375 7.5 7.5 7.5h132.296875c4.140625 0 7.5-3.355469 7.5-7.5 0-4.140625-3.359375-7.5-7.5-7.5zm0 0"/><path d="m298.390625 283.402344c-.023437 0-.042969 0-.066406 0-4.109375 0-7.460938 3.316406-7.5 7.4375-.035157 4.140625 3.292969 7.527344 7.4375 7.5625l.109375.003906h.066406c4.113281 0 7.464844-3.316406 7.5-7.4375.035156-4.140625-3.292969-7.527344-7.433594-7.5625zm0 0"/><path d="m457.097656 283.402344h-132.296875c-4.140625 0-7.5 3.359375-7.5 7.5 0 4.144531 3.359375 7.5 7.5 7.5h132.296875c4.140625 0 7.5-3.355469 7.5-7.5 0-4.140625-3.359375-7.5-7.5-7.5zm0 0"/><path d="m337.511719 399.054688c-1.425781-1.621094-3.480469-2.550782-5.640625-2.550782-2.15625 0-4.214844.929688-5.636719 2.550782l-14.734375 16.792968c-2.730469 3.113282-2.421875 7.855469.691406 10.585938 3.113282 2.730468 7.855469 2.421875 10.585938-.691406l9.09375-10.367188 9.097656 10.367188c1.480469 1.691406 3.554688 2.554687 5.640625 2.554687 1.753906 0 3.519531-.613281 4.941406-1.863281 3.113281-2.730469 3.425781-7.46875.691407-10.582032zm0 0"/><path d="m406.878906 398.363281c-3.117187-2.730469-7.855468-2.421875-10.585937.691407l-9.097657 10.367187-9.09375-10.367187c-2.730468-3.113282-7.46875-3.421876-10.582031-.691407-3.113281 2.734375-3.425781 7.472657-.691406 10.585938l14.730469 16.792969c1.425781 1.621093 3.480468 2.554687 5.636718 2.554687 2.160157 0 4.214844-.933594 5.640626-2.554687l14.730468-16.792969c2.734375-3.113281 2.421875-7.851563-.6875-10.585938zm0 0"/></svg>