<svg height="512pt" viewBox="0 -1 512 512" width="512pt" xmlns="http://www.w3.org/2000/svg"><path d="m377.53125 299.566406c-18.046875-49.648437-65.644531-85.109375-121.53125-85.109375s-103.484375 35.460938-121.53125 85.109375zm0 0" fill="#209ced"/><path d="m377.53125 299.566406h-29.960938c-16.398437-45.148437-57.25-78.558594-106.550781-84.25 4.910157-.570312 9.910157-.859375 14.980469-.859375 55.890625 0 103.488281 35.460938 121.53125 85.109375zm0 0" fill="#197ae5"/><path d="m413.722656 294.59375v177.957031c0 7.511719-6.097656 13.601563-13.601562 13.601563h-288.21875c-4.949219 0-9.265625-2.628906-11.644532-6.574219-1.25-2.042969-1.957031-4.449219-1.957031-7.027344v-177.957031c0-7.519531 6.082031-13.613281 13.601563-13.613281h288.21875c7.503906 0 13.601562 6.09375 13.601562 13.613281zm0 0" fill="#f1eded"/><path d="m413.71875 294.597656v177.957032c0 7.507812-6.089844 13.597656-13.601562 13.597656h-24.433594c7.511718 0 13.601562-6.089844 13.601562-13.597656v-177.957032c0-7.519531-6.089844-13.621094-13.601562-13.621094h24.433594c7.511718 0 13.601562 6.101563 13.601562 13.621094zm0 0" fill="#dad0cd"/><path d="m7.5 472.359375h497v31.015625h-497zm0 0" fill="#50758e"/><path d="m285.957031 384.894531c0 16.546875-13.410156 29.957031-29.957031 29.957031s-29.957031-13.410156-29.957031-29.957031c0-16.542969 13.410156-29.957031 29.957031-29.957031s29.957031 13.414062 29.957031 29.957031zm0 0" fill="#14f2d7"/><path d="m330.164062 112.554688v57.222656c0 40.957031-33.203124 74.164062-74.164062 74.164062s-74.164062-33.203125-74.164062-74.164062v-57.222656c0-38.621094 29.515624-70.355469 67.238281-73.835938 2.273437-.21875 4.585937-.328125 6.925781-.328125 17.117188 0 32.890625 5.796875 45.4375 15.539063 2.460938 1.921874 4.804688 3.972656 7.007812 6.179687 13.417969 13.429687 21.71875 31.964844 21.71875 52.445313zm0 0" fill="#ffc299"/><path d="m330.160156 112.558594v57.21875c0 40.960937-33.199218 74.160156-74.160156 74.160156-3.539062 0-7.03125-.25-10.441406-.742188 36.011718-5.066406 63.722656-36.007812 63.722656-73.417968v-57.21875c0-20.480469-8.3125-39.023438-21.722656-52.453125-2.207032-2.199219-4.546875-4.257813-7.007813-6.179688-9.941406-7.71875-21.902343-12.957031-34.960937-14.796875 1.148437-.171875 2.308594-.300781 3.480468-.410156 2.28125-.222656 4.589844-.332031 6.929688-.332031 17.121094 0 32.890625 5.800781 45.441406 15.539062 2.457032 1.921875 4.796875 3.980469 7.007813 6.179688 13.410156 13.429687 21.710937 31.972656 21.710937 52.453125zm0 0" fill="#ffaa71"/><path d="m330.164062 112.554688v10.476562c-33.964843-3.796875-72.855468-19.484375-80.285156-70.011719 0-3.988281-.34375-8.902343-.804687-14.300781 2.273437-.21875 4.585937-.328125 6.925781-.328125 17.121094 0 32.890625 5.796875 45.4375 15.539063 2.464844 1.921874 4.804688 3.972656 7.007812 6.179687 13.417969 13.429687 21.71875 31.964844 21.71875 52.445313zm0 0" fill="#2b597f"/><path d="m301.4375 53.929688c-10.765625 73.101562-87.335938 73.292968-119.601562 70.027343v-11.402343c0-40.960938 33.203124-74.164063 74.164062-74.164063 17.117188 0 32.890625 5.796875 45.4375 15.539063zm0 0" fill="#50758e"/><path d="m378.761719 193.605469h-19.667969v-61.339844h19.667969c6.582031 0 11.917969 5.335937 11.917969 11.917969v37.503906c0 6.582031-5.335938 11.917969-11.917969 11.917969zm0 0" fill="#209ced"/><path d="m133.238281 193.605469h19.667969v-61.339844h-19.667969c-6.582031 0-11.917969 5.335937-11.917969 11.917969v37.503906c0 6.582031 5.335938 11.917969 11.917969 11.917969zm0 0" fill="#209ced"/><path d="m138.652344 273.480469h-26.75c-11.632813 0-21.097656 9.472656-21.097656 21.113281v63.511719c0 4.144531 3.355468 7.5 7.5 7.5 4.140624 0 7.5-3.355469 7.5-7.5v-63.511719c0-3.371094 2.734374-6.113281 6.097656-6.113281h288.21875c3.363281 0 6.101562 2.742187 6.101562 6.113281v94.511719c0 4.144531 3.355469 7.5 7.5 7.5 4.140625 0 7.5-3.355469 7.5-7.5v-94.511719c0-11.640625-9.464844-21.113281-21.101562-21.113281h-26.777344c-13.078125-21.777344-32.226562-39.707031-54.734375-51.347657 1.011719-1.207031 1.996094-2.441406 2.9375-3.707031h22.277344c10.679687 0 19.65625-7.386719 22.105469-17.320312h12.832031c10.707031 0 19.417969-8.710938 19.417969-19.417969v-37.503906c0-10.707032-8.710938-19.417969-19.417969-19.417969h-12.167969v-14.171875c0-60.980469-49.613281-110.59375-110.59375-110.59375s-110.59375 49.613281-110.59375 110.59375v14.171875h-12.167969c-10.707031 0-19.417969 8.710937-19.417969 19.417969v37.503906c0 10.707031 8.710938 19.417969 19.417969 19.417969h12.167969v9.820312c0 4.144531 3.355469 7.5 7.5 7.5 4.140625 0 7.5-3.355469 7.5-7.5v-100.332031c0-52.710938 42.882812-95.59375 95.59375-95.59375s95.59375 42.882812 95.59375 95.59375v85.0625c0 4.285156-3.484375 7.769531-7.769531 7.769531h-13.445313c4.664063-10.269531 7.285156-21.65625 7.285156-33.648437v-57.222656c0-21.800782-8.492187-42.308594-23.914062-57.75-2.375-2.371094-4.964844-4.65625-7.714844-6.796876-14.417968-11.199218-31.71875-17.117187-50.035156-17.117187-2.574219 0-5.144531.121094-7.617188.359375-20.179687 1.863281-38.859374 11.144531-52.601562 26.140625-13.832031 15.089844-21.445312 34.679687-21.445312 55.164063v57.222656c0 19.910156 7.171874 38.167968 19.054687 52.355468-22.492187 11.636719-41.671875 29.585938-54.738281 51.347657zm-5.414063-87.375c-2.433593 0-4.417969-1.980469-4.417969-4.417969v-37.503906c0-2.4375 1.984376-4.417969 4.417969-4.417969h12.167969v46.339844zm245.523438-46.339844c2.433593 0 4.417969 1.980469 4.417969 4.417969v37.503906c0 2.4375-1.984376 4.417969-4.417969 4.417969h-12.167969v-46.339844zm-56.097657-27.210937v1.835937c-13.59375-2.355469-25.246093-6.585937-34.785156-12.632813 7.882813-8.589843 14.238282-19.484374 18.136719-33.265624 10.757813 12.195312 16.648437 27.675781 16.648437 44.0625zm-115.824218-45.027344c11.21875-12.242188 26.464844-19.820313 42.949218-21.34375 2.019532-.195313 4.109376-.292969 6.210938-.292969 13.476562 0 26.269531 3.933594 37.269531 11.390625-11.152343 56.839844-68.609375 62.140625-103.933593 59.777344v-4.503906c0-16.722657 6.214843-32.710938 17.503906-45.027344zm-17.503906 64.558594c3.660156.222656 7.746093.367187 12.144531.367187 22.070312 0 51.964843-3.710937 74.832031-20.386719 12.464844 8.796875 28.015625 14.667969 46.351562 17.515625v40.191407c0 12.273437-3.34375 23.765624-9.152343 33.652343h-32.511719c-4.144531 0-7.5 3.355469-7.5 7.5s3.355469 7.5 7.5 7.5h20.507812c-11.921874 11.160157-27.925781 18.011719-45.507812 18.011719-36.757812 0-66.664062-29.902344-66.664062-66.664062zm15.386718 101.183593c14.027344 11.351563 31.867188 18.171875 51.277344 18.171875 19.40625 0 37.246094-6.820312 51.277344-18.167968 19.191406 8.933593 35.90625 22.933593 48.164062 40.207031h-198.886718c12.253906-17.269531 29-31.28125 48.167968-40.210938zm0 0"/><path d="m504.5 464.859375h-83.277344v-43.09375c0-4.140625-3.359375-7.5-7.5-7.5-4.144531 0-7.5 3.359375-7.5 7.5v43.09375h-300.417968v-74.09375c0-4.140625-3.359376-7.5-7.5-7.5-4.144532 0-7.5 3.359375-7.5 7.5v74.09375h-83.304688c-4.144531 0-7.5 3.355469-7.5 7.5v31.015625c0 4.140625 3.355469 7.5 7.5 7.5h420.171875c4.140625 0 7.5-3.359375 7.5-7.5 0-4.144531-3.359375-7.5-7.5-7.5h-412.671875v-16.015625h482v16.015625h-36.671875c-4.140625 0-7.5 3.355469-7.5 7.5 0 4.140625 3.359375 7.5 7.5 7.5h44.171875c4.144531 0 7.5-3.359375 7.5-7.5v-31.015625c0-4.144531-3.355469-7.5-7.5-7.5zm0 0"/><path d="m218.542969 384.894531c0 20.65625 16.804687 37.457031 37.457031 37.457031s37.457031-16.800781 37.457031-37.457031c0-20.652343-16.804687-37.457031-37.457031-37.457031s-37.457031 16.804688-37.457031 37.457031zm59.914062 0c0 12.382813-10.074219 22.457031-22.457031 22.457031s-22.457031-10.074218-22.457031-22.457031c0-12.382812 10.074219-22.457031 22.457031-22.457031s22.457031 10.074219 22.457031 22.457031zm0 0"/><path d="m222.179688 160.265625h.140624c4.144532 0 7.5-3.355469 7.5-7.5s-3.355468-7.5-7.5-7.5h-.140624c-4.144532 0-7.5 3.355469-7.5 7.5s3.355468 7.5 7.5 7.5zm0 0"/><path d="m289.679688 160.265625h.140624c4.144532 0 7.5-3.355469 7.5-7.5s-3.355468-7.5-7.5-7.5h-.140624c-4.144532 0-7.5 3.355469-7.5 7.5s3.355468 7.5 7.5 7.5zm0 0"/><path d="m256 194.285156c4.144531 0 7.5-3.355468 7.5-7.5v-34.019531c0-4.144531-3.355469-7.5-7.5-7.5s-7.5 3.355469-7.5 7.5v34.019531c0 4.144532 3.355469 7.5 7.5 7.5zm0 0"/><path d="m75.84375 269.496094c1.460938 1.457031 3.375 2.183594 5.285156 2.183594 1.929688 0 3.855469-.738282 5.320313-2.210938 2.917969-2.941406 2.90625-7.6875-.03125-10.609375l-5.964844-5.925781c-2.933594-2.921875-7.683594-2.90625-10.605469.027344-2.917968 2.9375-2.90625 7.6875.03125 10.605468zm0 0"/><path d="m90.628906 254.480469c.90625 3.335937 3.929688 5.53125 7.230469 5.53125.652344 0 1.3125-.085938 1.972656-.265625 3.996094-1.085938 6.355469-5.207032 5.269531-9.203125l-2.207031-8.109375c-1.085937-4-5.210937-6.355469-9.203125-5.269532-4 1.089844-6.355468 5.207032-5.269531 9.207032zm0 0"/><path d="m59.511719 286.070312 8.121093 2.15625c.648438.171876 1.296876.253907 1.933594.253907 3.316406 0 6.351563-2.214844 7.242188-5.574219 1.0625-4.003906-1.316406-8.109375-5.320313-9.175781l-8.121093-2.15625c-4.003907-1.066407-8.113282 1.316406-9.175782 5.320312-1.066406 4.003907 1.316406 8.109375 5.320313 9.175781zm0 0"/><path d="m425.550781 269.464844c1.46875 1.476562 3.394531 2.214844 5.320313 2.214844 1.910156 0 3.824218-.730469 5.285156-2.183594l5.964844-5.929688c2.9375-2.917968 2.949218-7.667968.03125-10.605468-2.921875-2.9375-7.671875-2.949219-10.605469-.03125l-5.964844 5.929687c-2.9375 2.921875-2.949219 7.667969-.03125 10.605469zm0 0"/><path d="m412.167969 259.75c.65625.179688 1.320312.265625 1.972656.265625 3.300781 0 6.324219-2.195313 7.230469-5.535156l2.207031-8.109375c1.085937-3.996094-1.269531-8.117188-5.269531-9.207032-3.988282-1.078124-8.117188 1.273438-9.203125 5.269532l-2.207031 8.109375c-1.085938 3.996093 1.273437 8.117187 5.269531 9.207031zm0 0"/><path d="m435.191406 282.90625c.894532 3.359375 3.925782 5.574219 7.242188 5.574219.636718 0 1.285156-.082031 1.933594-.253907l8.121093-2.15625c4.003907-1.066406 6.386719-5.171874 5.320313-9.175781-1.066406-4.003906-5.171875-6.390625-9.175782-5.320312l-8.121093 2.15625c-4 1.066406-6.382813 5.171875-5.320313 9.175781zm0 0"/></svg>