<svg height="512pt" viewBox="0 0 512 511" width="512pt" xmlns="http://www.w3.org/2000/svg"><path d="m352.53125 232.902344c-16.519531 17.257812-39.8125 28.167968-65.992188 28.167968h-61.078124c-26.179688 0-49.472657-10.910156-65.992188-28.167968-18.917969-19.769532-28.957031-47.871094-24.277344-77.492188l10.886719-68.886718c7.140625-45.222657 46.121094-78.519532 91.902344-78.519532h36.039062c45.78125 0 84.761719 33.296875 91.902344 78.519532l10.886719 68.886718c4.679687 29.621094-5.359375 57.722656-24.277344 77.492188zm0 0" fill="#50758e"/><path d="m352.53125 232.902344c-16.519531 17.257812-39.8125 28.167968-65.992188 28.167968h-61.078124c-26.179688 0-49.472657-10.910156-65.992188-28.167968 16.640625-26.148438 45.839844-43.101563 78.511719-43.101563h36.039062c32.671875 0 61.871094 16.953125 78.511719 43.101563zm0 0" fill="#2b597f"/><path d="m377.53125 300.132812c-18.046875-49.648437-65.644531-85.113281-121.53125-85.113281s-103.484375 35.464844-121.53125 85.113281zm0 0" fill="#209ced"/><path d="m377.53125 300.132812h-29.960938c-16.398437-45.152343-57.25-78.5625-106.550781-84.25 4.910157-.570312 9.910157-.859374 14.980469-.859374 55.890625 0 103.488281 35.457031 121.53125 85.109374zm0 0" fill="#197ae5"/><path d="m413.722656 295.160156v177.957032c0 7.511718-6.097656 13.601562-13.601562 13.601562h-288.21875c-4.949219 0-9.265625-2.628906-11.644532-6.574219-1.25-2.042969-1.957031-4.449219-1.957031-7.027343v-177.957032c0-7.519531 6.082031-13.617187 13.601563-13.617187h288.21875c7.503906 0 13.601562 6.097656 13.601562 13.617187zm0 0" fill="#f1eded"/><path d="m413.71875 295.164062v177.953126c0 7.507812-6.089844 13.601562-13.601562 13.601562h-24.433594c7.511718 0 13.601562-6.089844 13.601562-13.601562v-177.953126c0-7.523437-6.089844-13.625-13.601562-13.625h24.433594c7.511718 0 13.601562 6.101563 13.601562 13.625zm0 0" fill="#dad0cd"/><path d="m7.5 472.925781h497v31.011719h-497zm0 0" fill="#50758e"/><path d="m285.957031 385.460938c0 16.542968-13.410156 29.957031-29.957031 29.957031s-29.957031-13.414063-29.957031-29.957031c0-16.546876 13.410156-29.957032 29.957031-29.957032s29.957031 13.410156 29.957031 29.957032zm0 0" fill="#14f2d7"/><path d="m325.316406 126.988281v53.484375c0 38.28125-31.035156 69.316406-69.316406 69.316406s-69.316406-31.035156-69.316406-69.316406v-53.484375c0-36.09375 27.585937-65.753906 62.84375-69.011719 2.121094-.203124 4.285156-.304687 6.472656-.304687 16 0 30.742188 5.417969 42.46875 14.523437 2.300781 1.792969 4.488281 3.714844 6.550781 5.777344 12.539063 12.550782 20.296875 29.875 20.296875 49.015625zm0 0" fill="#ffc299"/><path d="m325.3125 126.992188v53.480468c0 38.28125-31.03125 69.3125-69.3125 69.3125-3.308594 0-6.570312-.234375-9.757812-.691406 33.65625-4.738281 59.554687-33.65625 59.554687-68.621094v-53.480468c0-19.144532-7.765625-36.472657-20.300781-49.023438-2.066406-2.054688-4.253906-3.980469-6.550782-5.777344-9.289062-7.214844-20.46875-12.113281-32.675781-13.832031 1.074219-.160156 2.160157-.28125 3.253907-.382813 2.128906-.207031 4.289062-.308593 6.476562-.308593 16 0 30.742188 5.421875 42.46875 14.523437 2.300781 1.792969 4.488281 3.71875 6.554688 5.777344 12.53125 12.550781 20.289062 29.882812 20.289062 49.023438zm0 0" fill="#ffaa71"/><path d="m325.972656 139.003906h-139.945312c-4.984375 0-9.027344-4.042968-9.027344-9.03125v-28.21875c0-34.355468 27.847656-62.203125 62.203125-62.203125h33.59375c34.355469 0 62.203125 27.847657 62.203125 62.203125v28.21875c0 4.988282-4.042969 9.03125-9.027344 9.03125zm0 0" fill="#50758e"/><path d="m89.0625 235.90625c-12.523438-.542969-24.332031 2.273438-34.640625 7.597656l-21.148437-21.148437c-5.996094-5.996094-16.246094-1.75-16.246094 6.730469v74.804687c0 37.851563 30.113281 69.351563 67.964844 69.890625 38.964843.554688 70.648437-31.203125 69.972656-70.195312-.632813-36.226563-29.707032-66.101563-65.902344-67.679688zm0 0" fill="#fc6393"/><path d="m423.9375 156.429688c12.523438.542968 24.332031-2.273438 34.640625-7.59375l21.148437 21.144531c5.996094 5.996093 16.246094 1.75 16.246094-6.730469v-74.800781c0-37.855469-30.113281-69.351563-67.964844-69.894531-38.964843-.554688-70.648437 31.203124-69.972656 70.199218.632813 36.222656 29.707032 66.097656 65.902344 67.675782zm0 0" fill="#00e2c7"/><path d="m504.5 465.421875h-83.277344v-102.121094c0-4.144531-3.359375-7.5-7.5-7.5-4.144531 0-7.5 3.355469-7.5 7.5v102.121094h-300.417968v-86.71875c12.871093-3.421875 24.671874-10.183594 34.355468-19.898437 14.746094-14.792969 22.664063-34.449219 22.300782-55.351563-.085938-4.929687-.644532-9.742187-1.628907-14.410156h239.289063c3.363281 0 6.101562 2.742187 6.101562 6.117187v35.480469c0 4.140625 3.355469 7.5 7.5 7.5 4.140625 0 7.5-3.359375 7.5-7.5v-35.480469c0-11.644531-9.464844-21.117187-21.101562-21.117187h-26.777344c-6.347656-10.570313-14.140625-20.246094-23.066406-28.742188 26.476562-22.292969 39.40625-56.496093 33.941406-91.0625l-.59375-3.761719c11.449219 7.914063 25.160156 12.800782 39.984375 13.445313 11.472656.492187 22.90625-1.589844 33.390625-6.0625l17.421875 17.425781c3.265625 3.265625 7.597656 4.992188 12.015625 4.992188 2.195312 0 4.414062-.425782 6.53125-1.304688 6.382812-2.644531 10.503906-8.816406 10.503906-15.722656v-25.949219c0-4.144531-3.355468-7.5-7.5-7.5-4.144531 0-7.5 3.355469-7.5 7.5v25.949219c0 1.113281-.675781 1.628906-1.246094 1.863281-.570312.234375-1.410156.351563-2.199218-.433593l-21.144532-21.148438c-2.308593-2.308594-5.84375-2.859375-8.742187-1.359375-9.480469 4.890625-20.164063 7.226563-30.878906 6.765625-18.1875-.792969-34.300781-9.507812-45.03125-22.742188-.300781-.503906-.664063-.96875-1.070313-1.382812-7.714844-10.089844-12.386718-22.617188-12.625-36.191406-.292968-16.804688 6.074219-32.605469 17.925782-44.496094 11.855468-11.894531 27.660156-18.265625 44.4375-18.070312 33.402343.476562 60.574218 28.46875 60.574218 62.394531v16.191406c0 4.144531 3.355469 7.5 7.5 7.5 4.144532 0 7.5-3.355469 7.5-7.5v-16.191406c0-42.082031-33.808594-76.800781-75.359375-77.390625-.378906-.007813-.753906-.007813-1.128906-.007813-20.476563 0-39.667969 7.957031-54.144531 22.480469-4.882813 4.898438-9 10.339844-12.332032 16.171875-17.898437-30.304687-50.429687-49.203125-86.488281-49.203125h-36.042969c-15.585937 0-30.574218 3.503906-44.539062 10.414062-3.714844 1.839844-5.234375 6.339844-3.398438 10.050782 1.839844 3.710937 6.332032 5.230468 10.050782 3.394531 11.878906-5.878906 24.628906-8.859375 37.886718-8.859375h36.042969c34.769531 0 65.675781 20.652344 78.976563 52.675781-1.726563 6.664063-2.582032 13.609375-2.457032 20.707031.289063 16.570313 5.886719 31.894532 15.171876 44.328126l3.691406 23.371093c4.765625 30.144531-6.964844 59.964844-30.71875 78.824219-5.96875-4.550781-12.308594-8.605469-18.941406-12.117188 8.25-12.242187 13.074218-26.976562 13.074218-42.816406v-35.472656c5.703125-2.609375 9.683594-8.355469 9.683594-15.027344v-28.21875c0-13.304687-3.777344-26.257812-10.929688-37.453125-2.230468-3.492187-6.871093-4.511719-10.355468-2.285156-3.492188 2.226563-4.515625 6.867187-2.285156 10.355469 5.605468 8.78125 8.570312 18.941406 8.570312 29.382812v28.21875c0 .84375-.683594 1.527344-1.527344 1.527344h-16.136718v-27.5c0-4.140625-3.359376-7.5-7.5-7.5-4.144532 0-7.5 3.359375-7.5 7.5v27.5h-6.335938v-16.5c0-4.140625-3.355469-7.5-7.5-7.5s-7.5 3.359375-7.5 7.5v16.5h-87.472656c-.84375 0-1.527344-.683594-1.527344-1.527344v-28.21875c0-10.4375 2.964844-20.601562 8.574219-29.382812 2.226562-3.488282 1.203125-8.128906-2.285157-10.355469-3.488281-2.230469-8.128906-1.207031-10.359374 2.285156-7.148438 11.195313-10.929688 24.148438-10.929688 37.453125v28.21875c0 6.671875 3.980469 12.417969 9.683594 15.027344v35.472656c0 15.835938 4.820312 30.566406 13.066406 42.804688-6.664062 3.515625-13.007812 7.566406-18.972656 12.101562-23.714844-18.863281-35.4375-48.714844-30.679688-78.796875l10.886719-68.890625c2.691406-17.035156 10.371094-32.683594 22.207031-45.253906 2.839844-3.015625 2.699219-7.761719-.316406-10.601562-3.015625-2.839844-7.761719-2.699219-10.601562.320312-13.914063 14.769531-22.9375 33.164062-26.105469 53.191406l-10.886719 68.890625c-5.453125 34.492188 7.460938 68.730469 33.894531 91.027344-4.871093 4.640625-9.414062 9.640625-13.574219 14.976563-13.253906-18.433594-34.5-30.773438-58.710937-31.828126-11.460937-.496093-22.902344 1.585938-33.390625 6.058594l-17.421875-17.421875c-4.886719-4.882812-12.167969-6.332031-18.546875-3.6875-6.382812 2.644531-10.503906 8.8125-10.503906 15.722657v74.804687c0 42.082031 33.804687 76.796875 75.359375 77.390625.375.003906.753906.007812 1.128906.007812 1.605469 0 3.199219-.066406 4.785156-.164062v84.296875h-83.300781c-4.144531 0-7.5 3.359375-7.5 7.5v31.015625c0 4.144531 3.355469 7.5 7.5 7.5h497c4.144531 0 7.5-3.355469 7.5-7.5v-31.015625c0-4.140625-3.355469-7.5-7.5-7.5zm-310.316406-284.949219v-33.972656h123.632812v33.972656c0 34.085938-27.730468 61.8125-61.816406 61.8125s-61.816406-27.726562-61.816406-61.8125zm7.878906 54.625c13.878906 13.710938 32.933594 22.1875 53.9375 22.1875s40.058594-8.476562 53.9375-22.183594c18.058594 8.953126 33.816406 22.484376 45.5 38.941407h-198.902344c11.734375-16.585938 27.367188-29.960938 45.527344-38.945313zm-116.960938 131.183594c-33.402343-.476562-60.574218-28.464844-60.574218-62.390625v-74.804687c0-1.113282.675781-1.628907 1.246094-1.863282.234374-.101562.519531-.175781.828124-.175781.429688 0 .910157.152344 1.371094.613281l21.144532 21.144532c2.308593 2.308593 5.84375 2.855468 8.742187 1.359374 9.480469-4.890624 20.15625-7.234374 30.878906-6.765624 32.367188 1.410156 58.160157 27.90625 58.726563 60.316406.292968 16.804687-6.074219 32.609375-17.929688 44.5-11.851562 11.890625-27.65625 18.296875-44.433594 18.066406zm411.898438 130.15625h-482v-16.015625h482zm0 0"/><path d="m218.542969 385.460938c0 20.652343 16.804687 37.457031 37.457031 37.457031s37.457031-16.804688 37.457031-37.457031c0-20.65625-16.804687-37.460938-37.457031-37.460938s-37.457031 16.804688-37.457031 37.460938zm59.914062 0c0 12.382812-10.074219 22.457031-22.457031 22.457031s-22.457031-10.074219-22.457031-22.457031c0-12.386719 10.074219-22.460938 22.457031-22.460938s22.457031 10.074219 22.457031 22.460938zm0 0"/><path d="m224.390625 172.074219h.132813c4.140624 0 7.5-3.359375 7.5-7.5 0-4.144531-3.359376-7.5-7.5-7.5h-.132813c-4.144531 0-7.5 3.355469-7.5 7.5 0 4.140625 3.355469 7.5 7.5 7.5zm0 0"/><path d="m287.480469 172.074219h.128906c4.144531 0 7.5-3.359375 7.5-7.5 0-4.144531-3.355469-7.5-7.5-7.5h-.128906c-4.144531 0-7.5 3.355469-7.5 7.5 0 4.140625 3.355469 7.5 7.5 7.5zm0 0"/><path d="m256 203.867188c4.144531 0 7.5-3.355469 7.5-7.5v-31.796876c0-4.140624-3.355469-7.5-7.5-7.5s-7.5 3.359376-7.5 7.5v31.796876c0 4.144531 3.355469 7.5 7.5 7.5zm0 0"/><path d="m116.703125 320.894531c3.90625-5.863281 6.1875-12.894531 6.1875-20.453125 0-20.394531-16.59375-36.988281-36.988281-36.988281-20.398438 0-36.992188 16.59375-36.992188 36.988281 0 20.398438 16.59375 36.992188 36.992188 36.992188 7.421875 0 14.339844-2.207032 20.136718-5.988282l4.246094 4.246094c1.464844 1.460938 3.386719 2.195313 5.304688 2.195313 1.917968 0 3.839844-.734375 5.304687-2.195313 2.929688-2.929687 2.929688-7.679687 0-10.609375zm-30.800781 1.539063c-12.128906 0-21.992188-9.867188-21.992188-21.992188s9.863282-21.988281 21.992188-21.988281c12.125 0 21.988281 9.863281 21.988281 21.988281 0 3.394532-.773437 6.613282-2.152344 9.484375l-.425781-.421875c-2.929688-2.929687-7.679688-2.929687-10.609375 0-2.925781 2.929688-2.925781 7.675782 0 10.605469l.332031.328125c-2.785156 1.277344-5.875 1.996094-9.132812 1.996094zm0 0"/><path d="m427 44.398438c-3.023438 0-5.75 1.8125-6.917969 4.601562l-24.8125 59.269531c-1.597656 3.824219.203125 8.21875 4.023438 9.816407 3.824219 1.601562 8.214843-.199219 9.8125-4.023438l3.042969-7.265625c.996093.488281 2.113281.769531 3.296874.769531h23.105469c1.1875 0 2.300781-.28125 3.296875-.769531l3.042969 7.265625c1.203125 2.875 3.988281 4.605469 6.921875 4.605469.964844 0 1.945312-.1875 2.894531-.582031 3.820313-1.601563 5.621094-5.992188 4.019531-9.816407l-24.8125-59.269531c-1.164062-2.789062-3.890624-4.601562-6.914062-4.601562zm-8.894531 48.167968 8.894531-21.246094 8.894531 21.246094zm0 0"/></svg>