<svg height="512pt" viewBox="-6 0 512 512" width="512pt" xmlns="http://www.w3.org/2000/svg"><path d="m229.839844 504.5v-62.316406c0-10.867188-4.316406-21.285156-12-28.96875l-25.253906-25.253906h-147.234376v-71.140626c0-10.332031-8.089843-19.109374-18.417968-19.382812-10.828125-.28125-19.636719 8.523438-19.429688 19.285156l1.601563 83.277344c.363281 18.929688 15.816406 34.089844 34.75 34.089844h68.113281l32.523438 32.523437v37.886719zm0 0" fill="#ffc299"/><path d="m161.84375 357.21875 54.890625 54.890625-53.367187 7.296875-26.988282-26.988281h-44.953125c-12.011719 0-21.753906-9.738281-21.753906-21.753907 0-12.011718 9.742187-21.75 21.753906-21.75h50.367188c7.519531 0 14.730469 2.984376 20.050781 8.304688zm0 0" fill="#ffc299"/><path d="m270.507812 504.5v-62.316406c0-10.867188 4.316407-21.285156 12-28.96875l25.253907-25.253906h147.234375v-71.140626c0-10.332031 8.089844-19.109374 18.417968-19.382812 10.828126-.28125 19.636719 8.523438 19.429688 19.285156l-1.605469 83.277344c-.363281 18.929688-15.8125 34.089844-34.75 34.089844h-68.109375l-32.527344 32.523437v37.886719zm0 0" fill="#ffaa71"/><path d="m338.503906 357.21875-54.894531 54.890625 53.371094 7.296875 26.988281-26.988281h44.953125c12.011719 0 21.753906-9.738281 21.753906-21.753907 0-12.011718-9.742187-21.75-21.753906-21.75h-50.367187c-7.523438 0-14.734376 2.984376-20.050782 8.304688zm0 0" fill="#ffaa71"/><path d="m468.84375 156.433594c-.207031 2-1.089844 3.925781-2.605469 5.421875l-209.804687 206.777343c-3.46875 3.421876-9.050782 3.421876-12.519532 0l-209.808593-206.777343c-1.515625-1.5-2.398438-3.425781-2.601563-5.421875-.222656-2.140625.320313-4.367188 1.683594-6.214844l53.066406-72.128906c1.675782-2.28125 4.34375-3.628906 7.179688-3.628906h313.480468c2.835938 0 5.5 1.347656 7.175782 3.628906l53.066406 72.128906c1.367188 1.847656 1.910156 4.078125 1.6875 6.214844zm0 0" fill="#14f2d7"/><path d="m468.84375 156.433594h-437.339844c-.222656-2.136719.320313-4.367188 1.683594-6.210938l53.066406-72.128906c1.675782-2.285156 4.34375-3.628906 7.179688-3.628906h313.480468c2.835938 0 5.5 1.34375 7.175782 3.628906l53.066406 72.128906c1.367188 1.84375 1.910156 4.074219 1.6875 6.210938zm0 0" fill="#a6fff2"/><path d="m348.613281 156.433594-98.441406 214.675781-98.429687-214.675781 26.792968-81.972656h143.277344zm0 0" fill="#a6fff2"/><path d="m348.613281 156.433594h-196.871093l26.792968-81.972656h143.277344zm0 0" fill="#14f2d7"/><path d="m117.269531 428.78125c-1.40625-1.402344-3.3125-2.195312-5.300781-2.195312h-68.113281c-14.742188 0-26.964844-11.988282-27.25-26.730469l-1.601563-83.277344c-.0625-3.148437 1.136719-6.105469 3.371094-8.324219 2.234375-2.222656 5.210938-3.371094 8.359375-3.316406 6.128906.160156 11.117187 5.492188 11.117187 11.886719v19.179687c0 4.144532 3.359376 7.5 7.5 7.5 4.140626 0 7.5-3.355468 7.5-7.5v-19.179687c0-14.453125-11.539062-26.511719-25.722656-26.878907-7.285156-.222656-14.15625 2.53125-19.324218 7.664063-5.171876 5.136719-7.941407 11.976563-7.80078175 19.257813l1.60546875 83.277343c.4375 22.851563 19.390625 41.445313 42.246094 41.445313h65.003906l28.132813 28.132812v34.777344c0 4.144531 3.359374 7.5 7.5 7.5 4.144531 0 7.5-3.355469 7.5-7.5v-37.886719c0-1.988281-.789063-3.894531-2.195313-5.304687zm0 0"/><path d="m167.148438 351.914062c-6.773438-6.769531-15.777344-10.5-25.355469-10.5h-50.367188c-16.128906 0-29.253906 13.121094-29.253906 29.25 0 3.4375.601563 6.730469 1.695313 9.796876h-11.015626v-10.460938c0-4.140625-3.359374-7.5-7.5-7.5-4.140624 0-7.5 3.359375-7.5 7.5v17.960938c0 4.144531 3.359376 7.5 7.5 7.5h30.582032c4.496094 2.820312 9.804687 4.453124 15.492187 4.453124h44.953125c4.140625 0 7.5-3.355468 7.5-7.5 0-4.140624-3.359375-7.5-7.5-7.5h-44.953125c-7.859375 0-14.253906-6.390624-14.253906-14.25 0-7.855468 6.394531-14.25 14.253906-14.25h50.367188c5.570312 0 10.808593 2.167969 14.746093 6.105469l56 55.996094c6.320313 6.324219 9.800782 14.726563 9.800782 23.664063v62.320312c0 4.144531 3.355468 7.5 7.5 7.5 4.140625 0 7.5-3.355469 7.5-7.5v-62.316406c0-12.945313-5.042969-25.117188-14.195313-34.273438zm0 0"/><path d="m492.542969 297.609375c-5.167969-5.132813-12.03125-7.863281-19.324219-7.667969-14.183594.371094-25.726562 12.429688-25.726562 26.878906v63.640626h-11.011719c1.09375-3.0625 1.691406-6.359376 1.691406-9.796876 0-16.128906-13.121094-29.25-29.25-29.25h-50.367187c-9.578126 0-18.582032 3.726563-25.355469 10.5l-55.996094 55.996094c-9.15625 9.15625-14.195313 21.324219-14.195313 34.273438v62.316406c0 4.144531 3.355469 7.5 7.5 7.5 4.140626 0 7.5-3.355469 7.5-7.5v-62.316406c0-8.941406 3.480469-17.34375 9.800782-23.664063l55.996094-55.996093c3.941406-3.941407 9.179687-6.109376 14.75-6.109376h50.367187c7.859375 0 14.253906 6.394532 14.253906 14.25 0 7.859376-6.394531 14.253907-14.253906 14.253907h-44.953125c-4.140625 0-7.5 3.355469-7.5 7.5 0 4.140625 3.359375 7.5 7.5 7.5h44.953125c5.6875 0 10.996094-1.636719 15.492187-4.457031h30.582032c4.140625 0 7.5-3.355469 7.5-7.5v-71.136719c0-6.394531 4.984375-11.726563 11.113281-11.886719 3.160156-.039062 6.128906 1.09375 8.363281 3.3125 2.234375 2.222656 3.433594 5.179688 3.371094 8.328125l-1.601562 83.277344c-.285157 14.738281-12.507813 26.730469-27.25 26.730469h-68.113282c-1.988281 0-3.894531.789062-5.300781 2.195312l-32.527344 32.527344c-1.40625 1.40625-2.199219 3.3125-2.199219 5.304687v37.886719c0 4.144531 3.359376 7.5 7.5 7.5 4.144532 0 7.5-3.355469 7.5-7.5v-34.777344l28.132813-28.136718h65.003906c22.855469 0 41.808594-18.589844 42.25-41.441407l1.605469-83.277343c.136719-7.285157-2.632812-14.125-7.800781-19.257813zm0 0"/><path d="m363.386719 263.222656c-2.910157-2.949218-7.65625-2.984375-10.605469-.078125l-81.835938 80.65625 82.476563-179.867187h100.015625l-77.398438 76.285156c-2.949218 2.90625-2.984374 7.65625-.074218 10.605469 1.464844 1.488281 3.402344 2.234375 5.339844 2.234375 1.902343 0 3.804687-.71875 5.265624-2.15625l84.929688-83.710938c5.769531-5.683594 6.5-14.894531 1.699219-21.417968l-53.066407-72.128907c-3.082031-4.183593-8.023437-6.683593-13.222656-6.683593h-168.40625c-4.140625 0-7.5 3.355468-7.5 7.5 0 4.140624 3.359375 7.5 7.5 7.5h77.871094l21.894531 66.972656h-176.1875l21.890625-66.972656h21.871094c4.140625 0 7.5-3.359376 7.5-7.5 0-4.144532-3.359375-7.5-7.5-7.5h-112.40625c-5.199219 0-10.140625 2.5-13.222656 6.6875l-53.066406 72.125c-4.800782 6.527343-4.070313 15.734374 1.699218 21.421874l209.800782 206.78125c3.179687 3.132813 7.351562 4.699219 11.523437 4.699219 4.175781 0 8.347656-1.566406 11.523437-4.699219l101.613282-100.148437c2.949218-2.90625 2.984375-7.65625.078125-10.605469zm-216.460938-99.289062 82.476563 179.867187-182.496094-179.867187zm103.25 189.179687-86.746093-189.179687h173.488281zm81.980469-271.152343h74.753906c.449219 0 .875.214843 1.140625.574218l48.851563 66.398438h-102.855469zm-239.859375.574218c.265625-.359375.691406-.574218 1.140625-.574218h74.753906l-21.890625 66.972656h-102.859375zm0 0"/><path d="m423.636719 273.847656h.039062c4.125 0 7.476563-3.335937 7.496094-7.464844l.011719-2.421874c.023437-4.140626-3.320313-7.515626-7.460938-7.535157-.011718 0-.027344 0-.039062 0-4.125 0-7.476563 3.332031-7.5 7.464844l-.011719 2.421875c-.019531 4.140625 3.324219 7.511719 7.464844 7.535156zm0 0"/><path d="m423.5625 298.496094h.035156c4.125 0 7.480469-3.335938 7.5-7.464844l.011719-2.421875c.019531-4.140625-3.320313-7.515625-7.464844-7.535156-.011719 0-.023437 0-.035156 0-4.125 0-7.480469 3.332031-7.5 7.464843l-.011719 2.421876c-.019531 4.140624 3.320313 7.515624 7.464844 7.535156zm0 0"/><path d="m437.167969 285.003906h.039062c4.125 0 7.476563-3.332031 7.5-7.464844.019531-4.140624-3.324219-7.515624-7.464843-7.535156l-2.429688-.011718c-.011719 0-.023438 0-.035156 0-4.125 0-7.480469 3.332031-7.5 7.464843-.019532 4.140625 3.324218 7.515625 7.464844 7.535157zm0 0"/><path d="m410.113281 269.914062c-.011719 0-.023437 0-.039062 0-4.125 0-7.476563 3.335938-7.496094 7.464844-.019531 4.144532 3.320313 7.515625 7.464844 7.535156l2.425781.015626h.035156c4.125 0 7.480469-3.335938 7.5-7.464844.019532-4.144532-3.320312-7.515625-7.464844-7.535156zm0 0"/><path d="m169.390625 17.421875h.035156c4.125 0 7.480469-3.335937 7.5-7.464844l.011719-2.421875c.019531-4.144531-3.324219-7.5156248-7.464844-7.535156-.011718 0-.023437 0-.039062 0-4.125 0-7.476563 3.335938-7.496094 7.464844l-.011719 2.421875c-.019531 4.140625 3.324219 7.515625 7.464844 7.535156zm0 0"/><path d="m169.394531 24.648438c-.011719 0-.023437 0-.035156 0-4.125 0-7.480469 3.335937-7.5 7.464843l-.011719 2.421875c-.015625 4.144532 3.324219 7.515625 7.464844 7.535156h.035156c4.128906 0 7.480469-3.335937 7.5-7.464843l.011719-2.421875c.019531-4.140625-3.320313-7.515625-7.464844-7.535156zm0 0"/><path d="m173.027344 21.03125c-.019532 4.140625 3.324218 7.515625 7.464844 7.535156l2.429687.011719h.035156c4.125 0 7.480469-3.332031 7.5-7.464844.019531-4.140625-3.324219-7.515625-7.464843-7.535156l-2.425782-.011719c-.011718 0-.023437 0-.039062 0-4.125 0-7.476563 3.335938-7.5 7.464844zm0 0"/><path d="m155.792969 28.492188 2.425781.011718h.039062c4.125 0 7.476563-3.335937 7.5-7.464844.019532-4.140624-3.324218-7.515624-7.464843-7.535156l-2.429688-.011718c-4.105469-.058594-7.515625 3.320312-7.535156 7.460937-.019531 4.144531 3.324219 7.519531 7.464844 7.539063zm0 0"/><path d="m114.917969 28.027344h.039062c4.125 0 7.476563-3.332032 7.496094-7.460938l.011719-2.421875c.019531-4.144531-3.320313-7.515625-7.460938-7.539062-.015625 0-.027344 0-.039062 0-4.125 0-7.480469 3.335937-7.5 7.464843l-.011719 2.421876c-.019531 4.144531 3.324219 7.515624 7.464844 7.535156zm0 0"/><path d="m114.925781 35.257812c-.011719 0-.023437 0-.039062 0-4.125 0-7.476563 3.332032-7.496094 7.464844l-.011719 2.421875c-.023437 4.140625 3.320313 7.515625 7.460938 7.535157h.039062c4.125 0 7.476563-3.335938 7.5-7.464844l.011719-2.421875c.019531-4.140625-3.324219-7.515625-7.464844-7.535157zm0 0"/><path d="m118.558594 31.640625c-.019532 4.140625 3.324218 7.515625 7.464844 7.535156l2.425781.011719h.039062c4.125 0 7.476563-3.335938 7.496094-7.464844.023437-4.140625-3.320313-7.515625-7.460937-7.535156l-2.429688-.011719c-.011719 0-.023438 0-.035156 0-4.125 0-7.480469 3.332031-7.5 7.464844zm0 0"/><path d="m101.320312 39.097656 2.429688.011719h.035156c4.125 0 7.480469-3.332031 7.5-7.460937.019532-4.144532-3.324218-7.515626-7.464844-7.539063l-2.425781-.011719c-.011719 0-.027343 0-.039062 0-4.125 0-7.476563 3.335938-7.5 7.464844-.015625 4.140625 3.324219 7.515625 7.464843 7.535156zm0 0"/></svg>