<svg height="512pt" viewBox="-24 0 511 512" width="512pt" xmlns="http://www.w3.org/2000/svg"><path d="m437.085938 422.429688h-150.832032c-10.65625 0-19.289062-8.636719-19.289062-19.289063v-376.351563c0-10.652343 8.636718-19.289062 19.289062-19.289062h150.832032c10.652343 0 19.289062 8.636719 19.289062 19.289062v376.351563c0 10.652344-8.636719 19.289063-19.289062 19.289063zm0 0" fill="#50758e"/><path d="m456.375 26.789062v376.351563c0 10.65625-8.640625 19.289063-19.289062 19.289063h-28.296876c10.660157 0 19.289063-8.632813 19.289063-19.289063v-376.351563c0-10.65625-8.628906-19.285156-19.289063-19.285156h28.296876c10.648437 0 19.289062 8.632813 19.289062 19.285156zm0 0" fill="#2b597f"/><path d="m387.371094 356.039062c0 14.195313-11.507813 25.699219-25.703125 25.699219-14.191407 0-25.699219-11.503906-25.699219-25.699219 0-14.195312 11.507812-25.699218 25.699219-25.699218 14.195312 0 25.703125 11.503906 25.703125 25.699218zm0 0" fill="#14f2d7"/><path d="m406.695312 197.722656h-90.050781c-5.328125 0-9.644531-4.316406-9.644531-9.644531v-12.535156c0-5.328125 4.316406-9.644531 9.644531-9.644531h90.050781c5.324219 0 9.644532 4.316406 9.644532 9.644531v12.535156c0 5.328125-4.320313 9.644531-9.644532 9.644531zm0 0" fill="#2b597f"/><path d="m178.121094 422.429688h-150.832032c-10.652343 0-19.289062-8.636719-19.289062-19.289063v-376.351563c0-10.652343 8.636719-19.289062 19.289062-19.289062h150.832032c10.652344 0 19.289062 8.636719 19.289062 19.289062v376.351563c0 10.652344-8.636718 19.289063-19.289062 19.289063zm0 0" fill="#50758e"/><path d="m197.410156 26.789062v376.351563c0 10.65625-8.640625 19.289063-19.285156 19.289063h-28.296875c10.65625 0 19.289063-8.632813 19.289063-19.289063v-376.351563c0-10.65625-8.632813-19.285156-19.289063-19.285156h28.296875c10.644531 0 19.285156 8.632813 19.285156 19.285156zm0 0" fill="#2b597f"/><path d="m128.40625 356.039062c0 14.195313-11.507812 25.699219-25.703125 25.699219-14.191406 0-25.699219-11.503906-25.699219-25.699219 0-14.195312 11.507813-25.699218 25.699219-25.699218 14.195313 0 25.703125 11.503906 25.703125 25.699218zm0 0" fill="#14f2d7"/><path d="m147.730469 197.722656h-90.050781c-5.324219 0-9.644532-4.316406-9.644532-9.644531v-12.535156c0-5.328125 4.320313-9.644531 9.644532-9.644531h90.050781c5.324219 0 9.644531 4.316406 9.644531 9.644531v12.535156c0 5.328125-4.320312 9.644531-9.644531 9.644531zm0 0" fill="#2b597f"/><path d="m325.601562 396.367188c-7.957031-42.21875-45.027343-74.15625-89.558593-74.15625-49.183594 0-89.257813 38.957031-91.074219 87.695312-24.957031 1.320312-44.792969 21.972656-44.792969 47.261719 0 26.140625 21.191407 47.332031 47.332031 47.332031h161.332032c30.574218 0 55.359375-24.785156 55.359375-55.359375 0-24.730469-16.21875-45.667969-38.597657-52.773437zm0 0" fill="#2ee0fd"/><path d="m364.199219 449.140625c0 25.253906-16.914063 46.558594-40.027344 53.207031 11.382813-10.136718 18.550781-24.90625 18.550781-41.347656 0-24.726562-16.21875-45.664062-38.59375-52.773438-7.957031-42.214843-45.027344-74.152343-89.5625-74.152343-11.59375 0-22.683594 2.167969-32.882812 6.113281 15.171875-11.296875 33.988281-17.980469 54.363281-17.980469 44.53125 0 81.597656 31.941407 89.558594 74.160157 22.375 7.101562 38.59375 28.042968 38.59375 52.773437zm0 0" fill="#27bef4"/><path d="m248.101562 231.292969c0 8.789062-7.125 15.914062-15.914062 15.914062s-15.914062-7.125-15.914062-15.914062c0-8.789063 7.125-15.914063 15.914062-15.914063s15.914062 7.125 15.914062 15.914063zm0 0" fill="#2ee0fd"/><path d="m437.085938 0h-32.566407c-4.140625 0-7.5 3.355469-7.5 7.5s3.359375 7.5 7.5 7.5h32.566407c6.5 0 11.789062 5.289062 11.789062 11.789062v180.792969h-5.703125c-4.140625 0-7.5 3.355469-7.5 7.5s3.359375 7.5 7.5 7.5h5.703125v12.339844h-5.703125c-4.140625 0-7.5 3.355469-7.5 7.5 0 4.140625 3.359375 7.5 7.5 7.5h5.703125v12.335937h-5.703125c-4.140625 0-7.5 3.355469-7.5 7.5 0 4.140626 3.359375 7.5 7.5 7.5h5.703125v12.335938h-5.703125c-4.140625 0-7.5 3.359375-7.5 7.5 0 4.144531 3.359375 7.5 7.5 7.5h5.703125v98.546875c0 6.5-5.289062 11.789063-11.789062 11.789063h-75.453126c-6.949218-10.738282-17.152343-19.300782-29.5625-24.210938-7.324218-31.234375-29.226562-56.1875-57.605468-68.203125v-17.921875h5.699218c4.144532 0 7.5-3.355469 7.5-7.5 0-4.140625-3.355468-7.5-7.5-7.5h-5.699218v-12.335938h5.699218c4.144532 0 7.5-3.359374 7.5-7.5 0-4.144531-3.355468-7.5-7.5-7.5h-5.699218v-12.335937h5.699218c4.144532 0 7.5-3.359375 7.5-7.5 0-4.144531-3.355468-7.5-7.5-7.5h-5.699218v-12.339844h5.699218c4.144532 0 7.5-3.355469 7.5-7.5s-3.355468-7.5-7.5-7.5h-5.699218v-180.792969c0-6.5 5.289062-11.789062 11.789062-11.789062h85.601563c4.144531 0 7.5-3.355469 7.5-7.5s-3.355469-7.5-7.5-7.5h-85.601563c-14.773437 0-26.789062 12.019531-26.789062 26.789062v197.003907h-5.105469c-3.132813-9.242188-11.886719-15.910157-22.171875-15.910157s-19.039062 6.667969-22.171875 15.910157h-5.105469v-197.003907c0-14.769531-12.015625-26.789062-26.789062-26.789062h-150.832032c-14.773437 0-26.789062 12.019531-26.789062 26.789062v296.882813c0 4.140625 3.359375 7.5 7.5 7.5s7.5-3.359375 7.5-7.5v-19.078125h5.699219c4.144531 0 7.5-3.355469 7.5-7.5 0-4.140625-3.355469-7.5-7.5-7.5h-5.699219v-12.335938h5.699219c4.144531 0 7.5-3.359374 7.5-7.5 0-4.144531-3.355469-7.5-7.5-7.5h-5.699219v-12.335937h5.699219c4.144531 0 7.5-3.359375 7.5-7.5 0-4.144531-3.355469-7.5-7.5-7.5h-5.699219v-12.339844h5.699219c4.144531 0 7.5-3.355469 7.5-7.5s-3.355469-7.5-7.5-7.5h-5.699219v-180.792969c0-6.5 5.289062-11.789062 11.789062-11.789062h150.832032c6.5 0 11.789062 5.289062 11.789062 11.789062v180.792969h-5.703125c-4.140625 0-7.5 3.355469-7.5 7.5s3.359375 7.5 7.5 7.5h5.703125v12.339844h-5.703125c-4.140625 0-7.5 3.355469-7.5 7.5 0 4.140625 3.359375 7.5 7.5 7.5h5.703125v12.335937h-5.703125c-4.140625 0-7.5 3.355469-7.5 7.5 0 4.140626 3.359375 7.5 7.5 7.5h5.703125v12.335938h-5.703125c-4.140625 0-7.5 3.359375-7.5 7.5 0 4.144531 3.359375 7.5 7.5 7.5h5.703125v21.539062c-8.09375 4.289063-15.628906 9.734376-22.378906 16.253907-16.871094 16.292969-27.242188 37.679687-29.605469 60.785156-9.570312 1.683594-18.246093 5.835937-25.390625 11.757813h-85.246094c-6.5 0-11.789062-5.289063-11.789062-11.789063v-46.8125c0-4.140625-3.359375-7.5-7.5-7.5s-7.5 3.359375-7.5 7.5v46.8125c0 14.773437 12.015625 26.789063 26.789062 26.789063h72.625c-4.605468 8.039062-7.238281 17.34375-7.238281 27.238281 0 30.234375 24.597657 54.832031 54.832031 54.832031h39.351563c4.140625 0 7.5-3.355469 7.5-7.5s-3.359375-7.5-7.5-7.5h-39.351563c-21.960937 0-39.832031-17.867188-39.832031-39.832031 0-21.1875 16.554688-38.65625 37.691407-39.773438 3.875-.203125 6.953124-3.332031 7.097656-7.207031.808594-21.671875 9.859375-41.917969 25.488281-57.011719 15.667969-15.132812 36.300781-23.464843 58.089844-23.464843 40.191406 0 74.757812 28.617187 82.1875 68.046874.511719 2.714844 2.472656 4.925782 5.101562 5.761719 19.957031 6.332031 33.367188 24.667969 33.367188 45.621094 0 26.390625-21.46875 47.859375-47.859375 47.859375h-89.320313c-4.140625 0-7.5 3.355469-7.5 7.5s3.359375 7.5 7.5 7.5h89.320313c34.660156 0 62.859375-28.199219 62.859375-62.859375 0-6.664063-1.039063-13.125-2.976563-19.210937h68.363282c14.769531 0 26.789062-12.015626 26.789062-26.789063v-376.351563c0-14.773437-12.019531-26.789062-26.789062-26.789062zm-204.898438 222.882812c4.640625 0 8.414062 3.769532 8.414062 8.410157s-3.773437 8.414062-8.414062 8.414062c-4.636719 0-8.414062-3.773437-8.414062-8.414062s3.777343-8.410157 8.414062-8.410157zm-27.277344 96.835938v-80.925781h5.105469c3.132813 9.242187 11.886719 15.914062 22.171875 15.914062s19.039062-6.671875 22.171875-15.914062h5.105469v78.75c-7.539063-1.84375-15.378906-2.832031-23.421875-2.832031-10.726563 0-21.210938 1.714843-31.132813 5.007812zm0 0"/><path d="m425.332031 87.03125h-127.324219c-4.144531 0-7.5 3.355469-7.5 7.5s3.355469 7.5 7.5 7.5h127.324219c4.140625 0 7.5-3.355469 7.5-7.5s-3.359375-7.5-7.5-7.5zm0 0"/><path d="m432.832031 130.214844c0-4.144532-3.359375-7.5-7.5-7.5h-127.324219c-4.144531 0-7.5 3.355468-7.5 7.5 0 4.140625 3.355469 7.5 7.5 7.5h127.324219c4.140625 0 7.5-3.359375 7.5-7.5zm0 0"/><path d="m328.46875 356.039062c0 18.308594 14.894531 33.199219 33.199219 33.199219 18.308593 0 33.203125-14.894531 33.203125-33.199219 0-18.308593-14.894532-33.199218-33.203125-33.199218-18.304688 0-33.199219 14.890625-33.199219 33.199218zm33.199219-18.199218c10.035156 0 18.203125 8.164062 18.203125 18.199218 0 10.035157-8.167969 18.199219-18.203125 18.199219-10.035157 0-18.199219-8.164062-18.199219-18.199219 0-10.035156 8.164062-18.199218 18.199219-18.199218zm0 0"/><path d="m303.3125 45.574219h.097656c4.144532 0 7.5-3.355469 7.5-7.5 0-4.140625-3.355468-7.5-7.5-7.5h-.097656c-4.144531 0-7.5 3.359375-7.5 7.5 0 4.144531 3.355469 7.5 7.5 7.5zm0 0"/><path d="m331.261719 38.074219c0-4.140625-3.359375-7.5-7.5-7.5h-.101563c-4.140625 0-7.449218 3.359375-7.449218 7.5 0 4.144531 3.410156 7.5 7.550781 7.5s7.5-3.355469 7.5-7.5zm0 0"/><path d="m344.113281 45.574219c4.144531 0 7.5-3.355469 7.5-7.5 0-4.140625-3.355469-7.5-7.5-7.5h-.097656c-4.144531 0-7.5 3.359375-7.5 7.5 0 4.144531 3.355469 7.5 7.5 7.5zm0 0"/><path d="m374.207031 304.59375c4.140625 0 7.5-3.355469 7.5-7.5 0-4.140625-3.359375-7.5-7.5-7.5h-25.074219c-4.144531 0-7.5 3.359375-7.5 7.5 0 4.144531 3.355469 7.5 7.5 7.5zm0 0"/><path d="m423.839844 188.078125v-12.539063c0-9.449218-7.691406-17.140624-17.148438-17.140624h-90.046875c-9.453125 0-17.144531 7.6875-17.144531 17.140624v12.539063c0 9.453125 7.691406 17.144531 17.144531 17.144531h90.046875c9.457032 0 17.148438-7.691406 17.148438-17.144531zm-109.339844 0v-12.539063c0-1.179687.960938-2.140624 2.144531-2.140624h90.050781c1.183594 0 2.144532.960937 2.144532 2.140624v12.539063c0 1.183594-.960938 2.144531-2.144532 2.144531h-90.050781c-1.183593 0-2.144531-.960937-2.144531-2.144531zm0 0"/><path d="m31.542969 94.53125c0 4.144531 3.359375 7.5 7.5 7.5h127.324219c4.140624 0 7.5-3.355469 7.5-7.5s-3.359376-7.5-7.5-7.5h-127.324219c-4.140625 0-7.5 3.359375-7.5 7.5zm0 0"/><path d="m39.042969 137.714844h127.324219c4.140624 0 7.5-3.359375 7.5-7.5 0-4.144532-3.359376-7.5-7.5-7.5h-127.324219c-4.140625 0-7.5 3.355468-7.5 7.5 0 4.140625 3.359375 7.5 7.5 7.5zm0 0"/><path d="m69.503906 356.039062c0 18.308594 14.894532 33.199219 33.203125 33.199219 18.304688 0 33.199219-14.894531 33.199219-33.199219 0-18.308593-14.894531-33.199218-33.199219-33.199218-18.308593 0-33.203125 14.890625-33.203125 33.199218zm33.199219-18.199218c10.039063 0 18.203125 8.164062 18.203125 18.199218 0 10.035157-8.164062 18.199219-18.203125 18.199219-10.035156 0-18.199219-8.164062-18.199219-18.199219 0-10.035156 8.164063-18.199218 18.199219-18.199218zm0 0"/><path d="m44.445312 45.574219c4.144532 0 7.5-3.355469 7.5-7.5 0-4.140625-3.355468-7.5-7.5-7.5h-.097656c-4.144531 0-7.449218 3.359375-7.449218 7.5 0 4.144531 3.40625 7.5 7.546874 7.5zm0 0"/><path d="m72.296875 38.074219c0-4.140625-3.355469-7.5-7.5-7.5h-.097656c-4.144531 0-7.453125 3.359375-7.453125 7.5 0 4.144531 3.410156 7.5 7.550781 7.5 4.144531 0 7.5-3.355469 7.5-7.5zm0 0"/><path d="m85.148438 45.574219c4.144531 0 7.5-3.355469 7.5-7.5 0-4.140625-3.355469-7.5-7.5-7.5h-.097657c-4.144531 0-7.5 3.359375-7.5 7.5 0 4.144531 3.355469 7.5 7.5 7.5zm0 0"/><path d="m115.242188 304.59375c4.140624 0 7.5-3.355469 7.5-7.5 0-4.140625-3.359376-7.5-7.5-7.5h-25.074219c-4.144531 0-7.5 3.359375-7.5 7.5 0 4.144531 3.355469 7.5 7.5 7.5zm0 0"/><path d="m164.875 188.078125v-12.539063c0-9.449218-7.691406-17.140624-17.144531-17.140624h-90.050781c-9.453126 0-17.144532 7.6875-17.144532 17.140624v12.539063c0 9.453125 7.691406 17.144531 17.144532 17.144531h90.050781c9.453125 0 17.144531-7.691406 17.144531-17.144531zm-109.339844 0v-12.539063c0-1.179687.960938-2.140624 2.144532-2.140624h90.050781c1.179687 0 2.144531.960937 2.144531 2.140624v12.539063c0 1.183594-.964844 2.144531-2.144531 2.144531h-90.050781c-1.183594 0-2.144532-.960937-2.144532-2.144531zm0 0"/></svg>