<svg height="512pt" viewBox="-11 0 512 512.1" width="512pt" xmlns="http://www.w3.org/2000/svg"><path d="m368.351562 105.898438c-10.601562-56-59.800781-98.398438-118.902343-98.398438-65.300781 0-118.5 51.699219-120.898438 116.398438-33.101562 1.800781-59.5 29.203124-59.5 62.703124 0 34.699219 28.097657 62.796876 62.800781 62.796876h214.199219c40.597657 0 73.5-32.898438 73.5-73.5 0-32.699219-21.5-60.5-51.199219-70zm0 0" fill="#2ee0fd"/><path d="m419.550781 176c0 33.5-22.5 61.800781-53.101562 70.601562 15.101562-13.5 24.601562-33.101562 24.601562-54.902343 0-32.800781-21.5-60.597657-51.199219-70.097657-10.601562-56-59.800781-98.402343-118.902343-98.402343-15.398438 0-30.097657 2.902343-43.699219 8.101562 20.101562-15 45.101562-23.902343 72.199219-23.902343 59.101562 0 108.300781 42.402343 118.902343 98.402343 29.699219 9.597657 51.199219 37.398438 51.199219 70.199219zm0 0" fill="#27bef4"/><path d="m268.148438 480.699219c0 13.144531-10.652344 23.800781-23.796876 23.800781-13.144531 0-23.800781-10.65625-23.800781-23.800781s10.65625-23.800781 23.800781-23.800781c13.144532 0 23.796876 10.65625 23.796876 23.800781zm0 0" fill="#a6fff2"/><path d="m374.648438 480.699219c0 13.144531-10.652344 23.800781-23.796876 23.800781-13.144531 0-23.800781-10.65625-23.800781-23.800781s10.65625-23.800781 23.800781-23.800781c13.144532 0 23.796876 10.65625 23.796876 23.800781zm0 0" fill="#14f2d7"/><path d="m481.148438 480.699219c0 13.144531-10.652344 23.800781-23.796876 23.800781-13.144531 0-23.800781-10.65625-23.800781-23.800781s10.65625-23.800781 23.800781-23.800781c13.144532 0 23.796876 10.65625 23.796876 23.800781zm0 0" fill="#00e2c7"/><path d="m161.648438 480.699219c0 13.144531-10.652344 23.800781-23.796876 23.800781-13.144531 0-23.800781-10.65625-23.800781-23.800781s10.65625-23.800781 23.800781-23.800781c13.144532 0 23.796876 10.65625 23.796876 23.800781zm0 0" fill="#14f2d7"/><path d="m55.148438 480.699219c0 13.144531-10.652344 23.800781-23.796876 23.800781-13.144531 0-23.800781-10.65625-23.800781-23.800781s10.65625-23.800781 23.800781-23.800781c13.144532 0 23.796876 10.65625 23.796876 23.800781zm0 0" fill="#00e2c7"/><path d="m353.050781 215.601562h-217.402343c-5.898438 0-10.796876-4.800781-10.796876-10.800781v-15.199219c0-5.902343 4.796876-10.800781 10.796876-10.800781h217.402343c5.898438 0 10.800781 4.800781 10.800781 10.800781v15.199219c-.101562 5.898438-4.902343 10.800781-10.800781 10.800781zm0 0" fill="#f1eded"/><path d="m363.75 189.601562v15.199219c0 6-4.800781 10.800781-10.800781 10.800781h-217.300781c-5.898438 0-10.796876-4.800781-10.796876-10.800781v-15.199219c0-.5 0-1.101562.097657-1.601562.800781 5.199219 5.199219 9.199219 10.601562 9.199219h217.398438c5.402343 0 9.902343-4 10.601562-9.199219.199219.5.199219 1.101562.199219 1.601562zm0 0" fill="#dad0cd"/><path d="m175.648438 42.300781c20.5-17.601562 46.703124-27.300781 73.800781-27.300781 54.5 0 101.402343 38.800781 111.5 92.300781.5 2.699219 2.5 4.898438 5.101562 5.800781 7.597657 2.398438 14.699219 6.199219 21 11.199219 1.398438 1.097657 3 1.597657 4.699219 1.597657 2.199219 0 4.398438-1 5.898438-2.796876 2.601562-3.203124 2-8-1.199219-10.5-6.597657-5.203124-13.800781-9.402343-21.597657-12.300781-13.101562-58.402343-65.101562-100.300781-125.402343-100.300781-30.597657 0-60.300781 11-83.597657 30.898438-3.101562 2.703124-3.5 7.402343-.800781 10.601562 2.699219 3.101562 7.5 3.5 10.597657.800781zm0 0"/><path d="m74.050781 218.601562c1 0 2-.203124 2.898438-.601562 3.800781-1.601562 5.601562-6 4-9.800781-2.898438-6.800781-4.300781-14.097657-4.300781-21.5 0-29.398438 23-53.699219 52.402343-55.199219 3.898438-.199219 7-3.300781 7.097657-7.199219.800781-21.101562 7.402343-41.5 19.203124-59 2.296876-3.402343 1.398438-8.101562-2-10.402343-3.402343-2.296876-8.101562-1.398438-10.402343 2-12.097657 18-19.398438 38.703124-21.300781 60.203124-34.097657 5.097657-59.898438 34.398438-59.898438 69.597657 0 9.5 1.898438 18.699219 5.5 27.402343 1.101562 2.796876 3.898438 4.5 6.800781 4.5zm0 0"/><path d="m465.449219 450.601562v-33.300781c0-2-.800781-3.902343-2.199219-5.300781l-116.601562-116.699219v-38.300781c44.402343-.300781 80.5-36.5 80.5-81 0-12.300781-2.699219-24.101562-8-35.101562-1.796876-3.699219-6.296876-5.296876-10-3.5-3.699219 1.800781-5.296876 6.300781-3.5 10 4.300781 9 6.5 18.601562 6.5 28.601562 0 36.199219-29.296876 65.699219-65.5 66v-18.898438h6.402343c10.097657 0 18.300781-8.203124 18.300781-18.300781v-15.199219c0-10.101562-8.203124-18.300781-18.300781-18.300781h-6.402343v-7c0-4.101562-3.398438-7.5-7.5-7.5-4.097657 0-7.5 3.398438-7.5 7.5v7h-8.699219v-7c0-4.101562-3.398438-7.5-7.5-7.5-4.097657 0-7.5 3.398438-7.5 7.5v7h-8.699219v-7c0-4.101562-3.398438-7.5-7.5-7.5s-7.5 3.398438-7.5 7.5v7h-8.699219v-7c0-4.101562-3.402343-7.5-7.5-7.5-4.101562 0-7.5 3.398438-7.5 7.5v7h-8.699219v-7c0-4.101562-3.402343-7.5-7.5-7.5-4.101562 0-7.5 3.398438-7.5 7.5v7h-8.703124v-7c0-4.101562-3.398438-7.5-7.5-7.5-4.097657 0-7.5 3.398438-7.5 7.5v7h-8.699219v-7c0-4.101562-3.398438-7.5-7.5-7.5-4.097657 0-7.5 3.398438-7.5 7.5v7h-8.699219v-7c0-4.101562-3.398438-7.5-7.5-7.5s-7.5 3.398438-7.5 7.5v7h-8.699219v-7c0-4.101562-3.402343-7.5-7.5-7.5-4.101562 0-7.5 3.398438-7.5 7.5v7h-6.402343c-10.097657 0-18.296876 8.199219-18.296876 18.300781v15.199219c0 10.097657 8.199219 18.300781 18.296876 18.300781h6.402343v18.898438h-10.101562c-11.699219 0-22.898438-3.601562-32.398438-10.5-3.402343-2.398438-8-1.699219-10.5 1.699219-2.402343 3.402343-1.699219 8 1.699219 10.5 12 8.699219 26.300781 13.300781 41.199219 13.300781h10.101562v38.300781l-116.601562 116.597657c-1.398438 1.402343-2.199219 3.300781-2.199219 5.300781v33.300781c-13.300781 3.601562-23.1992188 15.699219-23.1992188 30.199219 0 17.199219 13.9999998 31.300781 31.3007808 31.300781 17.296876 0 31.296876-14 31.296876-31.300781 0-14.800781-10.398438-27.300781-24.296876-30.5v-29.898438l116.597657-116.601562c1.402343-1.398438 2.199219-3.300781 2.199219-5.300781v-41.398438h33.902343v93.5l-59.300781 59.300781c-1.398438 1.398438-2.199219 3.300781-2.199219 5.300781v35.597657c-13.199219 3.699219-22.800781 15.800781-22.800781 30.101562 0 17.199219 14 31.300781 31.300781 31.300781s31.300781-14 31.300781-31.300781c0-15-10.601562-27.5-24.703124-30.5v-32l59.300781-59.300781c1.402343-1.398438 2.199219-3.300781 2.199219-5.300781v-96.699219h30.902343v193.398438c-13.601562 3.402343-23.800781 15.703124-23.800781 30.300781 0 17.199219 14 31.300781 31.300781 31.300781 17.199219 0 31.300781-14 31.300781-31.300781 0-14.597657-10.101562-27-23.800781-30.300781v-193.398438h30.898438v96.601562c0 2 .800781 3.898438 2.199219 5.296876l59.300781 59.300781v32c-14.097657 3-24.699219 15.601562-24.699219 30.5 0 17.199219 14 31.300781 31.300781 31.300781 17.199219 0 31.300781-14 31.300781-31.300781 0-14.300781-9.703124-26.398438-22.800781-30.097657v-35.601562c0-2-.800781-3.898438-2.199219-5.300781l-59.300781-59.300781v-93.398438h33.898438v41.398438c0 2 .800781 3.902343 2.199219 5.300781l116.601562 116.601562v29.898438c-13.898438 3.199219-24.300781 15.601562-24.300781 30.5 0 17.199219 14 31.300781 31.300781 31.300781 17.199219 0 31.300781-14 31.300781-31.300781-.402343-14.398438-10.300781-26.597657-23.601562-30.097657zm-417.898438 30.097657c0 9-7.300781 16.300781-16.300781 16.300781s-16.300781-7.300781-16.300781-16.300781 7.402343-16.199219 16.402343-16.199219 16.199219 7.300781 16.199219 16.199219zm106.597657 0c0 9-7.296876 16.300781-16.296876 16.300781s-16.300781-7.300781-16.300781-16.300781 7.300781-16.300781 16.300781-16.300781 16.296876 7.402343 16.296876 16.300781zm106.5 0c0 9-7.296876 16.300781-16.296876 16.300781s-16.300781-7.300781-16.300781-16.300781c0-7.097657 4.597657-13.097657 10.898438-15.300781 2.101562-.898438 8.699219-1.199219 10.699219 0 6.402343 2.203124 11 8.300781 11 15.300781zm106.402343 0c0 9-7.300781 16.300781-16.300781 16.300781s-16.300781-7.300781-16.300781-16.300781 7.300781-16.300781 16.300781-16.300781c9.101562.101562 16.300781 7.402343 16.300781 16.300781zm-234.601562-275.898438v-15.199219c0-1.800781 1.5-3.300781 3.300781-3.300781h217.398438c1.800781 0 3.300781 1.5 3.300781 3.300781v15.199219c0 1.800781-1.5 3.300781-3.300781 3.300781h-217.5c-1.796876 0-3.199219-1.5-3.199219-3.300781zm24.601562 37.199219v-18.898438h33.898438v18.898438zm48.898438 0v-18.898438h30.902343v18.898438zm45.902343 0v-18.898438h30.898438v18.898438zm45.898438 0v-18.898438h33.898438v18.898438zm159.601562 255c-9 0-16.300781-7.300781-16.300781-16.300781s7.300781-16.300781 16.300781-16.300781 16.296876 7.300781 16.296876 16.300781-7.296876 16.300781-16.296876 16.300781zm0 0"/></svg>