<svg height="512pt" viewBox="-15 0 512 512" width="512pt" xmlns="http://www.w3.org/2000/svg"><path d="m200.355469 72.761719c-7.308594 0-13.238281-5.925781-13.238281-13.238281v-23.234376c0-1.277343-1.035157-2.316406-2.316407-2.316406h-32.863281c-1.277344 0-2.316406 1.039063-2.316406 2.316406v23.234376c0 7.3125-5.929688 13.238281-13.238282 13.238281-7.308593 0-13.238281-5.925781-13.238281-13.238281v-23.234376c0-15.875 12.917969-28.789062 28.792969-28.789062h32.863281c15.878907 0 28.792969 12.917969 28.792969 28.789062v23.234376c0 7.3125-5.925781 13.238281-13.238281 13.238281zm0 0" fill="#50758e"/><path d="m249.453125 479.472656h-164.285156c-14.410157 0-26.371094-11.136718-27.402344-25.511718l-24.589844-342.972657c-.570312-7.953125 5.726563-14.71875 13.699219-14.71875h240.867188c7.976562 0 14.273437 6.765625 13.703124 14.71875l-24.589843 342.972657c-1.03125 14.375-12.992188 25.511718-27.402344 25.511718zm0 0" fill="#6b97af"/><path d="m301.441406 110.992188-24.589844 342.96875c-1.03125 14.371093-12.992187 25.511718-27.402343 25.511718h-29.128907c14.410157 0 26.371094-11.140625 27.398438-25.511718l24.59375-342.96875c.566406-7.953126-5.722656-14.722657-13.703125-14.722657h29.132813c7.980468 0 14.277343 6.769531 13.699218 14.722657zm0 0" fill="#50758e"/><path d="m130.488281 479.472656h-45.320312c-14.410157 0-26.371094-11.136718-27.402344-25.511718l-24.589844-342.972657c-.570312-7.953125 5.726563-14.71875 13.699219-14.71875h75.371094zm0 0" fill="#2b597f"/><path d="m204.132812 479.472656h-73.644531l-8.242187-383.203125h90.128906zm0 0" fill="#50758e"/><path d="m313.382812 123.566406h-292.144531c-7.589843 0-13.738281-6.152344-13.738281-13.738281v-37.546875c0-7.589844 6.148438-13.738281 13.738281-13.738281h292.144531c7.585938 0 13.738282 6.148437 13.738282 13.738281v37.546875c0 7.585937-6.152344 13.738281-13.738282 13.738281zm0 0" fill="#dad0cd"/><path d="m327.113281 72.277344v37.554687c0 7.582031-6.140625 13.738281-13.734375 13.738281h-27.75c7.597656 0 13.738282-6.15625 13.738282-13.738281v-37.554687c0-7.585938-6.140626-13.738282-13.738282-13.738282h27.75c7.597656 0 13.734375 6.152344 13.734375 13.738282zm0 0" fill="#c1bab8"/><path d="m432.5625 339.160156h-230.0625c-22.828125 0-41.335938-18.503906-41.335938-41.332031s18.507813-41.335937 41.335938-41.335937h230.0625c22.828125 0 41.332031 18.507812 41.332031 41.335937s-18.503906 41.332031-41.332031 41.332031zm0 0" fill="#f1eded"/><path d="m473.902344 297.828125c0 11.417969-4.632813 21.753906-12.113282 29.234375-7.480468 7.480469-17.808593 12.101562-29.222656 12.101562h-27.414062c11.414062 0 21.746094-4.621093 29.222656-12.101562 7.480469-7.480469 12.113281-17.820312 12.113281-29.234375 0-22.832031-18.515625-41.335937-41.335937-41.335937h27.414062c22.820313 0 41.335938 18.503906 41.335938 41.335937zm0 0" fill="#dad0cd"/><path d="m215.488281 256.492188h52.867188v82.671874h-52.867188zm0 0" fill="#f8e98e"/><path d="m248.5 256.492188h19.855469v82.671874h-19.855469zm0 0" fill="#f6cb43"/><path d="m419.667969 297.828125c0 7.300781-5.914063 13.214844-13.214844 13.214844s-13.21875-5.914063-13.21875-13.214844 5.917969-13.21875 13.21875-13.21875 13.214844 5.917969 13.214844 13.21875zm0 0" fill="#f6cb43"/><path d="m432.5625 421.832031h-230.0625c-22.828125 0-41.335938-18.507812-41.335938-41.335937s18.507813-41.332032 41.335938-41.332032h230.0625c22.828125 0 41.332031 18.503907 41.332031 41.332032s-18.503906 41.335937-41.332031 41.335937zm0 0" fill="#dad0cd"/><path d="m473.902344 380.5c0 11.414062-4.632813 21.753906-12.113282 29.230469-7.480468 7.480469-17.808593 12.101562-29.222656 12.101562h-27.414062c11.414062 0 21.746094-4.621093 29.222656-12.101562 7.480469-7.476563 12.113281-17.816407 12.113281-29.230469 0-22.832031-18.515625-41.335938-41.335937-41.335938h27.414062c22.820313-.003906 41.335938 18.503907 41.335938 41.335938zm0 0" fill="#c1bab8"/><path d="m215.488281 339.160156h52.867188v82.671875h-52.867188zm0 0" fill="#f6cb43"/><path d="m248.5 339.160156h19.855469v82.671875h-19.855469zm0 0" fill="#fab03c"/><path d="m419.667969 380.496094c0 7.300781-5.914063 13.21875-13.214844 13.21875s-13.21875-5.917969-13.21875-13.21875c0-7.296875 5.917969-13.214844 13.21875-13.214844s13.214844 5.917969 13.214844 13.214844zm0 0" fill="#fab03c"/><path d="m432.5625 504.5h-230.0625c-22.828125 0-41.335938-18.503906-41.335938-41.332031s18.507813-41.335938 41.335938-41.335938h230.0625c22.828125 0 41.332031 18.507813 41.332031 41.335938s-18.503906 41.332031-41.332031 41.332031zm0 0" fill="#f1eded"/><path d="m473.902344 463.167969c0 11.414062-4.632813 21.753906-12.113282 29.234375-7.480468 7.480468-17.808593 12.101562-29.222656 12.101562h-27.414062c11.414062 0 21.746094-4.621094 29.222656-12.101562 7.480469-7.480469 12.113281-17.820313 12.113281-29.234375 0-22.832031-18.515625-41.335938-41.335937-41.335938h27.414062c22.820313 0 41.335938 18.503907 41.335938 41.335938zm0 0" fill="#dad0cd"/><path d="m215.488281 421.832031h52.867188v82.667969h-52.867188zm0 0" fill="#f8e98e"/><path d="m248.5 421.832031h19.855469v82.667969h-19.855469zm0 0" fill="#f6cb43"/><path d="m419.667969 463.164062c0 7.300782-5.914063 13.21875-13.214844 13.21875s-13.21875-5.917968-13.21875-13.21875c0-7.296874 5.917969-13.214843 13.21875-13.214843s13.214844 5.917969 13.214844 13.214843zm0 0" fill="#f6cb43"/><path d="m427.171875 297.828125c0-11.421875-9.296875-20.71875-20.71875-20.71875s-20.71875 9.296875-20.71875 20.71875 9.296875 20.714844 20.71875 20.714844 20.71875-9.292969 20.71875-20.714844zm-26.4375 0c0-3.152344 2.566406-5.71875 5.71875-5.71875s5.71875 2.566406 5.71875 5.71875-2.566406 5.714844-5.71875 5.714844-5.71875-2.5625-5.71875-5.714844zm0 0"/><path d="m355.742188 306.316406h.074218c4.105469 0 7.457032-3.3125 7.496094-7.425781.042969-4.144531-3.285156-7.53125-7.425781-7.574219h-.101563c-.023437 0-.050781 0-.074218 0-4.105469 0-7.457032 3.308594-7.496094 7.425782-.042969 4.144531 3.285156 7.53125 7.425781 7.574218zm0 0"/><path d="m331.234375 291.316406c-4.105469 0-7.457031 3.308594-7.496094 7.425782-.039062 4.144531 3.285157 7.535156 7.425781 7.574218h.101563.074219c4.109375 0 7.460937-3.3125 7.5-7.425781.039062-4.144531-3.285156-7.535156-7.429688-7.574219h-.101562c-.023438 0-.046875 0-.074219 0zm0 0"/><path d="m306.832031 291.316406c-.023437 0-.046875 0-.074219 0-4.105468 0-7.457031 3.308594-7.496093 7.425782-.039063 4.144531 3.285156 7.535156 7.425781 7.574218h.101562.074219c4.109375 0 7.460938-3.3125 7.5-7.425781.039063-4.144531-3.285156-7.535156-7.429687-7.574219zm0 0"/><path d="m481.394531 380.496094c0-17.394532-9.144531-32.679688-22.875-41.335938 13.726563-8.652344 22.875-23.9375 22.875-41.332031 0-26.925781-21.90625-48.835937-48.832031-48.835937h-88.53125c-4.144531 0-7.5 3.359374-7.5 7.5 0 4.144531 3.355469 7.5 7.5 7.5h88.53125c18.65625 0 33.832031 15.179687 33.832031 33.835937s-15.175781 33.832031-33.832031 33.832031h-156.710938v-67.667968h35.519532c4.144531 0 7.5-3.355469 7.5-7.5 0-4.140626-3.355469-7.5-7.5-7.5h-12.300782l8.453126-117.925782h5.859374c11.710938 0 21.234376-9.527344 21.234376-21.238281v-37.546875c0-11.710938-9.523438-21.238281-21.234376-21.238281h-38.351562c-4.144531 0-7.5 3.355469-7.5 7.5 0 4.140625 3.355469 7.5 7.5 7.5h38.351562c3.4375 0 6.234376 2.796875 6.234376 6.238281v37.546875c0 3.4375-2.796876 6.238281-6.234376 6.238281h-292.144531c-3.441406 0-6.238281-2.800781-6.238281-6.238281v-37.546875c0-3.441406 2.796875-6.238281 6.238281-6.238281h221.132813c4.140625 0 7.5-3.359375 7.5-7.5 0-4.144531-3.359375-7.5-7.5-7.5h-21.277344v-14.753907c0-20.011718-16.28125-36.289062-36.292969-36.289062h-32.863281c-20.011719 0-36.292969 16.277344-36.292969 36.289062v14.753907h-94.40625c-11.710937 0-21.238281 9.527343-21.238281 21.238281v37.546875c0 11.710937 9.527344 21.238281 21.238281 21.238281h5.855469l3.808594 53.140625c.285156 3.949219 3.574218 6.964844 7.476562 6.964844.179688 0 .359375-.007813.542969-.019531 4.132813-.296875 7.242187-3.886719 6.945313-8.019532l-3.734376-52.066406h73.359376l7.332031 340.90625h-37.65625c-10.425781 0-19.175781-8.148437-19.921875-18.546875l-17.039063-237.632812c-.296875-4.128907-3.890625-7.25-8.015625-6.941407-4.132812.292969-7.242187 3.882813-6.945312 8.015626l17.039062 237.632812c1.304688 18.207031 16.628906 32.472656 34.882813 32.472656h74.714843c8.367188 14.917969 24.332032 25.027344 42.617188 25.027344h230.0625c26.925781 0 48.835938-21.90625 48.835938-48.835938 0-17.390624-9.148438-32.679687-22.878907-41.332031 13.730469-8.652343 22.875-23.941406 22.875-41.335937zm-301.777343-329.453125h-22.496094v-9.566407h22.496094zm-48.972657-14.753907c0-11.738281 9.550781-21.289062 21.289063-21.289062h32.867187c11.742188 0 21.292969 9.550781 21.292969 21.289062v14.753907h-11.476562v-14.753907c0-5.410156-4.402344-9.8125-9.816407-9.8125h-32.867187c-5.410156 0-9.8125 4.402344-9.8125 9.8125v14.753907h-11.476563zm38.019531 344.207032c0-18.65625 15.179688-33.835938 33.835938-33.835938h5.484375v67.671875h-5.484375c-18.65625 0-33.835938-15.179687-33.835938-33.835937zm0-82.667969c0-18.65625 15.179688-33.835937 33.835938-33.835937h5.484375v67.667968h-5.484375c-18.65625 0-33.835938-15.175781-33.835938-33.832031zm54.320313 116.503906v-67.671875h37.867187v67.671875zm0 15h37.867187v67.667969h-37.867187zm37.867187-97.671875h-37.867187v-67.667968h37.867187zm23.179688-82.667968h-67.441406l2.539062-117.925782h73.359375zm-146.203125 222.980468-7.332031-340.90625h73.628906l-2.539062 117.949219c-26.503907.492187-47.921876 22.191406-47.921876 48.8125 0 17.394531 9.148438 32.683594 22.878907 41.335937-13.730469 8.652344-22.878907 23.941407-22.878907 41.335938 0 17.390625 9.148438 32.679688 22.878907 41.332031-13.730469 8.652344-22.878907 23.941407-22.878907 41.335938 0 3.007812.289063 5.945312.8125 8.804687zm30.835937-8.808594c0-18.65625 15.179688-33.832031 33.835938-33.832031h5.484375v67.667969h-5.484375c-18.65625 0-33.835938-15.179688-33.835938-33.835938zm297.730469 0c0 18.65625-15.175781 33.835938-33.832031 33.835938h-156.710938v-67.667969h156.710938c18.65625 0 33.832031 15.175781 33.832031 33.832031zm-33.832031-48.832031h-156.710938v-67.671875h156.710938c18.65625 0 33.832031 15.179688 33.832031 33.835938s-15.175781 33.835937-33.832031 33.835937zm0 0"/><path d="m406.453125 359.777344c-11.421875 0-20.71875 9.296875-20.71875 20.71875 0 11.425781 9.296875 20.71875 20.71875 20.71875s20.71875-9.292969 20.71875-20.71875c0-11.421875-9.296875-20.71875-20.71875-20.71875zm0 26.4375c-3.152344 0-5.71875-2.566406-5.71875-5.71875s2.566406-5.71875 5.71875-5.71875 5.71875 2.566406 5.71875 5.71875-2.566406 5.71875-5.71875 5.71875zm0 0"/><path d="m355.8125 373.984375h-.097656c-4.144532 0-7.5 3.359375-7.5 7.5 0 4.144531 3.355468 7.5 7.5 7.5h.097656c4.144531 0 7.5-3.355469 7.5-7.5 0-4.140625-3.355469-7.5-7.5-7.5zm0 0"/><path d="m331.339844 373.984375h-.101563c-4.144531 0-7.5 3.359375-7.5 7.5 0 4.144531 3.355469 7.5 7.5 7.5h.101563c4.140625 0 7.5-3.355469 7.5-7.5 0-4.140625-3.359375-7.5-7.5-7.5zm0 0"/><path d="m306.863281 373.984375h-.101562c-4.144531 0-7.503907 3.359375-7.503907 7.5 0 4.144531 3.359376 7.5 7.503907 7.5h.101562c4.140625 0 7.5-3.355469 7.5-7.5 0-4.140625-3.359375-7.5-7.5-7.5zm0 0"/><path d="m406.453125 483.882812c11.421875 0 20.71875-9.292968 20.71875-20.71875 0-11.421874-9.296875-20.714843-20.71875-20.714843s-20.71875 9.292969-20.71875 20.714843c0 11.425782 9.296875 20.71875 20.71875 20.71875zm0-26.433593c3.152344 0 5.71875 2.5625 5.71875 5.714843 0 3.15625-2.566406 5.71875-5.71875 5.71875s-5.71875-2.5625-5.71875-5.71875c0-3.152343 2.566406-5.714843 5.71875-5.714843zm0 0"/><path d="m355.714844 471.65625h.101562c4.140625 0 7.5-3.359375 7.5-7.5 0-4.144531-3.359375-7.5-7.5-7.5h-.101562c-4.144532 0-7.5 3.355469-7.5 7.5 0 4.140625 3.355468 7.5 7.5 7.5zm0 0"/><path d="m331.238281 471.65625h.101563c4.140625 0 7.5-3.359375 7.5-7.5 0-4.144531-3.359375-7.5-7.5-7.5h-.101563c-4.144531 0-7.5 3.355469-7.5 7.5 0 4.140625 3.355469 7.5 7.5 7.5zm0 0"/><path d="m306.761719 471.65625h.101562c4.140625 0 7.5-3.359375 7.5-7.5 0-4.144531-3.359375-7.5-7.5-7.5h-.101562c-4.144531 0-7.5 3.355469-7.5 7.5 0 4.140625 3.355469 7.5 7.5 7.5zm0 0"/><path d="m328.589844 175.210938c0 4.144531 3.355468 7.5 7.5 7.5h25.621094c4.140624 0 7.5-3.355469 7.5-7.5 0-4.144532-3.359376-7.5-7.5-7.5h-25.621094c-4.144532 0-7.5 3.355468-7.5 7.5zm0 0"/><path d="m328.589844 197.210938c0 4.144531 3.355468 7.5 7.5 7.5h71.621094c4.140624 0 7.5-3.355469 7.5-7.5 0-4.144532-3.359376-7.5-7.5-7.5h-71.621094c-4.144532 0-7.5 3.355468-7.5 7.5zm0 0"/><path d="m415.210938 219.210938c0-4.144532-3.359376-7.5-7.5-7.5h-71.621094c-4.144532 0-7.5 3.355468-7.5 7.5 0 4.144531 3.355468 7.5 7.5 7.5h71.621094c4.140624 0 7.5-3.355469 7.5-7.5zm0 0"/></svg>