<svg height="512pt" viewBox="-67 0 512 512" width="512pt" xmlns="http://www.w3.org/2000/svg"><path d="m370.34375 51.96875v393.292969c0 6.308593-5.109375 11.417969-11.410156 11.417969h-289.820313c-6.300781 0-11.410156-5.109376-11.410156-11.417969v-393.292969c0-6.296875 5.109375-11.410156 11.410156-11.410156h289.820313c6.300781 0 11.410156 5.113281 11.410156 11.410156zm0 0" fill="#c1bab8"/><path d="m332.144531 99.800781v356.878907h-263.03125c-6.300781 0-11.410156-5.109376-11.410156-11.417969v-368.871094h251.03125c12.910156 0 23.410156 10.5 23.410156 23.410156zm0 0" fill="#b7a6a3"/><path d="m308.730469 504.5h-289.820313c-6.300781 0-11.410156-5.109375-11.410156-11.410156v-393.292969c0-6.300781 5.109375-11.410156 11.410156-11.410156h289.820313c6.300781 0 11.410156 5.109375 11.410156 11.410156v393.292969c0 6.300781-5.109375 11.410156-11.410156 11.410156zm0 0" fill="#f1eded"/><path d="m320.144531 99.800781v393.289063c0 6.300781-5.113281 11.410156-11.410156 11.410156h-28c6.296875 0 11.410156-5.109375 11.410156-11.410156v-393.289063c0-6.300781-5.113281-11.410156-11.410156-11.410156h28c6.296875 0 11.410156 5.109375 11.410156 11.410156zm0 0" fill="#dad0cd"/><path d="m57.703125 388.863281h213.371094v40.171875h-213.371094zm0 0" fill="#14f2d7"/><path d="m358.9375 33.0625h-45.683594c-4.144531 0-7.5 3.359375-7.5 7.5s3.355469 7.5 7.5 7.5h45.683594c2.15625 0 3.910156 1.753906 3.910156 3.910156v65.699219c0 4.140625 3.355469 7.5 7.5 7.5 4.140625 0 7.5-3.359375 7.5-7.5v-65.699219c0-10.425781-8.484375-18.910156-18.910156-18.910156zm0 0"/><path d="m370.347656 142.828125c-4.144531 0-7.5 3.359375-7.5 7.5v294.9375c0 2.15625-1.753906 3.910156-3.910156 3.910156h-31.296875v-349.378906c0-10.425781-8.484375-18.910156-18.910156-18.910156h-87.203125v-2.320313c0-12.789062-10.402344-23.1875-23.191406-23.1875-12.785157 0-23.1875 10.398438-23.1875 23.1875v2.320313h-16.378907v-32.824219h121.824219c4.140625 0 7.5-3.359375 7.5-7.5s-3.359375-7.5-7.5-7.5h-59.503906c-2.816406-18.6875-18.980469-33.0625-38.441406-33.0625-19.460938 0-35.625 14.375-38.441407 33.0625h-75.09375c-10.425781 0-18.910156 8.484375-18.910156 18.910156v28.914063h-31.292969c-10.425781 0-18.910156 8.484375-18.910156 18.910156v211.875c0 4.140625 3.355469 7.5 7.5 7.5s7.5-3.359375 7.5-7.5v-211.875c0-2.15625 1.753906-3.910156 3.910156-3.910156h124.859375v20.65625c0 21.4375 17.441407 38.878906 38.878907 38.878906s38.875-17.441406 38.875-38.878906v-20.65625h87.207031c2.15625 0 3.910156 1.753906 3.910156 3.910156v393.292969c0 2.15625-1.753906 3.910156-3.910156 3.910156h-289.820313c-2.15625 0-3.910156-1.753906-3.910156-3.910156v-148.761719c0-4.140625-3.355469-7.5-7.5-7.5s-7.5 3.359375-7.5 7.5v148.761719c0 10.425781 8.484375 18.910156 18.910156 18.910156h289.820313c10.425781 0 18.910156-8.484375 18.910156-18.910156v-28.914063h31.292969c10.429687 0 18.910156-8.484375 18.910156-18.910156v-294.9375c.003906-4.140625-3.355469-7.5-7.496094-7.5zm-180.199218-64.261719c0-4.515625 3.671874-8.1875 8.1875-8.1875 4.515624 0 8.1875 3.671875 8.1875 8.1875v2.320313h-16.375zm-7.5-63.566406c11.160156 0 20.554687 7.699219 23.160156 18.0625h-46.320313c2.605469-10.363281 12-18.0625 23.160157-18.0625zm-117.445313 65.886719v-28.914063c0-2.15625 1.757813-3.910156 3.910156-3.910156h74.65625v32.824219zm141.324219 35.65625c0 13.167969-10.714844 23.878906-23.878906 23.878906-13.167969 0-23.878907-10.710937-23.878907-23.878906v-20.65625h47.757813zm0 0"/><path d="m57.703125 160.578125h58.195313c4.140624 0 7.5-3.355469 7.5-7.5 0-4.140625-3.359376-7.5-7.5-7.5h-58.195313c-4.140625 0-7.5 3.359375-7.5 7.5 0 4.144531 3.359375 7.5 7.5 7.5zm0 0"/><path d="m57.703125 186.515625h58.195313c4.140624 0 7.5-3.359375 7.5-7.5 0-4.144531-3.359376-7.5-7.5-7.5h-58.195313c-4.140625 0-7.5 3.355469-7.5 7.5 0 4.140625 3.359375 7.5 7.5 7.5zm0 0"/><path d="m57.703125 240.28125h213.371094c4.144531 0 7.5-3.359375 7.5-7.5s-3.355469-7.5-7.5-7.5h-213.371094c-4.140625 0-7.5 3.359375-7.5 7.5s3.359375 7.5 7.5 7.5zm0 0"/><path d="m57.703125 269.914062h213.371094c4.144531 0 7.5-3.359374 7.5-7.5 0-4.144531-3.355469-7.5-7.5-7.5h-213.371094c-4.140625 0-7.5 3.355469-7.5 7.5 0 4.140626 3.359375 7.5 7.5 7.5zm0 0"/><path d="m57.703125 299.542969h213.371094c4.144531 0 7.5-3.355469 7.5-7.5 0-4.140625-3.355469-7.5-7.5-7.5h-213.371094c-4.140625 0-7.5 3.359375-7.5 7.5 0 4.144531 3.359375 7.5 7.5 7.5zm0 0"/><path d="m57.703125 329.175781h213.371094c4.144531 0 7.5-3.355469 7.5-7.5 0-4.140625-3.355469-7.5-7.5-7.5h-213.371094c-4.140625 0-7.5 3.359375-7.5 7.5 0 4.144531 3.359375 7.5 7.5 7.5zm0 0"/><path d="m57.703125 358.808594h213.371094c4.144531 0 7.5-3.359375 7.5-7.5s-3.355469-7.5-7.5-7.5h-213.371094c-4.140625 0-7.5 3.359375-7.5 7.5s3.359375 7.5 7.5 7.5zm0 0"/><path d="m50.203125 429.035156c0 4.144532 3.359375 7.5 7.5 7.5h213.371094c4.144531 0 7.5-3.355468 7.5-7.5v-40.167968c0-4.144532-3.355469-7.5-7.5-7.5h-213.371094c-4.140625 0-7.5 3.355468-7.5 7.5zm15-32.671875h198.371094v25.171875h-198.371094zm0 0"/><path d="m271.105469 186.515625h.03125c4.128906 0 7.480469-3.339844 7.5-7.46875.015625-4.144531-3.328125-7.515625-7.46875-7.53125h-.117188c-4.132812.023437-7.515625 3.324219-7.53125 7.46875-.019531 4.140625 3.324219 7.511719 7.46875 7.53125zm0 0"/><path d="m245.941406 186.515625h.035156c4.125 0 7.480469-3.339844 7.496094-7.46875.019532-4.144531-3.324218-7.515625-7.46875-7.53125h-.117187c-.011719 0-.019531 0-.03125 0-4.128907 0-7.480469 3.335937-7.5 7.46875-.015625 4.140625 3.328125 7.511719 7.46875 7.53125zm0 0"/></svg>