<svg height="512pt" viewBox="-40 0 512 512" width="512pt" xmlns="http://www.w3.org/2000/svg"><path d="m321.078125 368.515625h-209.800781c-18.777344 0-33.996094-15.222656-33.996094-33.996094 0-18.777343 15.222656-33.996093 33.996094-33.996093h209.800781c18.773437 0 33.996094 15.21875 33.996094 33.996093 0 18.773438-15.222657 33.996094-33.996094 33.996094zm0 0" fill="#6b97af"/><path d="m355.078125 334.519531c0 9.386719-3.8125 17.890625-9.960937 24.042969-6.152344 6.152344-14.648438 9.953125-24.039063 9.953125h-22.546875c9.390625 0 17.886719-3.800781 24.035156-9.953125 6.152344-6.152344 9.964844-14.652344 9.964844-24.042969 0-18.78125-15.230469-34-34-34h22.546875c18.769531 0 34 15.21875 34 34zm0 0" fill="#50758e"/><path d="m121.960938 300.519531h43.480468v67.996094h-43.480468zm0 0" fill="#f1eded"/><path d="m149.109375 300.519531h16.332031v67.996094h-16.332031zm0 0" fill="#dad0cd"/><path d="m308.429688 334.515625c0 6.003906-4.867188 10.871094-10.871094 10.871094s-10.871094-4.867188-10.871094-10.871094 4.867188-10.871094 10.871094-10.871094 10.871094 4.867188 10.871094 10.871094zm0 0" fill="#00e2c7"/><path d="m321.078125 436.507812h-209.800781c-18.777344 0-33.996094-15.222656-33.996094-33.996093 0-18.777344 15.222656-33.996094 33.996094-33.996094h209.800781c18.773437 0 33.996094 15.21875 33.996094 33.996094 0 18.773437-15.222657 33.996093-33.996094 33.996093zm0 0" fill="#50758e"/><path d="m355.078125 402.511719c0 9.390625-3.8125 17.894531-9.960937 24.046875-6.152344 6.148437-14.648438 9.949218-24.039063 9.949218h-22.546875c9.390625 0 17.886719-3.800781 24.035156-9.949218 6.152344-6.152344 9.964844-14.65625 9.964844-24.046875 0-18.777344-15.230469-33.996094-34-33.996094h22.546875c18.769531 0 34 15.21875 34 33.996094zm0 0" fill="#2b597f"/><path d="m121.960938 368.515625h43.480468v67.992187h-43.480468zm0 0" fill="#dad0cd"/><path d="m149.109375 368.515625h16.332031v67.992187h-16.332031zm0 0" fill="#c1bab8"/><path d="m308.429688 402.511719c0 6.003906-4.867188 10.871093-10.871094 10.871093s-10.871094-4.867187-10.871094-10.871093c0-6.003907 4.867188-10.871094 10.871094-10.871094s10.871094 4.867187 10.871094 10.871094zm0 0" fill="#00e2c7"/><path d="m321.078125 504.5h-209.800781c-18.777344 0-33.996094-15.222656-33.996094-33.996094 0-18.777344 15.222656-33.996094 33.996094-33.996094h209.800781c18.773437 0 33.996094 15.222657 33.996094 33.996094 0 18.773438-15.222657 33.996094-33.996094 33.996094zm0 0" fill="#6b97af"/><path d="m355.078125 470.503906c0 9.390625-3.8125 17.894532-9.960937 24.046875-6.152344 6.152344-14.648438 9.953125-24.039063 9.953125h-22.546875c9.390625 0 17.886719-3.800781 24.035156-9.953125 6.152344-6.152343 9.964844-14.65625 9.964844-24.046875 0-18.777344-15.230469-33.996094-34-33.996094h22.546875c18.769531 0 34 15.21875 34 33.996094zm0 0" fill="#50758e"/><path d="m121.960938 436.507812h43.480468v67.992188h-43.480468zm0 0" fill="#f1eded"/><path d="m149.109375 436.507812h16.332031v67.992188h-16.332031zm0 0" fill="#dad0cd"/><path d="m308.429688 470.503906c0 6.003906-4.867188 10.871094-10.871094 10.871094s-10.871094-4.867188-10.871094-10.871094 4.867188-10.871094 10.871094-10.871094 10.871094 4.867188 10.871094 10.871094zm0 0" fill="#00e2c7"/><path d="m229.382812 247.683594c0 7.289062-5.910156 13.203125-13.203124 13.203125-7.292969 0-13.203126-5.914063-13.203126-13.203125 0-7.292969 5.910157-13.207032 13.203126-13.207032 7.292968 0 13.203124 5.914063 13.203124 13.207032zm0 0" fill="#50758e"/><path d="m424.859375 114.414062c0 23.738282-32.28125 73.933594-48.359375 97.460938-4.273438 6.25-13.496094 6.25-17.769531 0-16.078125-23.527344-48.359375-73.722656-48.359375-97.460938 0-31.617187 25.628906-57.246093 57.246094-57.246093 31.613281 0 57.242187 25.628906 57.242187 57.246093zm0 0" fill="#f2256f"/><path d="m390.761719 110.34375c0 12.785156-10.363281 23.152344-23.148438 23.152344-12.785156 0-23.148437-10.367188-23.148437-23.152344s10.363281-23.148438 23.148437-23.148438c12.785157 0 23.148438 10.363282 23.148438 23.148438zm0 0" fill="#f1eded"/><path d="m121.988281 114.414062c0 23.738282-32.28125 73.933594-48.363281 97.460938-4.269531 6.25-13.496094 6.25-17.765625 0-16.078125-23.527344-48.359375-73.722656-48.359375-97.460938 0-31.617187 25.628906-57.246093 57.242188-57.246093 31.617187 0 57.246093 25.628906 57.246093 57.246093zm0 0" fill="#f2256f"/><path d="m87.890625 110.34375c0 12.785156-10.363281 23.152344-23.148437 23.152344-12.785157 0-23.148438-10.367188-23.148438-23.152344s10.363281-23.148438 23.148438-23.148438c12.785156 0 23.148437 10.363282 23.148437 23.148438zm0 0" fill="#f1eded"/><path d="m273.433594 64.746094c0 23.738281-32.28125 73.929687-48.359375 97.460937-4.269531 6.25-13.496094 6.25-17.765625 0-16.082032-23.53125-48.363282-73.722656-48.363282-97.460937 0-31.617188 25.628907-57.246094 57.246094-57.246094 31.613282 0 57.242188 25.628906 57.242188 57.246094zm0 0" fill="#f2256f"/><path d="m239.339844 60.675781c0 12.785157-10.363282 23.148438-23.148438 23.148438s-23.152344-10.363281-23.152344-23.148438c0-12.785156 10.367188-23.148437 23.152344-23.148437s23.148438 10.363281 23.148438 23.148437zm0 0" fill="#f1eded"/><path d="m297.558594 352.890625c10.128906 0 18.371094-8.242187 18.371094-18.371094 0-10.132812-8.242188-18.371093-18.371094-18.371093s-18.371094 8.238281-18.371094 18.371093c0 10.128907 8.242188 18.371094 18.371094 18.371094zm0-21.742187c1.855468 0 3.371094 1.511718 3.371094 3.371093 0 1.855469-1.515626 3.371094-3.371094 3.371094-1.859375 0-3.371094-1.515625-3.371094-3.371094 0-1.859375 1.511719-3.371093 3.371094-3.371093zm0 0"/><path d="m239.421875 342.832031c4.140625 0 7.5-3.359375 7.5-7.5 0-4.144531-3.359375-7.5-7.5-7.5h-.085937c-4.140626 0-7.457032 3.355469-7.457032 7.5 0 4.140625 3.398438 7.5 7.542969 7.5zm0 0"/><path d="m219.289062 342.832031c4.144532 0 7.5-3.359375 7.5-7.5 0-4.144531-3.355468-7.5-7.5-7.5h-.082031c-4.144531 0-7.460937 3.355469-7.460937 7.5 0 4.140625 3.402344 7.5 7.542968 7.5zm0 0"/><path d="m199.160156 342.832031c4.140625 0 7.5-3.359375 7.5-7.5 0-4.144531-3.359375-7.5-7.5-7.5h-.085937c-4.140625 0-7.457031 3.355469-7.457031 7.5 0 4.140625 3.398437 7.5 7.542968 7.5zm0 0"/><path d="m297.558594 420.882812c10.128906 0 18.371094-8.242187 18.371094-18.371093 0-10.128907-8.242188-18.371094-18.371094-18.371094s-18.371094 8.242187-18.371094 18.371094c0 10.128906 8.242188 18.371093 18.371094 18.371093zm0-21.742187c1.855468 0 3.371094 1.511719 3.371094 3.371094 0 1.855469-1.515626 3.371093-3.371094 3.371093-1.859375 0-3.371094-1.515624-3.371094-3.371093 0-1.859375 1.511719-3.371094 3.371094-3.371094zm0 0"/><path d="m239.421875 395.824219h-.085937c-4.140626 0-7.457032 3.355469-7.457032 7.5 0 4.140625 3.398438 7.5 7.542969 7.5 4.140625 0 7.5-3.359375 7.5-7.5 0-4.144531-3.359375-7.5-7.5-7.5zm0 0"/><path d="m219.289062 395.824219h-.082031c-4.144531 0-7.460937 3.355469-7.460937 7.5 0 4.140625 3.398437 7.5 7.542968 7.5 4.144532 0 7.5-3.359375 7.5-7.5 0-4.144531-3.355468-7.5-7.5-7.5zm0 0"/><path d="m199.160156 395.824219h-.085937c-4.140625 0-7.457031 3.355469-7.457031 7.5 0 4.140625 3.398437 7.5 7.542968 7.5 4.140625 0 7.5-3.359375 7.5-7.5 0-4.144531-3.359375-7.5-7.5-7.5zm0 0"/><path d="m315.929688 470.503906c0-10.128906-8.242188-18.371094-18.371094-18.371094s-18.371094 8.242188-18.371094 18.371094 8.242188 18.371094 18.371094 18.371094 18.371094-8.242188 18.371094-18.371094zm-21.742188 0c0-1.859375 1.511719-3.371094 3.371094-3.371094 1.855468 0 3.371094 1.511719 3.371094 3.371094s-1.515626 3.371094-3.371094 3.371094c-1.859375 0-3.371094-1.511719-3.371094-3.371094zm0 0"/><path d="m246.921875 471.316406c0-4.144531-3.359375-7.5-7.5-7.5h-.085937c-4.140626 0-7.457032 3.355469-7.457032 7.5 0 4.144532 3.398438 7.5 7.542969 7.5 4.140625 0 7.5-3.355468 7.5-7.5zm0 0"/><path d="m226.789062 471.316406c0-4.144531-3.355468-7.5-7.5-7.5h-.082031c-4.144531 0-7.460937 3.355469-7.460937 7.5 0 4.144532 3.398437 7.5 7.542968 7.5 4.144532 0 7.5-3.355468 7.5-7.5zm0 0"/><path d="m199.160156 463.816406h-.085937c-4.140625 0-7.457031 3.355469-7.457031 7.5 0 4.144532 3.398437 7.5 7.542968 7.5 4.140625 0 7.5-3.355468 7.5-7.5 0-4.144531-3.359375-7.5-7.5-7.5zm0 0"/><path d="m367.617188 49.667969c-35.703126 0-64.746094 29.042969-64.746094 64.746093 0 13.234376 8.617187 41.621094 49.667968 101.691407 1.980469 2.898437 4.71875 5.109375 7.851563 6.457031-.175781.632812-.273437 1.296875-.273437 1.984375v12.367187c0 1.800782-1.464844 3.269532-3.269532 3.269532h-121.390625c-2.105469-5.390625-6.394531-9.675782-11.78125-11.78125 0-.011719 0-.027344 0-.039063v-55.574219c3.023438-1.359374 5.664063-3.535156 7.589844-6.351562 5.648437-8.265625 11.054687-16.53125 16.074219-24.574219 2.191406-3.515625 1.121094-8.140625-2.394532-10.332031-3.511718-2.191406-8.136718-1.121094-10.332031 2.390625-4.90625 7.867187-10.203125 15.957031-15.734375 24.054687-.84375 1.230469-2.046875 1.417969-2.6875 1.417969-.644531 0-1.847656-.1875-2.691406-1.417969-29.464844-43.113281-47.054688-77.96875-47.054688-93.230468 0-27.429688 22.316407-49.746094 49.746094-49.746094 27.425782 0 49.742188 22.316406 49.742188 49.746094 0 5.703125-2.542969 17.347656-14.660156 40.402344-1.929688 3.667968-.515626 8.203124 3.148437 10.128906 3.667969 1.925781 8.199219.519531 10.128906-3.148438 11.023438-20.976562 16.382813-36.476562 16.382813-47.382812 0-35.703125-29.042969-64.746094-64.742188-64.746094-35.699218 0-64.746094 29.042969-64.746094 64.746094 0 13.234375 8.617188 41.621094 49.667969 101.691406 1.921875 2.808594 4.550781 4.980469 7.566407 6.339844v55.585937.042969c-5.386719 2.101562-9.671876 6.390625-11.777344 11.777344h-121.394532c-1.800781 0-3.265624-1.464844-3.265624-3.269532v-12.367187c0-.6875-.101563-1.347656-.273438-1.980469 3.128906-1.351562 5.871094-3.5625 7.851562-6.460937 41.050782-60.070313 49.667969-88.457031 49.667969-101.691407 0-35.699218-29.042969-64.746093-64.746093-64.746093-35.699219 0-64.742188 29.046875-64.742188 64.746093 0 13.238282 8.617188 41.625 49.667969 101.691407 1.980469 2.898437 4.71875 5.113281 7.847656 6.460937-.171875.632813-.269531 1.292969-.269531 1.980469v12.367187c0 10.074219 8.191406 18.269532 18.265625 18.269532h121.390625c2.105468 5.386718 6.390625 9.671875 11.777344 11.777344v26.058593h-97.398438c-22.882812 0-41.496094 18.617188-41.496094 41.5 0 14.050781 7.023438 26.484375 17.742188 33.996094-10.71875 7.507813-17.742188 19.945313-17.742188 33.996094s7.023438 26.484375 17.742188 33.996093c-10.71875 7.511719-17.742188 19.945313-17.742188 33.996094 0 22.882813 18.613282 41.496094 41.496094 41.496094h85.570312c4.140626 0 7.5-3.355469 7.5-7.5s-3.359374-7.5-7.5-7.5h-23.910156v-52.992188h148.136719c14.609375 0 26.496094 11.886719 26.496094 26.496094s-11.886719 26.496094-26.496094 26.496094h-91.566406c-4.144531 0-7.5 3.355469-7.5 7.5s3.355469 7.5 7.5 7.5h91.566406c22.882813 0 41.496094-18.613281 41.496094-41.496094 0-14.050781-7.027344-26.484375-17.746094-33.996094 10.71875-7.511718 17.746094-19.945312 17.746094-33.996093 0-14.054688-7.027344-26.488281-17.746094-33.996094 10.71875-7.511719 17.746094-19.945313 17.746094-33.996094 0-22.882812-18.613281-41.5-41.496094-41.5h-97.394531v-26.058593c5.382812-2.105469 9.671875-6.390626 11.773437-11.777344h121.394531c10.070313 0 18.265626-8.195313 18.265626-18.269532v-12.367187c0-.6875-.097657-1.347656-.273438-1.980469 3.132812-1.351562 5.871094-3.5625 7.851562-6.460937 41.050782-60.066407 49.667969-88.453125 49.667969-101.691407-.003906-35.703124-29.046875-64.746093-64.746093-64.746093zm-352.617188 64.746093c0-27.429687 22.3125-49.746093 49.742188-49.746093 27.429687 0 49.746093 22.316406 49.746093 49.746093 0 15.261719-17.59375 50.117188-47.054687 93.226563-.84375 1.234375-2.046875 1.421875-2.691406 1.421875-.644532 0-1.847657-.1875-2.691407-1.421875-29.460937-43.109375-47.050781-77.960937-47.050781-93.226563zm114.460938 261.601563h28.480468v52.992187h-28.480468zm28.480468-15h-28.480468v-52.996094h28.480468zm-73.160156-26.496094c0-14.609375 11.886719-26.5 26.496094-26.5h3.183594v52.996094h-3.183594c-14.609375 0-26.496094-11.886719-26.496094-26.496094zm0 67.992188c0-14.609375 11.886719-26.496094 26.496094-26.496094h3.183594v52.992187h-3.183594c-14.609375 0-26.496094-11.886718-26.496094-26.496093zm0 67.992187c0-14.609375 11.886719-26.496094 26.496094-26.496094h3.183594v52.992188h-3.183594c-14.609375 0-26.496094-11.886719-26.496094-26.496094zm73.160156 26.496094h-28.480468v-52.992188h28.480468zm189.632813-162.480469c0 14.609375-11.886719 26.496094-26.496094 26.496094h-41.566406c-4.144531 0-7.5 3.355469-7.5 7.5 0 4.140625 3.355469 7.5 7.5 7.5h41.566406c14.609375 0 26.496094 11.886719 26.496094 26.496094s-11.886719 26.496093-26.496094 26.496093h-148.136719v-52.992187h73.90625c4.144532 0 7.5-3.359375 7.5-7.5 0-4.144531-3.355468-7.5-7.5-7.5h-73.90625v-52.996094h148.136719c14.609375 0 26.496094 11.886719 26.496094 26.5zm-131.394531-81.132812c-3.148438 0-5.703126-2.558594-5.703126-5.703125 0-3.144532 2.558594-5.703125 5.703126-5.703125 3.144531 0 5.703124 2.558593 5.703124 5.703125 0 3.144531-2.558593 5.703125-5.703124 5.703125zm154.125-45.742188c-.84375 1.230469-2.046876 1.417969-2.6875 1.417969-.644532 0-1.851563-.1875-2.691407-1.417969-29.464843-43.113281-47.054687-77.96875-47.054687-93.230469 0-27.429687 22.316406-49.746093 49.746094-49.746093 27.425781 0 49.742187 22.316406 49.742187 49.746093 0 15.265626-17.589844 50.117188-47.054687 93.230469zm0 0"/><path d="m367.617188 79.695312c-16.902344 0-30.648438 13.75-30.648438 30.648438s13.746094 30.648438 30.648438 30.648438c16.898437 0 30.644531-13.75 30.644531-30.648438s-13.746094-30.648438-30.644531-30.648438zm0 46.296876c-8.628907 0-15.648438-7.019532-15.648438-15.648438 0-8.625 7.019531-15.644531 15.648438-15.644531 8.625 0 15.644531 7.019531 15.644531 15.644531 0 8.628906-7.019531 15.648438-15.644531 15.648438zm0 0"/><path d="m95.390625 110.34375c0-16.898438-13.75-30.644531-30.648437-30.644531-16.898438 0-30.648438 13.746093-30.648438 30.644531 0 16.902344 13.75 30.648438 30.648438 30.648438 16.898437 0 30.648437-13.746094 30.648437-30.648438zm-46.296875 0c0-8.628906 7.019531-15.644531 15.648438-15.644531 8.628906 0 15.648437 7.019531 15.648437 15.644531 0 8.628906-7.019531 15.648438-15.648437 15.648438-8.628907 0-15.648438-7.019532-15.648438-15.648438zm0 0"/><path d="m185.539062 60.675781c0 16.902344 13.75 30.648438 30.648438 30.648438 16.902344 0 30.652344-13.746094 30.652344-30.648438 0-16.898437-13.75-30.648437-30.652344-30.648437-16.898438 0-30.648438 13.75-30.648438 30.648437zm46.300782 0c0 8.628907-7.023438 15.648438-15.648438 15.648438-8.628906 0-15.648437-7.019531-15.648437-15.648438 0-8.625 7.019531-15.648437 15.648437-15.648437 8.625 0 15.648438 7.019531 15.648438 15.648437zm0 0"/></svg>