<svg height="512pt" viewBox="0 -2 512.00117 512" width="512pt" xmlns="http://www.w3.org/2000/svg"><path d="m235.175781 500.007812v-63.8125c0-11.125-4.417969-21.796874-12.285156-29.664062l-25.859375-25.859375h-150.769531v-72.847656c0-10.582031-8.285157-19.570313-18.863281-19.847657-11.085938-.289062-20.105469 8.726563-19.894532 19.746094l1.640625 85.277344c.375 19.386719 16.195313 34.90625 35.585938 34.90625h69.746093l33.304688 33.308594v38.792968zm0 0" fill="#ffc299"/><path d="m165.550781 349.191406 56.207031 56.210938-54.648437 7.46875-27.636719-27.636719h-46.03125c-12.304687 0-22.277344-9.972656-22.277344-22.273437 0-12.300782 9.976563-22.273438 22.277344-22.273438h51.578125c7.699219 0 15.085938 3.058594 20.53125 8.503906zm0 0" fill="#ffc299"/><path d="m276.824219 500.007812v-63.8125c0-11.125 4.417969-21.796874 12.285156-29.664062l25.859375-25.859375h150.769531v-72.847656c0-10.582031 8.285157-19.570313 18.863281-19.847657 11.085938-.289062 20.105469 8.726563 19.894532 19.746094l-1.640625 85.277344c-.375 19.386719-16.195313 34.90625-35.585938 34.90625h-69.746093l-33.304688 33.308594v38.792968zm0 0" fill="#ffaa71"/><path d="m346.449219 349.191406-56.207031 56.210938 54.648437 7.46875 27.636719-27.636719h46.03125c12.300781 0 22.273437-9.972656 22.273437-22.273437 0-12.300782-9.972656-22.273438-22.273437-22.273438h-51.578125c-7.699219 0-15.085938 3.058594-20.53125 8.503906zm0 0" fill="#ffaa71"/><path d="m377.640625 173.175781c0 85.929688-69.667969 155.585938-155.597656 155.585938-17.675781 0-34.664063-2.953125-50.503907-8.382813-53.335937-18.292968-93.589843-64.75-103.003906-121.625-1.375-8.324218-2.085937-16.867187-2.085937-25.578125 0-54.761719 28.292969-102.917969 71.0625-130.648437 24.339843-15.777344 53.371093-24.945313 84.53125-24.945313 62.578125 0 116.523437 36.945313 141.226562 90.214844 9.230469 19.871094 14.371094 42.019531 14.371094 65.378906zm0 0" fill="#27bef4"/><path d="m377.640625 173.175781c0 85.929688-69.667969 155.585938-155.597656 155.585938-6.203125 0-12.316407-.367188-18.332031-1.082031 77.257812-9.105469 137.1875-74.804688 137.1875-154.503907 0-23.359375-5.140626-45.507812-14.367188-65.382812-22.25-47.976563-68.226562-82.714844-122.867188-89.132813 6.035157-.714844 12.160157-1.082031 18.378907-1.082031 62.582031 0 116.527343 36.949219 141.230469 90.214844 9.226562 19.875 14.367187 42.023437 14.367187 65.382812zm0 0" fill="#209ced"/><path d="m200.695312 302.695312c-.957031 0-1.910156-.046874-2.847656-.121093-9.960937-.828125-19.273437 4.78125-23.914062 13.644531-.742188 1.417969-1.539063 2.808594-2.394532 4.164062-53.335937-18.296874-93.589843-64.753906-103.003906-121.628906 2.113282-3.503906 4.808594-6.746094 8.070313-9.585937 15.671875-13.632813 39.570312-12.957031 54.433593 1.5625 7.941407 7.757812 11.960938 17.910156 12.140626 28.074219.140624 8.015624 4.039062 15.46875 10.730468 19.894531.519532.347656 1.023438.695312 1.53125 1.050781 8.148438 5.769531 18.898438 5.695312 27.363282.402344 5.789062-3.617188 12.761718-5.535156 20.191406-5.035156 16.71875 1.109374 30.265625 14.601562 31.441406 31.308593 1.382812 19.789063-14.253906 36.269531-33.742188 36.269531zm0 0" fill="#00e2c7"/><path d="m363.273438 107.796875c-6.570313 11.085937-15.976563 20.324219-27.222657 26.683594-.816406.460937-1.632812.902343-2.46875 1.335937-8.796875 4.535156-14.425781 13.472656-14.621093 23.359375-.03125 1.425781-.132813 2.875-.300782 4.332031-2.4375 20.425782-19.375 36.4375-39.917968 37.746094-25.03125 1.578125-45.816407-18.25-45.816407-42.945312 0-7.488282 1.917969-14.535156 5.28125-20.671875 4.773438-8.671875 4.820313-19.242188-.535156-27.578125-.066406-.113282-.140625-.226563-.21875-.347656-6.070313-9.566407-17.417969-14.421876-28.480469-11.96875-4.105468.917968-8.382812 1.398437-12.769531 1.398437-31.730469 0-57.570313-25.152344-58.6875-56.613281 19.476563-12.628906 41.972656-21.03125 66.148437-23.867188 6.035157-.714844 12.160157-1.082031 18.378907-1.082031 62.582031.003906 116.527343 36.949219 141.230469 90.21875zm0 0" fill="#00e2c7"/><path d="m363.273438 107.796875c-6.570313 11.085937-15.976563 20.324219-27.222657 26.683594-2.367187-9.253907-5.570312-18.179688-9.519531-26.683594-22.25-47.980469-68.226562-82.71875-122.867188-89.136719 6.035157-.714844 12.160157-1.082031 18.378907-1.082031 62.582031.003906 116.527343 36.949219 141.230469 90.21875zm0 0" fill="#00c6a9"/><path d="m442.109375 84.289062-73.367187-73.367187c-4.558594-4.558594-11.949219-4.558594-16.507813 0l-73.367187 73.367187c-7.351563 7.351563-2.144532 19.925782 8.253906 19.925782h19.96875v124.953125c0 6.445312 5.226562 11.671875 11.671875 11.671875h83.453125c6.449218 0 11.671875-5.226563 11.671875-11.671875v-124.953125h19.96875c10.398437 0 15.605469-12.574219 8.253906-19.925782zm0 0" fill="#fc6393"/><path d="m170.851562 343.886719c-6.898437-6.898438-16.074218-10.699219-25.832031-10.699219h-51.578125c-16.417968 0-29.773437 13.355469-29.773437 29.773438 0 3.585937.636719 7.023437 1.804687 10.210937h-11.710937v-65.347656c0-14.703125-11.738281-26.96875-26.167969-27.347657-7.414062-.195312-14.398438 2.578126-19.65625 7.800782s-8.074219 12.179687-7.93359375 19.589844l1.64062475 85.277343c.453125 23.300781 19.777344 42.257813 43.085938 42.257813h66.640625l28.914062 28.917968v35.6875c0 4.140626 3.355469 7.5 7.5 7.5 4.140625 0 7.5-3.359374 7.5-7.5v-38.796874c0-1.988282-.792968-3.894532-2.199218-5.300782l-33.304688-33.308594c-1.410156-1.40625-3.316406-2.195312-5.304688-2.195312h-69.746093c-15.195313 0-27.792969-12.359375-28.085938-27.550781l-1.640625-85.277344c-.0625-3.273437 1.179688-6.347656 3.503906-8.65625 2.324219-2.308594 5.414063-3.539063 8.695313-3.449219 6.371094.167969 11.558594 5.707032 11.558594 12.351563v72.847656c0 4.140625 3.355469 7.5 7.5 7.5h31.367187c4.585938 2.886719 10.003906 4.5625 15.8125 4.5625h46.03125c4.140625 0 7.5-3.359375 7.5-7.5s-3.359375-7.5-7.5-7.5h-46.03125c-8.148437 0-14.773437-6.625-14.773437-14.773437 0-8.148438 6.625-14.773438 14.773437-14.773438h51.578125c5.75 0 11.160157 2.238281 15.226563 6.308594l57.339844 57.339844c6.507812 6.503906 10.089843 15.15625 10.089843 24.359374v63.8125c0 4.144532 3.359375 7.5 7.5 7.5 4.144531 0 7.5-3.355468 7.5-7.5v-63.8125c0-13.207031-5.140625-25.625-14.480469-34.964843zm0 0"/><path d="m503.507812 359.085938c-.050781-.003907-.101562-.003907-.148437-.003907-4.074219 0-7.417969 3.265625-7.496094 7.359375l-.507812 26.414063c-.292969 15.191406-12.890625 27.550781-28.085938 27.550781h-69.746093c-1.988282 0-3.894532.789062-5.304688 2.199219l-33.304688 33.304687c-1.40625 1.40625-2.199218 3.316406-2.199218 5.304688v38.792968c0 4.144532 3.359375 7.5 7.5 7.5 4.144531 0 7.5-3.355468 7.5-7.5v-35.6875l28.914062-28.914062h66.640625c23.308594 0 42.632813-18.957031 43.085938-42.261719l.507812-26.417969c.078125-4.140624-3.214843-7.5625-7.355469-7.640624zm0 0"/><path d="m504.0625 288.277344c-5.257812-5.21875-12.234375-7.992188-19.65625-7.796875-14.429688.375-26.167969 12.644531-26.167969 27.34375v65.347656h-11.710937c1.167968-3.183594 1.804687-6.625 1.804687-10.210937 0-16.417969-13.355469-29.773438-29.773437-29.773438h-51.578125c-9.757813 0-18.933594 3.800781-25.832031 10.703125l-57.34375 57.339844c-9.339844 9.339843-14.480469 21.757812-14.480469 34.964843v63.816407c0 4.140625 3.355469 7.5 7.5 7.5 4.140625 0 7.5-3.359375 7.5-7.5v-63.816407c0-9.203124 3.582031-17.855468 10.089843-24.359374l57.339844-57.339844c4.070313-4.070313 9.476563-6.308594 15.230469-6.308594h51.578125c8.144531 0 14.773438 6.628906 14.773438 14.773438 0 8.144531-6.628907 14.773437-14.773438 14.773437h-46.03125c-4.144531 0-7.5 3.359375-7.5 7.5s3.355469 7.5 7.5 7.5h46.03125c5.804688 0 11.222656-1.675781 15.808594-4.5625h31.367187c4.144531 0 7.5-3.359375 7.5-7.5v-72.847656c0-6.644531 5.1875-12.183594 11.558594-12.351563 3.285156-.078125 6.371094 1.140625 8.695313 3.449219 2.324218 2.308594 3.570312 5.382813 3.507812 8.609375l-.632812 24.742188c-.105469 4.140624 3.164062 7.582031 7.304687 7.691406 4.101563.089844 7.585937-3.164063 7.6875-7.308594l.636719-24.789062c.140625-7.40625-2.675782-14.363282-7.933594-19.589844zm0 0"/><path d="m222.042969 336.261719c30.871093 0 60.929687-8.667969 86.917969-25.066407 24.539062-15.484374 44.472656-37.183593 57.828124-62.855468h35.425782c10.570312 0 19.171875-8.601563 19.171875-19.171875v-117.453125h12.46875c7.78125 0 14.734375-4.648438 17.710937-11.835938 2.980469-7.191406 1.347656-15.390625-4.152344-20.894531l-27.765624-27.765625c-2.929688-2.929688-7.675782-2.929688-10.605469 0-2.929688 2.929688-2.929688 7.679688 0 10.605469l27.761719 27.765625c1.78125 1.777344 1.226562 3.773437.90625 4.546875-.320313.773437-1.339844 2.578125-3.855469 2.578125h-19.964844c-4.144531 0-7.5 3.355468-7.5 7.5v124.953125c0 2.300781-1.875 4.171875-4.175781 4.171875h-83.453125c-2.300781 0-4.171875-1.871094-4.171875-4.171875v-124.953125c0-4.144532-3.355469-7.5-7.5-7.5h-19.96875c-2.515625 0-3.53125-1.800782-3.855469-2.578125-.316406-.773438-.875-2.769531.90625-4.546875l73.367187-73.367188c.789063-.789062 1.835938-1.222656 2.949219-1.222656s2.164063.433594 2.949219 1.222656l21.910156 21.910156c2.929688 2.929688 7.679688 2.929688 10.609375 0 2.925781-2.929687 2.925781-7.675781 0-10.605468l-21.910156-21.910156c-3.621094-3.621094-8.4375-5.617188-13.558594-5.617188-5.121093 0-9.9375 1.996094-13.558593 5.617188l-32.882813 32.882812c-27.15625-18.605469-58.871094-28.421875-92.003906-28.421875-51.171875 0-98.394531 23.335937-129.550781 64.023437-2.519532 3.289063-1.894532 7.996094 1.394531 10.515626 1.359375 1.042968 2.964843 1.546874 4.554687 1.546874 2.253906 0 4.484375-1.011718 5.960938-2.941406 8.03125-10.484375 17.238281-19.699218 27.363281-27.523437 6.867187 29.40625 33.039063 50.941406 64.4375 50.941406 4.855469 0 9.699219-.53125 14.402344-1.574219 7.871093-1.75 16.113281 1.734375 20.511719 8.65625l.246093.390625c3.730469 5.804688 3.832031 13.433594.273438 19.917969-4.066407 7.398438-6.214844 15.792969-6.214844 24.277344 0 13.90625 5.816406 27.335937 15.953125 36.851562 9.46875 8.886719 21.621094 13.679688 34.519531 13.679688 1.101563 0 2.210938-.035156 3.324219-.109375 7.148438-.453125 14.089844-2.457031 20.367188-5.800781v26.238281c0 10.570312 8.601562 19.171875 19.175781 19.171875h30.902343c-11.976562 20.300781-28.65625 37.515625-48.710937 50.167968-23.585937 14.886719-50.875 22.753907-78.910156 22.753907-13.484375 0-26.546875-1.824219-38.96875-5.214844 3.609375-4.152344 8.816406-6.441406 14.171875-6 1.226562.101563 2.355468.148437 3.449218.148437 11.417969 0 22.433594-4.792968 30.222657-13.144531 7.90625-8.476562 11.8125-19.539062 11-31.152343-1.4375-20.457032-17.957031-36.910157-38.421875-38.265626-8.75-.585937-17.28125 1.542969-24.664063 6.160157-6.074219 3.792969-13.554687 3.730469-19.066406-.175781-.554687-.386719-1.105469-.765626-1.71875-1.179688-4.515625-2.984375-7.269531-8.132812-7.367187-13.765625-.222657-12.625-5.335938-24.453125-14.398438-33.3125-16.855469-16.460937-43.527344-17.914063-62.089844-3.871094-.152344-2.753906-.238281-5.527343-.238281-8.320312 0-21.5625 4.535156-42.359375 13.484375-61.8125 1.730469-3.761719.082031-8.214844-3.679688-9.945313-3.761718-1.730468-8.21875-.082031-9.949218 3.679688-9.855469 21.429687-14.855469 44.335937-14.855469 68.078125 0 89.933593 73.164063 163.09375 163.089844 163.09375zm56.230469-142.5c-9.9375.628906-19.402344-2.753907-26.628907-9.539063-7.234375-6.789062-11.21875-15.992187-11.21875-25.914062 0-5.964844 1.507813-11.863282 4.355469-17.054688 6.214844-11.308594 5.90625-24.8125-.800781-35.253906l-.195313-.304688c-7.777344-12.25-22.417968-18.386718-36.4375-15.273437-3.636718.808594-7.386718 1.21875-11.144531 1.21875-26.332031 0-47.921875-19.570313-50.871094-45.261719 22.769531-13.820312 49.105469-21.300781 76.710938-21.300781 29.144531 0 57.070312 8.359375 81.195312 24.230469l-29.675781 29.675781c-5.5 5.503906-7.132812 13.703125-4.15625 20.894531 2.980469 7.1875 9.933594 11.835938 17.714844 11.835938h12.46875v73.0625c-5.9375 5.304687-13.457032 8.488281-21.316406 8.984375zm-196.746094 1.066406c12.746094-11.089844 32.191406-10.53125 44.269531 1.261719 6.222656 6.082031 9.730469 14.195312 9.886719 22.847656.183594 10.574219 5.453125 20.300781 14.039062 25.980469.472656.316406.9375.636719 1.386719.953125 10.449219 7.398437 24.453125 7.652344 35.671875.644531 4.695312-2.9375 10.128906-4.285156 15.722656-3.914063 13.023438.863282 23.539063 11.332032 24.453125 24.347657.519531 7.414062-1.96875 14.472656-7.003906 19.871093-5.039063 5.402344-11.875 8.375-19.257813 8.375-.6875 0-1.421874-.03125-2.226562-.09375-12.160156-1.011718-23.851562 5.242188-30.261719 16.027344-46.949219-18.386718-82.296875-60.078125-91.742187-110.765625 1.460937-2.015625 3.152344-3.875 5.0625-5.535156zm0 0"/><path d="m185.398438 147.046875c4.140624 0 7.5-3.359375 7.5-7.5 0-4.144531-3.359376-7.5-7.5-7.5h-.097657c-4.144531 0-7.449219 3.355469-7.449219 7.5 0 4.140625 3.402344 7.5 7.546876 7.5zm0 0"/><path d="m262.429688 278.613281c0-4.140625-3.355469-7.5-7.5-7.5h-.097657c-4.140625 0-7.449219 3.359375-7.449219 7.5s3.40625 7.5 7.546876 7.5c4.144531 0 7.5-3.359375 7.5-7.5zm0 0"/><path d="m384.222656 204.703125h-47.46875c-4.144531 0-7.5 3.355469-7.5 7.496094 0 4.144531 3.355469 7.5 7.5 7.5h47.46875c4.144532 0 7.5-3.355469 7.5-7.5 0-4.140625-3.355468-7.496094-7.5-7.496094zm0 0"/><path d="m442.246094 161.449219c3.113281 2.730469 7.851562 2.421875 10.582031-.691407l9.476563-10.800781 9.476562 10.800781c1.484375 1.691407 3.558594 2.554688 5.644531 2.554688 1.753907 0 3.519531-.613281 4.941407-1.859375 3.113281-2.734375 3.421874-7.472656.691406-10.585937l-15.113282-17.226563c-1.425781-1.625-3.480468-2.554687-5.640624-2.554687-2.15625 0-4.210938.929687-5.636719 2.554687l-15.113281 17.226563c-2.734376 3.113281-2.421876 7.851562.691406 10.582031zm0 0"/><path d="m409.558594 273.558594c-2.160156 0-4.214844.929687-5.636719 2.554687l-15.113281 17.226563c-2.730469 3.113281-2.421875 7.851562.691406 10.585937 3.113281 2.730469 7.851562 2.421875 10.582031-.691406l9.476563-10.804687 9.480468 10.804687c1.480469 1.6875 3.554688 2.550781 5.640626 2.550781 1.753906 0 3.519531-.609375 4.941406-1.859375 3.113281-2.734375 3.421875-7.472656.691406-10.585937l-15.113281-17.226563c-1.425781-1.625-3.480469-2.554687-5.640625-2.554687zm0 0"/><path d="m18.722656 246.523438c1.421875 1.25 3.1875 1.863281 4.941406 1.863281 2.085938 0 4.15625-.867188 5.640626-2.554688l9.476562-10.804687 9.480469 10.804687c2.730469 3.113281 7.46875 3.421875 10.582031.691407 3.113281-2.734376 3.421875-7.472657.691406-10.585938l-15.113281-17.226562c-1.425781-1.625-3.480469-2.554688-5.640625-2.554688s-4.214844.929688-5.636719 2.554688l-15.113281 17.226562c-2.734375 3.117188-2.421875 7.855469.691406 10.585938zm0 0"/></svg>