<svg height="512pt" viewBox="0 -62 512 512" width="512pt" xmlns="http://www.w3.org/2000/svg"><path d="m129.28125 322.617188h253.441406v58.496093h-253.441406zm0 0" fill="#dad0cd"/><path d="m484.5 334.382812h-457c-11.046875 0-20-8.957031-20-20v-286.882812c0-11.046875 8.953125-20 20-20h457c11.046875 0 20 8.953125 20 20v286.882812c0 11.042969-8.953125 20-20 20zm0 0" fill="#50758e"/><path d="m504.5 27.5v286.882812c0 11.046876-8.949219 20-20 20h-31.660156c11.050781 0 20-8.953124 20-20v-286.882812c0-11.050781-8.949219-20-20-20h31.660156c11.050781 0 20 8.949219 20 20zm0 0" fill="#2b597f"/><path d="m504.5 285.359375v29.023437c0 11.046876-8.949219 20-20 20h-457c-11.050781 0-20-8.953124-20-20v-29.023437zm0 0" fill="#6b97af"/><path d="m504.5 285.359375v29.023437c0 11.046876-8.949219 20-20 20h-31.660156c11.050781 0 20-8.953124 20-20v-29.023437zm0 0" fill="#50758e"/><path d="m87.160156 243.636719c-5.722656 0-10.320312-4.796875-9.992187-10.507813 5.441406-94.042968 83.425781-168.628906 178.832031-168.628906s173.390625 74.585938 178.832031 168.628906c.328125 5.710938-4.269531 10.503906-9.992187 10.503906h-337.679688zm0 0" fill="#f1eded"/><path d="m184.792969 243.636719c0-39.328125 31.882812-71.207031 71.207031-71.207031s71.207031 31.878906 71.207031 71.207031" fill="#c1bab8"/><path d="m280 236.503906c0 13.222656-10.722656 23.945313-23.949219 23.945313-13.226562 0-23.945312-10.722657-23.945312-23.945313 0-13.226562 10.71875-23.949218 23.945312-23.949218 13.226563 0 23.949219 10.722656 23.949219 23.949218zm0 0" fill="#14f2d7"/><path d="m484.5 0h-306.167969c-4.144531 0-7.5 3.359375-7.5 7.5s3.355469 7.5 7.5 7.5h306.167969c6.894531 0 12.5 5.605469 12.5 12.5v250.355469h-482v-31.21875c0-4.140625-3.359375-7.5-7.5-7.5s-7.5 3.359375-7.5 7.5v67.746093c0 15.164063 12.335938 27.5 27.5 27.5h94.28125v31.730469h-16.113281c-4.144531 0-7.5 3.359375-7.5 7.5 0 4.144531 3.355469 7.5 7.5 7.5h300.664062c4.144531 0 7.5-3.355469 7.5-7.5 0-4.140625-3.355469-7.5-7.5-7.5h-16.113281v-31.730469h94.28125c15.164062 0 27.5-12.335937 27.5-27.5v-286.882812c0-15.164062-12.335938-27.5-27.5-27.5zm-109.28125 373.613281h-238.4375v-31.730469h238.4375zm109.28125-46.730469h-457c-6.894531 0-12.5-5.609374-12.5-12.5v-21.527343h482v21.527343c0 6.890626-5.605469 12.5-12.5 12.5zm0 0"/><path d="m7.5 221.476562c4.140625 0 7.5-3.359374 7.5-7.5v-186.476562c0-6.894531 5.605469-12.5 12.5-12.5h118.171875c4.140625 0 7.5-3.359375 7.5-7.5s-3.359375-7.5-7.5-7.5h-118.171875c-15.164062 0-27.5 12.335938-27.5 27.5v186.476562c0 4.140626 3.359375 7.5 7.5 7.5zm0 0"/><path d="m256.085938 302.367188h-.101563c-.011719 0-.023437 0-.039063 0-4.125 0-7.476562 3.335937-7.496093 7.46875-.019531 4.140624 3.320312 7.515624 7.464843 7.53125h.101563.039063c4.125 0 7.476562-3.332032 7.496093-7.464844.019531-4.140625-3.320312-7.511719-7.464843-7.535156zm0 0"/><path d="m256 57c-98.78125 0-180.621094 77.175781-186.320312 175.695312-.273438 4.75 1.449218 9.464844 4.726562 12.9375 3.296875 3.496094 7.949219 5.5 12.753906 5.5h141.066406c5.273438 9.988282 15.765626 16.816407 27.824219 16.816407 12.058594 0 22.550781-6.828125 27.824219-16.816407h75.792969c4.144531 0 7.5-3.355468 7.5-7.5 0-4.140624-3.355469-7.5-7.5-7.5h-25.328125c-1.636719-17.214843-8.835938-32.828124-19.78125-45.019531l13.378906-13.382812c2.929688-2.929688 2.929688-7.675781 0-10.605469-2.925781-2.929688-7.675781-2.929688-10.605469 0l-13.816406 13.816406c-13.214844-10.039062-29.675781-16.011718-47.515625-16.011718-40.867188 0-74.550781 31.3125-78.339844 71.203124h-90.5c-.953125 0-1.566406-.5-1.847656-.796874-.328125-.34375-.707031-.933594-.65625-1.777344 5.238281-90.59375 80.5-161.558594 171.34375-161.558594 90.839844 0 166.101562 70.964844 171.34375 161.558594.046875.84375-.332031 1.433594-.660156 1.777344-.28125.300781-.894532.796874-1.84375.796874h-32.511719c-4.140625 0-7.5 3.359376-7.5 7.5 0 4.144532 3.359375 7.5 7.5 7.5h32.511719c4.804687 0 9.453125-2.003906 12.753906-5.5 3.277344-3.472656 5-8.1875 4.722656-12.9375-5.695312-98.519531-87.535156-175.695312-186.316406-175.695312zm.050781 195.949219c-9.070312 0-16.445312-7.375-16.445312-16.445313 0-9.070312 7.375-16.449218 16.445312-16.449218 9.070313 0 16.449219 7.378906 16.449219 16.449218 0 9.070313-7.378906 16.445313-16.449219 16.445313zm63.199219-16.8125h-31.757812c-.0625-5.164063-1.371094-10.03125-3.640626-14.316407l20.082032-20.082031c8.253906 9.4375 13.773437 21.3125 15.316406 34.398438zm-63.25-56.207031c13.695312 0 26.386719 4.359374 36.785156 11.742187l-18.925781 18.929687c-5.070313-3.496093-11.203125-5.546874-17.808594-5.546874-17.21875 0-31.238281 13.910156-31.4375 31.082031h-31.863281c3.726562-31.605469 30.660156-56.207031 63.25-56.207031zm0 0"/><path d="m248.5 92.640625v12.773437c0 4.140626 3.359375 7.5 7.5 7.5s7.5-3.359374 7.5-7.5v-12.773437c0-4.144531-3.359375-7.5-7.5-7.5s-7.5 3.355469-7.5 7.5zm0 0"/><path d="m355.265625 130.609375-9.03125 9.03125c-2.929687 2.929687-2.929687 7.679687 0 10.605469 1.460937 1.464844 3.382813 2.199218 5.300781 2.199218 1.917969 0 3.839844-.734374 5.304688-2.199218l9.03125-9.03125c2.929687-2.929688 2.929687-7.679688 0-10.605469-2.925782-2.929687-7.675782-2.929687-10.605469 0zm0 0"/><path d="m298.359375 94.472656c-4.140625 0-7.5 3.359375-7.5 7.5 0 4.144532 3.359375 7.5 7.5 7.5h.105469c4.140625 0 7.5-3.355468 7.5-7.5 0-4.140625-3.359375-7.5-7.5-7.5zm0 0"/><path d="m327.433594 108.308594c-.011719 0-.027344 0-.039063 0-4.125 0-7.476562 3.332031-7.496093 7.464844-.019532 4.140624 3.320312 7.515624 7.464843 7.535156h.101563.039062c4.125 0 7.476563-3.335938 7.496094-7.464844.019531-4.144531-3.320312-7.519531-7.464844-7.535156zm0 0"/><path d="m385.390625 161.035156-.074219-.070312c-2.925781-2.929688-7.675781-2.929688-10.605468 0-2.929688 2.925781-2.929688 7.675781 0 10.605468l.074218.070313c1.464844 1.464844 3.382813 2.199219 5.304688 2.199219 1.917968 0 3.835937-.734375 5.300781-2.199219 2.929687-2.925781 2.929687-7.675781 0-10.605469zm0 0"/><path d="m396.835938 204.152344c1.910156 0 3.824218-.726563 5.285156-2.179688 2.941406-2.917968 2.957031-7.667968.035156-10.605468l-.070312-.074219c-2.921876-2.9375-7.667969-2.953125-10.605469-.035157-2.941407 2.921876-2.957031 7.667969-.035157 10.605469l.070313.074219c1.464844 1.476562 3.394531 2.214844 5.320313 2.214844zm0 0"/><path d="m126.683594 160.964844-.074219.070312c-2.929687 2.929688-2.929687 7.679688 0 10.605469 1.464844 1.464844 3.382813 2.199219 5.300781 2.199219 1.921875 0 3.839844-.734375 5.304688-2.199219l.074218-.070313c2.929688-2.929687 2.929688-7.679687 0-10.605468-2.929687-2.929688-7.679687-2.929688-10.605468 0zm0 0"/><path d="m109.914062 191.292969-.070312.074219c-2.921875 2.9375-2.90625 7.6875.035156 10.605468 1.460938 1.453125 3.375 2.179688 5.285156 2.179688 1.925782 0 3.855469-.742188 5.320313-2.214844l.074219-.074219c2.917968-2.9375 2.902344-7.6875-.035156-10.605469-2.941407-2.917968-7.6875-2.902343-10.609376.035157zm0 0"/><path d="m144.59375 130.609375c-2.929688 2.925781-2.929688 7.675781 0 10.605469l9.03125 9.03125c1.464844 1.464844 3.382812 2.199218 5.304688 2.199218 1.917968 0 3.835937-.734374 5.300781-2.199218 2.929687-2.929688 2.929687-7.675782 0-10.605469l-9.03125-9.03125c-2.929688-2.929687-7.679688-2.929687-10.605469 0zm0 0"/><path d="m212 94.472656c-4.140625 0-7.5 3.359375-7.5 7.5 0 4.144532 3.359375 7.5 7.5 7.5h.105469c4.140625 0 7.5-3.355468 7.5-7.5 0-4.140625-3.359375-7.5-7.5-7.5zm0 0"/><path d="m183.03125 108.308594h-.101562c-4.144532.019531-7.484376 3.390625-7.464844 7.535156.019531 4.128906 3.375 7.464844 7.5 7.464844h.035156.101562c4.144532-.023438 7.484376-3.394532 7.464844-7.535156-.019531-4.132813-3.371094-7.464844-7.496094-7.464844-.011718 0-.023437 0-.039062 0zm0 0"/><path d="m53.492188 54h15.621093c4.140625 0 7.5-3.359375 7.5-7.5s-3.359375-7.5-7.5-7.5h-15.621093c-4.144532 0-7.5 3.359375-7.5 7.5s3.355468 7.5 7.5 7.5zm0 0"/><path d="m53.492188 76h51.621093c4.140625 0 7.5-3.359375 7.5-7.5s-3.359375-7.5-7.5-7.5h-51.621093c-4.144532 0-7.5 3.359375-7.5 7.5s3.355468 7.5 7.5 7.5zm0 0"/><path d="m53.492188 98h51.621093c4.140625 0 7.5-3.359375 7.5-7.5s-3.359375-7.5-7.5-7.5h-51.621093c-4.144532 0-7.5 3.359375-7.5 7.5s3.355468 7.5 7.5 7.5zm0 0"/><path d="m458.507812 54c4.144532 0 7.5-3.359375 7.5-7.5s-3.355468-7.5-7.5-7.5h-15.621093c-4.140625 0-7.5 3.359375-7.5 7.5s3.359375 7.5 7.5 7.5zm0 0"/><path d="m399.386719 68.5c0 4.140625 3.359375 7.5 7.5 7.5h51.621093c4.144532 0 7.5-3.359375 7.5-7.5s-3.355468-7.5-7.5-7.5h-51.621093c-4.140625 0-7.5 3.359375-7.5 7.5zm0 0"/><path d="m406.886719 98h51.621093c4.144532 0 7.5-3.359375 7.5-7.5s-3.355468-7.5-7.5-7.5h-51.621093c-4.140625 0-7.5 3.359375-7.5 7.5s3.359375 7.5 7.5 7.5zm0 0"/></svg>