<svg height="512pt" viewBox="0 -38 512 512" width="512pt" xmlns="http://www.w3.org/2000/svg"><path d="m129.28125 369.113281h253.441406v58.5h-253.441406zm0 0" fill="#dad0cd"/><path d="m484.5 380.878906h-457c-11.046875 0-20-8.953125-20-20v-286.882812c0-11.046875 8.953125-20 20-20h457c11.046875 0 20 8.953125 20 20v286.882812c0 11.046875-8.953125 20-20 20zm0 0" fill="#209ced"/><path d="m504.5 73.996094v286.882812c0 11.050782-8.949219 20-20 20h-31.660156c11.050781 0 20-8.949218 20-20v-286.882812c0-11.046875-8.949219-20-20-20h31.660156c11.050781 0 20 8.953125 20 20zm0 0" fill="#197ae5"/><path d="m504.5 331.859375v29.019531c0 11.050782-8.949219 20-20 20h-457c-11.050781 0-20-8.949218-20-20v-29.019531zm0 0" fill="#6b97af"/><path d="m504.5 331.859375v29.019531c0 11.050782-8.949219 20-20 20h-31.660156c11.050781 0 20-8.949218 20-20v-29.019531zm0 0" fill="#50758e"/><path d="m395.222656 146.722656c0 76.890625-62.332031 139.222656-139.222656 139.222656s-139.222656-62.332031-139.222656-139.222656 62.332031-139.222656 139.222656-139.222656 139.222656 62.332031 139.222656 139.222656zm0 0" fill="#f6cb43"/><path d="m395.21875 146.726562c0 76.886719-62.328125 139.21875-139.21875 139.21875-5.410156 0-10.738281-.308593-15.980469-.910156 69.351563-7.949218 123.199219-66.839844 123.199219-138.308594 0-71.472656-53.847656-130.363281-123.199219-138.3125 5.242188-.597656 10.570313-.910156 15.980469-.910156 76.890625 0 139.21875 62.332032 139.21875 139.222656zm0 0" fill="#fab03c"/><path d="m484.5 46.496094h-121.398438c-26.945312-28.730469-65.210937-46.496094-107.101562-46.496094-42.183594 0-80.257812 17.902344-107.050781 46.496094h-49.617188c-4.144531 0-7.5 3.359375-7.5 7.5 0 4.144531 3.355469 7.5 7.5 7.5h37.304688c-17.214844 24.039062-27.359375 53.46875-27.359375 85.226562 0 80.902344 65.820312 146.722656 146.722656 146.722656 36.402344 0 71.3125-13.425781 98.304688-37.804687 26.789062-24.199219 43.675781-57.207031 47.546874-92.945313.449219-4.121093-2.53125-7.820312-6.648437-8.265624-4.113281-.441407-7.816406 2.53125-8.261719 6.648437-3.476562 32.074219-18.636718 61.703125-42.691406 83.429687-24.230469 21.882813-55.570312 33.9375-88.25 33.9375-72.632812 0-131.722656-59.089843-131.722656-131.722656 0-72.632812 59.089844-131.722656 131.722656-131.722656 66.273438 0 122.457031 49.507812 130.6875 115.160156.515625 4.109375 4.269531 7.019532 8.375 6.507813 4.109375-.515625 7.023438-4.265625 6.507812-8.375-3.109374-24.824219-12.382812-47.570313-26.148437-66.796875h109.078125c6.894531 0 12.5 5.609375 12.5 12.5v250.359375h-482v-250.359375c0-6.890625 5.605469-12.5 12.5-12.5h39.167969c4.144531 0 7.5-3.355469 7.5-7.5 0-4.140625-3.355469-7.5-7.5-7.5h-39.167969c-15.164062 0-27.5 12.335937-27.5 27.5v286.882812c0 15.164063 12.335938 27.5 27.5 27.5h94.28125v31.734375h-16.113281c-4.144531 0-7.5 3.355469-7.5 7.5 0 4.140625 3.355469 7.5 7.5 7.5h300.664062c4.144531 0 7.5-3.359375 7.5-7.5 0-4.144531-3.355469-7.5-7.5-7.5h-16.113281v-31.734375h18.449219c4.144531 0 7.5-3.359375 7.5-7.5s-3.355469-7.5-7.5-7.5h-381.167969c-6.894531 0-12.5-5.605468-12.5-12.5v-21.523437h482v21.523437c0 6.894532-5.605469 12.5-12.5 12.5h-43.167969c-4.144531 0-7.5 3.359375-7.5 7.5s3.355469 7.5 7.5 7.5h43.167969c15.164062 0 27.5-12.335937 27.5-27.5v-286.882812c0-15.160156-12.335938-27.5-27.5-27.5zm-109.28125 373.617187h-238.4375v-31.734375h238.4375zm0 0"/><path d="m255.949219 348.867188c-4.144531 0-7.5 3.355468-7.5 7.5 0 4.140624 3.355469 7.5 7.5 7.5h.101562c4.144531 0 7.5-3.359376 7.5-7.5 0-4.144532-3.355469-7.5-7.5-7.5zm0 0"/><path d="m256 221.554688c38.734375 0 70.25-31.515626 70.25-70.25 0-4.140626-3.355469-7.5-7.5-7.5-4.140625 0-7.5 3.359374-7.5 7.5 0 30.464843-24.785156 55.25-55.25 55.25s-55.25-24.785157-55.25-55.25c0-4.140626-3.359375-7.5-7.5-7.5-4.144531 0-7.5 3.359374-7.5 7.5 0 38.734374 31.515625 70.25 70.25 70.25zm0 0"/><path d="m194.429688 131.304688h.105468.035156c4.125 0 7.480469-3.335938 7.5-7.464844.019532-4.144532-3.324218-7.515625-7.464843-7.535156h-.105469c-.011719 0-.023438 0-.035156 0-4.125 0-7.480469 3.332031-7.5 7.464843-.019532 4.140625 3.324218 7.515625 7.464844 7.535157zm0 0"/><path d="m317.394531 131.304688h.105469.035156c4.125 0 7.480469-3.335938 7.5-7.464844.019532-4.144532-3.324218-7.515625-7.464844-7.535156h-.105468c-.011719 0-.023438 0-.035156 0-4.125 0-7.480469 3.332031-7.5 7.464843-.019532 4.140625 3.324218 7.515625 7.464843 7.535157zm0 0"/><path d="m422.453125 219.542969c1.445313 2.152343 3.816406 3.3125 6.226563 3.3125 1.441406 0 2.898437-.414063 4.179687-1.277344l21.980469-14.792969c2.070312-1.390625 3.3125-3.722656 3.3125-6.21875s-1.242188-4.832031-3.3125-6.222656l-21.980469-14.792969c-3.433594-2.3125-8.097656-1.398437-10.410156 2.035157-2.3125 3.4375-1.398438 8.097656 2.035156 10.410156l12.734375 8.570312-12.734375 8.566406c-3.433594 2.3125-4.34375 6.972657-2.03125 10.410157zm0 0"/><path d="m53.847656 200.566406c0 2.496094 1.242188 4.828125 3.3125 6.21875l21.980469 14.792969c1.285156.863281 2.738281 1.277344 4.179687 1.277344 2.410157 0 4.78125-1.160157 6.226563-3.3125 2.3125-3.4375 1.402344-8.097657-2.035156-10.410157l-12.730469-8.566406 12.730469-8.570312c3.4375-2.3125 4.347656-6.972656 2.035156-10.410156s-6.972656-4.347657-10.410156-2.035157l-21.976563 14.792969c-2.070312 1.390625-3.3125 3.726562-3.3125 6.222656zm0 0"/></svg>