<svg height="512pt" viewBox="0 -34 512 512" width="512pt" xmlns="http://www.w3.org/2000/svg"><path d="m129.28125 377.773438h253.441406v58.496093h-253.441406zm0 0" fill="#dad0cd"/><path d="m484.5 389.535156h-457c-11.046875 0-20-8.953125-20-20v-286.878906c0-11.046875 8.953125-20 20-20h457c11.046875 0 20 8.953125 20 20v286.878906c0 11.046875-8.953125 20-20 20zm0 0" fill="#fc6393"/><path d="m504.5 82.65625v286.878906c0 11.050782-8.949219 20-20 20h-31.660156c11.050781 0 20-8.949218 20-20v-286.878906c0-11.050781-8.949219-20-20-20h31.660156c11.050781 0 20 8.949219 20 20zm0 0" fill="#f2256f"/><path d="m504.5 340.515625v29.019531c0 11.050782-8.949219 20-20 20h-457c-11.050781 0-20-8.949218-20-20v-29.019531zm0 0" fill="#6b97af"/><path d="m504.5 340.515625v29.019531c0 11.050782-8.949219 20-20 20h-31.660156c11.050781 0 20-8.949218 20-20v-29.019531zm0 0" fill="#50758e"/><path d="m425 17.5v256.308594c0 5.523437-4.476562 10-10 10h-318c-5.523438 0-10-4.476563-10-10v-217.867188c0-5.523437 4.476562-10 10-10h181.558594l13.847656-32.375c1.574219-3.679687 5.191406-6.066406 9.191406-6.066406h113.402344c5.523438 0 10 4.476562 10 10zm0 0" fill="#f6cb43"/><path d="m425 17.5v256.308594c0 5.519531-4.480469 10-10 10h-24c5.519531 0 10-4.480469 10-10v-256.308594c0-5.519531-4.480469-10-10-10h24c5.519531 0 10 4.480469 10 10zm0 0" fill="#fab03c"/><path d="m425 17.5v74h-338v-35.558594c0-5.519531 4.480469-10 10-10h181.558594l13.839844-32.371094c1.582031-3.679687 5.203124-6.070312 9.203124-6.070312h113.398438c5.519531 0 10 4.480469 10 10zm0 0" fill="#f1eded"/><path d="m425 17.5v74h-24v-74c0-5.519531-4.480469-10-10-10h24c5.519531 0 10 4.480469 10 10zm0 0" fill="#dad0cd"/><path d="m349.425781 214.503906c0 51.597656-41.828125 93.429688-93.425781 93.429688s-93.425781-41.832032-93.425781-93.429688 41.828125-93.425781 93.425781-93.425781 93.425781 41.828125 93.425781 93.425781zm0 0" fill="#00e2c7"/><path d="m484.5 55.15625h-52v-37.65625c0-9.648438-7.851562-17.5-17.5-17.5h-113.398438c-7.015624 0-13.332031 4.167969-16.089843 10.621094l-11.898438 27.820312h-176.613281c-9.382812 0-17.046875 7.429688-17.460938 16.714844h-52.039062c-15.164062 0-27.5 12.335938-27.5 27.5v286.878906c0 15.164063 12.335938 27.5 27.5 27.5h94.28125v31.734375h-16.113281c-4.144531 0-7.5 3.359375-7.5 7.5s3.355469 7.5 7.5 7.5h300.664062c4.144531 0 7.5-3.359375 7.5-7.5s-3.355469-7.5-7.5-7.5h-16.109375v-31.734375h94.277344c15.164062 0 27.5-12.335937 27.5-27.5v-286.878906c0-15.164062-12.335938-27.5-27.5-27.5zm-387.5-1.714844h181.5625c3 0 5.714844-1.789062 6.898438-4.550781l13.839843-32.371094c.394531-.921875 1.296875-1.519531 2.300781-1.519531h113.398438c1.378906 0 2.5 1.121094 2.5 2.5v66.5h-323v-28.058594c0-1.378906 1.121094-2.5 2.5-2.5zm-69.5 16.714844h52v117.398438c0 4.140624 3.359375 7.5 7.5 7.5s7.5-3.359376 7.5-7.5v-88.554688h323v25.554688c0 4.140624 3.355469 7.5 7.5 7.5s7.5-3.359376 7.5-7.5v-54.398438h52c6.894531 0 12.5 5.605469 12.5 12.5v250.355469h-482v-250.355469c0-6.894531 5.605469-12.5 12.5-12.5zm457 311.878906h-280.5c-4.140625 0-7.5 3.359375-7.5 7.5 0 4.144532 3.359375 7.5 7.5 7.5h171.222656v31.734375h-238.441406v-31.734375h31.21875c4.140625 0 7.5-3.355468 7.5-7.5 0-4.140625-3.359375-7.5-7.5-7.5h-140.5c-6.894531 0-12.5-5.605468-12.5-12.5v-21.523437h482v21.523437c0 6.894532-5.605469 12.5-12.5 12.5zm0 0"/><path d="m256.085938 357.523438h-.101563c-.011719 0-.023437 0-.039063 0-4.125 0-7.476562 3.335937-7.496093 7.464843-.019531 4.144531 3.320312 7.519531 7.464843 7.535157h.101563.039063c4.125 0 7.476562-3.332032 7.496093-7.464844.019531-4.140625-3.320312-7.515625-7.464843-7.535156zm0 0"/><path d="m97 291.308594h93.601562c17.625 15.035156 40.46875 24.125 65.398438 24.125s47.773438-9.089844 65.398438-24.125h93.601562c9.648438 0 17.5-7.851563 17.5-17.5v-116.59375c0-4.140625-3.355469-7.5-7.5-7.5s-7.5 3.359375-7.5 7.5v116.59375c0 1.378906-1.121094 2.5-2.5 2.5h-79.265625c13.273437-17.089844 21.191406-38.539063 21.191406-61.804688 0-55.648437-45.273437-100.925781-100.925781-100.925781s-100.925781 45.277344-100.925781 100.925781c0 23.265625 7.914062 44.714844 21.191406 61.804688h-79.265625c-1.378906 0-2.5-1.121094-2.5-2.5v-53.59375c0-4.140625-3.359375-7.5-7.5-7.5s-7.5 3.359375-7.5 7.5v53.59375c0 9.648437 7.851562 17.5 17.5 17.5zm95.492188-69.304688c.742187 16.257813 3.875 31.761719 9.125 45.410156-3.078126 1.5625-6.082032 3.242188-8.972657 5.070313-12.421875-13.5625-20.539062-31.113281-22.222656-50.480469zm149.085937 0c-1.683594 19.367188-9.800781 36.917969-22.222656 50.480469-2.890625-1.828125-5.894531-3.507813-8.972657-5.070313 5.25-13.648437 8.382813-29.152343 9.125-45.410156zm-78.078125 47.855469c9.160156.636719 18.136719 2.429687 26.625 5.28125-7.148438 12.53125-16.414062 21.296875-26.625 24.21875zm-15 29.5c-10.210938-2.921875-19.476562-11.6875-26.625-24.21875 8.488281-2.851563 17.464844-4.644531 26.625-5.277344zm-38.660156-14.925781c.851562 1.414062 1.726562 2.78125 2.621094 4.105468-2.855469-1.683593-5.605469-3.519531-8.238282-5.515624 1.207032-.6875 2.429688-1.347657 3.667969-1.984376.632813 1.148438 1.28125 2.285157 1.949219 3.394532zm92.320312 0c.667969-1.109375 1.316406-2.242188 1.945313-3.394532 1.242187.636719 2.464843 1.296876 3.671875 1.988282-2.632813 1.992187-5.382813 3.828125-8.238282 5.511718.894532-1.324218 1.773438-2.691406 2.621094-4.105468zm-5.65625-22.949219c-10.488281-3.691406-21.640625-5.949219-33.003906-6.640625v-32.839844h40.996094c-.742188 14.382813-3.597656 27.875-7.992188 39.480469zm-33.003906-54.480469v-32.835937c11.363281-.695313 22.511719-2.949219 33.003906-6.640625 4.394532 11.605468 7.25 25.097656 7.992188 39.476562zm0-47.855468v-29.5c10.210938 2.925781 19.476562 11.691406 26.625 24.222656-8.488281 2.851562-17.464844 4.644531-26.625 5.277344zm38.660156-14.570313c-.851562-1.417969-1.726562-2.78125-2.621094-4.105469 2.855469 1.683594 5.609376 3.519532 8.242188 5.515625-1.207031.6875-2.433594 1.347657-3.671875 1.984375-.632813-1.152344-1.28125-2.285156-1.949219-3.394531zm-94.269531 3.394531c-1.242187-.636718-2.464844-1.296875-3.671875-1.984375 2.632812-1.996093 5.386719-3.832031 8.242188-5.519531-.894532 1.328125-1.773438 2.691406-2.625 4.105469-.664063 1.113281-1.3125 2.25-1.945313 3.398437zm40.609375-18.324218v29.5c-9.160156-.632813-18.136719-2.425782-26.628906-5.277344 7.148437-12.53125 16.417968-21.296875 26.628906-24.222656zm0 44.519531v32.835937h-40.996094c.742188-14.378906 3.59375-27.871094 7.992188-39.472656 10.488281 3.691406 21.640625 5.945312 33.003906 6.636719zm0 47.835937v32.839844c-11.363281.691406-22.515625 2.945312-33.003906 6.636719-4.394532-11.601563-7.25-25.09375-7.992188-39.476563zm93.078125-15h-22.070313c-.742187-16.257812-3.875-31.757812-9.125-45.40625 3.082032-1.5625 6.082032-3.242187 8.972657-5.066406 12.421875 13.558594 20.539062 31.109375 22.222656 50.472656zm-148.9375-50.472656c2.894531 1.828125 5.894531 3.507812 8.972656 5.070312-5.246093 13.644532-8.378906 29.148438-9.121093 45.402344h-22.070313c1.683594-19.363281 9.800781-36.914062 22.21875-50.472656zm0 0"/><path d="m383.859375 67.878906h.105469.035156c4.125 0 7.480469-3.332031 7.5-7.464844.019531-4.140624-3.320312-7.515624-7.464844-7.535156h-.105468c-.011719 0-.023438 0-.035157 0-4.125 0-7.480469 3.335938-7.5 7.464844-.015625 4.144531 3.324219 7.515625 7.464844 7.535156zm0 0"/><path d="m315.15625 67.882812h47.84375c4.144531 0 7.5-3.359374 7.5-7.5 0-4.144531-3.355469-7.5-7.5-7.5h-47.84375c-4.140625 0-7.5 3.355469-7.5 7.5 0 4.140626 3.359375 7.5 7.5 7.5zm0 0"/></svg>