<svg height="512pt" viewBox="0 -21 512.001 512" width="512pt" xmlns="http://www.w3.org/2000/svg"><path d="m129.28125 403.976562h253.441406v58.496094h-253.441406zm0 0" fill="#dad0cd"/><path d="m484.5 415.742188h-457c-11.046875 0-20-8.953126-20-20v-286.882813c0-11.042969 8.953125-20 20-20h457c11.046875 0 20 8.957031 20 20v286.882813c0 11.046874-8.953125 20-20 20zm0 0" fill="#14f2d7"/><path d="m192.898438 366.71875h-124.515626v-189.078125c0-5.523437 4.476563-10 10-10h104.515626c5.523437 0 10 4.476563 10 10zm0 0" fill="#fab03c"/><path d="m504.5 108.863281v286.878907c0 11.050781-8.949219 20-20 20h-31.660156c11.050781 0 20-8.949219 20-20v-286.878907c0-11.050781-8.949219-20-20-20h31.660156c11.050781 0 20 8.949219 20 20zm0 0" fill="#00e2c7"/><path d="m504.5 366.722656v29.019532c0 11.050781-8.949219 20-20 20h-457c-11.050781 0-20-8.949219-20-20v-29.019532zm0 0" fill="#6b97af"/><path d="m504.5 366.722656v29.019532c0 11.050781-8.949219 20-20 20h-31.660156c11.050781 0 20-8.949219 20-20v-29.019532zm0 0" fill="#50758e"/><path d="m280.886719 32.386719c0 13.742187-11.144531 24.882812-24.886719 24.882812s-24.886719-11.140625-24.886719-24.882812c0-13.746094 11.144531-24.886719 24.886719-24.886719s24.886719 11.140625 24.886719 24.886719zm0 0" fill="#50758e"/><path d="m433.617188 229.640625h-194.777344c-5.523438 0-10-4.476563-10-10v-42c0-5.523437 4.476562-10 10-10h194.777344c5.523437 0 10 4.476563 10 10v42c0 5.523437-4.476563 10-10 10zm0 0" fill="#f1eded"/><path d="m504.5 273.816406c-4.144531 0-7.5 3.359375-7.5 7.5v77.898438h-296.601562v-181.574219c0-9.648437-7.851563-17.5-17.5-17.5h-104.515626c-9.648437 0-17.5 7.851563-17.5 17.5v181.578125h-45.882812v-250.359375c0-6.890625 5.605469-12.5 12.5-12.5h92.171875c4.140625 0 7.5-3.355469 7.5-7.5 0-4.140625-3.359375-7.5-7.5-7.5h-92.171875c-15.164062 0-27.5 12.335937-27.5 27.5v286.882813c0 15.164062 12.335938 27.5 27.5 27.5h94.277344v31.730468h-16.109375c-4.144531 0-7.5 3.359375-7.5 7.5 0 4.144532 3.355469 7.5 7.5 7.5h300.664062c4.144531 0 7.5-3.355468 7.5-7.5 0-4.140625-3.355469-7.5-7.5-7.5h-16.113281v-31.730468h94.28125c15.164062 0 27.5-12.335938 27.5-27.5v-114.425782c0-4.140625-3.355469-7.5-7.5-7.5zm-422.6875 85.398438 103.585938-168.164063v168.164063zm-3.429688-184.074219h99.199219l-101.699219 165.101563v-162.601563c0-1.378906 1.121094-2.5 2.5-2.5zm296.839844 279.832031h-238.445312v-31.730468h238.441406v31.730468zm109.277344-46.730468h-457c-6.894531 0-12.5-5.609376-12.5-12.5v-21.527344h482v21.527344c0 6.890624-5.605469 12.5-12.5 12.5zm0 0"/><path d="m484.5 81.359375h-221v-16.648437c0-.277344-.015625-.546876-.046875-.816407 11.863281-2.804687 21.222656-12.152343 24.046875-24.007812h172.738281c4.140625 0 7.5-3.359375 7.5-7.5 0-4.144531-3.359375-7.5-7.5-7.5h-172.738281c-3.394531-14.253907-16.226562-24.886719-31.5-24.886719s-28.105469 10.632812-31.5 24.886719h-172.734375c-4.144531 0-7.5 3.355469-7.5 7.5 0 4.140625 3.355469 7.5 7.5 7.5h172.738281c2.820313 11.855469 12.179688 21.203125 24.042969 24.007812-.027344.269531-.046875.539063-.046875.816407v16.648437h-96.167969c-4.144531 0-7.5 3.359375-7.5 7.5 0 4.144531 3.355469 7.5 7.5 7.5h96.167969v20.296875c0 4.140625 3.359375 7.5 7.5 7.5 4.144531 0 7.5-3.359375 7.5-7.5v-20.296875h221c6.894531 0 12.5 5.609375 12.5 12.5v139.796875c0 4.144531 3.359375 7.5 7.5 7.5 4.144531 0 7.5-3.355469 7.5-7.5v-139.796875c0-15.164063-12.335938-27.5-27.5-27.5zm-245.886719-48.976563c0-9.585937 7.800781-17.382812 17.386719-17.382812s17.386719 7.796875 17.386719 17.382812c0 9.585938-7.800781 17.386719-17.386719 17.386719s-17.386719-7.800781-17.386719-17.386719zm0 0"/><path d="m256.085938 383.730469h-.101563c-.011719 0-.023437 0-.039063 0-4.125 0-7.476562 3.332031-7.496093 7.464843-.019531 4.140626 3.320312 7.515626 7.464843 7.535157h.101563.039063c4.125 0 7.476562-3.335938 7.496093-7.464844.019531-4.144531-3.320312-7.515625-7.464843-7.535156zm0 0"/><path d="m60.882812 131.640625c0 4.140625 3.355469 7.5 7.5 7.5h127.234376c4.144531 0 7.5-3.359375 7.5-7.5s-3.355469-7.5-7.5-7.5h-127.234376c-4.144531 0-7.5 3.359375-7.5 7.5zm0 0"/><path d="m443.617188 139.140625c4.144531 0 7.5-3.359375 7.5-7.5s-3.355469-7.5-7.5-7.5h-127.234376c-4.144531 0-7.5 3.359375-7.5 7.5s3.355469 7.5 7.5 7.5zm0 0"/><path d="m238.839844 175.140625h29.832031c4.140625 0 7.5-3.359375 7.5-7.5s-3.359375-7.5-7.5-7.5h-29.832031c-9.648438 0-17.5 7.851563-17.5 17.5v42c0 9.648437 7.851562 17.5 17.5 17.5h194.777344c9.648437 0 17.5-7.851563 17.5-17.5v-42c0-9.648437-7.851563-17.5-17.5-17.5h-132.289063c-4.140625 0-7.5 3.359375-7.5 7.5s3.359375 7.5 7.5 7.5h132.289063c1.378906 0 2.5 1.121094 2.5 2.5v42c0 1.378906-1.121094 2.5-2.5 2.5h-194.777344c-1.378906 0-2.5-1.121094-2.5-2.5v-42c0-1.378906 1.121094-2.5 2.5-2.5zm0 0"/><path d="m228.449219 279.140625h.117187.03125c4.128906 0 7.480469-3.339844 7.5-7.46875.015625-4.140625-3.328125-7.515625-7.46875-7.53125h-.121094c-.011718 0-.019531 0-.03125 0-4.125 0-7.480468 3.335937-7.5 7.46875-.015624 4.140625 3.328126 7.515625 7.472657 7.53125zm0 0"/><path d="m306.332031 264.140625h-49.558593c-4.144532 0-7.5 3.359375-7.5 7.5s3.355468 7.5 7.5 7.5h49.558593c4.144531 0 7.5-3.359375 7.5-7.5s-3.355469-7.5-7.5-7.5zm0 0"/><path d="m228.449219 304.523438h.117187.03125c4.128906 0 7.480469-3.339844 7.5-7.46875.015625-4.144532-3.328125-7.515626-7.46875-7.53125h-.121094c-.011718 0-.019531 0-.03125 0-4.125 0-7.480468 3.335937-7.5 7.46875-.015624 4.140624 3.328126 7.511718 7.472657 7.53125zm0 0"/><path d="m306.332031 289.523438h-49.558593c-4.144532 0-7.5 3.355468-7.5 7.5 0 4.140624 3.355468 7.5 7.5 7.5h49.558593c4.144531 0 7.5-3.359376 7.5-7.5 0-4.144532-3.355469-7.5-7.5-7.5zm0 0"/><path d="m228.449219 329.90625h.117187.03125c4.128906 0 7.480469-3.339844 7.5-7.472656.015625-4.140625-3.328125-7.511719-7.46875-7.527344h-.121094c-.011718 0-.019531 0-.03125 0-4.125 0-7.480468 3.335938-7.5 7.46875-.015624 4.140625 3.328126 7.511719 7.472657 7.53125zm0 0"/><path d="m306.332031 314.90625h-49.558593c-4.144532 0-7.5 3.355469-7.5 7.5 0 4.140625 3.355468 7.5 7.5 7.5h49.558593c4.144531 0 7.5-3.359375 7.5-7.5 0-4.144531-3.355469-7.5-7.5-7.5zm0 0"/><path d="m345.914062 264.140625h-.121093c-.007813 0-.019531 0-.03125 0-4.125 0-7.480469 3.335937-7.496094 7.46875-.019531 4.140625 3.324219 7.515625 7.46875 7.53125h.117187.03125c4.128907 0 7.484376-3.339844 7.5-7.46875.015626-4.140625-3.328124-7.515625-7.46875-7.53125zm0 0"/><path d="m443.617188 264.140625h-69.558594c-4.144532 0-7.5 3.359375-7.5 7.5s3.355468 7.5 7.5 7.5h69.558594c4.144531 0 7.5-3.359375 7.5-7.5s-3.355469-7.5-7.5-7.5zm0 0"/><path d="m345.914062 289.523438h-.121093c-.007813 0-.019531 0-.03125 0-4.125 0-7.480469 3.339843-7.496094 7.46875-.019531 4.140624 3.324219 7.515624 7.46875 7.53125h.117187.03125c4.128907 0 7.484376-3.339844 7.5-7.46875.015626-4.144532-3.328124-7.515626-7.46875-7.53125zm0 0"/><path d="m443.617188 289.523438h-69.558594c-4.144532 0-7.5 3.355468-7.5 7.5 0 4.140624 3.355468 7.5 7.5 7.5h69.558594c4.144531 0 7.5-3.359376 7.5-7.5 0-4.144532-3.355469-7.5-7.5-7.5zm0 0"/><path d="m345.792969 314.90625c-.007813 0-.019531 0-.03125 0-4.125 0-7.480469 3.335938-7.496094 7.46875-.019531 4.140625 3.324219 7.511719 7.46875 7.53125h.117187.03125c4.128907 0 7.484376-3.339844 7.5-7.472656.015626-4.140625-3.328124-7.511719-7.46875-7.527344zm0 0"/><path d="m443.617188 314.90625h-69.558594c-4.144532 0-7.5 3.355469-7.5 7.5 0 4.140625 3.355468 7.5 7.5 7.5h69.558594c4.144531 0 7.5-3.359375 7.5-7.5 0-4.144531-3.355469-7.5-7.5-7.5zm0 0"/></svg>