<svg width="231" height="87" viewBox="0 0 231 87" fill="none" xmlns="http://www.w3.org/2000/svg">
<rect opacity="0.214239" x="47.4727" y="0.343506" width="14.7921" height="85.9928" fill="#D2C7FF"/>
<g opacity="0.974563">
<path fill-rule="evenodd" clip-rule="evenodd" d="M61.3034 28.5476H32.4731V43.1998H46.7189C47.1577 43.1998 47.5134 43.5555 47.5134 43.9942V58.3106H32.4731V58.3114H62.0979V29.3421C62.0979 28.9033 61.7422 28.5476 61.3034 28.5476Z" fill="#8E75FF"/>
<path opacity="0.404989" fill-rule="evenodd" clip-rule="evenodd" d="M32.4732 28.5483V43.2013H18.8445C18.4911 43.2013 18.3136 42.7743 18.563 42.5238L32.4732 28.5483Z" fill="#8E75FF"/>
<path opacity="0.404989" fill-rule="evenodd" clip-rule="evenodd" d="M48.1924 72.2826C47.9425 72.5338 47.5136 72.3567 47.5136 72.0024V58.3117H62.0981L48.1924 72.2826Z" fill="#8E75FF"/>
<path opacity="0.404989" d="M32.4731 43.2007H47.1162C47.3356 43.2007 47.5134 43.3785 47.5134 43.5979V58.3115H33.2676C32.8288 58.3115 32.4731 57.9558 32.4731 57.5171V43.2007Z" fill="#8E75FF"/>
</g>
<path fill-rule="evenodd" clip-rule="evenodd" d="M206.867 27.757C207.688 28.5803 208.658 28.9919 209.776 28.9919C210.93 28.9919 211.917 28.5803 212.738 27.757C213.559 26.9337 213.97 25.9616 213.97 24.8405C213.97 23.7194 213.559 22.7385 212.738 21.8977C211.917 21.0569 210.93 20.6365 209.776 20.6365C208.658 20.6365 207.688 21.0569 206.867 21.8977C206.046 22.7385 205.635 23.7194 205.635 24.8405C205.635 25.9616 206.046 26.9337 206.867 27.757ZM118.437 38.5263C118.437 38.6005 118.377 38.6606 118.303 38.6606H112.514V49.591C112.514 50.5019 112.741 51.1675 113.195 51.588C113.65 52.0084 114.314 52.2448 115.187 52.2974C115.987 52.3455 116.961 52.3422 118.111 52.2877C118.16 52.2854 118.232 52.2817 118.296 52.2784C118.373 52.2745 118.437 52.3357 118.437 52.4127V58.2993C118.437 58.3677 118.386 58.4252 118.318 58.4327L118.193 58.4464C113.674 58.9292 110.48 58.4824 108.609 57.1057C106.704 55.7044 105.752 53.1995 105.752 49.591V38.6606H101.326C101.252 38.6606 101.192 38.6005 101.192 38.5263V32.2787C101.192 32.2045 101.252 32.1444 101.326 32.1444H105.752V27.7765C105.752 27.67 105.815 27.5736 105.912 27.5306L112.325 24.7009C112.414 24.6618 112.514 24.7268 112.514 24.8238V32.1444H118.303C118.377 32.1444 118.437 32.2045 118.437 32.2787V38.5263ZM130.698 36.6643C131.327 34.9826 132.366 33.7215 133.817 32.8806C135.144 32.1112 136.61 31.6938 138.215 31.6285C138.299 31.6251 138.43 31.6227 138.53 31.6212C138.604 31.6201 138.665 31.6804 138.665 31.7551V38.9073C138.665 39.0563 138.536 39.171 138.387 39.1575C136.437 38.9807 134.687 39.4108 133.135 40.4479C131.51 41.5339 130.698 43.3381 130.698 45.8605V58.2857C130.698 58.3599 130.638 58.42 130.563 58.42H124.07C123.996 58.42 123.936 58.3599 123.936 58.2857V32.2793C123.936 32.2051 123.996 32.1449 124.07 32.1449H130.563C130.638 32.1449 130.698 32.2051 130.698 32.2793V36.6643ZM162.65 32.1458C162.576 32.1458 162.516 32.206 162.516 32.2802V35.2463C160.489 32.6888 157.641 31.4101 153.972 31.4101C150.477 31.4101 147.481 32.7502 144.982 35.4302C142.483 38.1103 141.234 41.3946 141.234 45.2834C141.234 49.1721 142.483 52.4565 144.982 55.1365C147.481 57.8166 150.477 59.1566 153.972 59.1566C157.641 59.1566 160.489 57.8779 162.516 55.3205V58.2866C162.516 58.3608 162.576 58.4209 162.65 58.4209H169.143C169.218 58.4209 169.278 58.3608 169.278 58.2866V32.2802C169.278 32.206 169.218 32.1458 169.143 32.1458H162.65ZM150.04 50.6424C151.403 52.0087 153.133 52.6918 155.229 52.6918C157.326 52.6918 159.065 51.9999 160.445 50.6161C161.825 49.2323 162.516 47.4543 162.516 45.2822C162.516 43.1102 161.825 41.3322 160.445 39.9484C159.065 38.5646 157.326 37.8727 155.229 37.8727C153.133 37.8727 151.403 38.5646 150.04 39.9484C148.677 41.3322 147.996 43.1102 147.996 45.2822C147.996 47.4543 148.677 49.241 150.04 50.6424ZM198.647 35.4302C196.148 32.7502 193.134 31.4101 189.604 31.4101C185.935 31.4101 183.105 32.6888 181.113 35.2463V32.2802C181.113 32.206 181.053 32.1458 180.978 32.1458H174.485C174.411 32.1458 174.351 32.206 174.351 32.2802V68.7966C174.351 68.8708 174.411 68.9309 174.485 68.9309H180.978C181.053 68.9309 181.113 68.8708 181.113 68.7966V55.3205C183.105 57.8779 185.935 59.1566 189.604 59.1566C193.134 59.1566 196.148 57.8166 198.647 55.1365C201.145 52.4565 202.394 49.1721 202.394 45.2834C202.394 41.3946 201.145 38.1103 198.647 35.4302ZM183.157 50.6424C184.52 52.0087 186.25 52.6918 188.346 52.6918C190.443 52.6918 192.182 51.9999 193.562 50.6161C194.942 49.2323 195.633 47.4543 195.633 45.2822C195.633 43.1102 194.942 41.3322 193.562 39.9484C192.182 38.5646 190.443 37.8727 188.346 37.8727C186.25 37.8727 184.52 38.5646 183.157 39.9484C181.794 41.3322 181.113 43.1102 181.113 45.2822C181.113 47.4543 181.794 49.241 183.157 50.6424ZM206.556 58.42C206.482 58.42 206.422 58.3599 206.422 58.2857V32.2793C206.422 32.2051 206.482 32.145 206.556 32.145H213.049C213.123 32.145 213.184 32.2051 213.184 32.2793V58.2857C213.184 58.3599 213.123 58.42 213.049 58.42H206.556ZM86.6981 41.316C85.772 40.8781 85.309 40.3088 85.309 39.6081C85.309 38.9425 85.5973 38.417 86.1739 38.0316C86.7505 37.6463 87.4756 37.4536 88.3492 37.4536C90.0245 37.4536 91.29 38.1082 92.1457 39.4176C92.2055 39.509 92.3215 39.5459 92.4213 39.5017L98.1485 36.9615C98.2216 36.9291 98.2504 36.8402 98.2096 36.7713C98.1456 36.663 98.0554 36.5117 97.9968 36.4192C97.0188 34.8781 95.7539 33.7301 94.1676 32.8554C92.4204 31.892 90.4809 31.4103 88.3492 31.4103C85.5187 31.4103 83.1512 32.1548 81.2466 33.6437C79.3421 35.1326 78.3899 37.1733 78.3899 39.7658C78.3899 41.4824 78.8529 42.91 79.7789 44.0486C80.705 45.1872 81.832 46.0192 83.1599 46.5448C84.4878 47.0703 85.8157 47.5082 87.1436 47.8585C88.4716 48.2088 89.5985 48.603 90.5246 49.0409C91.4506 49.4788 91.9137 50.0481 91.9137 50.7488C91.9137 52.2552 90.7081 53.0084 88.2968 53.0084C86.0016 53.0084 84.4111 52.1581 83.5253 50.4573L83.5099 50.4274C83.4442 50.297 83.2888 50.2383 83.1553 50.2976L77.4152 52.8473C77.3461 52.878 77.3159 52.9596 77.3487 53.0277C77.3744 53.081 77.4031 53.1401 77.4233 53.1807C79.4115 57.1648 83.0359 59.1568 88.2968 59.1568C91.3021 59.1568 93.8094 58.4299 95.8188 56.976C97.8282 55.5221 98.8328 53.4464 98.8328 50.7488C98.8328 48.9621 98.3698 47.4731 97.4437 46.282C96.5177 45.0909 95.3907 44.2413 94.0628 43.7333C92.7349 43.2253 91.407 42.8049 90.079 42.4721C88.7511 42.1393 87.6241 41.7539 86.6981 41.316Z" fill="#2B2A82"/>
<rect y="28.2056" width="230.825" height="0.343973" fill="#9178FF" fill-opacity="0.6"/>
<rect y="58.1309" width="230.825" height="0.34397" fill="#9178FF" fill-opacity="0.6"/>
<rect y="72.2341" width="230.825" height="0.34397" fill="#9178FF" fill-opacity="0.6"/>
<rect y="86.3372" width="230.825" height="0.34397" fill="#9178FF" fill-opacity="0.6"/>
<rect y="14.103" width="230.825" height="0.34397" fill="#9178FF" fill-opacity="0.6"/>
<rect width="230.825" height="0.343971" fill="#9178FF" fill-opacity="0.6"/>
<rect x="212.938" y="0.343506" width="0.344" height="86.3368" fill="#956EFF"/>
<rect x="230.481" y="0.343506" width="0.344024" height="86.3368" fill="#956EFF"/>
<rect width="0.344002" height="86.6808" fill="#956EFF"/>
<rect x="17.8887" width="0.344001" height="86.6808" fill="#956EFF"/>
<rect x="61.9199" width="0.344" height="86.6808" fill="#956EFF"/>
<rect x="77.0566" width="0.344" height="86.6808" fill="#956EFF"/>
<rect x="47.1289" width="0.344003" height="86.6808" fill="#956EFF"/>
<rect opacity="0.214239" x="0.34375" y="0.343506" width="17.5441" height="85.9928" fill="#D2C7FF"/>
<rect opacity="0.214239" x="62.2646" y="0.343506" width="14.7921" height="85.9928" fill="#D2C7FF"/>
<rect opacity="0.214239" x="212.938" y="0.343506" width="17.5441" height="85.9928" fill="#D2C7FF"/>
<rect opacity="0.214239" x="0.34375" y="72.5776" width="230.481" height="13.7589" fill="#D2C7FF"/>
<rect opacity="0.214239" y="0.343506" width="230.825" height="13.7589" fill="#D2C7FF"/>
</svg>
